M48
; DRILL file {KiCad (6.0.11-0)} date Monday, 20 March 2023 at 11:34:50 am
; FORMAT={-:-/ absolute / metric / decimal}
; #@! TF.CreationDate,2023-03-20T11:34:50+11:00
; #@! TF.GenerationSoftware,Kicad,Pcbnew,(6.0.11-0)
; #@! TF.FileFunction,MixedPlating,1,2
FMAT,2
METRIC
; #@! TA.AperFunction,Plated,PTH,ComponentDrill
T1C0.750
; #@! TA.AperFunction,Plated,PTH,ComponentDrill
T2C1.000
; #@! TA.AperFunction,Plated,PTH,ComponentDrill
T3C1.300
; #@! TA.AperFunction,Plated,PTH,ComponentDrill
T4C3.200
%
G90
G05
T1
X27.4Y13.075
X27.4Y11.075
X27.4Y9.075
X27.4Y7.075
X27.4Y5.075
X37.425Y20.95
X37.45Y6.375
X37.525Y13.65
X39.425Y20.95
X39.45Y6.375
X39.525Y13.65
T2
X9.35Y23.29
X9.35Y20.75
X11.89Y23.29
X11.89Y20.75
X14.43Y23.29
X14.43Y20.75
X16.97Y23.29
X16.97Y20.75
X19.51Y23.29
X19.51Y20.75
X22.05Y23.29
X22.05Y20.75
X24.59Y23.29
X24.59Y20.75
X27.13Y23.29
X27.13Y20.75
X29.67Y23.29
X29.67Y20.75
T3
X3.655Y7.62
X8.735Y7.62
X15.155Y7.62
X20.235Y7.62
T4
X2.95Y26.5
X39.7Y26.5
T0
M30
