  0
SECTION
  2
HEADER
  9
$ANGBASE
  50
0.0
  9
$ANGDIR
  70
1
  9
$MEASUREMENT
  70
1
  0
ENDSEC
  0
SECTION
  2
TABLES
  0
TABLE
  2
LTYPE
  70
4
  0
LTYPE
  5
40F
  2
CONTINUOUS
  70
0
  3
Solid line
  72
65
  73
0
  40
0.0
  0
LTYPE
  5
410
  2
DASHDOT
 70
0
  3
Dash Dot ____ _ ____ _
 72
65
 73
4
 40
2.0
 49
1.25
 49
-0.25
 49
0.25
 49
-0.25
  0
LTYPE
  5
411
  2
DASHED
 70
0
  3
Dashed __ __ __ __ __
 72
65
 73
2
 40
0.75
 49
0.5
 49
-0.25
  0
LTYPE
  5
43B
  2
DOTTED
 70
0
  3
Dotted .  .  .  .
 72
65
 73
2
 40
0.2
 49
0.0
 49
-0.2
  0
ENDTAB
  0
TABLE
  2
STYLE
  70
4
  0
STYLE
  2
KICAD
  70
0
  40
0
  41
1
  42
1
  50
0
  71
0
  3
isocp.shx
  0
STYLE
  2
KICADB
  70
0
  40
0
  41
1
  42
1
  50
0
  71
0
  3
isocp.shx
  0
STYLE
  2
KICADI
  70
0
  40
0
  41
1
  42
1
  50
15
  71
0
  3
isocp.shx
  0
STYLE
  2
KICADBI
  70
0
  40
0
  41
1
  42
1
  50
15
  71
0
  3
isocp.shx
  0
ENDTAB
  0
TABLE
  2
LAYER
  70
1
  0
LAYER
  2
BLACK
  70
0
  62
7
  6
CONTINUOUS
  0
ENDTAB
  0
ENDSEC
  0
SECTION
  2
ENTITIES
0
LINE
8
BLACK
6
CONTINUOUS
10
0.225
20
29.225
11
42.4
21
29.225
0
LINE
8
BLACK
6
CONTINUOUS
10
42.4
20
29.225
11
42.4
21
0.275
0
LINE
8
BLACK
6
CONTINUOUS
10
42.4
20
0.275
11
0.225
21
0.275
0
LINE
8
BLACK
6
CONTINUOUS
10
0.225
20
0.275
11
0.225
21
29.225
0
LINE
8
BLACK
6
CONTINUOUS
10
27.025
20
13.45
11
27.775
21
12.7
0
LINE
8
BLACK
6
CONTINUOUS
10
27.775
20
13.45
11
27.025
21
12.7
0
LINE
8
BLACK
6
CONTINUOUS
10
27.025
20
11.45
11
27.775
21
10.7
0
LINE
8
BLACK
6
CONTINUOUS
10
27.775
20
11.45
11
27.025
21
10.7
0
LINE
8
BLACK
6
CONTINUOUS
10
27.025
20
9.45
11
27.775
21
8.7
0
LINE
8
BLACK
6
CONTINUOUS
10
27.775
20
9.45
11
27.025
21
8.7
0
LINE
8
BLACK
6
CONTINUOUS
10
27.025
20
7.45
11
27.775
21
6.7
0
LINE
8
BLACK
6
CONTINUOUS
10
27.775
20
7.45
11
27.025
21
6.7
0
LINE
8
BLACK
6
CONTINUOUS
10
27.025
20
5.45
11
27.775
21
4.7
0
LINE
8
BLACK
6
CONTINUOUS
10
27.775
20
5.45
11
27.025
21
4.7
0
LINE
8
BLACK
6
CONTINUOUS
10
37.05
20
21.325
11
37.8
21
20.575
0
LINE
8
BLACK
6
CONTINUOUS
10
37.8
20
21.325
11
37.05
21
20.575
0
LINE
8
BLACK
6
CONTINUOUS
10
37.075
20
6.75
11
37.825
21
6
0
LINE
8
BLACK
6
CONTINUOUS
10
37.825
20
6.75
11
37.075
21
6
0
LINE
8
BLACK
6
CONTINUOUS
10
37.15
20
14.025
11
37.9
21
13.275
0
LINE
8
BLACK
6
CONTINUOUS
10
37.9
20
14.025
11
37.15
21
13.275
0
LINE
8
BLACK
6
CONTINUOUS
10
39.05
20
21.325
11
39.8
21
20.575
0
LINE
8
BLACK
6
CONTINUOUS
10
39.8
20
21.325
11
39.05
21
20.575
0
LINE
8
BLACK
6
CONTINUOUS
10
39.075
20
6.75
11
39.825
21
6
0
LINE
8
BLACK
6
CONTINUOUS
10
39.825
20
6.75
11
39.075
21
6
0
LINE
8
BLACK
6
CONTINUOUS
10
39.15
20
14.025
11
39.9
21
13.275
0
LINE
8
BLACK
6
CONTINUOUS
10
39.9
20
14.025
11
39.15
21
13.275
0
CIRCLE
8
BLACK
10
9.35
20
23.29
40
0.5
0
CIRCLE
8
BLACK
10
9.35
20
20.75
40
0.5
0
CIRCLE
8
BLACK
10
11.89
20
23.29
40
0.5
0
CIRCLE
8
BLACK
10
11.89
20
20.75
40
0.5
0
CIRCLE
8
BLACK
10
14.43
20
23.29
40
0.5
0
CIRCLE
8
BLACK
10
14.43
20
20.75
40
0.5
0
CIRCLE
8
BLACK
10
16.97
20
23.29
40
0.5
0
CIRCLE
8
BLACK
10
16.97
20
20.75
40
0.5
0
CIRCLE
8
BLACK
10
19.51
20
23.29
40
0.5
0
CIRCLE
8
BLACK
10
19.51
20
20.75
40
0.5
0
CIRCLE
8
BLACK
10
22.05
20
23.29
40
0.5
0
CIRCLE
8
BLACK
10
22.05
20
20.75
40
0.5
0
CIRCLE
8
BLACK
10
24.59
20
23.29
40
0.5
0
CIRCLE
8
BLACK
10
24.59
20
20.75
40
0.5
0
CIRCLE
8
BLACK
10
27.13
20
23.29
40
0.5
0
CIRCLE
8
BLACK
10
27.13
20
20.75
40
0.5
0
CIRCLE
8
BLACK
10
29.67
20
23.29
40
0.5
0
CIRCLE
8
BLACK
10
29.67
20
20.75
40
0.5
0
LINE
8
BLACK
6
CONTINUOUS
10
3.655
20
8.27
11
3.655
21
6.97
0
LINE
8
BLACK
6
CONTINUOUS
10
3.005
20
7.62
11
4.305
21
7.62
0
LINE
8
BLACK
6
CONTINUOUS
10
8.735
20
8.27
11
8.735
21
6.97
0
LINE
8
BLACK
6
CONTINUOUS
10
8.085
20
7.62
11
9.385
21
7.62
0
LINE
8
BLACK
6
CONTINUOUS
10
15.155
20
8.27
11
15.155
21
6.97
0
LINE
8
BLACK
6
CONTINUOUS
10
14.505
20
7.62
11
15.805
21
7.62
0
LINE
8
BLACK
6
CONTINUOUS
10
20.235
20
8.27
11
20.235
21
6.97
0
LINE
8
BLACK
6
CONTINUOUS
10
19.585
20
7.62
11
20.885
21
7.62
0
LINE
8
BLACK
6
CONTINUOUS
10
4.08138
20
25.3686
11
4.08138
21
27.6314
0
LINE
8
BLACK
6
CONTINUOUS
10
4.08138
20
27.6314
11
1.81862
21
27.6314
0
LINE
8
BLACK
6
CONTINUOUS
10
1.81862
20
27.6314
11
1.81862
21
25.3686
0
LINE
8
BLACK
6
CONTINUOUS
10
1.81862
20
25.3686
11
4.08138
21
25.3686
0
LINE
8
BLACK
6
CONTINUOUS
10
40.8314
20
25.3686
11
40.8314
21
27.6314
0
LINE
8
BLACK
6
CONTINUOUS
10
40.8314
20
27.6314
11
38.5686
21
27.6314
0
LINE
8
BLACK
6
CONTINUOUS
10
38.5686
20
27.6314
11
38.5686
21
25.3686
0
LINE
8
BLACK
6
CONTINUOUS
10
38.5686
20
25.3686
11
40.8314
21
25.3686
0
LINE
8
BLACK
6
CONTINUOUS
10
2.75119
20
-2.87976
11
2.75119
21
-0.879761
0
LINE
8
BLACK
6
CONTINUOUS
10
2.75119
20
-0.879761
11
3.22738
21
-0.879761
0
LINE
8
BLACK
6
CONTINUOUS
10
3.22738
20
-0.879761
11
3.51309
21
-0.975
0
LINE
8
BLACK
6
CONTINUOUS
10
3.51309
20
-0.975
11
3.70357
21
-1.16548
0
LINE
8
BLACK
6
CONTINUOUS
10
3.70357
20
-1.16548
11
3.79881
21
-1.35595
0
LINE
8
BLACK
6
CONTINUOUS
10
3.79881
20
-1.35595
11
3.89405
21
-1.7369
0
LINE
8
BLACK
6
CONTINUOUS
10
3.89405
20
-1.7369
11
3.89405
21
-2.02262
0
LINE
8
BLACK
6
CONTINUOUS
10
3.89405
20
-2.02262
11
3.79881
21
-2.40357
0
LINE
8
BLACK
6
CONTINUOUS
10
3.79881
20
-2.40357
11
3.70357
21
-2.59405
0
LINE
8
BLACK
6
CONTINUOUS
10
3.70357
20
-2.59405
11
3.51309
21
-2.78452
0
LINE
8
BLACK
6
CONTINUOUS
10
3.51309
20
-2.78452
11
3.22738
21
-2.87976
0
LINE
8
BLACK
6
CONTINUOUS
10
3.22738
20
-2.87976
11
2.75119
21
-2.87976
0
LINE
8
BLACK
6
CONTINUOUS
10
4.75119
20
-2.87976
11
4.75119
21
-1.54643
0
LINE
8
BLACK
6
CONTINUOUS
10
4.75119
20
-1.92738
11
4.84643
21
-1.7369
0
LINE
8
BLACK
6
CONTINUOUS
10
4.84643
20
-1.7369
11
4.94167
21
-1.64167
0
LINE
8
BLACK
6
CONTINUOUS
10
4.94167
20
-1.64167
11
5.13214
21
-1.54643
0
LINE
8
BLACK
6
CONTINUOUS
10
5.13214
20
-1.54643
11
5.32262
21
-1.54643
0
LINE
8
BLACK
6
CONTINUOUS
10
5.98928
20
-2.87976
11
5.98928
21
-1.54643
0
LINE
8
BLACK
6
CONTINUOUS
10
5.98928
20
-0.879761
11
5.89405
21
-0.975
0
LINE
8
BLACK
6
CONTINUOUS
10
5.89405
20
-0.975
11
5.98928
21
-1.07024
0
LINE
8
BLACK
6
CONTINUOUS
10
5.98928
20
-1.07024
11
6.08452
21
-0.975
0
LINE
8
BLACK
6
CONTINUOUS
10
6.08452
20
-0.975
11
5.98928
21
-0.879761
0
LINE
8
BLACK
6
CONTINUOUS
10
5.98928
20
-0.879761
11
5.98928
21
-1.07024
0
LINE
8
BLACK
6
CONTINUOUS
10
7.22738
20
-2.87976
11
7.0369
21
-2.78452
0
LINE
8
BLACK
6
CONTINUOUS
10
7.0369
20
-2.78452
11
6.94167
21
-2.59405
0
LINE
8
BLACK
6
CONTINUOUS
10
6.94167
20
-2.59405
11
6.94167
21
-0.879761
0
LINE
8
BLACK
6
CONTINUOUS
10
8.275
20
-2.87976
11
8.08452
21
-2.78452
0
LINE
8
BLACK
6
CONTINUOUS
10
8.08452
20
-2.78452
11
7.98928
21
-2.59405
0
LINE
8
BLACK
6
CONTINUOUS
10
7.98928
20
-2.59405
11
7.98928
21
-0.879761
0
LINE
8
BLACK
6
CONTINUOUS
10
10.5607
20
-2.87976
11
10.5607
21
-0.879761
0
LINE
8
BLACK
6
CONTINUOUS
10
10.5607
20
-0.879761
11
11.2274
21
-2.30833
0
LINE
8
BLACK
6
CONTINUOUS
10
11.2274
20
-2.30833
11
11.894
21
-0.879761
0
LINE
8
BLACK
6
CONTINUOUS
10
11.894
20
-0.879761
11
11.894
21
-2.87976
0
LINE
8
BLACK
6
CONTINUOUS
10
13.7036
20
-2.87976
11
13.7036
21
-1.83214
0
LINE
8
BLACK
6
CONTINUOUS
10
13.7036
20
-1.83214
11
13.6083
21
-1.64167
0
LINE
8
BLACK
6
CONTINUOUS
10
13.6083
20
-1.64167
11
13.4179
21
-1.54643
0
LINE
8
BLACK
6
CONTINUOUS
10
13.4179
20
-1.54643
11
13.0369
21
-1.54643
0
LINE
8
BLACK
6
CONTINUOUS
10
13.0369
20
-1.54643
11
12.8464
21
-1.64167
0
LINE
8
BLACK
6
CONTINUOUS
10
13.7036
20
-2.78452
11
13.5131
21
-2.87976
0
LINE
8
BLACK
6
CONTINUOUS
10
13.5131
20
-2.87976
11
13.0369
21
-2.87976
0
LINE
8
BLACK
6
CONTINUOUS
10
13.0369
20
-2.87976
11
12.8464
21
-2.78452
0
LINE
8
BLACK
6
CONTINUOUS
10
12.8464
20
-2.78452
11
12.7512
21
-2.59405
0
LINE
8
BLACK
6
CONTINUOUS
10
12.7512
20
-2.59405
11
12.7512
21
-2.40357
0
LINE
8
BLACK
6
CONTINUOUS
10
12.7512
20
-2.40357
11
12.8464
21
-2.2131
0
LINE
8
BLACK
6
CONTINUOUS
10
12.8464
20
-2.2131
11
13.0369
21
-2.11786
0
LINE
8
BLACK
6
CONTINUOUS
10
13.0369
20
-2.11786
11
13.5131
21
-2.11786
0
LINE
8
BLACK
6
CONTINUOUS
10
13.5131
20
-2.11786
11
13.7036
21
-2.02262
0
LINE
8
BLACK
6
CONTINUOUS
10
14.656
20
-1.54643
11
14.656
21
-3.54643
0
LINE
8
BLACK
6
CONTINUOUS
10
14.656
20
-1.64167
11
14.8464
21
-1.54643
0
LINE
8
BLACK
6
CONTINUOUS
10
14.8464
20
-1.54643
11
15.2274
21
-1.54643
0
LINE
8
BLACK
6
CONTINUOUS
10
15.2274
20
-1.54643
11
15.4179
21
-1.64167
0
LINE
8
BLACK
6
CONTINUOUS
10
15.4179
20
-1.64167
11
15.5131
21
-1.7369
0
LINE
8
BLACK
6
CONTINUOUS
10
15.5131
20
-1.7369
11
15.6083
21
-1.92738
0
LINE
8
BLACK
6
CONTINUOUS
10
15.6083
20
-1.92738
11
15.6083
21
-2.49881
0
LINE
8
BLACK
6
CONTINUOUS
10
15.6083
20
-2.49881
11
15.5131
21
-2.68928
0
LINE
8
BLACK
6
CONTINUOUS
10
15.5131
20
-2.68928
11
15.4179
21
-2.78452
0
LINE
8
BLACK
6
CONTINUOUS
10
15.4179
20
-2.78452
11
15.2274
21
-2.87976
0
LINE
8
BLACK
6
CONTINUOUS
10
15.2274
20
-2.87976
11
14.8464
21
-2.87976
0
LINE
8
BLACK
6
CONTINUOUS
10
14.8464
20
-2.87976
11
14.656
21
-2.78452
0
LINE
8
BLACK
6
CONTINUOUS
10
16.4655
20
-2.68928
11
16.5607
21
-2.78452
0
LINE
8
BLACK
6
CONTINUOUS
10
16.5607
20
-2.78452
11
16.4655
21
-2.87976
0
LINE
8
BLACK
6
CONTINUOUS
10
16.4655
20
-2.87976
11
16.3702
21
-2.78452
0
LINE
8
BLACK
6
CONTINUOUS
10
16.3702
20
-2.78452
11
16.4655
21
-2.68928
0
LINE
8
BLACK
6
CONTINUOUS
10
16.4655
20
-2.68928
11
16.4655
21
-2.87976
0
LINE
8
BLACK
6
CONTINUOUS
10
16.4655
20
-1.64167
11
16.5607
21
-1.7369
0
LINE
8
BLACK
6
CONTINUOUS
10
16.5607
20
-1.7369
11
16.4655
21
-1.83214
0
LINE
8
BLACK
6
CONTINUOUS
10
16.4655
20
-1.83214
11
16.3702
21
-1.7369
0
LINE
8
BLACK
6
CONTINUOUS
10
16.3702
20
-1.7369
11
16.4655
21
-1.64167
0
LINE
8
BLACK
6
CONTINUOUS
10
16.4655
20
-1.64167
11
16.4655
21
-1.83214
0
LINE
8
BLACK
6
CONTINUOUS
10
-0.575
20
-5.8
11
0.175
21
-6.55
0
LINE
8
BLACK
6
CONTINUOUS
10
0.175
20
-5.8
11
-0.575
21
-6.55
0
LINE
8
BLACK
6
CONTINUOUS
10
3.13214
20
-5.07976
11
3.32262
21
-5.07976
0
LINE
8
BLACK
6
CONTINUOUS
10
3.32262
20
-5.07976
11
3.51309
21
-5.175
0
LINE
8
BLACK
6
CONTINUOUS
10
3.51309
20
-5.175
11
3.60833
21
-5.27024
0
LINE
8
BLACK
6
CONTINUOUS
10
3.60833
20
-5.27024
11
3.70357
21
-5.46071
0
LINE
8
BLACK
6
CONTINUOUS
10
3.70357
20
-5.46071
11
3.79881
21
-5.84167
0
LINE
8
BLACK
6
CONTINUOUS
10
3.79881
20
-5.84167
11
3.79881
21
-6.31786
0
LINE
8
BLACK
6
CONTINUOUS
10
3.79881
20
-6.31786
11
3.70357
21
-6.69881
0
LINE
8
BLACK
6
CONTINUOUS
10
3.70357
20
-6.69881
11
3.60833
21
-6.88929
0
LINE
8
BLACK
6
CONTINUOUS
10
3.60833
20
-6.88929
11
3.51309
21
-6.98452
0
LINE
8
BLACK
6
CONTINUOUS
10
3.51309
20
-6.98452
11
3.32262
21
-7.07976
0
LINE
8
BLACK
6
CONTINUOUS
10
3.32262
20
-7.07976
11
3.13214
21
-7.07976
0
LINE
8
BLACK
6
CONTINUOUS
10
3.13214
20
-7.07976
11
2.94167
21
-6.98452
0
LINE
8
BLACK
6
CONTINUOUS
10
2.94167
20
-6.98452
11
2.84643
21
-6.88929
0
LINE
8
BLACK
6
CONTINUOUS
10
2.84643
20
-6.88929
11
2.75119
21
-6.69881
0
LINE
8
BLACK
6
CONTINUOUS
10
2.75119
20
-6.69881
11
2.65595
21
-6.31786
0
LINE
8
BLACK
6
CONTINUOUS
10
2.65595
20
-6.31786
11
2.65595
21
-5.84167
0
LINE
8
BLACK
6
CONTINUOUS
10
2.65595
20
-5.84167
11
2.75119
21
-5.46071
0
LINE
8
BLACK
6
CONTINUOUS
10
2.75119
20
-5.46071
11
2.84643
21
-5.27024
0
LINE
8
BLACK
6
CONTINUOUS
10
2.84643
20
-5.27024
11
2.94167
21
-5.175
0
LINE
8
BLACK
6
CONTINUOUS
10
2.94167
20
-5.175
11
3.13214
21
-5.07976
0
LINE
8
BLACK
6
CONTINUOUS
10
4.65595
20
-6.88929
11
4.75119
21
-6.98452
0
LINE
8
BLACK
6
CONTINUOUS
10
4.75119
20
-6.98452
11
4.65595
21
-7.07976
0
LINE
8
BLACK
6
CONTINUOUS
10
4.65595
20
-7.07976
11
4.56071
21
-6.98452
0
LINE
8
BLACK
6
CONTINUOUS
10
4.56071
20
-6.98452
11
4.65595
21
-6.88929
0
LINE
8
BLACK
6
CONTINUOUS
10
4.65595
20
-6.88929
11
4.65595
21
-7.07976
0
LINE
8
BLACK
6
CONTINUOUS
10
5.41786
20
-5.07976
11
6.75119
21
-5.07976
0
LINE
8
BLACK
6
CONTINUOUS
10
6.75119
20
-5.07976
11
5.89405
21
-7.07976
0
LINE
8
BLACK
6
CONTINUOUS
10
8.46548
20
-5.07976
11
7.51309
21
-5.07976
0
LINE
8
BLACK
6
CONTINUOUS
10
7.51309
20
-5.07976
11
7.41786
21
-6.03214
0
LINE
8
BLACK
6
CONTINUOUS
10
7.41786
20
-6.03214
11
7.51309
21
-5.9369
0
LINE
8
BLACK
6
CONTINUOUS
10
7.51309
20
-5.9369
11
7.70357
21
-5.84167
0
LINE
8
BLACK
6
CONTINUOUS
10
7.70357
20
-5.84167
11
8.17976
21
-5.84167
0
LINE
8
BLACK
6
CONTINUOUS
10
8.17976
20
-5.84167
11
8.37024
21
-5.9369
0
LINE
8
BLACK
6
CONTINUOUS
10
8.37024
20
-5.9369
11
8.46548
21
-6.03214
0
LINE
8
BLACK
6
CONTINUOUS
10
8.46548
20
-6.03214
11
8.56071
21
-6.22262
0
LINE
8
BLACK
6
CONTINUOUS
10
8.56071
20
-6.22262
11
8.56071
21
-6.69881
0
LINE
8
BLACK
6
CONTINUOUS
10
8.56071
20
-6.69881
11
8.46548
21
-6.88929
0
LINE
8
BLACK
6
CONTINUOUS
10
8.46548
20
-6.88929
11
8.37024
21
-6.98452
0
LINE
8
BLACK
6
CONTINUOUS
10
8.37024
20
-6.98452
11
8.17976
21
-7.07976
0
LINE
8
BLACK
6
CONTINUOUS
10
8.17976
20
-7.07976
11
7.70357
21
-7.07976
0
LINE
8
BLACK
6
CONTINUOUS
10
7.70357
20
-7.07976
11
7.51309
21
-6.98452
0
LINE
8
BLACK
6
CONTINUOUS
10
7.51309
20
-6.98452
11
7.41786
21
-6.88929
0
LINE
8
BLACK
6
CONTINUOUS
10
9.79881
20
-5.07976
11
9.98928
21
-5.07976
0
LINE
8
BLACK
6
CONTINUOUS
10
9.98928
20
-5.07976
11
10.1798
21
-5.175
0
LINE
8
BLACK
6
CONTINUOUS
10
10.1798
20
-5.175
11
10.275
21
-5.27024
0
LINE
8
BLACK
6
CONTINUOUS
10
10.275
20
-5.27024
11
10.3702
21
-5.46071
0
LINE
8
BLACK
6
CONTINUOUS
10
10.3702
20
-5.46071
11
10.4655
21
-5.84167
0
LINE
8
BLACK
6
CONTINUOUS
10
10.4655
20
-5.84167
11
10.4655
21
-6.31786
0
LINE
8
BLACK
6
CONTINUOUS
10
10.4655
20
-6.31786
11
10.3702
21
-6.69881
0
LINE
8
BLACK
6
CONTINUOUS
10
10.3702
20
-6.69881
11
10.275
21
-6.88929
0
LINE
8
BLACK
6
CONTINUOUS
10
10.275
20
-6.88929
11
10.1798
21
-6.98452
0
LINE
8
BLACK
6
CONTINUOUS
10
10.1798
20
-6.98452
11
9.98928
21
-7.07976
0
LINE
8
BLACK
6
CONTINUOUS
10
9.98928
20
-7.07976
11
9.79881
21
-7.07976
0
LINE
8
BLACK
6
CONTINUOUS
10
9.79881
20
-7.07976
11
9.60833
21
-6.98452
0
LINE
8
BLACK
6
CONTINUOUS
10
9.60833
20
-6.98452
11
9.51309
21
-6.88929
0
LINE
8
BLACK
6
CONTINUOUS
10
9.51309
20
-6.88929
11
9.41786
21
-6.69881
0
LINE
8
BLACK
6
CONTINUOUS
10
9.41786
20
-6.69881
11
9.32262
21
-6.31786
0
LINE
8
BLACK
6
CONTINUOUS
10
9.32262
20
-6.31786
11
9.32262
21
-5.84167
0
LINE
8
BLACK
6
CONTINUOUS
10
9.32262
20
-5.84167
11
9.41786
21
-5.46071
0
LINE
8
BLACK
6
CONTINUOUS
10
9.41786
20
-5.46071
11
9.51309
21
-5.27024
0
LINE
8
BLACK
6
CONTINUOUS
10
9.51309
20
-5.27024
11
9.60833
21
-5.175
0
LINE
8
BLACK
6
CONTINUOUS
10
9.60833
20
-5.175
11
9.79881
21
-5.07976
0
LINE
8
BLACK
6
CONTINUOUS
10
11.3226
20
-7.07976
11
11.3226
21
-5.74643
0
LINE
8
BLACK
6
CONTINUOUS
10
11.3226
20
-5.9369
11
11.4179
21
-5.84167
0
LINE
8
BLACK
6
CONTINUOUS
10
11.4179
20
-5.84167
11
11.6083
21
-5.74643
0
LINE
8
BLACK
6
CONTINUOUS
10
11.6083
20
-5.74643
11
11.894
21
-5.74643
0
LINE
8
BLACK
6
CONTINUOUS
10
11.894
20
-5.74643
11
12.0845
21
-5.84167
0
LINE
8
BLACK
6
CONTINUOUS
10
12.0845
20
-5.84167
11
12.1798
21
-6.03214
0
LINE
8
BLACK
6
CONTINUOUS
10
12.1798
20
-6.03214
11
12.1798
21
-7.07976
0
LINE
8
BLACK
6
CONTINUOUS
10
12.1798
20
-6.03214
11
12.275
21
-5.84167
0
LINE
8
BLACK
6
CONTINUOUS
10
12.275
20
-5.84167
11
12.4655
21
-5.74643
0
LINE
8
BLACK
6
CONTINUOUS
10
12.4655
20
-5.74643
11
12.7512
21
-5.74643
0
LINE
8
BLACK
6
CONTINUOUS
10
12.7512
20
-5.74643
11
12.9417
21
-5.84167
0
LINE
8
BLACK
6
CONTINUOUS
10
12.9417
20
-5.84167
11
13.0369
21
-6.03214
0
LINE
8
BLACK
6
CONTINUOUS
10
13.0369
20
-6.03214
11
13.0369
21
-7.07976
0
LINE
8
BLACK
6
CONTINUOUS
10
13.9893
20
-7.07976
11
13.9893
21
-5.74643
0
LINE
8
BLACK
6
CONTINUOUS
10
13.9893
20
-5.9369
11
14.0845
21
-5.84167
0
LINE
8
BLACK
6
CONTINUOUS
10
14.0845
20
-5.84167
11
14.275
21
-5.74643
0
LINE
8
BLACK
6
CONTINUOUS
10
14.275
20
-5.74643
11
14.5607
21
-5.74643
0
LINE
8
BLACK
6
CONTINUOUS
10
14.5607
20
-5.74643
11
14.7512
21
-5.84167
0
LINE
8
BLACK
6
CONTINUOUS
10
14.7512
20
-5.84167
11
14.8464
21
-6.03214
0
LINE
8
BLACK
6
CONTINUOUS
10
14.8464
20
-6.03214
11
14.8464
21
-7.07976
0
LINE
8
BLACK
6
CONTINUOUS
10
14.8464
20
-6.03214
11
14.9417
21
-5.84167
0
LINE
8
BLACK
6
CONTINUOUS
10
14.9417
20
-5.84167
11
15.1321
21
-5.74643
0
LINE
8
BLACK
6
CONTINUOUS
10
15.1321
20
-5.74643
11
15.4179
21
-5.74643
0
LINE
8
BLACK
6
CONTINUOUS
10
15.4179
20
-5.74643
11
15.6083
21
-5.84167
0
LINE
8
BLACK
6
CONTINUOUS
10
15.6083
20
-5.84167
11
15.7036
21
-6.03214
0
LINE
8
BLACK
6
CONTINUOUS
10
15.7036
20
-6.03214
11
15.7036
21
-7.07976
0
LINE
8
BLACK
6
CONTINUOUS
10
19.6083
20
-4.98452
11
17.894
21
-7.55595
0
LINE
8
BLACK
6
CONTINUOUS
10
22.1798
20
-5.07976
11
22.3702
21
-5.07976
0
LINE
8
BLACK
6
CONTINUOUS
10
22.3702
20
-5.07976
11
22.5607
21
-5.175
0
LINE
8
BLACK
6
CONTINUOUS
10
22.5607
20
-5.175
11
22.656
21
-5.27024
0
LINE
8
BLACK
6
CONTINUOUS
10
22.656
20
-5.27024
11
22.7512
21
-5.46071
0
LINE
8
BLACK
6
CONTINUOUS
10
22.7512
20
-5.46071
11
22.8464
21
-5.84167
0
LINE
8
BLACK
6
CONTINUOUS
10
22.8464
20
-5.84167
11
22.8464
21
-6.31786
0
LINE
8
BLACK
6
CONTINUOUS
10
22.8464
20
-6.31786
11
22.7512
21
-6.69881
0
LINE
8
BLACK
6
CONTINUOUS
10
22.7512
20
-6.69881
11
22.656
21
-6.88929
0
LINE
8
BLACK
6
CONTINUOUS
10
22.656
20
-6.88929
11
22.5607
21
-6.98452
0
LINE
8
BLACK
6
CONTINUOUS
10
22.5607
20
-6.98452
11
22.3702
21
-7.07976
0
LINE
8
BLACK
6
CONTINUOUS
10
22.3702
20
-7.07976
11
22.1798
21
-7.07976
0
LINE
8
BLACK
6
CONTINUOUS
10
22.1798
20
-7.07976
11
21.9893
21
-6.98452
0
LINE
8
BLACK
6
CONTINUOUS
10
21.9893
20
-6.98452
11
21.894
21
-6.88929
0
LINE
8
BLACK
6
CONTINUOUS
10
21.894
20
-6.88929
11
21.7988
21
-6.69881
0
LINE
8
BLACK
6
CONTINUOUS
10
21.7988
20
-6.69881
11
21.7036
21
-6.31786
0
LINE
8
BLACK
6
CONTINUOUS
10
21.7036
20
-6.31786
11
21.7036
21
-5.84167
0
LINE
8
BLACK
6
CONTINUOUS
10
21.7036
20
-5.84167
11
21.7988
21
-5.46071
0
LINE
8
BLACK
6
CONTINUOUS
10
21.7988
20
-5.46071
11
21.894
21
-5.27024
0
LINE
8
BLACK
6
CONTINUOUS
10
21.894
20
-5.27024
11
21.9893
21
-5.175
0
LINE
8
BLACK
6
CONTINUOUS
10
21.9893
20
-5.175
11
22.1798
21
-5.07976
0
LINE
8
BLACK
6
CONTINUOUS
10
23.7036
20
-6.88929
11
23.7988
21
-6.98452
0
LINE
8
BLACK
6
CONTINUOUS
10
23.7988
20
-6.98452
11
23.7036
21
-7.07976
0
LINE
8
BLACK
6
CONTINUOUS
10
23.7036
20
-7.07976
11
23.6083
21
-6.98452
0
LINE
8
BLACK
6
CONTINUOUS
10
23.6083
20
-6.98452
11
23.7036
21
-6.88929
0
LINE
8
BLACK
6
CONTINUOUS
10
23.7036
20
-6.88929
11
23.7036
21
-7.07976
0
LINE
8
BLACK
6
CONTINUOUS
10
25.0369
20
-5.07976
11
25.2274
21
-5.07976
0
LINE
8
BLACK
6
CONTINUOUS
10
25.2274
20
-5.07976
11
25.4179
21
-5.175
0
LINE
8
BLACK
6
CONTINUOUS
10
25.4179
20
-5.175
11
25.5131
21
-5.27024
0
LINE
8
BLACK
6
CONTINUOUS
10
25.5131
20
-5.27024
11
25.6083
21
-5.46071
0
LINE
8
BLACK
6
CONTINUOUS
10
25.6083
20
-5.46071
11
25.7036
21
-5.84167
0
LINE
8
BLACK
6
CONTINUOUS
10
25.7036
20
-5.84167
11
25.7036
21
-6.31786
0
LINE
8
BLACK
6
CONTINUOUS
10
25.7036
20
-6.31786
11
25.6083
21
-6.69881
0
LINE
8
BLACK
6
CONTINUOUS
10
25.6083
20
-6.69881
11
25.5131
21
-6.88929
0
LINE
8
BLACK
6
CONTINUOUS
10
25.5131
20
-6.88929
11
25.4179
21
-6.98452
0
LINE
8
BLACK
6
CONTINUOUS
10
25.4179
20
-6.98452
11
25.2274
21
-7.07976
0
LINE
8
BLACK
6
CONTINUOUS
10
25.2274
20
-7.07976
11
25.0369
21
-7.07976
0
LINE
8
BLACK
6
CONTINUOUS
10
25.0369
20
-7.07976
11
24.8464
21
-6.98452
0
LINE
8
BLACK
6
CONTINUOUS
10
24.8464
20
-6.98452
11
24.7512
21
-6.88929
0
LINE
8
BLACK
6
CONTINUOUS
10
24.7512
20
-6.88929
11
24.656
21
-6.69881
0
LINE
8
BLACK
6
CONTINUOUS
10
24.656
20
-6.69881
11
24.5607
21
-6.31786
0
LINE
8
BLACK
6
CONTINUOUS
10
24.5607
20
-6.31786
11
24.5607
21
-5.84167
0
LINE
8
BLACK
6
CONTINUOUS
10
24.5607
20
-5.84167
11
24.656
21
-5.46071
0
LINE
8
BLACK
6
CONTINUOUS
10
24.656
20
-5.46071
11
24.7512
21
-5.27024
0
LINE
8
BLACK
6
CONTINUOUS
10
24.7512
20
-5.27024
11
24.8464
21
-5.175
0
LINE
8
BLACK
6
CONTINUOUS
10
24.8464
20
-5.175
11
25.0369
21
-5.07976
0
LINE
8
BLACK
6
CONTINUOUS
10
26.4655
20
-5.27024
11
26.5607
21
-5.175
0
LINE
8
BLACK
6
CONTINUOUS
10
26.5607
20
-5.175
11
26.7512
21
-5.07976
0
LINE
8
BLACK
6
CONTINUOUS
10
26.7512
20
-5.07976
11
27.2274
21
-5.07976
0
LINE
8
BLACK
6
CONTINUOUS
10
27.2274
20
-5.07976
11
27.4179
21
-5.175
0
LINE
8
BLACK
6
CONTINUOUS
10
27.4179
20
-5.175
11
27.5131
21
-5.27024
0
LINE
8
BLACK
6
CONTINUOUS
10
27.5131
20
-5.27024
11
27.6083
21
-5.46071
0
LINE
8
BLACK
6
CONTINUOUS
10
27.6083
20
-5.46071
11
27.6083
21
-5.65119
0
LINE
8
BLACK
6
CONTINUOUS
10
27.6083
20
-5.65119
11
27.5131
21
-5.9369
0
LINE
8
BLACK
6
CONTINUOUS
10
27.5131
20
-5.9369
11
26.3702
21
-7.07976
0
LINE
8
BLACK
6
CONTINUOUS
10
26.3702
20
-7.07976
11
27.6083
21
-7.07976
0
LINE
8
BLACK
6
CONTINUOUS
10
28.5607
20
-7.07976
11
28.9417
21
-7.07976
0
LINE
8
BLACK
6
CONTINUOUS
10
28.9417
20
-7.07976
11
29.1321
21
-6.98452
0
LINE
8
BLACK
6
CONTINUOUS
10
29.1321
20
-6.98452
11
29.2274
21
-6.88929
0
LINE
8
BLACK
6
CONTINUOUS
10
29.2274
20
-6.88929
11
29.4179
21
-6.60357
0
LINE
8
BLACK
6
CONTINUOUS
10
29.4179
20
-6.60357
11
29.5131
21
-6.22262
0
LINE
8
BLACK
6
CONTINUOUS
10
29.5131
20
-6.22262
11
29.5131
21
-5.46071
0
LINE
8
BLACK
6
CONTINUOUS
10
29.5131
20
-5.46071
11
29.4179
21
-5.27024
0
LINE
8
BLACK
6
CONTINUOUS
10
29.4179
20
-5.27024
11
29.3226
21
-5.175
0
LINE
8
BLACK
6
CONTINUOUS
10
29.3226
20
-5.175
11
29.1321
21
-5.07976
0
LINE
8
BLACK
6
CONTINUOUS
10
29.1321
20
-5.07976
11
28.7512
21
-5.07976
0
LINE
8
BLACK
6
CONTINUOUS
10
28.7512
20
-5.07976
11
28.5607
21
-5.175
0
LINE
8
BLACK
6
CONTINUOUS
10
28.5607
20
-5.175
11
28.4655
21
-5.27024
0
LINE
8
BLACK
6
CONTINUOUS
10
28.4655
20
-5.27024
11
28.3702
21
-5.46071
0
LINE
8
BLACK
6
CONTINUOUS
10
28.3702
20
-5.46071
11
28.3702
21
-5.9369
0
LINE
8
BLACK
6
CONTINUOUS
10
28.3702
20
-5.9369
11
28.4655
21
-6.12738
0
LINE
8
BLACK
6
CONTINUOUS
10
28.4655
20
-6.12738
11
28.5607
21
-6.22262
0
LINE
8
BLACK
6
CONTINUOUS
10
28.5607
20
-6.22262
11
28.7512
21
-6.31786
0
LINE
8
BLACK
6
CONTINUOUS
10
28.7512
20
-6.31786
11
29.1321
21
-6.31786
0
LINE
8
BLACK
6
CONTINUOUS
10
29.1321
20
-6.31786
11
29.3226
21
-6.22262
0
LINE
8
BLACK
6
CONTINUOUS
10
29.3226
20
-6.22262
11
29.4179
21
-6.12738
0
LINE
8
BLACK
6
CONTINUOUS
10
29.4179
20
-6.12738
11
29.5131
21
-5.9369
0
LINE
8
BLACK
6
CONTINUOUS
10
31.3226
20
-5.07976
11
30.3702
21
-5.07976
0
LINE
8
BLACK
6
CONTINUOUS
10
30.3702
20
-5.07976
11
30.275
21
-6.03214
0
LINE
8
BLACK
6
CONTINUOUS
10
30.275
20
-6.03214
11
30.3702
21
-5.9369
0
LINE
8
BLACK
6
CONTINUOUS
10
30.3702
20
-5.9369
11
30.5607
21
-5.84167
0
LINE
8
BLACK
6
CONTINUOUS
10
30.5607
20
-5.84167
11
31.0369
21
-5.84167
0
LINE
8
BLACK
6
CONTINUOUS
10
31.0369
20
-5.84167
11
31.2274
21
-5.9369
0
LINE
8
BLACK
6
CONTINUOUS
10
31.2274
20
-5.9369
11
31.3226
21
-6.03214
0
LINE
8
BLACK
6
CONTINUOUS
10
31.3226
20
-6.03214
11
31.4179
21
-6.22262
0
LINE
8
BLACK
6
CONTINUOUS
10
31.4179
20
-6.22262
11
31.4179
21
-6.69881
0
LINE
8
BLACK
6
CONTINUOUS
10
31.4179
20
-6.69881
11
31.3226
21
-6.88929
0
LINE
8
BLACK
6
CONTINUOUS
10
31.3226
20
-6.88929
11
31.2274
21
-6.98452
0
LINE
8
BLACK
6
CONTINUOUS
10
31.2274
20
-6.98452
11
31.0369
21
-7.07976
0
LINE
8
BLACK
6
CONTINUOUS
10
31.0369
20
-7.07976
11
30.5607
21
-7.07976
0
LINE
8
BLACK
6
CONTINUOUS
10
30.5607
20
-7.07976
11
30.3702
21
-6.98452
0
LINE
8
BLACK
6
CONTINUOUS
10
30.3702
20
-6.98452
11
30.275
21
-6.88929
0
LINE
8
BLACK
6
CONTINUOUS
10
32.1798
20
-5.07976
11
32.1798
21
-5.46071
0
LINE
8
BLACK
6
CONTINUOUS
10
32.9417
20
-5.07976
11
32.9417
21
-5.46071
0
LINE
8
BLACK
6
CONTINUOUS
10
35.894
20
-7.84167
11
35.7988
21
-7.74643
0
LINE
8
BLACK
6
CONTINUOUS
10
35.7988
20
-7.74643
11
35.6083
21
-7.46071
0
LINE
8
BLACK
6
CONTINUOUS
10
35.6083
20
-7.46071
11
35.5131
21
-7.27024
0
LINE
8
BLACK
6
CONTINUOUS
10
35.5131
20
-7.27024
11
35.4179
21
-6.98452
0
LINE
8
BLACK
6
CONTINUOUS
10
35.4179
20
-6.98452
11
35.3226
21
-6.50833
0
LINE
8
BLACK
6
CONTINUOUS
10
35.3226
20
-6.50833
11
35.3226
21
-6.12738
0
LINE
8
BLACK
6
CONTINUOUS
10
35.3226
20
-6.12738
11
35.4179
21
-5.65119
0
LINE
8
BLACK
6
CONTINUOUS
10
35.4179
20
-5.65119
11
35.5131
21
-5.36548
0
LINE
8
BLACK
6
CONTINUOUS
10
35.5131
20
-5.36548
11
35.6083
21
-5.175
0
LINE
8
BLACK
6
CONTINUOUS
10
35.6083
20
-5.175
11
35.7988
21
-4.88929
0
LINE
8
BLACK
6
CONTINUOUS
10
35.7988
20
-4.88929
11
35.894
21
-4.79405
0
LINE
8
BLACK
6
CONTINUOUS
10
37.7036
20
-7.07976
11
36.5607
21
-7.07976
0
LINE
8
BLACK
6
CONTINUOUS
10
37.1321
20
-7.07976
11
37.1321
21
-5.07976
0
LINE
8
BLACK
6
CONTINUOUS
10
37.1321
20
-5.07976
11
36.9417
21
-5.36548
0
LINE
8
BLACK
6
CONTINUOUS
10
36.9417
20
-5.36548
11
36.7512
21
-5.55595
0
LINE
8
BLACK
6
CONTINUOUS
10
36.7512
20
-5.55595
11
36.5607
21
-5.65119
0
LINE
8
BLACK
6
CONTINUOUS
10
39.6083
20
-7.07976
11
38.4655
21
-7.07976
0
LINE
8
BLACK
6
CONTINUOUS
10
39.0369
20
-7.07976
11
39.0369
21
-5.07976
0
LINE
8
BLACK
6
CONTINUOUS
10
39.0369
20
-5.07976
11
38.8464
21
-5.36548
0
LINE
8
BLACK
6
CONTINUOUS
10
38.8464
20
-5.36548
11
38.656
21
-5.55595
0
LINE
8
BLACK
6
CONTINUOUS
10
38.656
20
-5.55595
11
38.4655
21
-5.65119
0
LINE
8
BLACK
6
CONTINUOUS
10
41.9893
20
-7.07976
11
41.9893
21
-5.07976
0
LINE
8
BLACK
6
CONTINUOUS
10
42.8464
20
-7.07976
11
42.8464
21
-6.03214
0
LINE
8
BLACK
6
CONTINUOUS
10
42.8464
20
-6.03214
11
42.7512
21
-5.84167
0
LINE
8
BLACK
6
CONTINUOUS
10
42.7512
20
-5.84167
11
42.5607
21
-5.74643
0
LINE
8
BLACK
6
CONTINUOUS
10
42.5607
20
-5.74643
11
42.275
21
-5.74643
0
LINE
8
BLACK
6
CONTINUOUS
10
42.275
20
-5.74643
11
42.0845
21
-5.84167
0
LINE
8
BLACK
6
CONTINUOUS
10
42.0845
20
-5.84167
11
41.9893
21
-5.9369
0
LINE
8
BLACK
6
CONTINUOUS
10
44.0845
20
-7.07976
11
43.894
21
-6.98452
0
LINE
8
BLACK
6
CONTINUOUS
10
43.894
20
-6.98452
11
43.7988
21
-6.88929
0
LINE
8
BLACK
6
CONTINUOUS
10
43.7988
20
-6.88929
11
43.7036
21
-6.69881
0
LINE
8
BLACK
6
CONTINUOUS
10
43.7036
20
-6.69881
11
43.7036
21
-6.12738
0
LINE
8
BLACK
6
CONTINUOUS
10
43.7036
20
-6.12738
11
43.7988
21
-5.9369
0
LINE
8
BLACK
6
CONTINUOUS
10
43.7988
20
-5.9369
11
43.894
21
-5.84167
0
LINE
8
BLACK
6
CONTINUOUS
10
43.894
20
-5.84167
11
44.0845
21
-5.74643
0
LINE
8
BLACK
6
CONTINUOUS
10
44.0845
20
-5.74643
11
44.3702
21
-5.74643
0
LINE
8
BLACK
6
CONTINUOUS
10
44.3702
20
-5.74643
11
44.5607
21
-5.84167
0
LINE
8
BLACK
6
CONTINUOUS
10
44.5607
20
-5.84167
11
44.656
21
-5.9369
0
LINE
8
BLACK
6
CONTINUOUS
10
44.656
20
-5.9369
11
44.7512
21
-6.12738
0
LINE
8
BLACK
6
CONTINUOUS
10
44.7512
20
-6.12738
11
44.7512
21
-6.69881
0
LINE
8
BLACK
6
CONTINUOUS
10
44.7512
20
-6.69881
11
44.656
21
-6.88929
0
LINE
8
BLACK
6
CONTINUOUS
10
44.656
20
-6.88929
11
44.5607
21
-6.98452
0
LINE
8
BLACK
6
CONTINUOUS
10
44.5607
20
-6.98452
11
44.3702
21
-7.07976
0
LINE
8
BLACK
6
CONTINUOUS
10
44.3702
20
-7.07976
11
44.0845
21
-7.07976
0
LINE
8
BLACK
6
CONTINUOUS
10
45.894
20
-7.07976
11
45.7036
21
-6.98452
0
LINE
8
BLACK
6
CONTINUOUS
10
45.7036
20
-6.98452
11
45.6083
21
-6.79405
0
LINE
8
BLACK
6
CONTINUOUS
10
45.6083
20
-6.79405
11
45.6083
21
-5.07976
0
LINE
8
BLACK
6
CONTINUOUS
10
47.4179
20
-6.98452
11
47.2274
21
-7.07976
0
LINE
8
BLACK
6
CONTINUOUS
10
47.2274
20
-7.07976
11
46.8464
21
-7.07976
0
LINE
8
BLACK
6
CONTINUOUS
10
46.8464
20
-7.07976
11
46.656
21
-6.98452
0
LINE
8
BLACK
6
CONTINUOUS
10
46.656
20
-6.98452
11
46.5607
21
-6.79405
0
LINE
8
BLACK
6
CONTINUOUS
10
46.5607
20
-6.79405
11
46.5607
21
-6.03214
0
LINE
8
BLACK
6
CONTINUOUS
10
46.5607
20
-6.03214
11
46.656
21
-5.84167
0
LINE
8
BLACK
6
CONTINUOUS
10
46.656
20
-5.84167
11
46.8464
21
-5.74643
0
LINE
8
BLACK
6
CONTINUOUS
10
46.8464
20
-5.74643
11
47.2274
21
-5.74643
0
LINE
8
BLACK
6
CONTINUOUS
10
47.2274
20
-5.74643
11
47.4179
21
-5.84167
0
LINE
8
BLACK
6
CONTINUOUS
10
47.4179
20
-5.84167
11
47.5131
21
-6.03214
0
LINE
8
BLACK
6
CONTINUOUS
10
47.5131
20
-6.03214
11
47.5131
21
-6.22262
0
LINE
8
BLACK
6
CONTINUOUS
10
47.5131
20
-6.22262
11
46.5607
21
-6.41309
0
LINE
8
BLACK
6
CONTINUOUS
10
48.275
20
-6.98452
11
48.4655
21
-7.07976
0
LINE
8
BLACK
6
CONTINUOUS
10
48.4655
20
-7.07976
11
48.8464
21
-7.07976
0
LINE
8
BLACK
6
CONTINUOUS
10
48.8464
20
-7.07976
11
49.0369
21
-6.98452
0
LINE
8
BLACK
6
CONTINUOUS
10
49.0369
20
-6.98452
11
49.1321
21
-6.79405
0
LINE
8
BLACK
6
CONTINUOUS
10
49.1321
20
-6.79405
11
49.1321
21
-6.69881
0
LINE
8
BLACK
6
CONTINUOUS
10
49.1321
20
-6.69881
11
49.0369
21
-6.50833
0
LINE
8
BLACK
6
CONTINUOUS
10
49.0369
20
-6.50833
11
48.8464
21
-6.41309
0
LINE
8
BLACK
6
CONTINUOUS
10
48.8464
20
-6.41309
11
48.5607
21
-6.41309
0
LINE
8
BLACK
6
CONTINUOUS
10
48.5607
20
-6.41309
11
48.3702
21
-6.31786
0
LINE
8
BLACK
6
CONTINUOUS
10
48.3702
20
-6.31786
11
48.275
21
-6.12738
0
LINE
8
BLACK
6
CONTINUOUS
10
48.275
20
-6.12738
11
48.275
21
-6.03214
0
LINE
8
BLACK
6
CONTINUOUS
10
48.275
20
-6.03214
11
48.3702
21
-5.84167
0
LINE
8
BLACK
6
CONTINUOUS
10
48.3702
20
-5.84167
11
48.5607
21
-5.74643
0
LINE
8
BLACK
6
CONTINUOUS
10
48.5607
20
-5.74643
11
48.8464
21
-5.74643
0
LINE
8
BLACK
6
CONTINUOUS
10
48.8464
20
-5.74643
11
49.0369
21
-5.84167
0
LINE
8
BLACK
6
CONTINUOUS
10
49.7988
20
-7.84167
11
49.894
21
-7.74643
0
LINE
8
BLACK
6
CONTINUOUS
10
49.894
20
-7.74643
11
50.0845
21
-7.46071
0
LINE
8
BLACK
6
CONTINUOUS
10
50.0845
20
-7.46071
11
50.1798
21
-7.27024
0
LINE
8
BLACK
6
CONTINUOUS
10
50.1798
20
-7.27024
11
50.275
21
-6.98452
0
LINE
8
BLACK
6
CONTINUOUS
10
50.275
20
-6.98452
11
50.3702
21
-6.50833
0
LINE
8
BLACK
6
CONTINUOUS
10
50.3702
20
-6.50833
11
50.3702
21
-6.12738
0
LINE
8
BLACK
6
CONTINUOUS
10
50.3702
20
-6.12738
11
50.275
21
-5.65119
0
LINE
8
BLACK
6
CONTINUOUS
10
50.275
20
-5.65119
11
50.1798
21
-5.36548
0
LINE
8
BLACK
6
CONTINUOUS
10
50.1798
20
-5.36548
11
50.0845
21
-5.175
0
LINE
8
BLACK
6
CONTINUOUS
10
50.0845
20
-5.175
11
49.894
21
-4.88929
0
LINE
8
BLACK
6
CONTINUOUS
10
49.894
20
-4.88929
11
49.7988
21
-4.79405
0
CIRCLE
8
BLACK
10
-0.325
20
-8.815
40
0.5
0
LINE
8
BLACK
6
CONTINUOUS
10
3.79881
20
-9.71976
11
2.65595
21
-9.71976
0
LINE
8
BLACK
6
CONTINUOUS
10
3.22738
20
-9.71976
11
3.22738
21
-7.71976
0
LINE
8
BLACK
6
CONTINUOUS
10
3.22738
20
-7.71976
11
3.0369
21
-8.00548
0
LINE
8
BLACK
6
CONTINUOUS
10
3.0369
20
-8.00548
11
2.84643
21
-8.19595
0
LINE
8
BLACK
6
CONTINUOUS
10
2.84643
20
-8.19595
11
2.65595
21
-8.29119
0
LINE
8
BLACK
6
CONTINUOUS
10
4.65595
20
-9.52928
11
4.75119
21
-9.62452
0
LINE
8
BLACK
6
CONTINUOUS
10
4.75119
20
-9.62452
11
4.65595
21
-9.71976
0
LINE
8
BLACK
6
CONTINUOUS
10
4.65595
20
-9.71976
11
4.56071
21
-9.62452
0
LINE
8
BLACK
6
CONTINUOUS
10
4.56071
20
-9.62452
11
4.65595
21
-9.52928
0
LINE
8
BLACK
6
CONTINUOUS
10
4.65595
20
-9.52928
11
4.65595
21
-9.71976
0
LINE
8
BLACK
6
CONTINUOUS
10
5.98928
20
-7.71976
11
6.17976
21
-7.71976
0
LINE
8
BLACK
6
CONTINUOUS
10
6.17976
20
-7.71976
11
6.37024
21
-7.815
0
LINE
8
BLACK
6
CONTINUOUS
10
6.37024
20
-7.815
11
6.46548
21
-7.91024
0
LINE
8
BLACK
6
CONTINUOUS
10
6.46548
20
-7.91024
11
6.56071
21
-8.10071
0
LINE
8
BLACK
6
CONTINUOUS
10
6.56071
20
-8.10071
11
6.65595
21
-8.48167
0
LINE
8
BLACK
6
CONTINUOUS
10
6.65595
20
-8.48167
11
6.65595
21
-8.95786
0
LINE
8
BLACK
6
CONTINUOUS
10
6.65595
20
-8.95786
11
6.56071
21
-9.33881
0
LINE
8
BLACK
6
CONTINUOUS
10
6.56071
20
-9.33881
11
6.46548
21
-9.52928
0
LINE
8
BLACK
6
CONTINUOUS
10
6.46548
20
-9.52928
11
6.37024
21
-9.62452
0
LINE
8
BLACK
6
CONTINUOUS
10
6.37024
20
-9.62452
11
6.17976
21
-9.71976
0
LINE
8
BLACK
6
CONTINUOUS
10
6.17976
20
-9.71976
11
5.98928
21
-9.71976
0
LINE
8
BLACK
6
CONTINUOUS
10
5.98928
20
-9.71976
11
5.79881
21
-9.62452
0
LINE
8
BLACK
6
CONTINUOUS
10
5.79881
20
-9.62452
11
5.70357
21
-9.52928
0
LINE
8
BLACK
6
CONTINUOUS
10
5.70357
20
-9.52928
11
5.60833
21
-9.33881
0
LINE
8
BLACK
6
CONTINUOUS
10
5.60833
20
-9.33881
11
5.51309
21
-8.95786
0
LINE
8
BLACK
6
CONTINUOUS
10
5.51309
20
-8.95786
11
5.51309
21
-8.48167
0
LINE
8
BLACK
6
CONTINUOUS
10
5.51309
20
-8.48167
11
5.60833
21
-8.10071
0
LINE
8
BLACK
6
CONTINUOUS
10
5.60833
20
-8.10071
11
5.70357
21
-7.91024
0
LINE
8
BLACK
6
CONTINUOUS
10
5.70357
20
-7.91024
11
5.79881
21
-7.815
0
LINE
8
BLACK
6
CONTINUOUS
10
5.79881
20
-7.815
11
5.98928
21
-7.71976
0
LINE
8
BLACK
6
CONTINUOUS
10
7.89405
20
-7.71976
11
8.08452
21
-7.71976
0
LINE
8
BLACK
6
CONTINUOUS
10
8.08452
20
-7.71976
11
8.275
21
-7.815
0
LINE
8
BLACK
6
CONTINUOUS
10
8.275
20
-7.815
11
8.37024
21
-7.91024
0
LINE
8
BLACK
6
CONTINUOUS
10
8.37024
20
-7.91024
11
8.46548
21
-8.10071
0
LINE
8
BLACK
6
CONTINUOUS
10
8.46548
20
-8.10071
11
8.56071
21
-8.48167
0
LINE
8
BLACK
6
CONTINUOUS
10
8.56071
20
-8.48167
11
8.56071
21
-8.95786
0
LINE
8
BLACK
6
CONTINUOUS
10
8.56071
20
-8.95786
11
8.46548
21
-9.33881
0
LINE
8
BLACK
6
CONTINUOUS
10
8.46548
20
-9.33881
11
8.37024
21
-9.52928
0
LINE
8
BLACK
6
CONTINUOUS
10
8.37024
20
-9.52928
11
8.275
21
-9.62452
0
LINE
8
BLACK
6
CONTINUOUS
10
8.275
20
-9.62452
11
8.08452
21
-9.71976
0
LINE
8
BLACK
6
CONTINUOUS
10
8.08452
20
-9.71976
11
7.89405
21
-9.71976
0
LINE
8
BLACK
6
CONTINUOUS
10
7.89405
20
-9.71976
11
7.70357
21
-9.62452
0
LINE
8
BLACK
6
CONTINUOUS
10
7.70357
20
-9.62452
11
7.60833
21
-9.52928
0
LINE
8
BLACK
6
CONTINUOUS
10
7.60833
20
-9.52928
11
7.51309
21
-9.33881
0
LINE
8
BLACK
6
CONTINUOUS
10
7.51309
20
-9.33881
11
7.41786
21
-8.95786
0
LINE
8
BLACK
6
CONTINUOUS
10
7.41786
20
-8.95786
11
7.41786
21
-8.48167
0
LINE
8
BLACK
6
CONTINUOUS
10
7.41786
20
-8.48167
11
7.51309
21
-8.10071
0
LINE
8
BLACK
6
CONTINUOUS
10
7.51309
20
-8.10071
11
7.60833
21
-7.91024
0
LINE
8
BLACK
6
CONTINUOUS
10
7.60833
20
-7.91024
11
7.70357
21
-7.815
0
LINE
8
BLACK
6
CONTINUOUS
10
7.70357
20
-7.815
11
7.89405
21
-7.71976
0
LINE
8
BLACK
6
CONTINUOUS
10
9.79881
20
-7.71976
11
9.98928
21
-7.71976
0
LINE
8
BLACK
6
CONTINUOUS
10
9.98928
20
-7.71976
11
10.1798
21
-7.815
0
LINE
8
BLACK
6
CONTINUOUS
10
10.1798
20
-7.815
11
10.275
21
-7.91024
0
LINE
8
BLACK
6
CONTINUOUS
10
10.275
20
-7.91024
11
10.3702
21
-8.10071
0
LINE
8
BLACK
6
CONTINUOUS
10
10.3702
20
-8.10071
11
10.4655
21
-8.48167
0
LINE
8
BLACK
6
CONTINUOUS
10
10.4655
20
-8.48167
11
10.4655
21
-8.95786
0
LINE
8
BLACK
6
CONTINUOUS
10
10.4655
20
-8.95786
11
10.3702
21
-9.33881
0
LINE
8
BLACK
6
CONTINUOUS
10
10.3702
20
-9.33881
11
10.275
21
-9.52928
0
LINE
8
BLACK
6
CONTINUOUS
10
10.275
20
-9.52928
11
10.1798
21
-9.62452
0
LINE
8
BLACK
6
CONTINUOUS
10
10.1798
20
-9.62452
11
9.98928
21
-9.71976
0
LINE
8
BLACK
6
CONTINUOUS
10
9.98928
20
-9.71976
11
9.79881
21
-9.71976
0
LINE
8
BLACK
6
CONTINUOUS
10
9.79881
20
-9.71976
11
9.60833
21
-9.62452
0
LINE
8
BLACK
6
CONTINUOUS
10
9.60833
20
-9.62452
11
9.51309
21
-9.52928
0
LINE
8
BLACK
6
CONTINUOUS
10
9.51309
20
-9.52928
11
9.41786
21
-9.33881
0
LINE
8
BLACK
6
CONTINUOUS
10
9.41786
20
-9.33881
11
9.32262
21
-8.95786
0
LINE
8
BLACK
6
CONTINUOUS
10
9.32262
20
-8.95786
11
9.32262
21
-8.48167
0
LINE
8
BLACK
6
CONTINUOUS
10
9.32262
20
-8.48167
11
9.41786
21
-8.10071
0
LINE
8
BLACK
6
CONTINUOUS
10
9.41786
20
-8.10071
11
9.51309
21
-7.91024
0
LINE
8
BLACK
6
CONTINUOUS
10
9.51309
20
-7.91024
11
9.60833
21
-7.815
0
LINE
8
BLACK
6
CONTINUOUS
10
9.60833
20
-7.815
11
9.79881
21
-7.71976
0
LINE
8
BLACK
6
CONTINUOUS
10
11.3226
20
-9.71976
11
11.3226
21
-8.38643
0
LINE
8
BLACK
6
CONTINUOUS
10
11.3226
20
-8.5769
11
11.4179
21
-8.48167
0
LINE
8
BLACK
6
CONTINUOUS
10
11.4179
20
-8.48167
11
11.6083
21
-8.38643
0
LINE
8
BLACK
6
CONTINUOUS
10
11.6083
20
-8.38643
11
11.894
21
-8.38643
0
LINE
8
BLACK
6
CONTINUOUS
10
11.894
20
-8.38643
11
12.0845
21
-8.48167
0
LINE
8
BLACK
6
CONTINUOUS
10
12.0845
20
-8.48167
11
12.1798
21
-8.67214
0
LINE
8
BLACK
6
CONTINUOUS
10
12.1798
20
-8.67214
11
12.1798
21
-9.71976
0
LINE
8
BLACK
6
CONTINUOUS
10
12.1798
20
-8.67214
11
12.275
21
-8.48167
0
LINE
8
BLACK
6
CONTINUOUS
10
12.275
20
-8.48167
11
12.4655
21
-8.38643
0
LINE
8
BLACK
6
CONTINUOUS
10
12.4655
20
-8.38643
11
12.7512
21
-8.38643
0
LINE
8
BLACK
6
CONTINUOUS
10
12.7512
20
-8.38643
11
12.9417
21
-8.48167
0
LINE
8
BLACK
6
CONTINUOUS
10
12.9417
20
-8.48167
11
13.0369
21
-8.67214
0
LINE
8
BLACK
6
CONTINUOUS
10
13.0369
20
-8.67214
11
13.0369
21
-9.71976
0
LINE
8
BLACK
6
CONTINUOUS
10
13.9893
20
-9.71976
11
13.9893
21
-8.38643
0
LINE
8
BLACK
6
CONTINUOUS
10
13.9893
20
-8.5769
11
14.0845
21
-8.48167
0
LINE
8
BLACK
6
CONTINUOUS
10
14.0845
20
-8.48167
11
14.275
21
-8.38643
0
LINE
8
BLACK
6
CONTINUOUS
10
14.275
20
-8.38643
11
14.5607
21
-8.38643
0
LINE
8
BLACK
6
CONTINUOUS
10
14.5607
20
-8.38643
11
14.7512
21
-8.48167
0
LINE
8
BLACK
6
CONTINUOUS
10
14.7512
20
-8.48167
11
14.8464
21
-8.67214
0
LINE
8
BLACK
6
CONTINUOUS
10
14.8464
20
-8.67214
11
14.8464
21
-9.71976
0
LINE
8
BLACK
6
CONTINUOUS
10
14.8464
20
-8.67214
11
14.9417
21
-8.48167
0
LINE
8
BLACK
6
CONTINUOUS
10
14.9417
20
-8.48167
11
15.1321
21
-8.38643
0
LINE
8
BLACK
6
CONTINUOUS
10
15.1321
20
-8.38643
11
15.4179
21
-8.38643
0
LINE
8
BLACK
6
CONTINUOUS
10
15.4179
20
-8.38643
11
15.6083
21
-8.48167
0
LINE
8
BLACK
6
CONTINUOUS
10
15.6083
20
-8.48167
11
15.7036
21
-8.67214
0
LINE
8
BLACK
6
CONTINUOUS
10
15.7036
20
-8.67214
11
15.7036
21
-9.71976
0
LINE
8
BLACK
6
CONTINUOUS
10
19.6083
20
-7.62452
11
17.894
21
-10.196
0
LINE
8
BLACK
6
CONTINUOUS
10
22.1798
20
-7.71976
11
22.3702
21
-7.71976
0
LINE
8
BLACK
6
CONTINUOUS
10
22.3702
20
-7.71976
11
22.5607
21
-7.815
0
LINE
8
BLACK
6
CONTINUOUS
10
22.5607
20
-7.815
11
22.656
21
-7.91024
0
LINE
8
BLACK
6
CONTINUOUS
10
22.656
20
-7.91024
11
22.7512
21
-8.10071
0
LINE
8
BLACK
6
CONTINUOUS
10
22.7512
20
-8.10071
11
22.8464
21
-8.48167
0
LINE
8
BLACK
6
CONTINUOUS
10
22.8464
20
-8.48167
11
22.8464
21
-8.95786
0
LINE
8
BLACK
6
CONTINUOUS
10
22.8464
20
-8.95786
11
22.7512
21
-9.33881
0
LINE
8
BLACK
6
CONTINUOUS
10
22.7512
20
-9.33881
11
22.656
21
-9.52928
0
LINE
8
BLACK
6
CONTINUOUS
10
22.656
20
-9.52928
11
22.5607
21
-9.62452
0
LINE
8
BLACK
6
CONTINUOUS
10
22.5607
20
-9.62452
11
22.3702
21
-9.71976
0
LINE
8
BLACK
6
CONTINUOUS
10
22.3702
20
-9.71976
11
22.1798
21
-9.71976
0
LINE
8
BLACK
6
CONTINUOUS
10
22.1798
20
-9.71976
11
21.9893
21
-9.62452
0
LINE
8
BLACK
6
CONTINUOUS
10
21.9893
20
-9.62452
11
21.894
21
-9.52928
0
LINE
8
BLACK
6
CONTINUOUS
10
21.894
20
-9.52928
11
21.7988
21
-9.33881
0
LINE
8
BLACK
6
CONTINUOUS
10
21.7988
20
-9.33881
11
21.7036
21
-8.95786
0
LINE
8
BLACK
6
CONTINUOUS
10
21.7036
20
-8.95786
11
21.7036
21
-8.48167
0
LINE
8
BLACK
6
CONTINUOUS
10
21.7036
20
-8.48167
11
21.7988
21
-8.10071
0
LINE
8
BLACK
6
CONTINUOUS
10
21.7988
20
-8.10071
11
21.894
21
-7.91024
0
LINE
8
BLACK
6
CONTINUOUS
10
21.894
20
-7.91024
11
21.9893
21
-7.815
0
LINE
8
BLACK
6
CONTINUOUS
10
21.9893
20
-7.815
11
22.1798
21
-7.71976
0
LINE
8
BLACK
6
CONTINUOUS
10
23.7036
20
-9.52928
11
23.7988
21
-9.62452
0
LINE
8
BLACK
6
CONTINUOUS
10
23.7988
20
-9.62452
11
23.7036
21
-9.71976
0
LINE
8
BLACK
6
CONTINUOUS
10
23.7036
20
-9.71976
11
23.6083
21
-9.62452
0
LINE
8
BLACK
6
CONTINUOUS
10
23.6083
20
-9.62452
11
23.7036
21
-9.52928
0
LINE
8
BLACK
6
CONTINUOUS
10
23.7036
20
-9.52928
11
23.7036
21
-9.71976
0
LINE
8
BLACK
6
CONTINUOUS
10
25.0369
20
-7.71976
11
25.2274
21
-7.71976
0
LINE
8
BLACK
6
CONTINUOUS
10
25.2274
20
-7.71976
11
25.4179
21
-7.815
0
LINE
8
BLACK
6
CONTINUOUS
10
25.4179
20
-7.815
11
25.5131
21
-7.91024
0
LINE
8
BLACK
6
CONTINUOUS
10
25.5131
20
-7.91024
11
25.6083
21
-8.10071
0
LINE
8
BLACK
6
CONTINUOUS
10
25.6083
20
-8.10071
11
25.7036
21
-8.48167
0
LINE
8
BLACK
6
CONTINUOUS
10
25.7036
20
-8.48167
11
25.7036
21
-8.95786
0
LINE
8
BLACK
6
CONTINUOUS
10
25.7036
20
-8.95786
11
25.6083
21
-9.33881
0
LINE
8
BLACK
6
CONTINUOUS
10
25.6083
20
-9.33881
11
25.5131
21
-9.52928
0
LINE
8
BLACK
6
CONTINUOUS
10
25.5131
20
-9.52928
11
25.4179
21
-9.62452
0
LINE
8
BLACK
6
CONTINUOUS
10
25.4179
20
-9.62452
11
25.2274
21
-9.71976
0
LINE
8
BLACK
6
CONTINUOUS
10
25.2274
20
-9.71976
11
25.0369
21
-9.71976
0
LINE
8
BLACK
6
CONTINUOUS
10
25.0369
20
-9.71976
11
24.8464
21
-9.62452
0
LINE
8
BLACK
6
CONTINUOUS
10
24.8464
20
-9.62452
11
24.7512
21
-9.52928
0
LINE
8
BLACK
6
CONTINUOUS
10
24.7512
20
-9.52928
11
24.656
21
-9.33881
0
LINE
8
BLACK
6
CONTINUOUS
10
24.656
20
-9.33881
11
24.5607
21
-8.95786
0
LINE
8
BLACK
6
CONTINUOUS
10
24.5607
20
-8.95786
11
24.5607
21
-8.48167
0
LINE
8
BLACK
6
CONTINUOUS
10
24.5607
20
-8.48167
11
24.656
21
-8.10071
0
LINE
8
BLACK
6
CONTINUOUS
10
24.656
20
-8.10071
11
24.7512
21
-7.91024
0
LINE
8
BLACK
6
CONTINUOUS
10
24.7512
20
-7.91024
11
24.8464
21
-7.815
0
LINE
8
BLACK
6
CONTINUOUS
10
24.8464
20
-7.815
11
25.0369
21
-7.71976
0
LINE
8
BLACK
6
CONTINUOUS
10
26.3702
20
-7.71976
11
27.6083
21
-7.71976
0
LINE
8
BLACK
6
CONTINUOUS
10
27.6083
20
-7.71976
11
26.9417
21
-8.48167
0
LINE
8
BLACK
6
CONTINUOUS
10
26.9417
20
-8.48167
11
27.2274
21
-8.48167
0
LINE
8
BLACK
6
CONTINUOUS
10
27.2274
20
-8.48167
11
27.4179
21
-8.5769
0
LINE
8
BLACK
6
CONTINUOUS
10
27.4179
20
-8.5769
11
27.5131
21
-8.67214
0
LINE
8
BLACK
6
CONTINUOUS
10
27.5131
20
-8.67214
11
27.6083
21
-8.86262
0
LINE
8
BLACK
6
CONTINUOUS
10
27.6083
20
-8.86262
11
27.6083
21
-9.33881
0
LINE
8
BLACK
6
CONTINUOUS
10
27.6083
20
-9.33881
11
27.5131
21
-9.52928
0
LINE
8
BLACK
6
CONTINUOUS
10
27.5131
20
-9.52928
11
27.4179
21
-9.62452
0
LINE
8
BLACK
6
CONTINUOUS
10
27.4179
20
-9.62452
11
27.2274
21
-9.71976
0
LINE
8
BLACK
6
CONTINUOUS
10
27.2274
20
-9.71976
11
26.656
21
-9.71976
0
LINE
8
BLACK
6
CONTINUOUS
10
26.656
20
-9.71976
11
26.4655
21
-9.62452
0
LINE
8
BLACK
6
CONTINUOUS
10
26.4655
20
-9.62452
11
26.3702
21
-9.52928
0
LINE
8
BLACK
6
CONTINUOUS
10
28.5607
20
-9.71976
11
28.9417
21
-9.71976
0
LINE
8
BLACK
6
CONTINUOUS
10
28.9417
20
-9.71976
11
29.1321
21
-9.62452
0
LINE
8
BLACK
6
CONTINUOUS
10
29.1321
20
-9.62452
11
29.2274
21
-9.52928
0
LINE
8
BLACK
6
CONTINUOUS
10
29.2274
20
-9.52928
11
29.4179
21
-9.24357
0
LINE
8
BLACK
6
CONTINUOUS
10
29.4179
20
-9.24357
11
29.5131
21
-8.86262
0
LINE
8
BLACK
6
CONTINUOUS
10
29.5131
20
-8.86262
11
29.5131
21
-8.10071
0
LINE
8
BLACK
6
CONTINUOUS
10
29.5131
20
-8.10071
11
29.4179
21
-7.91024
0
LINE
8
BLACK
6
CONTINUOUS
10
29.4179
20
-7.91024
11
29.3226
21
-7.815
0
LINE
8
BLACK
6
CONTINUOUS
10
29.3226
20
-7.815
11
29.1321
21
-7.71976
0
LINE
8
BLACK
6
CONTINUOUS
10
29.1321
20
-7.71976
11
28.7512
21
-7.71976
0
LINE
8
BLACK
6
CONTINUOUS
10
28.7512
20
-7.71976
11
28.5607
21
-7.815
0
LINE
8
BLACK
6
CONTINUOUS
10
28.5607
20
-7.815
11
28.4655
21
-7.91024
0
LINE
8
BLACK
6
CONTINUOUS
10
28.4655
20
-7.91024
11
28.3702
21
-8.10071
0
LINE
8
BLACK
6
CONTINUOUS
10
28.3702
20
-8.10071
11
28.3702
21
-8.5769
0
LINE
8
BLACK
6
CONTINUOUS
10
28.3702
20
-8.5769
11
28.4655
21
-8.76738
0
LINE
8
BLACK
6
CONTINUOUS
10
28.4655
20
-8.76738
11
28.5607
21
-8.86262
0
LINE
8
BLACK
6
CONTINUOUS
10
28.5607
20
-8.86262
11
28.7512
21
-8.95786
0
LINE
8
BLACK
6
CONTINUOUS
10
28.7512
20
-8.95786
11
29.1321
21
-8.95786
0
LINE
8
BLACK
6
CONTINUOUS
10
29.1321
20
-8.95786
11
29.3226
21
-8.86262
0
LINE
8
BLACK
6
CONTINUOUS
10
29.3226
20
-8.86262
11
29.4179
21
-8.76738
0
LINE
8
BLACK
6
CONTINUOUS
10
29.4179
20
-8.76738
11
29.5131
21
-8.5769
0
LINE
8
BLACK
6
CONTINUOUS
10
31.2274
20
-8.38643
11
31.2274
21
-9.71976
0
LINE
8
BLACK
6
CONTINUOUS
10
30.7512
20
-7.62452
11
30.275
21
-9.05309
0
LINE
8
BLACK
6
CONTINUOUS
10
30.275
20
-9.05309
11
31.5131
21
-9.05309
0
LINE
8
BLACK
6
CONTINUOUS
10
32.1798
20
-7.71976
11
32.1798
21
-8.10071
0
LINE
8
BLACK
6
CONTINUOUS
10
32.9417
20
-7.71976
11
32.9417
21
-8.10071
0
LINE
8
BLACK
6
CONTINUOUS
10
35.894
20
-10.4817
11
35.7988
21
-10.3864
0
LINE
8
BLACK
6
CONTINUOUS
10
35.7988
20
-10.3864
11
35.6083
21
-10.1007
0
LINE
8
BLACK
6
CONTINUOUS
10
35.6083
20
-10.1007
11
35.5131
21
-9.91024
0
LINE
8
BLACK
6
CONTINUOUS
10
35.5131
20
-9.91024
11
35.4179
21
-9.62452
0
LINE
8
BLACK
6
CONTINUOUS
10
35.4179
20
-9.62452
11
35.3226
21
-9.14833
0
LINE
8
BLACK
6
CONTINUOUS
10
35.3226
20
-9.14833
11
35.3226
21
-8.76738
0
LINE
8
BLACK
6
CONTINUOUS
10
35.3226
20
-8.76738
11
35.4179
21
-8.29119
0
LINE
8
BLACK
6
CONTINUOUS
10
35.4179
20
-8.29119
11
35.5131
21
-8.00548
0
LINE
8
BLACK
6
CONTINUOUS
10
35.5131
20
-8.00548
11
35.6083
21
-7.815
0
LINE
8
BLACK
6
CONTINUOUS
10
35.6083
20
-7.815
11
35.7988
21
-7.52928
0
LINE
8
BLACK
6
CONTINUOUS
10
35.7988
20
-7.52928
11
35.894
21
-7.43405
0
LINE
8
BLACK
6
CONTINUOUS
10
37.7036
20
-9.71976
11
36.5607
21
-9.71976
0
LINE
8
BLACK
6
CONTINUOUS
10
37.1321
20
-9.71976
11
37.1321
21
-7.71976
0
LINE
8
BLACK
6
CONTINUOUS
10
37.1321
20
-7.71976
11
36.9417
21
-8.00548
0
LINE
8
BLACK
6
CONTINUOUS
10
36.9417
20
-8.00548
11
36.7512
21
-8.19595
0
LINE
8
BLACK
6
CONTINUOUS
10
36.7512
20
-8.19595
11
36.5607
21
-8.29119
0
LINE
8
BLACK
6
CONTINUOUS
10
38.8464
20
-8.5769
11
38.656
21
-8.48167
0
LINE
8
BLACK
6
CONTINUOUS
10
38.656
20
-8.48167
11
38.5607
21
-8.38643
0
LINE
8
BLACK
6
CONTINUOUS
10
38.5607
20
-8.38643
11
38.4655
21
-8.19595
0
LINE
8
BLACK
6
CONTINUOUS
10
38.4655
20
-8.19595
11
38.4655
21
-8.10071
0
LINE
8
BLACK
6
CONTINUOUS
10
38.4655
20
-8.10071
11
38.5607
21
-7.91024
0
LINE
8
BLACK
6
CONTINUOUS
10
38.5607
20
-7.91024
11
38.656
21
-7.815
0
LINE
8
BLACK
6
CONTINUOUS
10
38.656
20
-7.815
11
38.8464
21
-7.71976
0
LINE
8
BLACK
6
CONTINUOUS
10
38.8464
20
-7.71976
11
39.2274
21
-7.71976
0
LINE
8
BLACK
6
CONTINUOUS
10
39.2274
20
-7.71976
11
39.4179
21
-7.815
0
LINE
8
BLACK
6
CONTINUOUS
10
39.4179
20
-7.815
11
39.5131
21
-7.91024
0
LINE
8
BLACK
6
CONTINUOUS
10
39.5131
20
-7.91024
11
39.6083
21
-8.10071
0
LINE
8
BLACK
6
CONTINUOUS
10
39.6083
20
-8.10071
11
39.6083
21
-8.19595
0
LINE
8
BLACK
6
CONTINUOUS
10
39.6083
20
-8.19595
11
39.5131
21
-8.38643
0
LINE
8
BLACK
6
CONTINUOUS
10
39.5131
20
-8.38643
11
39.4179
21
-8.48167
0
LINE
8
BLACK
6
CONTINUOUS
10
39.4179
20
-8.48167
11
39.2274
21
-8.5769
0
LINE
8
BLACK
6
CONTINUOUS
10
39.2274
20
-8.5769
11
38.8464
21
-8.5769
0
LINE
8
BLACK
6
CONTINUOUS
10
38.8464
20
-8.5769
11
38.656
21
-8.67214
0
LINE
8
BLACK
6
CONTINUOUS
10
38.656
20
-8.67214
11
38.5607
21
-8.76738
0
LINE
8
BLACK
6
CONTINUOUS
10
38.5607
20
-8.76738
11
38.4655
21
-8.95786
0
LINE
8
BLACK
6
CONTINUOUS
10
38.4655
20
-8.95786
11
38.4655
21
-9.33881
0
LINE
8
BLACK
6
CONTINUOUS
10
38.4655
20
-9.33881
11
38.5607
21
-9.52928
0
LINE
8
BLACK
6
CONTINUOUS
10
38.5607
20
-9.52928
11
38.656
21
-9.62452
0
LINE
8
BLACK
6
CONTINUOUS
10
38.656
20
-9.62452
11
38.8464
21
-9.71976
0
LINE
8
BLACK
6
CONTINUOUS
10
38.8464
20
-9.71976
11
39.2274
21
-9.71976
0
LINE
8
BLACK
6
CONTINUOUS
10
39.2274
20
-9.71976
11
39.4179
21
-9.62452
0
LINE
8
BLACK
6
CONTINUOUS
10
39.4179
20
-9.62452
11
39.5131
21
-9.52928
0
LINE
8
BLACK
6
CONTINUOUS
10
39.5131
20
-9.52928
11
39.6083
21
-9.33881
0
LINE
8
BLACK
6
CONTINUOUS
10
39.6083
20
-9.33881
11
39.6083
21
-8.95786
0
LINE
8
BLACK
6
CONTINUOUS
10
39.6083
20
-8.95786
11
39.5131
21
-8.76738
0
LINE
8
BLACK
6
CONTINUOUS
10
39.5131
20
-8.76738
11
39.4179
21
-8.67214
0
LINE
8
BLACK
6
CONTINUOUS
10
39.4179
20
-8.67214
11
39.2274
21
-8.5769
0
LINE
8
BLACK
6
CONTINUOUS
10
41.9893
20
-9.71976
11
41.9893
21
-7.71976
0
LINE
8
BLACK
6
CONTINUOUS
10
42.8464
20
-9.71976
11
42.8464
21
-8.67214
0
LINE
8
BLACK
6
CONTINUOUS
10
42.8464
20
-8.67214
11
42.7512
21
-8.48167
0
LINE
8
BLACK
6
CONTINUOUS
10
42.7512
20
-8.48167
11
42.5607
21
-8.38643
0
LINE
8
BLACK
6
CONTINUOUS
10
42.5607
20
-8.38643
11
42.275
21
-8.38643
0
LINE
8
BLACK
6
CONTINUOUS
10
42.275
20
-8.38643
11
42.0845
21
-8.48167
0
LINE
8
BLACK
6
CONTINUOUS
10
42.0845
20
-8.48167
11
41.9893
21
-8.5769
0
LINE
8
BLACK
6
CONTINUOUS
10
44.0845
20
-9.71976
11
43.894
21
-9.62452
0
LINE
8
BLACK
6
CONTINUOUS
10
43.894
20
-9.62452
11
43.7988
21
-9.52928
0
LINE
8
BLACK
6
CONTINUOUS
10
43.7988
20
-9.52928
11
43.7036
21
-9.33881
0
LINE
8
BLACK
6
CONTINUOUS
10
43.7036
20
-9.33881
11
43.7036
21
-8.76738
0
LINE
8
BLACK
6
CONTINUOUS
10
43.7036
20
-8.76738
11
43.7988
21
-8.5769
0
LINE
8
BLACK
6
CONTINUOUS
10
43.7988
20
-8.5769
11
43.894
21
-8.48167
0
LINE
8
BLACK
6
CONTINUOUS
10
43.894
20
-8.48167
11
44.0845
21
-8.38643
0
LINE
8
BLACK
6
CONTINUOUS
10
44.0845
20
-8.38643
11
44.3702
21
-8.38643
0
LINE
8
BLACK
6
CONTINUOUS
10
44.3702
20
-8.38643
11
44.5607
21
-8.48167
0
LINE
8
BLACK
6
CONTINUOUS
10
44.5607
20
-8.48167
11
44.656
21
-8.5769
0
LINE
8
BLACK
6
CONTINUOUS
10
44.656
20
-8.5769
11
44.7512
21
-8.76738
0
LINE
8
BLACK
6
CONTINUOUS
10
44.7512
20
-8.76738
11
44.7512
21
-9.33881
0
LINE
8
BLACK
6
CONTINUOUS
10
44.7512
20
-9.33881
11
44.656
21
-9.52928
0
LINE
8
BLACK
6
CONTINUOUS
10
44.656
20
-9.52928
11
44.5607
21
-9.62452
0
LINE
8
BLACK
6
CONTINUOUS
10
44.5607
20
-9.62452
11
44.3702
21
-9.71976
0
LINE
8
BLACK
6
CONTINUOUS
10
44.3702
20
-9.71976
11
44.0845
21
-9.71976
0
LINE
8
BLACK
6
CONTINUOUS
10
45.894
20
-9.71976
11
45.7036
21
-9.62452
0
LINE
8
BLACK
6
CONTINUOUS
10
45.7036
20
-9.62452
11
45.6083
21
-9.43405
0
LINE
8
BLACK
6
CONTINUOUS
10
45.6083
20
-9.43405
11
45.6083
21
-7.71976
0
LINE
8
BLACK
6
CONTINUOUS
10
47.4179
20
-9.62452
11
47.2274
21
-9.71976
0
LINE
8
BLACK
6
CONTINUOUS
10
47.2274
20
-9.71976
11
46.8464
21
-9.71976
0
LINE
8
BLACK
6
CONTINUOUS
10
46.8464
20
-9.71976
11
46.656
21
-9.62452
0
LINE
8
BLACK
6
CONTINUOUS
10
46.656
20
-9.62452
11
46.5607
21
-9.43405
0
LINE
8
BLACK
6
CONTINUOUS
10
46.5607
20
-9.43405
11
46.5607
21
-8.67214
0
LINE
8
BLACK
6
CONTINUOUS
10
46.5607
20
-8.67214
11
46.656
21
-8.48167
0
LINE
8
BLACK
6
CONTINUOUS
10
46.656
20
-8.48167
11
46.8464
21
-8.38643
0
LINE
8
BLACK
6
CONTINUOUS
10
46.8464
20
-8.38643
11
47.2274
21
-8.38643
0
LINE
8
BLACK
6
CONTINUOUS
10
47.2274
20
-8.38643
11
47.4179
21
-8.48167
0
LINE
8
BLACK
6
CONTINUOUS
10
47.4179
20
-8.48167
11
47.5131
21
-8.67214
0
LINE
8
BLACK
6
CONTINUOUS
10
47.5131
20
-8.67214
11
47.5131
21
-8.86262
0
LINE
8
BLACK
6
CONTINUOUS
10
47.5131
20
-8.86262
11
46.5607
21
-9.05309
0
LINE
8
BLACK
6
CONTINUOUS
10
48.275
20
-9.62452
11
48.4655
21
-9.71976
0
LINE
8
BLACK
6
CONTINUOUS
10
48.4655
20
-9.71976
11
48.8464
21
-9.71976
0
LINE
8
BLACK
6
CONTINUOUS
10
48.8464
20
-9.71976
11
49.0369
21
-9.62452
0
LINE
8
BLACK
6
CONTINUOUS
10
49.0369
20
-9.62452
11
49.1321
21
-9.43405
0
LINE
8
BLACK
6
CONTINUOUS
10
49.1321
20
-9.43405
11
49.1321
21
-9.33881
0
LINE
8
BLACK
6
CONTINUOUS
10
49.1321
20
-9.33881
11
49.0369
21
-9.14833
0
LINE
8
BLACK
6
CONTINUOUS
10
49.0369
20
-9.14833
11
48.8464
21
-9.05309
0
LINE
8
BLACK
6
CONTINUOUS
10
48.8464
20
-9.05309
11
48.5607
21
-9.05309
0
LINE
8
BLACK
6
CONTINUOUS
10
48.5607
20
-9.05309
11
48.3702
21
-8.95786
0
LINE
8
BLACK
6
CONTINUOUS
10
48.3702
20
-8.95786
11
48.275
21
-8.76738
0
LINE
8
BLACK
6
CONTINUOUS
10
48.275
20
-8.76738
11
48.275
21
-8.67214
0
LINE
8
BLACK
6
CONTINUOUS
10
48.275
20
-8.67214
11
48.3702
21
-8.48167
0
LINE
8
BLACK
6
CONTINUOUS
10
48.3702
20
-8.48167
11
48.5607
21
-8.38643
0
LINE
8
BLACK
6
CONTINUOUS
10
48.5607
20
-8.38643
11
48.8464
21
-8.38643
0
LINE
8
BLACK
6
CONTINUOUS
10
48.8464
20
-8.38643
11
49.0369
21
-8.48167
0
LINE
8
BLACK
6
CONTINUOUS
10
49.7988
20
-10.4817
11
49.894
21
-10.3864
0
LINE
8
BLACK
6
CONTINUOUS
10
49.894
20
-10.3864
11
50.0845
21
-10.1007
0
LINE
8
BLACK
6
CONTINUOUS
10
50.0845
20
-10.1007
11
50.1798
21
-9.91024
0
LINE
8
BLACK
6
CONTINUOUS
10
50.1798
20
-9.91024
11
50.275
21
-9.62452
0
LINE
8
BLACK
6
CONTINUOUS
10
50.275
20
-9.62452
11
50.3702
21
-9.14833
0
LINE
8
BLACK
6
CONTINUOUS
10
50.3702
20
-9.14833
11
50.3702
21
-8.76738
0
LINE
8
BLACK
6
CONTINUOUS
10
50.3702
20
-8.76738
11
50.275
21
-8.29119
0
LINE
8
BLACK
6
CONTINUOUS
10
50.275
20
-8.29119
11
50.1798
21
-8.00548
0
LINE
8
BLACK
6
CONTINUOUS
10
50.1798
20
-8.00548
11
50.0845
21
-7.815
0
LINE
8
BLACK
6
CONTINUOUS
10
50.0845
20
-7.815
11
49.894
21
-7.52928
0
LINE
8
BLACK
6
CONTINUOUS
10
49.894
20
-7.52928
11
49.7988
21
-7.43405
0
LINE
8
BLACK
6
CONTINUOUS
10
-0.475
20
-10.805
11
-0.475
21
-12.105
0
LINE
8
BLACK
6
CONTINUOUS
10
-1.125
20
-11.455
11
0.175
21
-11.455
0
LINE
8
BLACK
6
CONTINUOUS
10
3.79881
20
-12.3598
11
2.65595
21
-12.3598
0
LINE
8
BLACK
6
CONTINUOUS
10
3.22738
20
-12.3598
11
3.22738
21
-10.3598
0
LINE
8
BLACK
6
CONTINUOUS
10
3.22738
20
-10.3598
11
3.0369
21
-10.6455
0
LINE
8
BLACK
6
CONTINUOUS
10
3.0369
20
-10.6455
11
2.84643
21
-10.836
0
LINE
8
BLACK
6
CONTINUOUS
10
2.84643
20
-10.836
11
2.65595
21
-10.9312
0
LINE
8
BLACK
6
CONTINUOUS
10
4.65595
20
-12.1693
11
4.75119
21
-12.2645
0
LINE
8
BLACK
6
CONTINUOUS
10
4.75119
20
-12.2645
11
4.65595
21
-12.3598
0
LINE
8
BLACK
6
CONTINUOUS
10
4.65595
20
-12.3598
11
4.56071
21
-12.2645
0
LINE
8
BLACK
6
CONTINUOUS
10
4.56071
20
-12.2645
11
4.65595
21
-12.1693
0
LINE
8
BLACK
6
CONTINUOUS
10
4.65595
20
-12.1693
11
4.65595
21
-12.3598
0
LINE
8
BLACK
6
CONTINUOUS
10
5.41786
20
-10.3598
11
6.65595
21
-10.3598
0
LINE
8
BLACK
6
CONTINUOUS
10
6.65595
20
-10.3598
11
5.98928
21
-11.1217
0
LINE
8
BLACK
6
CONTINUOUS
10
5.98928
20
-11.1217
11
6.275
21
-11.1217
0
LINE
8
BLACK
6
CONTINUOUS
10
6.275
20
-11.1217
11
6.46548
21
-11.2169
0
LINE
8
BLACK
6
CONTINUOUS
10
6.46548
20
-11.2169
11
6.56071
21
-11.3121
0
LINE
8
BLACK
6
CONTINUOUS
10
6.56071
20
-11.3121
11
6.65595
21
-11.5026
0
LINE
8
BLACK
6
CONTINUOUS
10
6.65595
20
-11.5026
11
6.65595
21
-11.9788
0
LINE
8
BLACK
6
CONTINUOUS
10
6.65595
20
-11.9788
11
6.56071
21
-12.1693
0
LINE
8
BLACK
6
CONTINUOUS
10
6.56071
20
-12.1693
11
6.46548
21
-12.2645
0
LINE
8
BLACK
6
CONTINUOUS
10
6.46548
20
-12.2645
11
6.275
21
-12.3598
0
LINE
8
BLACK
6
CONTINUOUS
10
6.275
20
-12.3598
11
5.70357
21
-12.3598
0
LINE
8
BLACK
6
CONTINUOUS
10
5.70357
20
-12.3598
11
5.51309
21
-12.2645
0
LINE
8
BLACK
6
CONTINUOUS
10
5.51309
20
-12.2645
11
5.41786
21
-12.1693
0
LINE
8
BLACK
6
CONTINUOUS
10
7.89405
20
-10.3598
11
8.08452
21
-10.3598
0
LINE
8
BLACK
6
CONTINUOUS
10
8.08452
20
-10.3598
11
8.275
21
-10.455
0
LINE
8
BLACK
6
CONTINUOUS
10
8.275
20
-10.455
11
8.37024
21
-10.5502
0
LINE
8
BLACK
6
CONTINUOUS
10
8.37024
20
-10.5502
11
8.46548
21
-10.7407
0
LINE
8
BLACK
6
CONTINUOUS
10
8.46548
20
-10.7407
11
8.56071
21
-11.1217
0
LINE
8
BLACK
6
CONTINUOUS
10
8.56071
20
-11.1217
11
8.56071
21
-11.5979
0
LINE
8
BLACK
6
CONTINUOUS
10
8.56071
20
-11.5979
11
8.46548
21
-11.9788
0
LINE
8
BLACK
6
CONTINUOUS
10
8.46548
20
-11.9788
11
8.37024
21
-12.1693
0
LINE
8
BLACK
6
CONTINUOUS
10
8.37024
20
-12.1693
11
8.275
21
-12.2645
0
LINE
8
BLACK
6
CONTINUOUS
10
8.275
20
-12.2645
11
8.08452
21
-12.3598
0
LINE
8
BLACK
6
CONTINUOUS
10
8.08452
20
-12.3598
11
7.89405
21
-12.3598
0
LINE
8
BLACK
6
CONTINUOUS
10
7.89405
20
-12.3598
11
7.70357
21
-12.2645
0
LINE
8
BLACK
6
CONTINUOUS
10
7.70357
20
-12.2645
11
7.60833
21
-12.1693
0
LINE
8
BLACK
6
CONTINUOUS
10
7.60833
20
-12.1693
11
7.51309
21
-11.9788
0
LINE
8
BLACK
6
CONTINUOUS
10
7.51309
20
-11.9788
11
7.41786
21
-11.5979
0
LINE
8
BLACK
6
CONTINUOUS
10
7.41786
20
-11.5979
11
7.41786
21
-11.1217
0
LINE
8
BLACK
6
CONTINUOUS
10
7.41786
20
-11.1217
11
7.51309
21
-10.7407
0
LINE
8
BLACK
6
CONTINUOUS
10
7.51309
20
-10.7407
11
7.60833
21
-10.5502
0
LINE
8
BLACK
6
CONTINUOUS
10
7.60833
20
-10.5502
11
7.70357
21
-10.455
0
LINE
8
BLACK
6
CONTINUOUS
10
7.70357
20
-10.455
11
7.89405
21
-10.3598
0
LINE
8
BLACK
6
CONTINUOUS
10
9.79881
20
-10.3598
11
9.98928
21
-10.3598
0
LINE
8
BLACK
6
CONTINUOUS
10
9.98928
20
-10.3598
11
10.1798
21
-10.455
0
LINE
8
BLACK
6
CONTINUOUS
10
10.1798
20
-10.455
11
10.275
21
-10.5502
0
LINE
8
BLACK
6
CONTINUOUS
10
10.275
20
-10.5502
11
10.3702
21
-10.7407
0
LINE
8
BLACK
6
CONTINUOUS
10
10.3702
20
-10.7407
11
10.4655
21
-11.1217
0
LINE
8
BLACK
6
CONTINUOUS
10
10.4655
20
-11.1217
11
10.4655
21
-11.5979
0
LINE
8
BLACK
6
CONTINUOUS
10
10.4655
20
-11.5979
11
10.3702
21
-11.9788
0
LINE
8
BLACK
6
CONTINUOUS
10
10.3702
20
-11.9788
11
10.275
21
-12.1693
0
LINE
8
BLACK
6
CONTINUOUS
10
10.275
20
-12.1693
11
10.1798
21
-12.2645
0
LINE
8
BLACK
6
CONTINUOUS
10
10.1798
20
-12.2645
11
9.98928
21
-12.3598
0
LINE
8
BLACK
6
CONTINUOUS
10
9.98928
20
-12.3598
11
9.79881
21
-12.3598
0
LINE
8
BLACK
6
CONTINUOUS
10
9.79881
20
-12.3598
11
9.60833
21
-12.2645
0
LINE
8
BLACK
6
CONTINUOUS
10
9.60833
20
-12.2645
11
9.51309
21
-12.1693
0
LINE
8
BLACK
6
CONTINUOUS
10
9.51309
20
-12.1693
11
9.41786
21
-11.9788
0
LINE
8
BLACK
6
CONTINUOUS
10
9.41786
20
-11.9788
11
9.32262
21
-11.5979
0
LINE
8
BLACK
6
CONTINUOUS
10
9.32262
20
-11.5979
11
9.32262
21
-11.1217
0
LINE
8
BLACK
6
CONTINUOUS
10
9.32262
20
-11.1217
11
9.41786
21
-10.7407
0
LINE
8
BLACK
6
CONTINUOUS
10
9.41786
20
-10.7407
11
9.51309
21
-10.5502
0
LINE
8
BLACK
6
CONTINUOUS
10
9.51309
20
-10.5502
11
9.60833
21
-10.455
0
LINE
8
BLACK
6
CONTINUOUS
10
9.60833
20
-10.455
11
9.79881
21
-10.3598
0
LINE
8
BLACK
6
CONTINUOUS
10
11.3226
20
-12.3598
11
11.3226
21
-11.0264
0
LINE
8
BLACK
6
CONTINUOUS
10
11.3226
20
-11.2169
11
11.4179
21
-11.1217
0
LINE
8
BLACK
6
CONTINUOUS
10
11.4179
20
-11.1217
11
11.6083
21
-11.0264
0
LINE
8
BLACK
6
CONTINUOUS
10
11.6083
20
-11.0264
11
11.894
21
-11.0264
0
LINE
8
BLACK
6
CONTINUOUS
10
11.894
20
-11.0264
11
12.0845
21
-11.1217
0
LINE
8
BLACK
6
CONTINUOUS
10
12.0845
20
-11.1217
11
12.1798
21
-11.3121
0
LINE
8
BLACK
6
CONTINUOUS
10
12.1798
20
-11.3121
11
12.1798
21
-12.3598
0
LINE
8
BLACK
6
CONTINUOUS
10
12.1798
20
-11.3121
11
12.275
21
-11.1217
0
LINE
8
BLACK
6
CONTINUOUS
10
12.275
20
-11.1217
11
12.4655
21
-11.0264
0
LINE
8
BLACK
6
CONTINUOUS
10
12.4655
20
-11.0264
11
12.7512
21
-11.0264
0
LINE
8
BLACK
6
CONTINUOUS
10
12.7512
20
-11.0264
11
12.9417
21
-11.1217
0
LINE
8
BLACK
6
CONTINUOUS
10
12.9417
20
-11.1217
11
13.0369
21
-11.3121
0
LINE
8
BLACK
6
CONTINUOUS
10
13.0369
20
-11.3121
11
13.0369
21
-12.3598
0
LINE
8
BLACK
6
CONTINUOUS
10
13.9893
20
-12.3598
11
13.9893
21
-11.0264
0
LINE
8
BLACK
6
CONTINUOUS
10
13.9893
20
-11.2169
11
14.0845
21
-11.1217
0
LINE
8
BLACK
6
CONTINUOUS
10
14.0845
20
-11.1217
11
14.275
21
-11.0264
0
LINE
8
BLACK
6
CONTINUOUS
10
14.275
20
-11.0264
11
14.5607
21
-11.0264
0
LINE
8
BLACK
6
CONTINUOUS
10
14.5607
20
-11.0264
11
14.7512
21
-11.1217
0
LINE
8
BLACK
6
CONTINUOUS
10
14.7512
20
-11.1217
11
14.8464
21
-11.3121
0
LINE
8
BLACK
6
CONTINUOUS
10
14.8464
20
-11.3121
11
14.8464
21
-12.3598
0
LINE
8
BLACK
6
CONTINUOUS
10
14.8464
20
-11.3121
11
14.9417
21
-11.1217
0
LINE
8
BLACK
6
CONTINUOUS
10
14.9417
20
-11.1217
11
15.1321
21
-11.0264
0
LINE
8
BLACK
6
CONTINUOUS
10
15.1321
20
-11.0264
11
15.4179
21
-11.0264
0
LINE
8
BLACK
6
CONTINUOUS
10
15.4179
20
-11.0264
11
15.6083
21
-11.1217
0
LINE
8
BLACK
6
CONTINUOUS
10
15.6083
20
-11.1217
11
15.7036
21
-11.3121
0
LINE
8
BLACK
6
CONTINUOUS
10
15.7036
20
-11.3121
11
15.7036
21
-12.3598
0
LINE
8
BLACK
6
CONTINUOUS
10
19.6083
20
-10.2645
11
17.894
21
-12.836
0
LINE
8
BLACK
6
CONTINUOUS
10
22.1798
20
-10.3598
11
22.3702
21
-10.3598
0
LINE
8
BLACK
6
CONTINUOUS
10
22.3702
20
-10.3598
11
22.5607
21
-10.455
0
LINE
8
BLACK
6
CONTINUOUS
10
22.5607
20
-10.455
11
22.656
21
-10.5502
0
LINE
8
BLACK
6
CONTINUOUS
10
22.656
20
-10.5502
11
22.7512
21
-10.7407
0
LINE
8
BLACK
6
CONTINUOUS
10
22.7512
20
-10.7407
11
22.8464
21
-11.1217
0
LINE
8
BLACK
6
CONTINUOUS
10
22.8464
20
-11.1217
11
22.8464
21
-11.5979
0
LINE
8
BLACK
6
CONTINUOUS
10
22.8464
20
-11.5979
11
22.7512
21
-11.9788
0
LINE
8
BLACK
6
CONTINUOUS
10
22.7512
20
-11.9788
11
22.656
21
-12.1693
0
LINE
8
BLACK
6
CONTINUOUS
10
22.656
20
-12.1693
11
22.5607
21
-12.2645
0
LINE
8
BLACK
6
CONTINUOUS
10
22.5607
20
-12.2645
11
22.3702
21
-12.3598
0
LINE
8
BLACK
6
CONTINUOUS
10
22.3702
20
-12.3598
11
22.1798
21
-12.3598
0
LINE
8
BLACK
6
CONTINUOUS
10
22.1798
20
-12.3598
11
21.9893
21
-12.2645
0
LINE
8
BLACK
6
CONTINUOUS
10
21.9893
20
-12.2645
11
21.894
21
-12.1693
0
LINE
8
BLACK
6
CONTINUOUS
10
21.894
20
-12.1693
11
21.7988
21
-11.9788
0
LINE
8
BLACK
6
CONTINUOUS
10
21.7988
20
-11.9788
11
21.7036
21
-11.5979
0
LINE
8
BLACK
6
CONTINUOUS
10
21.7036
20
-11.5979
11
21.7036
21
-11.1217
0
LINE
8
BLACK
6
CONTINUOUS
10
21.7036
20
-11.1217
11
21.7988
21
-10.7407
0
LINE
8
BLACK
6
CONTINUOUS
10
21.7988
20
-10.7407
11
21.894
21
-10.5502
0
LINE
8
BLACK
6
CONTINUOUS
10
21.894
20
-10.5502
11
21.9893
21
-10.455
0
LINE
8
BLACK
6
CONTINUOUS
10
21.9893
20
-10.455
11
22.1798
21
-10.3598
0
LINE
8
BLACK
6
CONTINUOUS
10
23.7036
20
-12.1693
11
23.7988
21
-12.2645
0
LINE
8
BLACK
6
CONTINUOUS
10
23.7988
20
-12.2645
11
23.7036
21
-12.3598
0
LINE
8
BLACK
6
CONTINUOUS
10
23.7036
20
-12.3598
11
23.6083
21
-12.2645
0
LINE
8
BLACK
6
CONTINUOUS
10
23.6083
20
-12.2645
11
23.7036
21
-12.1693
0
LINE
8
BLACK
6
CONTINUOUS
10
23.7036
20
-12.1693
11
23.7036
21
-12.3598
0
LINE
8
BLACK
6
CONTINUOUS
10
25.0369
20
-10.3598
11
25.2274
21
-10.3598
0
LINE
8
BLACK
6
CONTINUOUS
10
25.2274
20
-10.3598
11
25.4179
21
-10.455
0
LINE
8
BLACK
6
CONTINUOUS
10
25.4179
20
-10.455
11
25.5131
21
-10.5502
0
LINE
8
BLACK
6
CONTINUOUS
10
25.5131
20
-10.5502
11
25.6083
21
-10.7407
0
LINE
8
BLACK
6
CONTINUOUS
10
25.6083
20
-10.7407
11
25.7036
21
-11.1217
0
LINE
8
BLACK
6
CONTINUOUS
10
25.7036
20
-11.1217
11
25.7036
21
-11.5979
0
LINE
8
BLACK
6
CONTINUOUS
10
25.7036
20
-11.5979
11
25.6083
21
-11.9788
0
LINE
8
BLACK
6
CONTINUOUS
10
25.6083
20
-11.9788
11
25.5131
21
-12.1693
0
LINE
8
BLACK
6
CONTINUOUS
10
25.5131
20
-12.1693
11
25.4179
21
-12.2645
0
LINE
8
BLACK
6
CONTINUOUS
10
25.4179
20
-12.2645
11
25.2274
21
-12.3598
0
LINE
8
BLACK
6
CONTINUOUS
10
25.2274
20
-12.3598
11
25.0369
21
-12.3598
0
LINE
8
BLACK
6
CONTINUOUS
10
25.0369
20
-12.3598
11
24.8464
21
-12.2645
0
LINE
8
BLACK
6
CONTINUOUS
10
24.8464
20
-12.2645
11
24.7512
21
-12.1693
0
LINE
8
BLACK
6
CONTINUOUS
10
24.7512
20
-12.1693
11
24.656
21
-11.9788
0
LINE
8
BLACK
6
CONTINUOUS
10
24.656
20
-11.9788
11
24.5607
21
-11.5979
0
LINE
8
BLACK
6
CONTINUOUS
10
24.5607
20
-11.5979
11
24.5607
21
-11.1217
0
LINE
8
BLACK
6
CONTINUOUS
10
24.5607
20
-11.1217
11
24.656
21
-10.7407
0
LINE
8
BLACK
6
CONTINUOUS
10
24.656
20
-10.7407
11
24.7512
21
-10.5502
0
LINE
8
BLACK
6
CONTINUOUS
10
24.7512
20
-10.5502
11
24.8464
21
-10.455
0
LINE
8
BLACK
6
CONTINUOUS
10
24.8464
20
-10.455
11
25.0369
21
-10.3598
0
LINE
8
BLACK
6
CONTINUOUS
10
27.5131
20
-10.3598
11
26.5607
21
-10.3598
0
LINE
8
BLACK
6
CONTINUOUS
10
26.5607
20
-10.3598
11
26.4655
21
-11.3121
0
LINE
8
BLACK
6
CONTINUOUS
10
26.4655
20
-11.3121
11
26.5607
21
-11.2169
0
LINE
8
BLACK
6
CONTINUOUS
10
26.5607
20
-11.2169
11
26.7512
21
-11.1217
0
LINE
8
BLACK
6
CONTINUOUS
10
26.7512
20
-11.1217
11
27.2274
21
-11.1217
0
LINE
8
BLACK
6
CONTINUOUS
10
27.2274
20
-11.1217
11
27.4179
21
-11.2169
0
LINE
8
BLACK
6
CONTINUOUS
10
27.4179
20
-11.2169
11
27.5131
21
-11.3121
0
LINE
8
BLACK
6
CONTINUOUS
10
27.5131
20
-11.3121
11
27.6083
21
-11.5026
0
LINE
8
BLACK
6
CONTINUOUS
10
27.6083
20
-11.5026
11
27.6083
21
-11.9788
0
LINE
8
BLACK
6
CONTINUOUS
10
27.6083
20
-11.9788
11
27.5131
21
-12.1693
0
LINE
8
BLACK
6
CONTINUOUS
10
27.5131
20
-12.1693
11
27.4179
21
-12.2645
0
LINE
8
BLACK
6
CONTINUOUS
10
27.4179
20
-12.2645
11
27.2274
21
-12.3598
0
LINE
8
BLACK
6
CONTINUOUS
10
27.2274
20
-12.3598
11
26.7512
21
-12.3598
0
LINE
8
BLACK
6
CONTINUOUS
10
26.7512
20
-12.3598
11
26.5607
21
-12.2645
0
LINE
8
BLACK
6
CONTINUOUS
10
26.5607
20
-12.2645
11
26.4655
21
-12.1693
0
LINE
8
BLACK
6
CONTINUOUS
10
29.5131
20
-12.3598
11
28.3702
21
-12.3598
0
LINE
8
BLACK
6
CONTINUOUS
10
28.9417
20
-12.3598
11
28.9417
21
-10.3598
0
LINE
8
BLACK
6
CONTINUOUS
10
28.9417
20
-10.3598
11
28.7512
21
-10.6455
0
LINE
8
BLACK
6
CONTINUOUS
10
28.7512
20
-10.6455
11
28.5607
21
-10.836
0
LINE
8
BLACK
6
CONTINUOUS
10
28.5607
20
-10.836
11
28.3702
21
-10.9312
0
LINE
8
BLACK
6
CONTINUOUS
10
30.275
20
-10.5502
11
30.3702
21
-10.455
0
LINE
8
BLACK
6
CONTINUOUS
10
30.3702
20
-10.455
11
30.5607
21
-10.3598
0
LINE
8
BLACK
6
CONTINUOUS
10
30.5607
20
-10.3598
11
31.0369
21
-10.3598
0
LINE
8
BLACK
6
CONTINUOUS
10
31.0369
20
-10.3598
11
31.2274
21
-10.455
0
LINE
8
BLACK
6
CONTINUOUS
10
31.2274
20
-10.455
11
31.3226
21
-10.5502
0
LINE
8
BLACK
6
CONTINUOUS
10
31.3226
20
-10.5502
11
31.4179
21
-10.7407
0
LINE
8
BLACK
6
CONTINUOUS
10
31.4179
20
-10.7407
11
31.4179
21
-10.9312
0
LINE
8
BLACK
6
CONTINUOUS
10
31.4179
20
-10.9312
11
31.3226
21
-11.2169
0
LINE
8
BLACK
6
CONTINUOUS
10
31.3226
20
-11.2169
11
30.1798
21
-12.3598
0
LINE
8
BLACK
6
CONTINUOUS
10
30.1798
20
-12.3598
11
31.4179
21
-12.3598
0
LINE
8
BLACK
6
CONTINUOUS
10
32.1798
20
-10.3598
11
32.1798
21
-10.7407
0
LINE
8
BLACK
6
CONTINUOUS
10
32.9417
20
-10.3598
11
32.9417
21
-10.7407
0
LINE
8
BLACK
6
CONTINUOUS
10
35.894
20
-13.1217
11
35.7988
21
-13.0264
0
LINE
8
BLACK
6
CONTINUOUS
10
35.7988
20
-13.0264
11
35.6083
21
-12.7407
0
LINE
8
BLACK
6
CONTINUOUS
10
35.6083
20
-12.7407
11
35.5131
21
-12.5502
0
LINE
8
BLACK
6
CONTINUOUS
10
35.5131
20
-12.5502
11
35.4179
21
-12.2645
0
LINE
8
BLACK
6
CONTINUOUS
10
35.4179
20
-12.2645
11
35.3226
21
-11.7883
0
LINE
8
BLACK
6
CONTINUOUS
10
35.3226
20
-11.7883
11
35.3226
21
-11.4074
0
LINE
8
BLACK
6
CONTINUOUS
10
35.3226
20
-11.4074
11
35.4179
21
-10.9312
0
LINE
8
BLACK
6
CONTINUOUS
10
35.4179
20
-10.9312
11
35.5131
21
-10.6455
0
LINE
8
BLACK
6
CONTINUOUS
10
35.5131
20
-10.6455
11
35.6083
21
-10.455
0
LINE
8
BLACK
6
CONTINUOUS
10
35.6083
20
-10.455
11
35.7988
21
-10.1693
0
LINE
8
BLACK
6
CONTINUOUS
10
35.7988
20
-10.1693
11
35.894
21
-10.074
0
LINE
8
BLACK
6
CONTINUOUS
10
37.5131
20
-11.0264
11
37.5131
21
-12.3598
0
LINE
8
BLACK
6
CONTINUOUS
10
37.0369
20
-10.2645
11
36.5607
21
-11.6931
0
LINE
8
BLACK
6
CONTINUOUS
10
36.5607
20
-11.6931
11
37.7988
21
-11.6931
0
LINE
8
BLACK
6
CONTINUOUS
10
40.0845
20
-12.3598
11
40.0845
21
-10.3598
0
LINE
8
BLACK
6
CONTINUOUS
10
40.9417
20
-12.3598
11
40.9417
21
-11.3121
0
LINE
8
BLACK
6
CONTINUOUS
10
40.9417
20
-11.3121
11
40.8464
21
-11.1217
0
LINE
8
BLACK
6
CONTINUOUS
10
40.8464
20
-11.1217
11
40.656
21
-11.0264
0
LINE
8
BLACK
6
CONTINUOUS
10
40.656
20
-11.0264
11
40.3702
21
-11.0264
0
LINE
8
BLACK
6
CONTINUOUS
10
40.3702
20
-11.0264
11
40.1798
21
-11.1217
0
LINE
8
BLACK
6
CONTINUOUS
10
40.1798
20
-11.1217
11
40.0845
21
-11.2169
0
LINE
8
BLACK
6
CONTINUOUS
10
42.1798
20
-12.3598
11
41.9893
21
-12.2645
0
LINE
8
BLACK
6
CONTINUOUS
10
41.9893
20
-12.2645
11
41.894
21
-12.1693
0
LINE
8
BLACK
6
CONTINUOUS
10
41.894
20
-12.1693
11
41.7988
21
-11.9788
0
LINE
8
BLACK
6
CONTINUOUS
10
41.7988
20
-11.9788
11
41.7988
21
-11.4074
0
LINE
8
BLACK
6
CONTINUOUS
10
41.7988
20
-11.4074
11
41.894
21
-11.2169
0
LINE
8
BLACK
6
CONTINUOUS
10
41.894
20
-11.2169
11
41.9893
21
-11.1217
0
LINE
8
BLACK
6
CONTINUOUS
10
41.9893
20
-11.1217
11
42.1798
21
-11.0264
0
LINE
8
BLACK
6
CONTINUOUS
10
42.1798
20
-11.0264
11
42.4655
21
-11.0264
0
LINE
8
BLACK
6
CONTINUOUS
10
42.4655
20
-11.0264
11
42.656
21
-11.1217
0
LINE
8
BLACK
6
CONTINUOUS
10
42.656
20
-11.1217
11
42.7512
21
-11.2169
0
LINE
8
BLACK
6
CONTINUOUS
10
42.7512
20
-11.2169
11
42.8464
21
-11.4074
0
LINE
8
BLACK
6
CONTINUOUS
10
42.8464
20
-11.4074
11
42.8464
21
-11.9788
0
LINE
8
BLACK
6
CONTINUOUS
10
42.8464
20
-11.9788
11
42.7512
21
-12.1693
0
LINE
8
BLACK
6
CONTINUOUS
10
42.7512
20
-12.1693
11
42.656
21
-12.2645
0
LINE
8
BLACK
6
CONTINUOUS
10
42.656
20
-12.2645
11
42.4655
21
-12.3598
0
LINE
8
BLACK
6
CONTINUOUS
10
42.4655
20
-12.3598
11
42.1798
21
-12.3598
0
LINE
8
BLACK
6
CONTINUOUS
10
43.9893
20
-12.3598
11
43.7988
21
-12.2645
0
LINE
8
BLACK
6
CONTINUOUS
10
43.7988
20
-12.2645
11
43.7036
21
-12.074
0
LINE
8
BLACK
6
CONTINUOUS
10
43.7036
20
-12.074
11
43.7036
21
-10.3598
0
LINE
8
BLACK
6
CONTINUOUS
10
45.5131
20
-12.2645
11
45.3226
21
-12.3598
0
LINE
8
BLACK
6
CONTINUOUS
10
45.3226
20
-12.3598
11
44.9417
21
-12.3598
0
LINE
8
BLACK
6
CONTINUOUS
10
44.9417
20
-12.3598
11
44.7512
21
-12.2645
0
LINE
8
BLACK
6
CONTINUOUS
10
44.7512
20
-12.2645
11
44.656
21
-12.074
0
LINE
8
BLACK
6
CONTINUOUS
10
44.656
20
-12.074
11
44.656
21
-11.3121
0
LINE
8
BLACK
6
CONTINUOUS
10
44.656
20
-11.3121
11
44.7512
21
-11.1217
0
LINE
8
BLACK
6
CONTINUOUS
10
44.7512
20
-11.1217
11
44.9417
21
-11.0264
0
LINE
8
BLACK
6
CONTINUOUS
10
44.9417
20
-11.0264
11
45.3226
21
-11.0264
0
LINE
8
BLACK
6
CONTINUOUS
10
45.3226
20
-11.0264
11
45.5131
21
-11.1217
0
LINE
8
BLACK
6
CONTINUOUS
10
45.5131
20
-11.1217
11
45.6083
21
-11.3121
0
LINE
8
BLACK
6
CONTINUOUS
10
45.6083
20
-11.3121
11
45.6083
21
-11.5026
0
LINE
8
BLACK
6
CONTINUOUS
10
45.6083
20
-11.5026
11
44.656
21
-11.6931
0
LINE
8
BLACK
6
CONTINUOUS
10
46.3702
20
-12.2645
11
46.5607
21
-12.3598
0
LINE
8
BLACK
6
CONTINUOUS
10
46.5607
20
-12.3598
11
46.9417
21
-12.3598
0
LINE
8
BLACK
6
CONTINUOUS
10
46.9417
20
-12.3598
11
47.1321
21
-12.2645
0
LINE
8
BLACK
6
CONTINUOUS
10
47.1321
20
-12.2645
11
47.2274
21
-12.074
0
LINE
8
BLACK
6
CONTINUOUS
10
47.2274
20
-12.074
11
47.2274
21
-11.9788
0
LINE
8
BLACK
6
CONTINUOUS
10
47.2274
20
-11.9788
11
47.1321
21
-11.7883
0
LINE
8
BLACK
6
CONTINUOUS
10
47.1321
20
-11.7883
11
46.9417
21
-11.6931
0
LINE
8
BLACK
6
CONTINUOUS
10
46.9417
20
-11.6931
11
46.656
21
-11.6931
0
LINE
8
BLACK
6
CONTINUOUS
10
46.656
20
-11.6931
11
46.4655
21
-11.5979
0
LINE
8
BLACK
6
CONTINUOUS
10
46.4655
20
-11.5979
11
46.3702
21
-11.4074
0
LINE
8
BLACK
6
CONTINUOUS
10
46.3702
20
-11.4074
11
46.3702
21
-11.3121
0
LINE
8
BLACK
6
CONTINUOUS
10
46.3702
20
-11.3121
11
46.4655
21
-11.1217
0
LINE
8
BLACK
6
CONTINUOUS
10
46.4655
20
-11.1217
11
46.656
21
-11.0264
0
LINE
8
BLACK
6
CONTINUOUS
10
46.656
20
-11.0264
11
46.9417
21
-11.0264
0
LINE
8
BLACK
6
CONTINUOUS
10
46.9417
20
-11.0264
11
47.1321
21
-11.1217
0
LINE
8
BLACK
6
CONTINUOUS
10
47.894
20
-13.1217
11
47.9893
21
-13.0264
0
LINE
8
BLACK
6
CONTINUOUS
10
47.9893
20
-13.0264
11
48.1798
21
-12.7407
0
LINE
8
BLACK
6
CONTINUOUS
10
48.1798
20
-12.7407
11
48.275
21
-12.5502
0
LINE
8
BLACK
6
CONTINUOUS
10
48.275
20
-12.5502
11
48.3702
21
-12.2645
0
LINE
8
BLACK
6
CONTINUOUS
10
48.3702
20
-12.2645
11
48.4655
21
-11.7883
0
LINE
8
BLACK
6
CONTINUOUS
10
48.4655
20
-11.7883
11
48.4655
21
-11.4074
0
LINE
8
BLACK
6
CONTINUOUS
10
48.4655
20
-11.4074
11
48.3702
21
-10.9312
0
LINE
8
BLACK
6
CONTINUOUS
10
48.3702
20
-10.9312
11
48.275
21
-10.6455
0
LINE
8
BLACK
6
CONTINUOUS
10
48.275
20
-10.6455
11
48.1798
21
-10.455
0
LINE
8
BLACK
6
CONTINUOUS
10
48.1798
20
-10.455
11
47.9893
21
-10.1693
0
LINE
8
BLACK
6
CONTINUOUS
10
47.9893
20
-10.1693
11
47.894
21
-10.074
0
LINE
8
BLACK
6
CONTINUOUS
10
-0.117886
20
-14.8021
11
-0.117886
21
-13.3879
0
LINE
8
BLACK
6
CONTINUOUS
10
-0.117886
20
-13.3879
11
-1.53211
21
-13.3879
0
LINE
8
BLACK
6
CONTINUOUS
10
-1.53211
20
-13.3879
11
-1.53211
21
-14.8021
0
LINE
8
BLACK
6
CONTINUOUS
10
-1.53211
20
-14.8021
11
-0.117886
21
-14.8021
0
LINE
8
BLACK
6
CONTINUOUS
10
2.56071
20
-12.9998
11
3.79881
21
-12.9998
0
LINE
8
BLACK
6
CONTINUOUS
10
3.79881
20
-12.9998
11
3.13214
21
-13.7617
0
LINE
8
BLACK
6
CONTINUOUS
10
3.13214
20
-13.7617
11
3.41786
21
-13.7617
0
LINE
8
BLACK
6
CONTINUOUS
10
3.41786
20
-13.7617
11
3.60833
21
-13.8569
0
LINE
8
BLACK
6
CONTINUOUS
10
3.60833
20
-13.8569
11
3.70357
21
-13.9521
0
LINE
8
BLACK
6
CONTINUOUS
10
3.70357
20
-13.9521
11
3.79881
21
-14.1426
0
LINE
8
BLACK
6
CONTINUOUS
10
3.79881
20
-14.1426
11
3.79881
21
-14.6188
0
LINE
8
BLACK
6
CONTINUOUS
10
3.79881
20
-14.6188
11
3.70357
21
-14.8093
0
LINE
8
BLACK
6
CONTINUOUS
10
3.70357
20
-14.8093
11
3.60833
21
-14.9045
0
LINE
8
BLACK
6
CONTINUOUS
10
3.60833
20
-14.9045
11
3.41786
21
-14.9998
0
LINE
8
BLACK
6
CONTINUOUS
10
3.41786
20
-14.9998
11
2.84643
21
-14.9998
0
LINE
8
BLACK
6
CONTINUOUS
10
2.84643
20
-14.9998
11
2.65595
21
-14.9045
0
LINE
8
BLACK
6
CONTINUOUS
10
2.65595
20
-14.9045
11
2.56071
21
-14.8093
0
LINE
8
BLACK
6
CONTINUOUS
10
4.65595
20
-14.8093
11
4.75119
21
-14.9045
0
LINE
8
BLACK
6
CONTINUOUS
10
4.75119
20
-14.9045
11
4.65595
21
-14.9998
0
LINE
8
BLACK
6
CONTINUOUS
10
4.65595
20
-14.9998
11
4.56071
21
-14.9045
0
LINE
8
BLACK
6
CONTINUOUS
10
4.56071
20
-14.9045
11
4.65595
21
-14.8093
0
LINE
8
BLACK
6
CONTINUOUS
10
4.65595
20
-14.8093
11
4.65595
21
-14.9998
0
LINE
8
BLACK
6
CONTINUOUS
10
5.51309
20
-13.1902
11
5.60833
21
-13.095
0
LINE
8
BLACK
6
CONTINUOUS
10
5.60833
20
-13.095
11
5.79881
21
-12.9998
0
LINE
8
BLACK
6
CONTINUOUS
10
5.79881
20
-12.9998
11
6.275
21
-12.9998
0
LINE
8
BLACK
6
CONTINUOUS
10
6.275
20
-12.9998
11
6.46548
21
-13.095
0
LINE
8
BLACK
6
CONTINUOUS
10
6.46548
20
-13.095
11
6.56071
21
-13.1902
0
LINE
8
BLACK
6
CONTINUOUS
10
6.56071
20
-13.1902
11
6.65595
21
-13.3807
0
LINE
8
BLACK
6
CONTINUOUS
10
6.65595
20
-13.3807
11
6.65595
21
-13.5712
0
LINE
8
BLACK
6
CONTINUOUS
10
6.65595
20
-13.5712
11
6.56071
21
-13.8569
0
LINE
8
BLACK
6
CONTINUOUS
10
6.56071
20
-13.8569
11
5.41786
21
-14.9998
0
LINE
8
BLACK
6
CONTINUOUS
10
5.41786
20
-14.9998
11
6.65595
21
-14.9998
0
LINE
8
BLACK
6
CONTINUOUS
10
7.89405
20
-12.9998
11
8.08452
21
-12.9998
0
LINE
8
BLACK
6
CONTINUOUS
10
8.08452
20
-12.9998
11
8.275
21
-13.095
0
LINE
8
BLACK
6
CONTINUOUS
10
8.275
20
-13.095
11
8.37024
21
-13.1902
0
LINE
8
BLACK
6
CONTINUOUS
10
8.37024
20
-13.1902
11
8.46548
21
-13.3807
0
LINE
8
BLACK
6
CONTINUOUS
10
8.46548
20
-13.3807
11
8.56071
21
-13.7617
0
LINE
8
BLACK
6
CONTINUOUS
10
8.56071
20
-13.7617
11
8.56071
21
-14.2379
0
LINE
8
BLACK
6
CONTINUOUS
10
8.56071
20
-14.2379
11
8.46548
21
-14.6188
0
LINE
8
BLACK
6
CONTINUOUS
10
8.46548
20
-14.6188
11
8.37024
21
-14.8093
0
LINE
8
BLACK
6
CONTINUOUS
10
8.37024
20
-14.8093
11
8.275
21
-14.9045
0
LINE
8
BLACK
6
CONTINUOUS
10
8.275
20
-14.9045
11
8.08452
21
-14.9998
0
LINE
8
BLACK
6
CONTINUOUS
10
8.08452
20
-14.9998
11
7.89405
21
-14.9998
0
LINE
8
BLACK
6
CONTINUOUS
10
7.89405
20
-14.9998
11
7.70357
21
-14.9045
0
LINE
8
BLACK
6
CONTINUOUS
10
7.70357
20
-14.9045
11
7.60833
21
-14.8093
0
LINE
8
BLACK
6
CONTINUOUS
10
7.60833
20
-14.8093
11
7.51309
21
-14.6188
0
LINE
8
BLACK
6
CONTINUOUS
10
7.51309
20
-14.6188
11
7.41786
21
-14.2379
0
LINE
8
BLACK
6
CONTINUOUS
10
7.41786
20
-14.2379
11
7.41786
21
-13.7617
0
LINE
8
BLACK
6
CONTINUOUS
10
7.41786
20
-13.7617
11
7.51309
21
-13.3807
0
LINE
8
BLACK
6
CONTINUOUS
10
7.51309
20
-13.3807
11
7.60833
21
-13.1902
0
LINE
8
BLACK
6
CONTINUOUS
10
7.60833
20
-13.1902
11
7.70357
21
-13.095
0
LINE
8
BLACK
6
CONTINUOUS
10
7.70357
20
-13.095
11
7.89405
21
-12.9998
0
LINE
8
BLACK
6
CONTINUOUS
10
9.79881
20
-12.9998
11
9.98928
21
-12.9998
0
LINE
8
BLACK
6
CONTINUOUS
10
9.98928
20
-12.9998
11
10.1798
21
-13.095
0
LINE
8
BLACK
6
CONTINUOUS
10
10.1798
20
-13.095
11
10.275
21
-13.1902
0
LINE
8
BLACK
6
CONTINUOUS
10
10.275
20
-13.1902
11
10.3702
21
-13.3807
0
LINE
8
BLACK
6
CONTINUOUS
10
10.3702
20
-13.3807
11
10.4655
21
-13.7617
0
LINE
8
BLACK
6
CONTINUOUS
10
10.4655
20
-13.7617
11
10.4655
21
-14.2379
0
LINE
8
BLACK
6
CONTINUOUS
10
10.4655
20
-14.2379
11
10.3702
21
-14.6188
0
LINE
8
BLACK
6
CONTINUOUS
10
10.3702
20
-14.6188
11
10.275
21
-14.8093
0
LINE
8
BLACK
6
CONTINUOUS
10
10.275
20
-14.8093
11
10.1798
21
-14.9045
0
LINE
8
BLACK
6
CONTINUOUS
10
10.1798
20
-14.9045
11
9.98928
21
-14.9998
0
LINE
8
BLACK
6
CONTINUOUS
10
9.98928
20
-14.9998
11
9.79881
21
-14.9998
0
LINE
8
BLACK
6
CONTINUOUS
10
9.79881
20
-14.9998
11
9.60833
21
-14.9045
0
LINE
8
BLACK
6
CONTINUOUS
10
9.60833
20
-14.9045
11
9.51309
21
-14.8093
0
LINE
8
BLACK
6
CONTINUOUS
10
9.51309
20
-14.8093
11
9.41786
21
-14.6188
0
LINE
8
BLACK
6
CONTINUOUS
10
9.41786
20
-14.6188
11
9.32262
21
-14.2379
0
LINE
8
BLACK
6
CONTINUOUS
10
9.32262
20
-14.2379
11
9.32262
21
-13.7617
0
LINE
8
BLACK
6
CONTINUOUS
10
9.32262
20
-13.7617
11
9.41786
21
-13.3807
0
LINE
8
BLACK
6
CONTINUOUS
10
9.41786
20
-13.3807
11
9.51309
21
-13.1902
0
LINE
8
BLACK
6
CONTINUOUS
10
9.51309
20
-13.1902
11
9.60833
21
-13.095
0
LINE
8
BLACK
6
CONTINUOUS
10
9.60833
20
-13.095
11
9.79881
21
-12.9998
0
LINE
8
BLACK
6
CONTINUOUS
10
11.3226
20
-14.9998
11
11.3226
21
-13.6664
0
LINE
8
BLACK
6
CONTINUOUS
10
11.3226
20
-13.8569
11
11.4179
21
-13.7617
0
LINE
8
BLACK
6
CONTINUOUS
10
11.4179
20
-13.7617
11
11.6083
21
-13.6664
0
LINE
8
BLACK
6
CONTINUOUS
10
11.6083
20
-13.6664
11
11.894
21
-13.6664
0
LINE
8
BLACK
6
CONTINUOUS
10
11.894
20
-13.6664
11
12.0845
21
-13.7617
0
LINE
8
BLACK
6
CONTINUOUS
10
12.0845
20
-13.7617
11
12.1798
21
-13.9521
0
LINE
8
BLACK
6
CONTINUOUS
10
12.1798
20
-13.9521
11
12.1798
21
-14.9998
0
LINE
8
BLACK
6
CONTINUOUS
10
12.1798
20
-13.9521
11
12.275
21
-13.7617
0
LINE
8
BLACK
6
CONTINUOUS
10
12.275
20
-13.7617
11
12.4655
21
-13.6664
0
LINE
8
BLACK
6
CONTINUOUS
10
12.4655
20
-13.6664
11
12.7512
21
-13.6664
0
LINE
8
BLACK
6
CONTINUOUS
10
12.7512
20
-13.6664
11
12.9417
21
-13.7617
0
LINE
8
BLACK
6
CONTINUOUS
10
12.9417
20
-13.7617
11
13.0369
21
-13.9521
0
LINE
8
BLACK
6
CONTINUOUS
10
13.0369
20
-13.9521
11
13.0369
21
-14.9998
0
LINE
8
BLACK
6
CONTINUOUS
10
13.9893
20
-14.9998
11
13.9893
21
-13.6664
0
LINE
8
BLACK
6
CONTINUOUS
10
13.9893
20
-13.8569
11
14.0845
21
-13.7617
0
LINE
8
BLACK
6
CONTINUOUS
10
14.0845
20
-13.7617
11
14.275
21
-13.6664
0
LINE
8
BLACK
6
CONTINUOUS
10
14.275
20
-13.6664
11
14.5607
21
-13.6664
0
LINE
8
BLACK
6
CONTINUOUS
10
14.5607
20
-13.6664
11
14.7512
21
-13.7617
0
LINE
8
BLACK
6
CONTINUOUS
10
14.7512
20
-13.7617
11
14.8464
21
-13.9521
0
LINE
8
BLACK
6
CONTINUOUS
10
14.8464
20
-13.9521
11
14.8464
21
-14.9998
0
LINE
8
BLACK
6
CONTINUOUS
10
14.8464
20
-13.9521
11
14.9417
21
-13.7617
0
LINE
8
BLACK
6
CONTINUOUS
10
14.9417
20
-13.7617
11
15.1321
21
-13.6664
0
LINE
8
BLACK
6
CONTINUOUS
10
15.1321
20
-13.6664
11
15.4179
21
-13.6664
0
LINE
8
BLACK
6
CONTINUOUS
10
15.4179
20
-13.6664
11
15.6083
21
-13.7617
0
LINE
8
BLACK
6
CONTINUOUS
10
15.6083
20
-13.7617
11
15.7036
21
-13.9521
0
LINE
8
BLACK
6
CONTINUOUS
10
15.7036
20
-13.9521
11
15.7036
21
-14.9998
0
LINE
8
BLACK
6
CONTINUOUS
10
19.6083
20
-12.9045
11
17.894
21
-15.476
0
LINE
8
BLACK
6
CONTINUOUS
10
22.1798
20
-12.9998
11
22.3702
21
-12.9998
0
LINE
8
BLACK
6
CONTINUOUS
10
22.3702
20
-12.9998
11
22.5607
21
-13.095
0
LINE
8
BLACK
6
CONTINUOUS
10
22.5607
20
-13.095
11
22.656
21
-13.1902
0
LINE
8
BLACK
6
CONTINUOUS
10
22.656
20
-13.1902
11
22.7512
21
-13.3807
0
LINE
8
BLACK
6
CONTINUOUS
10
22.7512
20
-13.3807
11
22.8464
21
-13.7617
0
LINE
8
BLACK
6
CONTINUOUS
10
22.8464
20
-13.7617
11
22.8464
21
-14.2379
0
LINE
8
BLACK
6
CONTINUOUS
10
22.8464
20
-14.2379
11
22.7512
21
-14.6188
0
LINE
8
BLACK
6
CONTINUOUS
10
22.7512
20
-14.6188
11
22.656
21
-14.8093
0
LINE
8
BLACK
6
CONTINUOUS
10
22.656
20
-14.8093
11
22.5607
21
-14.9045
0
LINE
8
BLACK
6
CONTINUOUS
10
22.5607
20
-14.9045
11
22.3702
21
-14.9998
0
LINE
8
BLACK
6
CONTINUOUS
10
22.3702
20
-14.9998
11
22.1798
21
-14.9998
0
LINE
8
BLACK
6
CONTINUOUS
10
22.1798
20
-14.9998
11
21.9893
21
-14.9045
0
LINE
8
BLACK
6
CONTINUOUS
10
21.9893
20
-14.9045
11
21.894
21
-14.8093
0
LINE
8
BLACK
6
CONTINUOUS
10
21.894
20
-14.8093
11
21.7988
21
-14.6188
0
LINE
8
BLACK
6
CONTINUOUS
10
21.7988
20
-14.6188
11
21.7036
21
-14.2379
0
LINE
8
BLACK
6
CONTINUOUS
10
21.7036
20
-14.2379
11
21.7036
21
-13.7617
0
LINE
8
BLACK
6
CONTINUOUS
10
21.7036
20
-13.7617
11
21.7988
21
-13.3807
0
LINE
8
BLACK
6
CONTINUOUS
10
21.7988
20
-13.3807
11
21.894
21
-13.1902
0
LINE
8
BLACK
6
CONTINUOUS
10
21.894
20
-13.1902
11
21.9893
21
-13.095
0
LINE
8
BLACK
6
CONTINUOUS
10
21.9893
20
-13.095
11
22.1798
21
-12.9998
0
LINE
8
BLACK
6
CONTINUOUS
10
23.7036
20
-14.8093
11
23.7988
21
-14.9045
0
LINE
8
BLACK
6
CONTINUOUS
10
23.7988
20
-14.9045
11
23.7036
21
-14.9998
0
LINE
8
BLACK
6
CONTINUOUS
10
23.7036
20
-14.9998
11
23.6083
21
-14.9045
0
LINE
8
BLACK
6
CONTINUOUS
10
23.6083
20
-14.9045
11
23.7036
21
-14.8093
0
LINE
8
BLACK
6
CONTINUOUS
10
23.7036
20
-14.8093
11
23.7036
21
-14.9998
0
LINE
8
BLACK
6
CONTINUOUS
10
25.7036
20
-14.9998
11
24.5607
21
-14.9998
0
LINE
8
BLACK
6
CONTINUOUS
10
25.1321
20
-14.9998
11
25.1321
21
-12.9998
0
LINE
8
BLACK
6
CONTINUOUS
10
25.1321
20
-12.9998
11
24.9417
21
-13.2855
0
LINE
8
BLACK
6
CONTINUOUS
10
24.9417
20
-13.2855
11
24.7512
21
-13.476
0
LINE
8
BLACK
6
CONTINUOUS
10
24.7512
20
-13.476
11
24.5607
21
-13.5712
0
LINE
8
BLACK
6
CONTINUOUS
10
26.4655
20
-13.1902
11
26.5607
21
-13.095
0
LINE
8
BLACK
6
CONTINUOUS
10
26.5607
20
-13.095
11
26.7512
21
-12.9998
0
LINE
8
BLACK
6
CONTINUOUS
10
26.7512
20
-12.9998
11
27.2274
21
-12.9998
0
LINE
8
BLACK
6
CONTINUOUS
10
27.2274
20
-12.9998
11
27.4179
21
-13.095
0
LINE
8
BLACK
6
CONTINUOUS
10
27.4179
20
-13.095
11
27.5131
21
-13.1902
0
LINE
8
BLACK
6
CONTINUOUS
10
27.5131
20
-13.1902
11
27.6083
21
-13.3807
0
LINE
8
BLACK
6
CONTINUOUS
10
27.6083
20
-13.3807
11
27.6083
21
-13.5712
0
LINE
8
BLACK
6
CONTINUOUS
10
27.6083
20
-13.5712
11
27.5131
21
-13.8569
0
LINE
8
BLACK
6
CONTINUOUS
10
27.5131
20
-13.8569
11
26.3702
21
-14.9998
0
LINE
8
BLACK
6
CONTINUOUS
10
26.3702
20
-14.9998
11
27.6083
21
-14.9998
0
LINE
8
BLACK
6
CONTINUOUS
10
29.3226
20
-12.9998
11
28.9417
21
-12.9998
0
LINE
8
BLACK
6
CONTINUOUS
10
28.9417
20
-12.9998
11
28.7512
21
-13.095
0
LINE
8
BLACK
6
CONTINUOUS
10
28.7512
20
-13.095
11
28.656
21
-13.1902
0
LINE
8
BLACK
6
CONTINUOUS
10
28.656
20
-13.1902
11
28.4655
21
-13.476
0
LINE
8
BLACK
6
CONTINUOUS
10
28.4655
20
-13.476
11
28.3702
21
-13.8569
0
LINE
8
BLACK
6
CONTINUOUS
10
28.3702
20
-13.8569
11
28.3702
21
-14.6188
0
LINE
8
BLACK
6
CONTINUOUS
10
28.3702
20
-14.6188
11
28.4655
21
-14.8093
0
LINE
8
BLACK
6
CONTINUOUS
10
28.4655
20
-14.8093
11
28.5607
21
-14.9045
0
LINE
8
BLACK
6
CONTINUOUS
10
28.5607
20
-14.9045
11
28.7512
21
-14.9998
0
LINE
8
BLACK
6
CONTINUOUS
10
28.7512
20
-14.9998
11
29.1321
21
-14.9998
0
LINE
8
BLACK
6
CONTINUOUS
10
29.1321
20
-14.9998
11
29.3226
21
-14.9045
0
LINE
8
BLACK
6
CONTINUOUS
10
29.3226
20
-14.9045
11
29.4179
21
-14.8093
0
LINE
8
BLACK
6
CONTINUOUS
10
29.4179
20
-14.8093
11
29.5131
21
-14.6188
0
LINE
8
BLACK
6
CONTINUOUS
10
29.5131
20
-14.6188
11
29.5131
21
-14.1426
0
LINE
8
BLACK
6
CONTINUOUS
10
29.5131
20
-14.1426
11
29.4179
21
-13.9521
0
LINE
8
BLACK
6
CONTINUOUS
10
29.4179
20
-13.9521
11
29.3226
21
-13.8569
0
LINE
8
BLACK
6
CONTINUOUS
10
29.3226
20
-13.8569
11
29.1321
21
-13.7617
0
LINE
8
BLACK
6
CONTINUOUS
10
29.1321
20
-13.7617
11
28.7512
21
-13.7617
0
LINE
8
BLACK
6
CONTINUOUS
10
28.7512
20
-13.7617
11
28.5607
21
-13.8569
0
LINE
8
BLACK
6
CONTINUOUS
10
28.5607
20
-13.8569
11
28.4655
21
-13.9521
0
LINE
8
BLACK
6
CONTINUOUS
10
28.4655
20
-13.9521
11
28.3702
21
-14.1426
0
LINE
8
BLACK
6
CONTINUOUS
10
30.7512
20
-12.9998
11
30.9417
21
-12.9998
0
LINE
8
BLACK
6
CONTINUOUS
10
30.9417
20
-12.9998
11
31.1321
21
-13.095
0
LINE
8
BLACK
6
CONTINUOUS
10
31.1321
20
-13.095
11
31.2274
21
-13.1902
0
LINE
8
BLACK
6
CONTINUOUS
10
31.2274
20
-13.1902
11
31.3226
21
-13.3807
0
LINE
8
BLACK
6
CONTINUOUS
10
31.3226
20
-13.3807
11
31.4179
21
-13.7617
0
LINE
8
BLACK
6
CONTINUOUS
10
31.4179
20
-13.7617
11
31.4179
21
-14.2379
0
LINE
8
BLACK
6
CONTINUOUS
10
31.4179
20
-14.2379
11
31.3226
21
-14.6188
0
LINE
8
BLACK
6
CONTINUOUS
10
31.3226
20
-14.6188
11
31.2274
21
-14.8093
0
LINE
8
BLACK
6
CONTINUOUS
10
31.2274
20
-14.8093
11
31.1321
21
-14.9045
0
LINE
8
BLACK
6
CONTINUOUS
10
31.1321
20
-14.9045
11
30.9417
21
-14.9998
0
LINE
8
BLACK
6
CONTINUOUS
10
30.9417
20
-14.9998
11
30.7512
21
-14.9998
0
LINE
8
BLACK
6
CONTINUOUS
10
30.7512
20
-14.9998
11
30.5607
21
-14.9045
0
LINE
8
BLACK
6
CONTINUOUS
10
30.5607
20
-14.9045
11
30.4655
21
-14.8093
0
LINE
8
BLACK
6
CONTINUOUS
10
30.4655
20
-14.8093
11
30.3702
21
-14.6188
0
LINE
8
BLACK
6
CONTINUOUS
10
30.3702
20
-14.6188
11
30.275
21
-14.2379
0
LINE
8
BLACK
6
CONTINUOUS
10
30.275
20
-14.2379
11
30.275
21
-13.7617
0
LINE
8
BLACK
6
CONTINUOUS
10
30.275
20
-13.7617
11
30.3702
21
-13.3807
0
LINE
8
BLACK
6
CONTINUOUS
10
30.3702
20
-13.3807
11
30.4655
21
-13.1902
0
LINE
8
BLACK
6
CONTINUOUS
10
30.4655
20
-13.1902
11
30.5607
21
-13.095
0
LINE
8
BLACK
6
CONTINUOUS
10
30.5607
20
-13.095
11
30.7512
21
-12.9998
0
LINE
8
BLACK
6
CONTINUOUS
10
32.1798
20
-12.9998
11
32.1798
21
-13.3807
0
LINE
8
BLACK
6
CONTINUOUS
10
32.9417
20
-12.9998
11
32.9417
21
-13.3807
0
LINE
8
BLACK
6
CONTINUOUS
10
35.894
20
-15.7617
11
35.7988
21
-15.6664
0
LINE
8
BLACK
6
CONTINUOUS
10
35.7988
20
-15.6664
11
35.6083
21
-15.3807
0
LINE
8
BLACK
6
CONTINUOUS
10
35.6083
20
-15.3807
11
35.5131
21
-15.1902
0
LINE
8
BLACK
6
CONTINUOUS
10
35.5131
20
-15.1902
11
35.4179
21
-14.9045
0
LINE
8
BLACK
6
CONTINUOUS
10
35.4179
20
-14.9045
11
35.3226
21
-14.4283
0
LINE
8
BLACK
6
CONTINUOUS
10
35.3226
20
-14.4283
11
35.3226
21
-14.0474
0
LINE
8
BLACK
6
CONTINUOUS
10
35.3226
20
-14.0474
11
35.4179
21
-13.5712
0
LINE
8
BLACK
6
CONTINUOUS
10
35.4179
20
-13.5712
11
35.5131
21
-13.2855
0
LINE
8
BLACK
6
CONTINUOUS
10
35.5131
20
-13.2855
11
35.6083
21
-13.095
0
LINE
8
BLACK
6
CONTINUOUS
10
35.6083
20
-13.095
11
35.7988
21
-12.8093
0
LINE
8
BLACK
6
CONTINUOUS
10
35.7988
20
-12.8093
11
35.894
21
-12.714
0
LINE
8
BLACK
6
CONTINUOUS
10
36.5607
20
-13.1902
11
36.656
21
-13.095
0
LINE
8
BLACK
6
CONTINUOUS
10
36.656
20
-13.095
11
36.8464
21
-12.9998
0
LINE
8
BLACK
6
CONTINUOUS
10
36.8464
20
-12.9998
11
37.3226
21
-12.9998
0
LINE
8
BLACK
6
CONTINUOUS
10
37.3226
20
-12.9998
11
37.5131
21
-13.095
0
LINE
8
BLACK
6
CONTINUOUS
10
37.5131
20
-13.095
11
37.6083
21
-13.1902
0
LINE
8
BLACK
6
CONTINUOUS
10
37.6083
20
-13.1902
11
37.7036
21
-13.3807
0
LINE
8
BLACK
6
CONTINUOUS
10
37.7036
20
-13.3807
11
37.7036
21
-13.5712
0
LINE
8
BLACK
6
CONTINUOUS
10
37.7036
20
-13.5712
11
37.6083
21
-13.8569
0
LINE
8
BLACK
6
CONTINUOUS
10
37.6083
20
-13.8569
11
36.4655
21
-14.9998
0
LINE
8
BLACK
6
CONTINUOUS
10
36.4655
20
-14.9998
11
37.7036
21
-14.9998
0
LINE
8
BLACK
6
CONTINUOUS
10
40.0845
20
-14.9998
11
40.0845
21
-12.9998
0
LINE
8
BLACK
6
CONTINUOUS
10
40.9417
20
-14.9998
11
40.9417
21
-13.9521
0
LINE
8
BLACK
6
CONTINUOUS
10
40.9417
20
-13.9521
11
40.8464
21
-13.7617
0
LINE
8
BLACK
6
CONTINUOUS
10
40.8464
20
-13.7617
11
40.656
21
-13.6664
0
LINE
8
BLACK
6
CONTINUOUS
10
40.656
20
-13.6664
11
40.3702
21
-13.6664
0
LINE
8
BLACK
6
CONTINUOUS
10
40.3702
20
-13.6664
11
40.1798
21
-13.7617
0
LINE
8
BLACK
6
CONTINUOUS
10
40.1798
20
-13.7617
11
40.0845
21
-13.8569
0
LINE
8
BLACK
6
CONTINUOUS
10
42.1798
20
-14.9998
11
41.9893
21
-14.9045
0
LINE
8
BLACK
6
CONTINUOUS
10
41.9893
20
-14.9045
11
41.894
21
-14.8093
0
LINE
8
BLACK
6
CONTINUOUS
10
41.894
20
-14.8093
11
41.7988
21
-14.6188
0
LINE
8
BLACK
6
CONTINUOUS
10
41.7988
20
-14.6188
11
41.7988
21
-14.0474
0
LINE
8
BLACK
6
CONTINUOUS
10
41.7988
20
-14.0474
11
41.894
21
-13.8569
0
LINE
8
BLACK
6
CONTINUOUS
10
41.894
20
-13.8569
11
41.9893
21
-13.7617
0
LINE
8
BLACK
6
CONTINUOUS
10
41.9893
20
-13.7617
11
42.1798
21
-13.6664
0
LINE
8
BLACK
6
CONTINUOUS
10
42.1798
20
-13.6664
11
42.4655
21
-13.6664
0
LINE
8
BLACK
6
CONTINUOUS
10
42.4655
20
-13.6664
11
42.656
21
-13.7617
0
LINE
8
BLACK
6
CONTINUOUS
10
42.656
20
-13.7617
11
42.7512
21
-13.8569
0
LINE
8
BLACK
6
CONTINUOUS
10
42.7512
20
-13.8569
11
42.8464
21
-14.0474
0
LINE
8
BLACK
6
CONTINUOUS
10
42.8464
20
-14.0474
11
42.8464
21
-14.6188
0
LINE
8
BLACK
6
CONTINUOUS
10
42.8464
20
-14.6188
11
42.7512
21
-14.8093
0
LINE
8
BLACK
6
CONTINUOUS
10
42.7512
20
-14.8093
11
42.656
21
-14.9045
0
LINE
8
BLACK
6
CONTINUOUS
10
42.656
20
-14.9045
11
42.4655
21
-14.9998
0
LINE
8
BLACK
6
CONTINUOUS
10
42.4655
20
-14.9998
11
42.1798
21
-14.9998
0
LINE
8
BLACK
6
CONTINUOUS
10
43.9893
20
-14.9998
11
43.7988
21
-14.9045
0
LINE
8
BLACK
6
CONTINUOUS
10
43.7988
20
-14.9045
11
43.7036
21
-14.714
0
LINE
8
BLACK
6
CONTINUOUS
10
43.7036
20
-14.714
11
43.7036
21
-12.9998
0
LINE
8
BLACK
6
CONTINUOUS
10
45.5131
20
-14.9045
11
45.3226
21
-14.9998
0
LINE
8
BLACK
6
CONTINUOUS
10
45.3226
20
-14.9998
11
44.9417
21
-14.9998
0
LINE
8
BLACK
6
CONTINUOUS
10
44.9417
20
-14.9998
11
44.7512
21
-14.9045
0
LINE
8
BLACK
6
CONTINUOUS
10
44.7512
20
-14.9045
11
44.656
21
-14.714
0
LINE
8
BLACK
6
CONTINUOUS
10
44.656
20
-14.714
11
44.656
21
-13.9521
0
LINE
8
BLACK
6
CONTINUOUS
10
44.656
20
-13.9521
11
44.7512
21
-13.7617
0
LINE
8
BLACK
6
CONTINUOUS
10
44.7512
20
-13.7617
11
44.9417
21
-13.6664
0
LINE
8
BLACK
6
CONTINUOUS
10
44.9417
20
-13.6664
11
45.3226
21
-13.6664
0
LINE
8
BLACK
6
CONTINUOUS
10
45.3226
20
-13.6664
11
45.5131
21
-13.7617
0
LINE
8
BLACK
6
CONTINUOUS
10
45.5131
20
-13.7617
11
45.6083
21
-13.9521
0
LINE
8
BLACK
6
CONTINUOUS
10
45.6083
20
-13.9521
11
45.6083
21
-14.1426
0
LINE
8
BLACK
6
CONTINUOUS
10
45.6083
20
-14.1426
11
44.656
21
-14.3331
0
LINE
8
BLACK
6
CONTINUOUS
10
46.3702
20
-14.9045
11
46.5607
21
-14.9998
0
LINE
8
BLACK
6
CONTINUOUS
10
46.5607
20
-14.9998
11
46.9417
21
-14.9998
0
LINE
8
BLACK
6
CONTINUOUS
10
46.9417
20
-14.9998
11
47.1321
21
-14.9045
0
LINE
8
BLACK
6
CONTINUOUS
10
47.1321
20
-14.9045
11
47.2274
21
-14.714
0
LINE
8
BLACK
6
CONTINUOUS
10
47.2274
20
-14.714
11
47.2274
21
-14.6188
0
LINE
8
BLACK
6
CONTINUOUS
10
47.2274
20
-14.6188
11
47.1321
21
-14.4283
0
LINE
8
BLACK
6
CONTINUOUS
10
47.1321
20
-14.4283
11
46.9417
21
-14.3331
0
LINE
8
BLACK
6
CONTINUOUS
10
46.9417
20
-14.3331
11
46.656
21
-14.3331
0
LINE
8
BLACK
6
CONTINUOUS
10
46.656
20
-14.3331
11
46.4655
21
-14.2379
0
LINE
8
BLACK
6
CONTINUOUS
10
46.4655
20
-14.2379
11
46.3702
21
-14.0474
0
LINE
8
BLACK
6
CONTINUOUS
10
46.3702
20
-14.0474
11
46.3702
21
-13.9521
0
LINE
8
BLACK
6
CONTINUOUS
10
46.3702
20
-13.9521
11
46.4655
21
-13.7617
0
LINE
8
BLACK
6
CONTINUOUS
10
46.4655
20
-13.7617
11
46.656
21
-13.6664
0
LINE
8
BLACK
6
CONTINUOUS
10
46.656
20
-13.6664
11
46.9417
21
-13.6664
0
LINE
8
BLACK
6
CONTINUOUS
10
46.9417
20
-13.6664
11
47.1321
21
-13.7617
0
LINE
8
BLACK
6
CONTINUOUS
10
47.894
20
-15.7617
11
47.9893
21
-15.6664
0
LINE
8
BLACK
6
CONTINUOUS
10
47.9893
20
-15.6664
11
48.1798
21
-15.3807
0
LINE
8
BLACK
6
CONTINUOUS
10
48.1798
20
-15.3807
11
48.275
21
-15.1902
0
LINE
8
BLACK
6
CONTINUOUS
10
48.275
20
-15.1902
11
48.3702
21
-14.9045
0
LINE
8
BLACK
6
CONTINUOUS
10
48.3702
20
-14.9045
11
48.4655
21
-14.4283
0
LINE
8
BLACK
6
CONTINUOUS
10
48.4655
20
-14.4283
11
48.4655
21
-14.0474
0
LINE
8
BLACK
6
CONTINUOUS
10
48.4655
20
-14.0474
11
48.3702
21
-13.5712
0
LINE
8
BLACK
6
CONTINUOUS
10
48.3702
20
-13.5712
11
48.275
21
-13.2855
0
LINE
8
BLACK
6
CONTINUOUS
10
48.275
20
-13.2855
11
48.1798
21
-13.095
0
LINE
8
BLACK
6
CONTINUOUS
10
48.1798
20
-13.095
11
47.9893
21
-12.8093
0
LINE
8
BLACK
6
CONTINUOUS
10
47.9893
20
-12.8093
11
47.894
21
-12.714
  0
ENDSEC
  0
EOF
