%TF.GenerationSoftware,KiCad,Pcbnew,(6.0.2-0)*%
%TF.CreationDate,2023-02-02T13:40:45+11:00*%
%TF.ProjectId,AD3 HE Board,41443320-4845-4204-926f-6172642e6b69,rev?*%
%TF.SameCoordinates,PXbb4d38PY34c3148*%
%TF.FileFunction,Legend,Bot*%
%TF.FilePolarity,Positive*%
%FSLAX46Y46*%
G04 Gerber Fmt 4.6, Leading zero omitted, Abs format (unit mm)*
G04 Created by KiCad (PCBNEW (6.0.2-0)) date 2023-02-02 13:40:45*
%MOMM*%
%LPD*%
G01*
G04 APERTURE LIST*
%ADD10C,0.150000*%
%ADD11C,0.300000*%
%ADD12C,0.127000*%
%ADD13C,0.200000*%
%ADD14C,0.120000*%
G04 APERTURE END LIST*
D10*
X33472619Y25157143D02*
X33472619Y24680953D01*
X34472619Y24680953D01*
X33996428Y25490477D02*
X33996428Y25823810D01*
X33472619Y25966667D02*
X33472619Y25490477D01*
X34472619Y25490477D01*
X34472619Y25966667D01*
X33472619Y26395239D02*
X34472619Y26395239D01*
X34472619Y26633334D01*
X34425000Y26776191D01*
X34329761Y26871429D01*
X34234523Y26919048D01*
X34044047Y26966667D01*
X33901190Y26966667D01*
X33710714Y26919048D01*
X33615476Y26871429D01*
X33520238Y26776191D01*
X33472619Y26633334D01*
X33472619Y26395239D01*
D11*
X9584523Y26733334D02*
X9584523Y27447620D01*
X8334523Y27090477D02*
X9584523Y27090477D01*
X8394047Y28340477D02*
X8334523Y28221429D01*
X8334523Y27983334D01*
X8394047Y27864286D01*
X8513095Y27804762D01*
X8989285Y27804762D01*
X9108333Y27864286D01*
X9167857Y27983334D01*
X9167857Y28221429D01*
X9108333Y28340477D01*
X8989285Y28400000D01*
X8870238Y28400000D01*
X8751190Y27804762D01*
X8334523Y28935715D02*
X9167857Y28935715D01*
X9048809Y28935715D02*
X9108333Y28995239D01*
X9167857Y29114286D01*
X9167857Y29292858D01*
X9108333Y29411905D01*
X8989285Y29471429D01*
X8334523Y29471429D01*
X8989285Y29471429D02*
X9108333Y29530953D01*
X9167857Y29650000D01*
X9167857Y29828572D01*
X9108333Y29947620D01*
X8989285Y30007143D01*
X8334523Y30007143D01*
X9167857Y30602381D02*
X7917857Y30602381D01*
X9108333Y30602381D02*
X9167857Y30721429D01*
X9167857Y30959524D01*
X9108333Y31078572D01*
X9048809Y31138096D01*
X8929761Y31197620D01*
X8572619Y31197620D01*
X8453571Y31138096D01*
X8394047Y31078572D01*
X8334523Y30959524D01*
X8334523Y30721429D01*
X8394047Y30602381D01*
D10*
X34025000Y28146429D02*
X33882142Y28098810D01*
X33834523Y28051191D01*
X33786904Y27955953D01*
X33786904Y27813096D01*
X33834523Y27717858D01*
X33882142Y27670239D01*
X33977380Y27622620D01*
X34358333Y27622620D01*
X34358333Y28622620D01*
X34025000Y28622620D01*
X33929761Y28575000D01*
X33882142Y28527381D01*
X33834523Y28432143D01*
X33834523Y28336905D01*
X33882142Y28241667D01*
X33929761Y28194048D01*
X34025000Y28146429D01*
X34358333Y28146429D01*
X32882142Y27622620D02*
X33358333Y27622620D01*
X33358333Y28622620D01*
X32691666Y28622620D02*
X32120238Y28622620D01*
X32405952Y27622620D02*
X32405952Y28622620D01*
X31644047Y27622620D02*
X31739285Y27670239D01*
X31786904Y27717858D01*
X31834523Y27813096D01*
X31834523Y28098810D01*
X31786904Y28194048D01*
X31739285Y28241667D01*
X31644047Y28289286D01*
X31501190Y28289286D01*
X31405952Y28241667D01*
X31358333Y28194048D01*
X31310714Y28098810D01*
X31310714Y27813096D01*
X31358333Y27717858D01*
X31405952Y27670239D01*
X31501190Y27622620D01*
X31644047Y27622620D01*
X30453571Y28289286D02*
X30453571Y27622620D01*
X30882142Y28289286D02*
X30882142Y27765477D01*
X30834523Y27670239D01*
X30739285Y27622620D01*
X30596428Y27622620D01*
X30501190Y27670239D01*
X30453571Y27717858D01*
X29548809Y27670239D02*
X29644047Y27622620D01*
X29834523Y27622620D01*
X29929761Y27670239D01*
X29977380Y27717858D01*
X30025000Y27813096D01*
X30025000Y28098810D01*
X29977380Y28194048D01*
X29929761Y28241667D01*
X29834523Y28289286D01*
X29644047Y28289286D01*
X29548809Y28241667D01*
X29120238Y27622620D02*
X29120238Y28622620D01*
X28691666Y27622620D02*
X28691666Y28146429D01*
X28739285Y28241667D01*
X28834523Y28289286D01*
X28977380Y28289286D01*
X29072619Y28241667D01*
X29120238Y28194048D01*
D11*
X39734523Y3784524D02*
X40984523Y3784524D01*
X40389285Y3784524D02*
X40389285Y4498810D01*
X39734523Y4498810D02*
X40984523Y4498810D01*
X39794047Y5570239D02*
X39734523Y5451191D01*
X39734523Y5213096D01*
X39794047Y5094048D01*
X39913095Y5034524D01*
X40389285Y5034524D01*
X40508333Y5094048D01*
X40567857Y5213096D01*
X40567857Y5451191D01*
X40508333Y5570239D01*
X40389285Y5629762D01*
X40270238Y5629762D01*
X40151190Y5034524D01*
X39734523Y6701191D02*
X40389285Y6701191D01*
X40508333Y6641667D01*
X40567857Y6522620D01*
X40567857Y6284524D01*
X40508333Y6165477D01*
X39794047Y6701191D02*
X39734523Y6582143D01*
X39734523Y6284524D01*
X39794047Y6165477D01*
X39913095Y6105953D01*
X40032142Y6105953D01*
X40151190Y6165477D01*
X40210714Y6284524D01*
X40210714Y6582143D01*
X40270238Y6701191D01*
X40567857Y7117858D02*
X40567857Y7594048D01*
X40984523Y7296429D02*
X39913095Y7296429D01*
X39794047Y7355953D01*
X39734523Y7475000D01*
X39734523Y7594048D01*
D10*
X33522619Y12373810D02*
X34522619Y12373810D01*
X34046428Y12373810D02*
X34046428Y12945239D01*
X33522619Y12945239D02*
X34522619Y12945239D01*
X33570238Y13373810D02*
X33522619Y13516667D01*
X33522619Y13754762D01*
X33570238Y13850000D01*
X33617857Y13897620D01*
X33713095Y13945239D01*
X33808333Y13945239D01*
X33903571Y13897620D01*
X33951190Y13850000D01*
X33998809Y13754762D01*
X34046428Y13564286D01*
X34094047Y13469048D01*
X34141666Y13421429D01*
X34236904Y13373810D01*
X34332142Y13373810D01*
X34427380Y13421429D01*
X34475000Y13469048D01*
X34522619Y13564286D01*
X34522619Y13802381D01*
X34475000Y13945239D01*
X34046428Y15469048D02*
X34046428Y15135715D01*
X33522619Y15135715D02*
X34522619Y15135715D01*
X34522619Y15611905D01*
X33522619Y16421429D02*
X34046428Y16421429D01*
X34141666Y16373810D01*
X34189285Y16278572D01*
X34189285Y16088096D01*
X34141666Y15992858D01*
X33570238Y16421429D02*
X33522619Y16326191D01*
X33522619Y16088096D01*
X33570238Y15992858D01*
X33665476Y15945239D01*
X33760714Y15945239D01*
X33855952Y15992858D01*
X33903571Y16088096D01*
X33903571Y16326191D01*
X33951190Y16421429D01*
X34189285Y16897620D02*
X33522619Y16897620D01*
X34094047Y16897620D02*
X34141666Y16945239D01*
X34189285Y17040477D01*
X34189285Y17183334D01*
X34141666Y17278572D01*
X34046428Y17326191D01*
X33522619Y17326191D01*
X33497619Y17948810D02*
X34497619Y17948810D01*
X34497619Y18329762D01*
X34450000Y18425000D01*
X34402380Y18472620D01*
X34307142Y18520239D01*
X34164285Y18520239D01*
X34069047Y18472620D01*
X34021428Y18425000D01*
X33973809Y18329762D01*
X33973809Y17948810D01*
X33592857Y19520239D02*
X33545238Y19472620D01*
X33497619Y19329762D01*
X33497619Y19234524D01*
X33545238Y19091667D01*
X33640476Y18996429D01*
X33735714Y18948810D01*
X33926190Y18901191D01*
X34069047Y18901191D01*
X34259523Y18948810D01*
X34354761Y18996429D01*
X34450000Y19091667D01*
X34497619Y19234524D01*
X34497619Y19329762D01*
X34450000Y19472620D01*
X34402380Y19520239D01*
X34021428Y21044048D02*
X34021428Y20710715D01*
X33497619Y20710715D02*
X34497619Y20710715D01*
X34497619Y21186905D01*
X33497619Y21996429D02*
X34021428Y21996429D01*
X34116666Y21948810D01*
X34164285Y21853572D01*
X34164285Y21663096D01*
X34116666Y21567858D01*
X33545238Y21996429D02*
X33497619Y21901191D01*
X33497619Y21663096D01*
X33545238Y21567858D01*
X33640476Y21520239D01*
X33735714Y21520239D01*
X33830952Y21567858D01*
X33878571Y21663096D01*
X33878571Y21901191D01*
X33926190Y21996429D01*
X34164285Y22472620D02*
X33497619Y22472620D01*
X34069047Y22472620D02*
X34116666Y22520239D01*
X34164285Y22615477D01*
X34164285Y22758334D01*
X34116666Y22853572D01*
X34021428Y22901191D01*
X33497619Y22901191D01*
%TO.C,J3*%
X13158333Y32772620D02*
X13158333Y32058334D01*
X13205952Y31915477D01*
X13301190Y31820239D01*
X13444047Y31772620D01*
X13539285Y31772620D01*
X12777380Y32772620D02*
X12158333Y32772620D01*
X12491666Y32391667D01*
X12348809Y32391667D01*
X12253571Y32344048D01*
X12205952Y32296429D01*
X12158333Y32201191D01*
X12158333Y31963096D01*
X12205952Y31867858D01*
X12253571Y31820239D01*
X12348809Y31772620D01*
X12634523Y31772620D01*
X12729761Y31820239D01*
X12777380Y31867858D01*
%TO.C,J2*%
X33327380Y9083334D02*
X34041666Y9083334D01*
X34184523Y9130953D01*
X34279761Y9226191D01*
X34327380Y9369048D01*
X34327380Y9464286D01*
X33422619Y8654762D02*
X33375000Y8607143D01*
X33327380Y8511905D01*
X33327380Y8273810D01*
X33375000Y8178572D01*
X33422619Y8130953D01*
X33517857Y8083334D01*
X33613095Y8083334D01*
X33755952Y8130953D01*
X34327380Y8702381D01*
X34327380Y8083334D01*
D12*
%TO.C,J3*%
X10700000Y28075000D02*
X10700000Y36575000D01*
X12100000Y26675000D02*
X10700000Y28075000D01*
X20350000Y36575000D02*
X20350000Y28075000D01*
X20350000Y28075000D02*
X18950000Y26675000D01*
X12905000Y36575000D02*
X10700000Y36575000D01*
X18950000Y26675000D02*
X12100000Y26675000D01*
X20350000Y36575000D02*
X18145000Y36575000D01*
D13*
X10125000Y35625000D02*
G75*
G03*
X10125000Y35625000I-100000J0D01*
G01*
D14*
%TO.C,J5*%
X39525000Y28610000D02*
X39825000Y28610000D01*
X37725000Y27900000D02*
X37725000Y28510000D01*
X41285000Y27200000D02*
X40675000Y27200000D01*
X38725000Y27900000D02*
X40675000Y27900000D01*
X41285000Y28510000D02*
X41285000Y23790000D01*
X41585000Y28810000D02*
X41585000Y27560000D01*
X38325000Y24900000D02*
X38125000Y24900000D01*
X41285000Y23790000D02*
X35165000Y23790000D01*
X40675000Y24400000D02*
X35775000Y24400000D01*
X39525000Y28710000D02*
X39825000Y28710000D01*
X35165000Y27200000D02*
X35775000Y27200000D01*
X35165000Y23790000D02*
X35165000Y28510000D01*
X35165000Y28510000D02*
X41285000Y28510000D01*
X39525000Y28510000D02*
X39525000Y28710000D01*
X35165000Y25900000D02*
X35775000Y25900000D01*
X40335000Y28810000D02*
X41585000Y28810000D01*
X38325000Y24400000D02*
X38325000Y24900000D01*
X38125000Y24900000D02*
X38125000Y24400000D01*
X38725000Y28510000D02*
X38725000Y27900000D01*
X41285000Y25900000D02*
X40675000Y25900000D01*
X35775000Y27900000D02*
X37725000Y27900000D01*
X40675000Y27900000D02*
X40675000Y24400000D01*
X35775000Y24400000D02*
X35775000Y27900000D01*
X38225000Y24400000D02*
X38225000Y24900000D01*
X39825000Y28710000D02*
X39825000Y28510000D01*
%TO.C,J7*%
X35165000Y17285000D02*
X41285000Y17285000D01*
X35165000Y14675000D02*
X35775000Y14675000D01*
X41285000Y17285000D02*
X41285000Y12565000D01*
X39525000Y17485000D02*
X39825000Y17485000D01*
X37725000Y16675000D02*
X37725000Y17285000D01*
X38125000Y13675000D02*
X38125000Y13175000D01*
X39525000Y17385000D02*
X39825000Y17385000D01*
X38325000Y13675000D02*
X38125000Y13675000D01*
X39525000Y17285000D02*
X39525000Y17485000D01*
X38725000Y16675000D02*
X40675000Y16675000D01*
X35775000Y16675000D02*
X37725000Y16675000D01*
X41585000Y17585000D02*
X41585000Y16335000D01*
X38225000Y13175000D02*
X38225000Y13675000D01*
X35165000Y15975000D02*
X35775000Y15975000D01*
X35165000Y12565000D02*
X35165000Y17285000D01*
X41285000Y12565000D02*
X35165000Y12565000D01*
X40675000Y13175000D02*
X35775000Y13175000D01*
X40335000Y17585000D02*
X41585000Y17585000D01*
X39825000Y17485000D02*
X39825000Y17285000D01*
X35775000Y13175000D02*
X35775000Y16675000D01*
X41285000Y14675000D02*
X40675000Y14675000D01*
X38725000Y17285000D02*
X38725000Y16675000D01*
X38325000Y13175000D02*
X38325000Y13675000D01*
X40675000Y16675000D02*
X40675000Y13175000D01*
X41285000Y15975000D02*
X40675000Y15975000D01*
D12*
%TO.C,J2*%
X29025000Y2125000D02*
X29025000Y8975000D01*
X38925000Y725000D02*
X30425000Y725000D01*
X38925000Y725000D02*
X38925000Y2930000D01*
X38925000Y8170000D02*
X38925000Y10375000D01*
X30425000Y725000D02*
X29025000Y2125000D01*
X29025000Y8975000D02*
X30425000Y10375000D01*
X30425000Y10375000D02*
X38925000Y10375000D01*
D13*
X38075000Y11050000D02*
G75*
G03*
X38075000Y11050000I-100000J0D01*
G01*
D14*
%TO.C,J4*%
X38725000Y22300000D02*
X40675000Y22300000D01*
X39525000Y22910000D02*
X39525000Y23110000D01*
X38325000Y19300000D02*
X38125000Y19300000D01*
X40675000Y18800000D02*
X35775000Y18800000D01*
X38125000Y19300000D02*
X38125000Y18800000D01*
X41285000Y21600000D02*
X40675000Y21600000D01*
X38325000Y18800000D02*
X38325000Y19300000D01*
X39525000Y23110000D02*
X39825000Y23110000D01*
X41585000Y23210000D02*
X41585000Y21960000D01*
X35775000Y22300000D02*
X37725000Y22300000D01*
X38225000Y18800000D02*
X38225000Y19300000D01*
X40675000Y22300000D02*
X40675000Y18800000D01*
X41285000Y18190000D02*
X35165000Y18190000D01*
X39825000Y23110000D02*
X39825000Y22910000D01*
X35775000Y18800000D02*
X35775000Y22300000D01*
X40335000Y23210000D02*
X41585000Y23210000D01*
X41285000Y20300000D02*
X40675000Y20300000D01*
X41285000Y22910000D02*
X41285000Y18190000D01*
X35165000Y22910000D02*
X41285000Y22910000D01*
X38725000Y22910000D02*
X38725000Y22300000D01*
X35165000Y18190000D02*
X35165000Y22910000D01*
X37725000Y22300000D02*
X37725000Y22910000D01*
X35165000Y20300000D02*
X35775000Y20300000D01*
X35165000Y21600000D02*
X35775000Y21600000D01*
X39525000Y23010000D02*
X39825000Y23010000D01*
%TO.C,J6*%
X41235000Y32100000D02*
X40625000Y32100000D01*
X41235000Y30800000D02*
X40625000Y30800000D01*
X38175000Y33600000D02*
X38175000Y33100000D01*
X32075000Y33600000D02*
X32075000Y33100000D01*
X38275000Y33100000D02*
X38275000Y33600000D01*
X32175000Y33600000D02*
X32175000Y33100000D01*
X34075000Y33100000D02*
X34275000Y33100000D01*
X29115000Y34210000D02*
X41235000Y34210000D01*
X40625000Y33600000D02*
X40625000Y30100000D01*
X31675000Y29490000D02*
X31675000Y30100000D01*
X29115000Y30800000D02*
X29725000Y30800000D01*
X38075000Y33600000D02*
X38075000Y33100000D01*
X29115000Y32100000D02*
X29725000Y32100000D01*
X36275000Y33100000D02*
X36275000Y33600000D01*
X32275000Y33100000D02*
X32275000Y33600000D01*
X30575000Y29290000D02*
X30575000Y29490000D01*
X34275000Y33100000D02*
X34275000Y33600000D01*
X38075000Y33100000D02*
X38275000Y33100000D01*
X30875000Y29390000D02*
X30575000Y29390000D01*
X40625000Y30100000D02*
X38675000Y30100000D01*
X41235000Y34210000D02*
X41235000Y29490000D01*
X36075000Y33100000D02*
X36275000Y33100000D01*
X34175000Y33600000D02*
X34175000Y33100000D01*
X31675000Y30100000D02*
X29725000Y30100000D01*
X29115000Y29490000D02*
X29115000Y34210000D01*
X32075000Y33100000D02*
X32275000Y33100000D01*
X28815000Y29190000D02*
X28815000Y30440000D01*
X38675000Y30100000D02*
X38675000Y29490000D01*
X30065000Y29190000D02*
X28815000Y29190000D01*
X29725000Y30100000D02*
X29725000Y33600000D01*
X30875000Y29290000D02*
X30575000Y29290000D01*
X36075000Y33600000D02*
X36075000Y33100000D01*
X41235000Y29490000D02*
X29115000Y29490000D01*
X30875000Y29490000D02*
X30875000Y29290000D01*
X36175000Y33600000D02*
X36175000Y33100000D01*
X34075000Y33600000D02*
X34075000Y33100000D01*
X29725000Y33600000D02*
X40625000Y33600000D01*
%TD*%
M02*
