%TF.GenerationSoftware,KiCad,Pcbnew,(6.0.2-0)*%
%TF.CreationDate,2023-02-02T13:40:45+11:00*%
%TF.ProjectId,AD3 HE Board,41443320-4845-4204-926f-6172642e6b69,rev?*%
%TF.SameCoordinates,PXbb4d38PY34c3148*%
%TF.FileFunction,Copper,L1,Top*%
%TF.FilePolarity,Positive*%
%FSLAX46Y46*%
G04 Gerber Fmt 4.6, Leading zero omitted, Abs format (unit mm)*
G04 Created by KiCad (PCBNEW (6.0.2-0)) date 2023-02-02 13:40:45*
%MOMM*%
%LPD*%
G01*
G04 APERTURE LIST*
G04 Aperture macros list*
%AMRoundRect*
0 Rectangle with rounded corners*
0 $1 Rounding radius*
0 $2 $3 $4 $5 $6 $7 $8 $9 X,Y pos of 4 corners*
0 Add a 4 corners polygon primitive as box body*
4,1,4,$2,$3,$4,$5,$6,$7,$8,$9,$2,$3,0*
0 Add four circle primitives for the rounded corners*
1,1,$1+$1,$2,$3*
1,1,$1+$1,$4,$5*
1,1,$1+$1,$6,$7*
1,1,$1+$1,$8,$9*
0 Add four rect primitives between the rounded corners*
20,1,$1+$1,$2,$3,$4,$5,0*
20,1,$1+$1,$4,$5,$6,$7,0*
20,1,$1+$1,$6,$7,$8,$9,0*
20,1,$1+$1,$8,$9,$2,$3,0*%
G04 Aperture macros list end*
%TA.AperFunction,ComponentPad*%
%ADD10C,4.000000*%
%TD*%
%TA.AperFunction,ComponentPad*%
%ADD11R,1.700000X1.700000*%
%TD*%
%TA.AperFunction,ComponentPad*%
%ADD12O,1.700000X1.700000*%
%TD*%
%TA.AperFunction,ComponentPad*%
%ADD13R,1.605000X1.605000*%
%TD*%
%TA.AperFunction,ComponentPad*%
%ADD14C,1.605000*%
%TD*%
%TA.AperFunction,ComponentPad*%
%ADD15RoundRect,0.250000X0.350000X0.625000X-0.350000X0.625000X-0.350000X-0.625000X0.350000X-0.625000X0*%
%TD*%
%TA.AperFunction,ComponentPad*%
%ADD16O,1.200000X1.750000*%
%TD*%
%TA.AperFunction,ComponentPad*%
%ADD17RoundRect,0.250000X-0.350000X-0.625000X0.350000X-0.625000X0.350000X0.625000X-0.350000X0.625000X0*%
%TD*%
%TA.AperFunction,Conductor*%
%ADD18C,0.400000*%
%TD*%
%TA.AperFunction,Conductor*%
%ADD19C,0.250000*%
%TD*%
G04 APERTURE END LIST*
D10*
%TO.P,H1,1*%
%TO.N,N/C*%
X3200000Y33025000D03*
%TD*%
D11*
%TO.P,J1,1,Pin_1*%
%TO.N,/Heater_GND*%
X2075000Y38450000D03*
D12*
%TO.P,J1,2,Pin_2*%
X2075000Y40990000D03*
%TO.P,J1,3,Pin_3*%
%TO.N,/Heater_VCC*%
X4615000Y38450000D03*
%TO.P,J1,4,Pin_4*%
X4615000Y40990000D03*
%TO.P,J1,5,Pin_5*%
%TO.N,/HS_Fan_GND*%
X7155000Y38450000D03*
%TO.P,J1,6,Pin_6*%
%TO.N,/HS_Fan_VCC*%
X7155000Y40990000D03*
%TO.P,J1,7,Pin_7*%
%TO.N,/LED_GND*%
X9695000Y38450000D03*
%TO.P,J1,8,Pin_8*%
%TO.N,/LED_VCC*%
X9695000Y40990000D03*
%TO.P,J1,9,Pin_9*%
%TO.N,unconnected-(J1-Pad9)*%
X12235000Y38450000D03*
%TO.P,J1,10,Pin_10*%
%TO.N,/Thermistor_1*%
X12235000Y40990000D03*
%TO.P,J1,11,Pin_11*%
%TO.N,/Thermistor_2*%
X14775000Y38450000D03*
%TO.P,J1,12,Pin_12*%
%TO.N,/PC_FAN_GND*%
X14775000Y40990000D03*
%TO.P,J1,13,Pin_13*%
%TO.N,/PC_FAN_VCC*%
X17315000Y38450000D03*
%TO.P,J1,14,Pin_14*%
%TO.N,/BLT_GND1*%
X17315000Y40990000D03*
%TO.P,J1,15,Pin_15*%
%TO.N,/BLT_5v*%
X19855000Y38450000D03*
%TO.P,J1,16,Pin_16*%
%TO.N,/BLT_PA1*%
X19855000Y40990000D03*
%TO.P,J1,17,Pin_17*%
%TO.N,/BLT_GND2*%
X22395000Y38450000D03*
%TO.P,J1,18,Pin_18*%
%TO.N,/BLT_PC14*%
X22395000Y40990000D03*
%TD*%
D10*
%TO.P,H2,1*%
%TO.N,N/C*%
X38625000Y39750000D03*
%TD*%
D13*
%TO.P,J3,1,1*%
%TO.N,/Thermistor_1*%
X14025000Y35595000D03*
D14*
%TO.P,J3,2,2*%
%TO.N,/Thermistor_2*%
X17025000Y35595000D03*
%TD*%
D15*
%TO.P,J5,1,Pin_1*%
%TO.N,/LED_VCC*%
X39225000Y26700000D03*
D16*
%TO.P,J5,2,Pin_2*%
%TO.N,/LED_GND*%
X37225000Y26700000D03*
%TD*%
D15*
%TO.P,J7,1,Pin_1*%
%TO.N,/HS_Fan_VCC*%
X39225000Y15475000D03*
D16*
%TO.P,J7,2,Pin_2*%
%TO.N,/HS_Fan_GND*%
X37225000Y15475000D03*
%TD*%
D13*
%TO.P,J2,1,1*%
%TO.N,/Heater_VCC*%
X37945000Y7050000D03*
D14*
%TO.P,J2,2,2*%
%TO.N,/Heater_GND*%
X37945000Y4050000D03*
%TD*%
D15*
%TO.P,J4,1,Pin_1*%
%TO.N,/PC_FAN_VCC*%
X39225000Y21100000D03*
D16*
%TO.P,J4,2,Pin_2*%
%TO.N,/PC_FAN_GND*%
X37225000Y21100000D03*
%TD*%
D17*
%TO.P,J6,1,Pin_1*%
%TO.N,/BLT_GND1*%
X31175000Y31300000D03*
D16*
%TO.P,J6,2,Pin_2*%
%TO.N,/BLT_5v*%
X33175000Y31300000D03*
%TO.P,J6,3,Pin_3*%
%TO.N,/BLT_PA1*%
X35175000Y31300000D03*
%TO.P,J6,4,Pin_4*%
%TO.N,/BLT_GND2*%
X37175000Y31300000D03*
%TO.P,J6,5,Pin_5*%
%TO.N,/BLT_PC14*%
X39175000Y31300000D03*
%TD*%
D18*
%TO.N,/Heater_GND*%
X29125000Y26025000D02*
X28350000Y26800000D01*
X37945000Y4505000D02*
X29125000Y13325000D01*
X29125000Y13325000D02*
X29125000Y26025000D01*
X2075000Y38450000D02*
X2075000Y40990000D01*
X28350000Y26800000D02*
X13725000Y26800000D01*
X37945000Y4050000D02*
X37945000Y4505000D01*
X13725000Y26800000D02*
X2075000Y38450000D01*
%TO.N,/Heater_VCC*%
X14056200Y27599500D02*
X4615000Y37040700D01*
X28681200Y27599500D02*
X14056200Y27599500D01*
X36925000Y7050000D02*
X29924500Y14050500D01*
X37945000Y7050000D02*
X36925000Y7050000D01*
X4615000Y38450000D02*
X4615000Y40990000D01*
X29924500Y14050500D02*
X29924500Y26356200D01*
X29924500Y26356200D02*
X28681200Y27599500D01*
X4615000Y37040700D02*
X4615000Y38450000D01*
D19*
%TO.N,/Thermistor_1*%
X14025000Y35595000D02*
X14025000Y36722800D01*
X13410300Y39006800D02*
X12602400Y39814700D01*
X12602400Y39814700D02*
X12235000Y39814700D01*
X13410300Y37337500D02*
X13410300Y39006800D01*
X14025000Y36722800D02*
X13410300Y37337500D01*
X12235000Y40990000D02*
X12235000Y39814700D01*
%TO.N,/Thermistor_2*%
X17025000Y35595000D02*
X15345300Y37274700D01*
X14775000Y38450000D02*
X14775000Y37274700D01*
X15345300Y37274700D02*
X14775000Y37274700D01*
%TO.N,/LED_GND*%
X13494700Y33475000D02*
X25759800Y33475000D01*
X25759800Y33475000D02*
X32534800Y26700000D01*
X9695000Y37274700D02*
X13494700Y33475000D01*
X9695000Y38450000D02*
X9695000Y37274700D01*
X32534800Y26700000D02*
X37225000Y26700000D01*
%TD*%
%TA.AperFunction,Conductor*%
%TO.N,/Heater_GND*%
G36*
X37701836Y42296998D02*
G01*
X37748329Y42243342D01*
X37758433Y42173068D01*
X37728939Y42108488D01*
X37680099Y42073848D01*
X37558495Y42025702D01*
X37558490Y42025700D01*
X37554821Y42024247D01*
X37551353Y42022341D01*
X37551352Y42022340D01*
X37486977Y41986949D01*
X37278221Y41872184D01*
X37107340Y41748032D01*
X37027375Y41689934D01*
X37022860Y41686654D01*
X36792767Y41470582D01*
X36790243Y41467531D01*
X36790242Y41467530D01*
X36692168Y41348979D01*
X36591568Y41227375D01*
X36422438Y40960869D01*
X36420754Y40957290D01*
X36420750Y40957283D01*
X36298260Y40696977D01*
X36288044Y40675266D01*
X36190505Y40375072D01*
X36131359Y40065020D01*
X36111540Y39750000D01*
X36131359Y39434980D01*
X36190505Y39124928D01*
X36288044Y38824734D01*
X36289731Y38821148D01*
X36289733Y38821144D01*
X36420750Y38542717D01*
X36420754Y38542710D01*
X36422438Y38539131D01*
X36591568Y38272625D01*
X36594093Y38269573D01*
X36782060Y38042361D01*
X36792767Y38029418D01*
X37022860Y37813346D01*
X37278221Y37627816D01*
X37281690Y37625909D01*
X37281693Y37625907D01*
X37542279Y37482648D01*
X37554821Y37475753D01*
X37558490Y37474300D01*
X37558495Y37474298D01*
X37842264Y37361946D01*
X37848298Y37359557D01*
X38154025Y37281060D01*
X38467179Y37241500D01*
X38782821Y37241500D01*
X39095975Y37281060D01*
X39401702Y37359557D01*
X39407736Y37361946D01*
X39691505Y37474298D01*
X39691510Y37474300D01*
X39695179Y37475753D01*
X39707721Y37482648D01*
X39968307Y37625907D01*
X39968310Y37625909D01*
X39971779Y37627816D01*
X40227140Y37813346D01*
X40457233Y38029418D01*
X40467941Y38042361D01*
X40655907Y38269573D01*
X40658432Y38272625D01*
X40827562Y38539131D01*
X40829246Y38542710D01*
X40829250Y38542717D01*
X40960267Y38821144D01*
X40960269Y38821148D01*
X40961956Y38824734D01*
X40971167Y38853083D01*
X41011240Y38911688D01*
X41076636Y38939326D01*
X41146593Y38927219D01*
X41198900Y38879214D01*
X41217000Y38814147D01*
X41217000Y959000D01*
X41196998Y890879D01*
X41143342Y844386D01*
X41091000Y833000D01*
X29259000Y833000D01*
X29190879Y853002D01*
X29144386Y906658D01*
X29133000Y959000D01*
X29133000Y2962143D01*
X37221697Y2962143D01*
X37230994Y2950127D01*
X37282742Y2913893D01*
X37292228Y2908415D01*
X37490085Y2816154D01*
X37500381Y2812406D01*
X37711255Y2755902D01*
X37722042Y2754000D01*
X37939525Y2734973D01*
X37950475Y2734973D01*
X38167958Y2754000D01*
X38178745Y2755902D01*
X38389619Y2812406D01*
X38399915Y2816154D01*
X38597772Y2908415D01*
X38607258Y2913893D01*
X38659844Y2950713D01*
X38668219Y2961191D01*
X38661151Y2974639D01*
X37957812Y3677978D01*
X37943868Y3685592D01*
X37942035Y3685461D01*
X37935420Y3681210D01*
X37228127Y2973917D01*
X37221697Y2962143D01*
X29133000Y2962143D01*
X29133000Y5621141D01*
X31587776Y5621141D01*
X31587929Y5616753D01*
X31587929Y5616747D01*
X31596720Y5365027D01*
X31597701Y5336922D01*
X31598463Y5332599D01*
X31598464Y5332592D01*
X31621774Y5200397D01*
X31647085Y5056850D01*
X31648440Y5052679D01*
X31648442Y5052672D01*
X31721101Y4829051D01*
X31734967Y4786377D01*
X31736895Y4782424D01*
X31736897Y4782419D01*
X31744832Y4766151D01*
X31859637Y4530767D01*
X31862092Y4527128D01*
X31862095Y4527122D01*
X31938122Y4414408D01*
X32018667Y4294995D01*
X32021611Y4291726D01*
X32021612Y4291724D01*
X32038509Y4272958D01*
X32208963Y4083650D01*
X32426820Y3900846D01*
X32667998Y3750141D01*
X32927804Y3634469D01*
X33201179Y3556079D01*
X33205533Y3555467D01*
X33205538Y3555466D01*
X33375770Y3531542D01*
X33482804Y3516500D01*
X33696018Y3516500D01*
X33698204Y3516653D01*
X33698208Y3516653D01*
X33904315Y3531065D01*
X33904320Y3531066D01*
X33908700Y3531372D01*
X34186877Y3590501D01*
X34191006Y3592004D01*
X34191010Y3592005D01*
X34449974Y3686260D01*
X34449978Y3686262D01*
X34454119Y3687769D01*
X34458009Y3689837D01*
X34458015Y3689840D01*
X34701330Y3819213D01*
X34701336Y3819217D01*
X34705222Y3821283D01*
X34708782Y3823870D01*
X34708786Y3823872D01*
X34931738Y3985855D01*
X34931741Y3985858D01*
X34935301Y3988444D01*
X34985777Y4037188D01*
X34993375Y4044525D01*
X36629973Y4044525D01*
X36649000Y3827042D01*
X36650902Y3816255D01*
X36707406Y3605381D01*
X36711154Y3595085D01*
X36803415Y3397228D01*
X36808893Y3387742D01*
X36845713Y3335156D01*
X36856191Y3326781D01*
X36869639Y3333849D01*
X37572978Y4037188D01*
X37579356Y4048868D01*
X38309408Y4048868D01*
X38309539Y4047035D01*
X38313790Y4040420D01*
X39021083Y3333127D01*
X39032857Y3326697D01*
X39044873Y3335994D01*
X39081107Y3387742D01*
X39086585Y3397228D01*
X39178846Y3595085D01*
X39182594Y3605381D01*
X39239098Y3816255D01*
X39241000Y3827042D01*
X39260027Y4044525D01*
X39260027Y4055475D01*
X39241000Y4272958D01*
X39239098Y4283745D01*
X39182594Y4494619D01*
X39178846Y4504915D01*
X39086585Y4702772D01*
X39081107Y4712258D01*
X39044287Y4764844D01*
X39033809Y4773219D01*
X39020361Y4766151D01*
X38317022Y4062812D01*
X38309408Y4048868D01*
X37579356Y4048868D01*
X37580592Y4051132D01*
X37580461Y4052965D01*
X37576210Y4059580D01*
X36868917Y4766873D01*
X36857143Y4773303D01*
X36845127Y4764006D01*
X36808893Y4712258D01*
X36803415Y4702772D01*
X36711154Y4504915D01*
X36707406Y4494619D01*
X36650902Y4283745D01*
X36649000Y4272958D01*
X36629973Y4055475D01*
X36629973Y4044525D01*
X34993375Y4044525D01*
X35136710Y4182943D01*
X35136714Y4182947D01*
X35139875Y4186000D01*
X35314965Y4410104D01*
X35384630Y4530767D01*
X35454956Y4652575D01*
X35454959Y4652580D01*
X35457161Y4656395D01*
X35458811Y4660479D01*
X35458814Y4660485D01*
X35562047Y4915998D01*
X35563696Y4920079D01*
X35618232Y5138809D01*
X37221781Y5138809D01*
X37228849Y5125361D01*
X37932188Y4422022D01*
X37946132Y4414408D01*
X37947965Y4414539D01*
X37954580Y4418790D01*
X38661873Y5126083D01*
X38668303Y5137857D01*
X38659006Y5149873D01*
X38607258Y5186107D01*
X38597772Y5191585D01*
X38399915Y5283846D01*
X38389619Y5287594D01*
X38178745Y5344098D01*
X38167958Y5346000D01*
X37950475Y5365027D01*
X37939525Y5365027D01*
X37722042Y5346000D01*
X37711255Y5344098D01*
X37500381Y5287594D01*
X37490085Y5283846D01*
X37292228Y5191585D01*
X37282742Y5186107D01*
X37230156Y5149287D01*
X37221781Y5138809D01*
X35618232Y5138809D01*
X35632497Y5196024D01*
X35641728Y5283846D01*
X35661765Y5474490D01*
X35661765Y5474493D01*
X35662224Y5478859D01*
X35657409Y5616747D01*
X35652453Y5758681D01*
X35652452Y5758687D01*
X35652299Y5763078D01*
X35645389Y5802271D01*
X35603677Y6038827D01*
X35602915Y6043150D01*
X35601560Y6047321D01*
X35601558Y6047328D01*
X35516394Y6309434D01*
X35515033Y6313623D01*
X35457908Y6430747D01*
X35449773Y6447425D01*
X35390363Y6569233D01*
X35387908Y6572872D01*
X35387905Y6572878D01*
X35233792Y6801359D01*
X35231333Y6805005D01*
X35041037Y7016350D01*
X34823180Y7199154D01*
X34582002Y7349859D01*
X34322196Y7465531D01*
X34048821Y7543921D01*
X34044467Y7544533D01*
X34044462Y7544534D01*
X33870833Y7568935D01*
X33767196Y7583500D01*
X33553982Y7583500D01*
X33551796Y7583347D01*
X33551792Y7583347D01*
X33345685Y7568935D01*
X33345680Y7568934D01*
X33341300Y7568628D01*
X33063123Y7509499D01*
X33058994Y7507996D01*
X33058990Y7507995D01*
X32800026Y7413740D01*
X32800022Y7413738D01*
X32795881Y7412231D01*
X32791991Y7410163D01*
X32791985Y7410160D01*
X32548670Y7280787D01*
X32548664Y7280783D01*
X32544778Y7278717D01*
X32541218Y7276130D01*
X32541214Y7276128D01*
X32318262Y7114145D01*
X32314699Y7111556D01*
X32311535Y7108500D01*
X32311532Y7108498D01*
X32113290Y6917057D01*
X32113286Y6917053D01*
X32110125Y6914000D01*
X31935035Y6689896D01*
X31932832Y6686080D01*
X31815510Y6482872D01*
X31792839Y6443605D01*
X31791190Y6439524D01*
X31791186Y6439515D01*
X31713105Y6246255D01*
X31686304Y6179921D01*
X31617503Y5903976D01*
X31617044Y5899608D01*
X31617043Y5899603D01*
X31600202Y5739369D01*
X31587776Y5621141D01*
X29133000Y5621141D01*
X29133000Y13545423D01*
X29153002Y13613544D01*
X29206658Y13660037D01*
X29276932Y13670141D01*
X29341512Y13640647D01*
X29362840Y13616790D01*
X29384840Y13584779D01*
X29384843Y13584775D01*
X29389143Y13578519D01*
X29394813Y13573468D01*
X29394814Y13573466D01*
X29435670Y13537065D01*
X29440946Y13532084D01*
X36403550Y6569480D01*
X36409404Y6563215D01*
X36447439Y6519615D01*
X36453653Y6515248D01*
X36499719Y6482872D01*
X36505014Y6478939D01*
X36555282Y6439524D01*
X36562200Y6436400D01*
X36568705Y6432461D01*
X36567667Y6430747D01*
X36613704Y6391200D01*
X36634000Y6322624D01*
X36634000Y6199366D01*
X36640755Y6137184D01*
X36691885Y6000795D01*
X36779239Y5884239D01*
X36895795Y5796885D01*
X37032184Y5745755D01*
X37094366Y5739000D01*
X38795634Y5739000D01*
X38857816Y5745755D01*
X38994205Y5796885D01*
X39110761Y5884239D01*
X39198115Y6000795D01*
X39249245Y6137184D01*
X39256000Y6199366D01*
X39256000Y7900634D01*
X39249245Y7962816D01*
X39198115Y8099205D01*
X39110761Y8215761D01*
X38994205Y8303115D01*
X38857816Y8354245D01*
X38795634Y8361000D01*
X37094366Y8361000D01*
X37032184Y8354245D01*
X36895795Y8303115D01*
X36872001Y8285282D01*
X36856348Y8273551D01*
X36789842Y8248703D01*
X36720459Y8263756D01*
X36691688Y8285282D01*
X30669905Y14307065D01*
X30635879Y14369377D01*
X30633000Y14396160D01*
X30633000Y15147154D01*
X36116500Y15147154D01*
X36131548Y14989434D01*
X36191092Y14786466D01*
X36193836Y14781139D01*
X36193836Y14781138D01*
X36241491Y14688611D01*
X36287942Y14598420D01*
X36418604Y14432080D01*
X36423135Y14428148D01*
X36423138Y14428145D01*
X36559802Y14309554D01*
X36578363Y14293448D01*
X36583549Y14290448D01*
X36583553Y14290445D01*
X36679957Y14234674D01*
X36761454Y14187527D01*
X36961271Y14118139D01*
X36967206Y14117278D01*
X36967208Y14117278D01*
X37164664Y14088648D01*
X37164667Y14088648D01*
X37170604Y14087787D01*
X37381899Y14097567D01*
X37513077Y14129181D01*
X37581701Y14145719D01*
X37581703Y14145720D01*
X37587534Y14147125D01*
X37592992Y14149607D01*
X37592996Y14149608D01*
X37708041Y14201916D01*
X37780087Y14234674D01*
X37952611Y14357054D01*
X37956753Y14361381D01*
X37956759Y14361386D01*
X38043806Y14452317D01*
X38105361Y14487694D01*
X38176270Y14484175D01*
X38234021Y14442879D01*
X38241965Y14431496D01*
X38276522Y14375652D01*
X38401697Y14250695D01*
X38407927Y14246855D01*
X38407928Y14246854D01*
X38545090Y14162306D01*
X38552262Y14157885D01*
X38577217Y14149608D01*
X38713611Y14104368D01*
X38713613Y14104368D01*
X38720139Y14102203D01*
X38726975Y14101503D01*
X38726978Y14101502D01*
X38765386Y14097567D01*
X38824600Y14091500D01*
X39625400Y14091500D01*
X39628646Y14091837D01*
X39628650Y14091837D01*
X39724308Y14101762D01*
X39724312Y14101763D01*
X39731166Y14102474D01*
X39737702Y14104655D01*
X39737704Y14104655D01*
X39872443Y14149608D01*
X39898946Y14158450D01*
X40049348Y14251522D01*
X40174305Y14376697D01*
X40211352Y14436798D01*
X40263275Y14521032D01*
X40263276Y14521034D01*
X40267115Y14527262D01*
X40322797Y14695139D01*
X40333500Y14799600D01*
X40333500Y16150400D01*
X40322526Y16256166D01*
X40318749Y16267489D01*
X40268868Y16416998D01*
X40266550Y16423946D01*
X40173478Y16574348D01*
X40048303Y16699305D01*
X39945826Y16762473D01*
X39903968Y16788275D01*
X39903966Y16788276D01*
X39897738Y16792115D01*
X39737254Y16845345D01*
X39736389Y16845632D01*
X39736387Y16845632D01*
X39729861Y16847797D01*
X39723025Y16848497D01*
X39723022Y16848498D01*
X39679969Y16852909D01*
X39625400Y16858500D01*
X38824600Y16858500D01*
X38821354Y16858163D01*
X38821350Y16858163D01*
X38725692Y16848238D01*
X38725688Y16848237D01*
X38718834Y16847526D01*
X38712298Y16845345D01*
X38712296Y16845345D01*
X38589213Y16804281D01*
X38551054Y16791550D01*
X38400652Y16698478D01*
X38275695Y16573303D01*
X38271855Y16567073D01*
X38271854Y16567072D01*
X38243926Y16521764D01*
X38191154Y16474271D01*
X38121082Y16462847D01*
X38055958Y16491121D01*
X38037582Y16510045D01*
X38031396Y16517920D01*
X38026865Y16521852D01*
X38026862Y16521855D01*
X37876167Y16652621D01*
X37871637Y16656552D01*
X37866451Y16659552D01*
X37866447Y16659555D01*
X37693742Y16759467D01*
X37688546Y16762473D01*
X37488729Y16831861D01*
X37482794Y16832722D01*
X37482792Y16832722D01*
X37285336Y16861352D01*
X37285333Y16861352D01*
X37279396Y16862213D01*
X37068101Y16852433D01*
X36936923Y16820819D01*
X36868299Y16804281D01*
X36868297Y16804280D01*
X36862466Y16802875D01*
X36857008Y16800393D01*
X36857004Y16800392D01*
X36741959Y16748084D01*
X36669913Y16715326D01*
X36497389Y16592946D01*
X36351119Y16440150D01*
X36236380Y16262452D01*
X36157314Y16066263D01*
X36116772Y15858663D01*
X36116500Y15853101D01*
X36116500Y15147154D01*
X30633000Y15147154D01*
X30633000Y20772154D01*
X36116500Y20772154D01*
X36131548Y20614434D01*
X36191092Y20411466D01*
X36193836Y20406139D01*
X36193836Y20406138D01*
X36241491Y20313611D01*
X36287942Y20223420D01*
X36418604Y20057080D01*
X36423135Y20053148D01*
X36423138Y20053145D01*
X36509058Y19978588D01*
X36578363Y19918448D01*
X36583549Y19915448D01*
X36583553Y19915445D01*
X36679957Y19859674D01*
X36761454Y19812527D01*
X36961271Y19743139D01*
X36967206Y19742278D01*
X36967208Y19742278D01*
X37164664Y19713648D01*
X37164667Y19713648D01*
X37170604Y19712787D01*
X37381899Y19722567D01*
X37513077Y19754181D01*
X37581701Y19770719D01*
X37581703Y19770720D01*
X37587534Y19772125D01*
X37592992Y19774607D01*
X37592996Y19774608D01*
X37708041Y19826916D01*
X37780087Y19859674D01*
X37952611Y19982054D01*
X37956753Y19986381D01*
X37956759Y19986386D01*
X38043806Y20077317D01*
X38105361Y20112694D01*
X38176270Y20109175D01*
X38234021Y20067879D01*
X38241965Y20056496D01*
X38276522Y20000652D01*
X38401697Y19875695D01*
X38407927Y19871855D01*
X38407928Y19871854D01*
X38545090Y19787306D01*
X38552262Y19782885D01*
X38577217Y19774608D01*
X38713611Y19729368D01*
X38713613Y19729368D01*
X38720139Y19727203D01*
X38726975Y19726503D01*
X38726978Y19726502D01*
X38765386Y19722567D01*
X38824600Y19716500D01*
X39625400Y19716500D01*
X39628646Y19716837D01*
X39628650Y19716837D01*
X39724308Y19726762D01*
X39724312Y19726763D01*
X39731166Y19727474D01*
X39737702Y19729655D01*
X39737704Y19729655D01*
X39872443Y19774608D01*
X39898946Y19783450D01*
X40049348Y19876522D01*
X40174305Y20001697D01*
X40211352Y20061798D01*
X40263275Y20146032D01*
X40263276Y20146034D01*
X40267115Y20152262D01*
X40322797Y20320139D01*
X40333500Y20424600D01*
X40333500Y21775400D01*
X40322526Y21881166D01*
X40318749Y21892489D01*
X40268868Y22041998D01*
X40266550Y22048946D01*
X40173478Y22199348D01*
X40048303Y22324305D01*
X39945826Y22387473D01*
X39903968Y22413275D01*
X39903966Y22413276D01*
X39897738Y22417115D01*
X39737254Y22470345D01*
X39736389Y22470632D01*
X39736387Y22470632D01*
X39729861Y22472797D01*
X39723025Y22473497D01*
X39723022Y22473498D01*
X39679969Y22477909D01*
X39625400Y22483500D01*
X38824600Y22483500D01*
X38821354Y22483163D01*
X38821350Y22483163D01*
X38725692Y22473238D01*
X38725688Y22473237D01*
X38718834Y22472526D01*
X38712298Y22470345D01*
X38712296Y22470345D01*
X38589213Y22429281D01*
X38551054Y22416550D01*
X38400652Y22323478D01*
X38275695Y22198303D01*
X38271855Y22192073D01*
X38271854Y22192072D01*
X38243926Y22146764D01*
X38191154Y22099271D01*
X38121082Y22087847D01*
X38055958Y22116121D01*
X38037582Y22135045D01*
X38031396Y22142920D01*
X38026865Y22146852D01*
X38026862Y22146855D01*
X37876167Y22277621D01*
X37871637Y22281552D01*
X37866451Y22284552D01*
X37866447Y22284555D01*
X37693742Y22384467D01*
X37688546Y22387473D01*
X37488729Y22456861D01*
X37482794Y22457722D01*
X37482792Y22457722D01*
X37285336Y22486352D01*
X37285333Y22486352D01*
X37279396Y22487213D01*
X37068101Y22477433D01*
X36936923Y22445819D01*
X36868299Y22429281D01*
X36868297Y22429280D01*
X36862466Y22427875D01*
X36857008Y22425393D01*
X36857004Y22425392D01*
X36741959Y22373084D01*
X36669913Y22340326D01*
X36497389Y22217946D01*
X36351119Y22065150D01*
X36236380Y21887452D01*
X36157314Y21691263D01*
X36116772Y21483663D01*
X36116500Y21478101D01*
X36116500Y20772154D01*
X30633000Y20772154D01*
X30633000Y26327273D01*
X30633292Y26335842D01*
X30636710Y26385975D01*
X30636710Y26385979D01*
X30637226Y26393552D01*
X30626236Y26456519D01*
X30625275Y26463035D01*
X30618514Y26518902D01*
X30617602Y26526442D01*
X30614919Y26533543D01*
X30614278Y26536152D01*
X30609809Y26552485D01*
X30609048Y26555005D01*
X30607743Y26562483D01*
X30604691Y26569436D01*
X30582059Y26620996D01*
X30579568Y26627101D01*
X30559675Y26679744D01*
X30559673Y26679748D01*
X30556987Y26686856D01*
X30552684Y26693117D01*
X30551447Y26695483D01*
X30543220Y26710263D01*
X30541869Y26712548D01*
X30538815Y26719505D01*
X30534195Y26725525D01*
X30534192Y26725531D01*
X30499921Y26770191D01*
X30496041Y26775532D01*
X30464161Y26821920D01*
X30464156Y26821925D01*
X30459857Y26828181D01*
X30413329Y26869636D01*
X30408054Y26874616D01*
X29202650Y28080020D01*
X29196796Y28086285D01*
X29195986Y28087213D01*
X29158761Y28129885D01*
X29106480Y28166629D01*
X29101186Y28170561D01*
X29056893Y28205291D01*
X29050918Y28209976D01*
X29044002Y28213099D01*
X29041716Y28214483D01*
X29027035Y28222857D01*
X29024675Y28224122D01*
X29018461Y28228490D01*
X29011382Y28231250D01*
X29011380Y28231251D01*
X28958925Y28251702D01*
X28952856Y28254253D01*
X28894627Y28280545D01*
X28887160Y28281929D01*
X28884605Y28282730D01*
X28868352Y28287359D01*
X28865772Y28288022D01*
X28858691Y28290782D01*
X28851160Y28291773D01*
X28851158Y28291774D01*
X28821539Y28295673D01*
X28795339Y28299122D01*
X28788841Y28300152D01*
X28726014Y28311796D01*
X28718434Y28311359D01*
X28718433Y28311359D01*
X28663808Y28308209D01*
X28656554Y28308000D01*
X14401860Y28308000D01*
X14333739Y28328002D01*
X14312765Y28344905D01*
X5456511Y37201159D01*
X5422485Y37263471D01*
X5427550Y37334286D01*
X5472438Y37392833D01*
X5490652Y37405825D01*
X5490657Y37405829D01*
X5494860Y37408827D01*
X5653096Y37566511D01*
X5674040Y37595657D01*
X5783453Y37747923D01*
X5784776Y37746972D01*
X5831645Y37790143D01*
X5901580Y37802375D01*
X5967026Y37774856D01*
X5994875Y37743006D01*
X6054987Y37644912D01*
X6201250Y37476062D01*
X6373126Y37333368D01*
X6566000Y37220662D01*
X6570825Y37218820D01*
X6570826Y37218819D01*
X6629085Y37196572D01*
X6774692Y37140970D01*
X6779760Y37139939D01*
X6779763Y37139938D01*
X6855349Y37124560D01*
X6993597Y37096433D01*
X6998772Y37096243D01*
X6998774Y37096243D01*
X7211673Y37088436D01*
X7211677Y37088436D01*
X7216837Y37088247D01*
X7221957Y37088903D01*
X7221959Y37088903D01*
X7433288Y37115975D01*
X7433289Y37115975D01*
X7438416Y37116632D01*
X7462208Y37123770D01*
X7647429Y37179339D01*
X7647434Y37179341D01*
X7652384Y37180826D01*
X7852994Y37279104D01*
X8034860Y37408827D01*
X8193096Y37566511D01*
X8214040Y37595657D01*
X8323453Y37747923D01*
X8324776Y37746972D01*
X8371645Y37790143D01*
X8441580Y37802375D01*
X8507026Y37774856D01*
X8534875Y37743006D01*
X8594987Y37644912D01*
X8741250Y37476062D01*
X8913126Y37333368D01*
X8917589Y37330760D01*
X8917592Y37330758D01*
X8924068Y37326974D01*
X9001902Y37281492D01*
X9050625Y37229855D01*
X9060783Y37190240D01*
X9062837Y37190565D01*
X9064078Y37182731D01*
X9064327Y37174811D01*
X9067877Y37162592D01*
X9069978Y37155361D01*
X9073987Y37136000D01*
X9076526Y37115903D01*
X9079445Y37108532D01*
X9079445Y37108530D01*
X9092804Y37074788D01*
X9096649Y37063558D01*
X9106432Y37029883D01*
X9108982Y37021107D01*
X9113015Y37014288D01*
X9113017Y37014283D01*
X9119293Y37003672D01*
X9127988Y36985924D01*
X9135448Y36967083D01*
X9140110Y36960667D01*
X9140110Y36960666D01*
X9161436Y36931313D01*
X9167952Y36921393D01*
X9185918Y36891015D01*
X9190458Y36883338D01*
X9204779Y36869017D01*
X9217619Y36853984D01*
X9229528Y36837593D01*
X9241778Y36827459D01*
X9263605Y36809402D01*
X9272384Y36801412D01*
X12991043Y33082753D01*
X12998587Y33074463D01*
X13002700Y33067982D01*
X13008477Y33062557D01*
X13052367Y33021342D01*
X13055209Y33018587D01*
X13074930Y32998866D01*
X13078125Y32996388D01*
X13087147Y32988682D01*
X13119379Y32958414D01*
X13126328Y32954594D01*
X13137132Y32948654D01*
X13153656Y32937801D01*
X13169659Y32925387D01*
X13210243Y32907824D01*
X13220873Y32902617D01*
X13259640Y32881305D01*
X13267317Y32879334D01*
X13267322Y32879332D01*
X13279258Y32876268D01*
X13297966Y32869863D01*
X13316555Y32861819D01*
X13324383Y32860579D01*
X13324390Y32860577D01*
X13360224Y32854901D01*
X13371844Y32852495D01*
X13406989Y32843472D01*
X13414670Y32841500D01*
X13434924Y32841500D01*
X13454634Y32839949D01*
X13474643Y32836780D01*
X13482535Y32837526D01*
X13518661Y32840941D01*
X13530519Y32841500D01*
X13909997Y32841500D01*
X13978118Y32821498D01*
X14024611Y32767842D01*
X14034715Y32697568D01*
X14009286Y32637926D01*
X13835035Y32414896D01*
X13825455Y32398303D01*
X13700166Y32181295D01*
X13692839Y32168605D01*
X13691189Y32164521D01*
X13691186Y32164515D01*
X13622238Y31993862D01*
X13586304Y31904921D01*
X13585240Y31900652D01*
X13585239Y31900650D01*
X13563667Y31814131D01*
X13517503Y31628976D01*
X13517044Y31624608D01*
X13517043Y31624603D01*
X13508632Y31544573D01*
X13487776Y31346141D01*
X13487929Y31341753D01*
X13487929Y31341747D01*
X13496860Y31086018D01*
X13497701Y31061922D01*
X13498463Y31057599D01*
X13498464Y31057592D01*
X13526092Y30900907D01*
X13547085Y30781850D01*
X13548440Y30777679D01*
X13548442Y30777672D01*
X13620129Y30557045D01*
X13634967Y30511377D01*
X13636895Y30507424D01*
X13636897Y30507419D01*
X13692284Y30393861D01*
X13759637Y30255767D01*
X13762092Y30252128D01*
X13762095Y30252122D01*
X13806438Y30186381D01*
X13918667Y30019995D01*
X13921611Y30016726D01*
X13921612Y30016724D01*
X13947732Y29987715D01*
X14108963Y29808650D01*
X14326820Y29625846D01*
X14567998Y29475141D01*
X14827804Y29359469D01*
X15101179Y29281079D01*
X15105533Y29280467D01*
X15105538Y29280466D01*
X15275770Y29256542D01*
X15382804Y29241500D01*
X15596018Y29241500D01*
X15598204Y29241653D01*
X15598208Y29241653D01*
X15804315Y29256065D01*
X15804320Y29256066D01*
X15808700Y29256372D01*
X16086877Y29315501D01*
X16091006Y29317004D01*
X16091010Y29317005D01*
X16349974Y29411260D01*
X16349978Y29411262D01*
X16354119Y29412769D01*
X16358009Y29414837D01*
X16358015Y29414840D01*
X16601330Y29544213D01*
X16601336Y29544217D01*
X16605222Y29546283D01*
X16608782Y29548870D01*
X16608786Y29548872D01*
X16831738Y29710855D01*
X16831741Y29710858D01*
X16835301Y29713444D01*
X16930960Y29805821D01*
X17036710Y29907943D01*
X17036714Y29907947D01*
X17039875Y29911000D01*
X17044429Y29916828D01*
X17168549Y30075695D01*
X17214965Y30135104D01*
X17283116Y30253145D01*
X17354956Y30377575D01*
X17354959Y30377580D01*
X17357161Y30381395D01*
X17358811Y30385479D01*
X17358814Y30385485D01*
X17455422Y30624600D01*
X17463696Y30645079D01*
X17532497Y30921024D01*
X17549839Y31086018D01*
X17561765Y31199490D01*
X17561765Y31199493D01*
X17562224Y31203859D01*
X17562071Y31208253D01*
X17552453Y31483681D01*
X17552452Y31483687D01*
X17552299Y31488078D01*
X17542338Y31544573D01*
X17503677Y31763827D01*
X17502915Y31768150D01*
X17501560Y31772321D01*
X17501558Y31772328D01*
X17416394Y32034434D01*
X17415033Y32038623D01*
X17406316Y32056497D01*
X17347782Y32176507D01*
X17290363Y32294233D01*
X17287908Y32297872D01*
X17287905Y32297878D01*
X17139231Y32518296D01*
X17131333Y32530005D01*
X17071856Y32596061D01*
X17040226Y32631190D01*
X17009508Y32695197D01*
X17018273Y32765651D01*
X17063736Y32820182D01*
X17133862Y32841500D01*
X25445206Y32841500D01*
X25513327Y32821498D01*
X25534301Y32804595D01*
X32031148Y26307747D01*
X32038688Y26299461D01*
X32042800Y26292982D01*
X32048577Y26287557D01*
X32092451Y26246357D01*
X32095293Y26243602D01*
X32115030Y26223865D01*
X32118227Y26221385D01*
X32127247Y26213682D01*
X32159479Y26183414D01*
X32166425Y26179595D01*
X32166428Y26179593D01*
X32177234Y26173652D01*
X32193753Y26162801D01*
X32209759Y26150386D01*
X32217028Y26147241D01*
X32217032Y26147238D01*
X32250337Y26132826D01*
X32260987Y26127609D01*
X32299740Y26106305D01*
X32307415Y26104334D01*
X32307416Y26104334D01*
X32319362Y26101267D01*
X32338067Y26094863D01*
X32356655Y26086819D01*
X32364478Y26085580D01*
X32364488Y26085577D01*
X32400324Y26079901D01*
X32411944Y26077495D01*
X32447089Y26068472D01*
X32454770Y26066500D01*
X32475024Y26066500D01*
X32494734Y26064949D01*
X32514743Y26061780D01*
X32522635Y26062526D01*
X32558761Y26065941D01*
X32570619Y26066500D01*
X36085913Y26066500D01*
X36154034Y26046498D01*
X36197928Y25998193D01*
X36241491Y25913611D01*
X36280303Y25838253D01*
X36287942Y25823420D01*
X36418604Y25657080D01*
X36423135Y25653148D01*
X36423138Y25653145D01*
X36509058Y25578588D01*
X36578363Y25518448D01*
X36583549Y25515448D01*
X36583553Y25515445D01*
X36679957Y25459674D01*
X36761454Y25412527D01*
X36961271Y25343139D01*
X36967206Y25342278D01*
X36967208Y25342278D01*
X37164664Y25313648D01*
X37164667Y25313648D01*
X37170604Y25312787D01*
X37381899Y25322567D01*
X37513077Y25354181D01*
X37581701Y25370719D01*
X37581703Y25370720D01*
X37587534Y25372125D01*
X37592992Y25374607D01*
X37592996Y25374608D01*
X37708041Y25426916D01*
X37780087Y25459674D01*
X37952611Y25582054D01*
X37956753Y25586381D01*
X37956759Y25586386D01*
X38043806Y25677317D01*
X38105361Y25712694D01*
X38176270Y25709175D01*
X38234021Y25667879D01*
X38241965Y25656496D01*
X38276522Y25600652D01*
X38401697Y25475695D01*
X38407927Y25471855D01*
X38407928Y25471854D01*
X38545090Y25387306D01*
X38552262Y25382885D01*
X38577217Y25374608D01*
X38713611Y25329368D01*
X38713613Y25329368D01*
X38720139Y25327203D01*
X38726975Y25326503D01*
X38726978Y25326502D01*
X38765386Y25322567D01*
X38824600Y25316500D01*
X39625400Y25316500D01*
X39628646Y25316837D01*
X39628650Y25316837D01*
X39724308Y25326762D01*
X39724312Y25326763D01*
X39731166Y25327474D01*
X39737702Y25329655D01*
X39737704Y25329655D01*
X39872443Y25374608D01*
X39898946Y25383450D01*
X40049348Y25476522D01*
X40174305Y25601697D01*
X40211352Y25661798D01*
X40263275Y25746032D01*
X40263276Y25746034D01*
X40267115Y25752262D01*
X40322797Y25920139D01*
X40333500Y26024600D01*
X40333500Y27375400D01*
X40322526Y27481166D01*
X40318749Y27492489D01*
X40268868Y27641998D01*
X40266550Y27648946D01*
X40173478Y27799348D01*
X40048303Y27924305D01*
X39945826Y27987473D01*
X39903968Y28013275D01*
X39903966Y28013276D01*
X39897738Y28017115D01*
X39737254Y28070345D01*
X39736389Y28070632D01*
X39736387Y28070632D01*
X39729861Y28072797D01*
X39723025Y28073497D01*
X39723022Y28073498D01*
X39679969Y28077909D01*
X39625400Y28083500D01*
X38824600Y28083500D01*
X38821354Y28083163D01*
X38821350Y28083163D01*
X38725692Y28073238D01*
X38725688Y28073237D01*
X38718834Y28072526D01*
X38712298Y28070345D01*
X38712296Y28070345D01*
X38589213Y28029281D01*
X38551054Y28016550D01*
X38400652Y27923478D01*
X38275695Y27798303D01*
X38271855Y27792073D01*
X38271854Y27792072D01*
X38243926Y27746764D01*
X38191154Y27699271D01*
X38121082Y27687847D01*
X38055958Y27716121D01*
X38037582Y27735045D01*
X38031396Y27742920D01*
X38026865Y27746852D01*
X38026862Y27746855D01*
X37876167Y27877621D01*
X37871637Y27881552D01*
X37866451Y27884552D01*
X37866447Y27884555D01*
X37693742Y27984467D01*
X37688546Y27987473D01*
X37488729Y28056861D01*
X37482794Y28057722D01*
X37482792Y28057722D01*
X37285336Y28086352D01*
X37285333Y28086352D01*
X37279396Y28087213D01*
X37068101Y28077433D01*
X36936923Y28045819D01*
X36868299Y28029281D01*
X36868297Y28029280D01*
X36862466Y28027875D01*
X36857008Y28025393D01*
X36857004Y28025392D01*
X36741959Y27973084D01*
X36669913Y27940326D01*
X36497389Y27817946D01*
X36351119Y27665150D01*
X36236380Y27487452D01*
X36234137Y27481886D01*
X36206134Y27412402D01*
X36162119Y27356696D01*
X36089268Y27333500D01*
X32849394Y27333500D01*
X32781273Y27353502D01*
X32760299Y27370405D01*
X30339552Y29791153D01*
X30305526Y29853465D01*
X30310591Y29924281D01*
X30353138Y29981116D01*
X30419658Y30005927D01*
X30488977Y29988925D01*
X30489395Y29989820D01*
X30493910Y29987715D01*
X30494768Y29987504D01*
X30502262Y29982885D01*
X30527217Y29974608D01*
X30663611Y29929368D01*
X30663613Y29929368D01*
X30670139Y29927203D01*
X30676975Y29926503D01*
X30676978Y29926502D01*
X30715386Y29922567D01*
X30774600Y29916500D01*
X31575400Y29916500D01*
X31578646Y29916837D01*
X31578650Y29916837D01*
X31674308Y29926762D01*
X31674312Y29926763D01*
X31681166Y29927474D01*
X31687702Y29929655D01*
X31687704Y29929655D01*
X31822443Y29974608D01*
X31848946Y29983450D01*
X31999348Y30076522D01*
X32124305Y30201697D01*
X32156075Y30253236D01*
X32208846Y30300729D01*
X32278918Y30312153D01*
X32344042Y30283879D01*
X32362418Y30264955D01*
X32368604Y30257080D01*
X32373135Y30253148D01*
X32373138Y30253145D01*
X32459058Y30178588D01*
X32528363Y30118448D01*
X32533549Y30115448D01*
X32533553Y30115445D01*
X32629957Y30059674D01*
X32711454Y30012527D01*
X32911271Y29943139D01*
X32917206Y29942278D01*
X32917208Y29942278D01*
X33114664Y29913648D01*
X33114667Y29913648D01*
X33120604Y29912787D01*
X33331899Y29922567D01*
X33463077Y29954181D01*
X33531701Y29970719D01*
X33531703Y29970720D01*
X33537534Y29972125D01*
X33542992Y29974607D01*
X33542996Y29974608D01*
X33658041Y30026916D01*
X33730087Y30059674D01*
X33902611Y30182054D01*
X34048881Y30334850D01*
X34060124Y30352262D01*
X34069746Y30367163D01*
X34123501Y30413540D01*
X34193797Y30423493D01*
X34258314Y30393861D01*
X34274681Y30376649D01*
X34368604Y30257080D01*
X34373135Y30253148D01*
X34373138Y30253145D01*
X34459058Y30178588D01*
X34528363Y30118448D01*
X34533549Y30115448D01*
X34533553Y30115445D01*
X34629957Y30059674D01*
X34711454Y30012527D01*
X34911271Y29943139D01*
X34917206Y29942278D01*
X34917208Y29942278D01*
X35114664Y29913648D01*
X35114667Y29913648D01*
X35120604Y29912787D01*
X35331899Y29922567D01*
X35463077Y29954181D01*
X35531701Y29970719D01*
X35531703Y29970720D01*
X35537534Y29972125D01*
X35542992Y29974607D01*
X35542996Y29974608D01*
X35658041Y30026916D01*
X35730087Y30059674D01*
X35902611Y30182054D01*
X36048881Y30334850D01*
X36060124Y30352262D01*
X36069746Y30367163D01*
X36123501Y30413540D01*
X36193797Y30423493D01*
X36258314Y30393861D01*
X36274681Y30376649D01*
X36368604Y30257080D01*
X36373135Y30253148D01*
X36373138Y30253145D01*
X36459058Y30178588D01*
X36528363Y30118448D01*
X36533549Y30115448D01*
X36533553Y30115445D01*
X36629957Y30059674D01*
X36711454Y30012527D01*
X36911271Y29943139D01*
X36917206Y29942278D01*
X36917208Y29942278D01*
X37114664Y29913648D01*
X37114667Y29913648D01*
X37120604Y29912787D01*
X37331899Y29922567D01*
X37463077Y29954181D01*
X37531701Y29970719D01*
X37531703Y29970720D01*
X37537534Y29972125D01*
X37542992Y29974607D01*
X37542996Y29974608D01*
X37658041Y30026916D01*
X37730087Y30059674D01*
X37902611Y30182054D01*
X38048881Y30334850D01*
X38060124Y30352262D01*
X38069746Y30367163D01*
X38123501Y30413540D01*
X38193797Y30423493D01*
X38258314Y30393861D01*
X38274681Y30376649D01*
X38368604Y30257080D01*
X38373135Y30253148D01*
X38373138Y30253145D01*
X38459058Y30178588D01*
X38528363Y30118448D01*
X38533549Y30115448D01*
X38533553Y30115445D01*
X38629957Y30059674D01*
X38711454Y30012527D01*
X38911271Y29943139D01*
X38917206Y29942278D01*
X38917208Y29942278D01*
X39114664Y29913648D01*
X39114667Y29913648D01*
X39120604Y29912787D01*
X39331899Y29922567D01*
X39463077Y29954181D01*
X39531701Y29970719D01*
X39531703Y29970720D01*
X39537534Y29972125D01*
X39542992Y29974607D01*
X39542996Y29974608D01*
X39658041Y30026916D01*
X39730087Y30059674D01*
X39902611Y30182054D01*
X40048881Y30334850D01*
X40163620Y30512548D01*
X40210094Y30627866D01*
X40240442Y30703168D01*
X40240443Y30703171D01*
X40242686Y30708737D01*
X40283228Y30916337D01*
X40283500Y30921899D01*
X40283500Y31627846D01*
X40268452Y31785566D01*
X40208908Y31988534D01*
X40185268Y32034434D01*
X40114804Y32171249D01*
X40114802Y32171252D01*
X40112058Y32176580D01*
X39981396Y32342920D01*
X39976865Y32346852D01*
X39976862Y32346855D01*
X39826167Y32477621D01*
X39821637Y32481552D01*
X39816451Y32484552D01*
X39816447Y32484555D01*
X39643742Y32584467D01*
X39638546Y32587473D01*
X39438729Y32656861D01*
X39432794Y32657722D01*
X39432792Y32657722D01*
X39235336Y32686352D01*
X39235333Y32686352D01*
X39229396Y32687213D01*
X39018101Y32677433D01*
X38886923Y32645819D01*
X38818299Y32629281D01*
X38818297Y32629280D01*
X38812466Y32627875D01*
X38807008Y32625393D01*
X38807004Y32625392D01*
X38691959Y32573084D01*
X38619913Y32540326D01*
X38447389Y32417946D01*
X38301119Y32265150D01*
X38297866Y32260112D01*
X38280254Y32232837D01*
X38226499Y32186460D01*
X38156203Y32176507D01*
X38091686Y32206139D01*
X38075317Y32223353D01*
X38061620Y32240791D01*
X37981396Y32342920D01*
X37976865Y32346852D01*
X37976862Y32346855D01*
X37826167Y32477621D01*
X37821637Y32481552D01*
X37816451Y32484552D01*
X37816447Y32484555D01*
X37643742Y32584467D01*
X37638546Y32587473D01*
X37438729Y32656861D01*
X37432794Y32657722D01*
X37432792Y32657722D01*
X37235336Y32686352D01*
X37235333Y32686352D01*
X37229396Y32687213D01*
X37018101Y32677433D01*
X36886923Y32645819D01*
X36818299Y32629281D01*
X36818297Y32629280D01*
X36812466Y32627875D01*
X36807008Y32625393D01*
X36807004Y32625392D01*
X36691959Y32573084D01*
X36619913Y32540326D01*
X36447389Y32417946D01*
X36301119Y32265150D01*
X36297866Y32260112D01*
X36280254Y32232837D01*
X36226499Y32186460D01*
X36156203Y32176507D01*
X36091686Y32206139D01*
X36075317Y32223353D01*
X36061620Y32240791D01*
X35981396Y32342920D01*
X35976865Y32346852D01*
X35976862Y32346855D01*
X35826167Y32477621D01*
X35821637Y32481552D01*
X35816451Y32484552D01*
X35816447Y32484555D01*
X35643742Y32584467D01*
X35638546Y32587473D01*
X35438729Y32656861D01*
X35432794Y32657722D01*
X35432792Y32657722D01*
X35235336Y32686352D01*
X35235333Y32686352D01*
X35229396Y32687213D01*
X35018101Y32677433D01*
X34886923Y32645819D01*
X34818299Y32629281D01*
X34818297Y32629280D01*
X34812466Y32627875D01*
X34807008Y32625393D01*
X34807004Y32625392D01*
X34691959Y32573084D01*
X34619913Y32540326D01*
X34447389Y32417946D01*
X34301119Y32265150D01*
X34297866Y32260112D01*
X34280254Y32232837D01*
X34226499Y32186460D01*
X34156203Y32176507D01*
X34091686Y32206139D01*
X34075317Y32223353D01*
X34061620Y32240791D01*
X33981396Y32342920D01*
X33976865Y32346852D01*
X33976862Y32346855D01*
X33826167Y32477621D01*
X33821637Y32481552D01*
X33816451Y32484552D01*
X33816447Y32484555D01*
X33643742Y32584467D01*
X33638546Y32587473D01*
X33438729Y32656861D01*
X33432794Y32657722D01*
X33432792Y32657722D01*
X33235336Y32686352D01*
X33235333Y32686352D01*
X33229396Y32687213D01*
X33018101Y32677433D01*
X32886923Y32645819D01*
X32818299Y32629281D01*
X32818297Y32629280D01*
X32812466Y32627875D01*
X32807008Y32625393D01*
X32807004Y32625392D01*
X32691959Y32573084D01*
X32619913Y32540326D01*
X32447389Y32417946D01*
X32443247Y32413619D01*
X32443241Y32413614D01*
X32356194Y32322683D01*
X32294639Y32287306D01*
X32223730Y32290825D01*
X32165979Y32332121D01*
X32158032Y32343509D01*
X32123478Y32399348D01*
X31998303Y32524305D01*
X31989056Y32530005D01*
X31853968Y32613275D01*
X31853966Y32613276D01*
X31847738Y32617115D01*
X31687254Y32670345D01*
X31686389Y32670632D01*
X31686387Y32670632D01*
X31679861Y32672797D01*
X31673025Y32673497D01*
X31673022Y32673498D01*
X31629969Y32677909D01*
X31575400Y32683500D01*
X30774600Y32683500D01*
X30771354Y32683163D01*
X30771350Y32683163D01*
X30675692Y32673238D01*
X30675688Y32673237D01*
X30668834Y32672526D01*
X30662298Y32670345D01*
X30662296Y32670345D01*
X30565125Y32637926D01*
X30501054Y32616550D01*
X30350652Y32523478D01*
X30225695Y32398303D01*
X30221855Y32392073D01*
X30221854Y32392072D01*
X30184900Y32332121D01*
X30132885Y32247738D01*
X30130581Y32240791D01*
X30083795Y32099734D01*
X30077203Y32079861D01*
X30066500Y31975400D01*
X30066500Y30624600D01*
X30066837Y30621354D01*
X30066837Y30621350D01*
X30073612Y30556060D01*
X30077474Y30518834D01*
X30079655Y30512298D01*
X30079655Y30512296D01*
X30081282Y30507419D01*
X30133450Y30351054D01*
X30137306Y30344823D01*
X30140407Y30338203D01*
X30139103Y30337592D01*
X30155799Y30276936D01*
X30134642Y30209165D01*
X30080203Y30163591D01*
X30009768Y30154683D01*
X29940722Y30189983D01*
X26263452Y33867253D01*
X26255912Y33875539D01*
X26251800Y33882018D01*
X26202148Y33928644D01*
X26199307Y33931398D01*
X26179570Y33951135D01*
X26176373Y33953615D01*
X26167351Y33961320D01*
X26140900Y33986159D01*
X26135121Y33991586D01*
X26128175Y33995405D01*
X26128172Y33995407D01*
X26117366Y34001348D01*
X26100847Y34012199D01*
X26100383Y34012559D01*
X26084841Y34024614D01*
X26077572Y34027759D01*
X26077568Y34027762D01*
X26044263Y34042174D01*
X26033613Y34047391D01*
X25994860Y34068695D01*
X25975237Y34073733D01*
X25956534Y34080137D01*
X25945220Y34085033D01*
X25945219Y34085033D01*
X25937945Y34088181D01*
X25930122Y34089420D01*
X25930112Y34089423D01*
X25894276Y34095099D01*
X25882656Y34097505D01*
X25847511Y34106528D01*
X25847510Y34106528D01*
X25839830Y34108500D01*
X25819576Y34108500D01*
X25799865Y34110051D01*
X25787686Y34111980D01*
X25779857Y34113220D01*
X25771965Y34112474D01*
X25735839Y34109059D01*
X25723981Y34108500D01*
X17499688Y34108500D01*
X17431567Y34128502D01*
X17385074Y34182158D01*
X17374970Y34252432D01*
X17404464Y34317012D01*
X17464731Y34354738D01*
X17464617Y34355051D01*
X17466082Y34355584D01*
X17467077Y34356207D01*
X17469791Y34356934D01*
X17469793Y34356935D01*
X17475101Y34358357D01*
X17480083Y34360680D01*
X17678023Y34452981D01*
X17678026Y34452983D01*
X17683004Y34455304D01*
X17870914Y34586879D01*
X18033121Y34749086D01*
X18164696Y34936996D01*
X18176195Y34961654D01*
X18259320Y35139917D01*
X18259321Y35139918D01*
X18261643Y35144899D01*
X18303001Y35299247D01*
X18319591Y35361163D01*
X18319591Y35361165D01*
X18321015Y35366478D01*
X18341008Y35595000D01*
X18321015Y35823522D01*
X18261643Y36045101D01*
X18243548Y36083906D01*
X18167019Y36248023D01*
X18167017Y36248026D01*
X18164696Y36253004D01*
X18033121Y36440914D01*
X17870914Y36603121D01*
X17683004Y36734696D01*
X17678026Y36737017D01*
X17678023Y36737019D01*
X17480083Y36829320D01*
X17480082Y36829321D01*
X17475101Y36831643D01*
X17469793Y36833065D01*
X17469791Y36833066D01*
X17427349Y36844438D01*
X17412906Y36848308D01*
X17352283Y36885260D01*
X17321262Y36949120D01*
X17329690Y37019615D01*
X17374893Y37074362D01*
X17429507Y37094994D01*
X17593288Y37115975D01*
X17593289Y37115975D01*
X17598416Y37116632D01*
X17622208Y37123770D01*
X17807429Y37179339D01*
X17807434Y37179341D01*
X17812384Y37180826D01*
X18012994Y37279104D01*
X18194860Y37408827D01*
X18353096Y37566511D01*
X18374040Y37595657D01*
X18483453Y37747923D01*
X18484776Y37746972D01*
X18531645Y37790143D01*
X18601580Y37802375D01*
X18667026Y37774856D01*
X18694875Y37743006D01*
X18754987Y37644912D01*
X18901250Y37476062D01*
X19073126Y37333368D01*
X19266000Y37220662D01*
X19270825Y37218820D01*
X19270826Y37218819D01*
X19329085Y37196572D01*
X19474692Y37140970D01*
X19479760Y37139939D01*
X19479763Y37139938D01*
X19555349Y37124560D01*
X19693597Y37096433D01*
X19698772Y37096243D01*
X19698774Y37096243D01*
X19911673Y37088436D01*
X19911677Y37088436D01*
X19916837Y37088247D01*
X19921957Y37088903D01*
X19921959Y37088903D01*
X20133288Y37115975D01*
X20133289Y37115975D01*
X20138416Y37116632D01*
X20162208Y37123770D01*
X20347429Y37179339D01*
X20347434Y37179341D01*
X20352384Y37180826D01*
X20552994Y37279104D01*
X20734860Y37408827D01*
X20893096Y37566511D01*
X20914040Y37595657D01*
X21023453Y37747923D01*
X21024776Y37746972D01*
X21071645Y37790143D01*
X21141580Y37802375D01*
X21207026Y37774856D01*
X21234875Y37743006D01*
X21294987Y37644912D01*
X21441250Y37476062D01*
X21613126Y37333368D01*
X21806000Y37220662D01*
X21810825Y37218820D01*
X21810826Y37218819D01*
X21869085Y37196572D01*
X22014692Y37140970D01*
X22019760Y37139939D01*
X22019763Y37139938D01*
X22095349Y37124560D01*
X22233597Y37096433D01*
X22238772Y37096243D01*
X22238774Y37096243D01*
X22451673Y37088436D01*
X22451677Y37088436D01*
X22456837Y37088247D01*
X22461957Y37088903D01*
X22461959Y37088903D01*
X22673288Y37115975D01*
X22673289Y37115975D01*
X22678416Y37116632D01*
X22702208Y37123770D01*
X22887429Y37179339D01*
X22887434Y37179341D01*
X22892384Y37180826D01*
X23092994Y37279104D01*
X23274860Y37408827D01*
X23433096Y37566511D01*
X23454040Y37595657D01*
X23560435Y37743723D01*
X23563453Y37747923D01*
X23584320Y37790143D01*
X23660136Y37943547D01*
X23660137Y37943549D01*
X23662430Y37948189D01*
X23727370Y38161931D01*
X23756529Y38383410D01*
X23758156Y38450000D01*
X23739852Y38672639D01*
X23685431Y38889298D01*
X23596354Y39094160D01*
X23475014Y39281723D01*
X23324670Y39446949D01*
X23320619Y39450148D01*
X23320615Y39450152D01*
X23153414Y39582200D01*
X23153410Y39582202D01*
X23149359Y39585402D01*
X23108053Y39608204D01*
X23058084Y39658636D01*
X23043312Y39728079D01*
X23068428Y39794484D01*
X23095780Y39821091D01*
X23139603Y39852350D01*
X23274860Y39948827D01*
X23328298Y40002078D01*
X23395371Y40068918D01*
X23433096Y40106511D01*
X23452845Y40133994D01*
X23560435Y40283723D01*
X23563453Y40287923D01*
X23576995Y40315322D01*
X23660136Y40483547D01*
X23660137Y40483549D01*
X23662430Y40488189D01*
X23727370Y40701931D01*
X23756529Y40923410D01*
X23758156Y40990000D01*
X23739852Y41212639D01*
X23685431Y41429298D01*
X23596354Y41634160D01*
X23508506Y41769952D01*
X23477822Y41817383D01*
X23477820Y41817386D01*
X23475014Y41821723D01*
X23324670Y41986949D01*
X23191502Y42092119D01*
X23150441Y42150036D01*
X23147209Y42220959D01*
X23182835Y42282370D01*
X23246006Y42314772D01*
X23269596Y42317000D01*
X37633715Y42317000D01*
X37701836Y42296998D01*
G37*
%TD.AperFunction*%
%TA.AperFunction,Conductor*%
G36*
X2271121Y41223998D02*
G01*
X2317614Y41170342D01*
X2329000Y41118000D01*
X2329000Y37110116D01*
X2333475Y37094877D01*
X2334865Y37093672D01*
X2342548Y37092001D01*
X2969669Y37092001D01*
X2976490Y37092371D01*
X3027352Y37097895D01*
X3042604Y37101521D01*
X3163054Y37146676D01*
X3178649Y37155214D01*
X3280724Y37231715D01*
X3293285Y37244276D01*
X3369786Y37346351D01*
X3378324Y37361946D01*
X3419225Y37471048D01*
X3461867Y37527812D01*
X3528428Y37552512D01*
X3597777Y37537304D01*
X3632444Y37509316D01*
X3657865Y37479969D01*
X3657869Y37479965D01*
X3661250Y37476062D01*
X3833126Y37333368D01*
X3844070Y37326973D01*
X3892793Y37275336D01*
X3906500Y37218185D01*
X3906500Y37069612D01*
X3906208Y37061042D01*
X3903486Y37021107D01*
X3902275Y37003348D01*
X3903580Y36995871D01*
X3903580Y36995870D01*
X3913261Y36940401D01*
X3914223Y36933879D01*
X3921898Y36870458D01*
X3924581Y36863357D01*
X3925222Y36860748D01*
X3929685Y36844438D01*
X3930450Y36841902D01*
X3931757Y36834416D01*
X3934811Y36827459D01*
X3957442Y36775905D01*
X3959933Y36769801D01*
X3982513Y36710044D01*
X3986817Y36703781D01*
X3988054Y36701415D01*
X3996299Y36686603D01*
X3997632Y36684349D01*
X4000685Y36677395D01*
X4026154Y36644205D01*
X4039579Y36626709D01*
X4043459Y36621368D01*
X4075339Y36574980D01*
X4075344Y36574975D01*
X4079643Y36568719D01*
X4085313Y36563668D01*
X4085314Y36563666D01*
X4126170Y36527265D01*
X4131446Y36522284D01*
X13534757Y27118972D01*
X13540611Y27112707D01*
X13578639Y27069115D01*
X13630929Y27032364D01*
X13636171Y27028472D01*
X13686482Y26989024D01*
X13693401Y26985900D01*
X13695693Y26984512D01*
X13710380Y26976135D01*
X13712725Y26974878D01*
X13718939Y26970510D01*
X13722792Y26969008D01*
X13772323Y26920224D01*
X13787942Y26850967D01*
X13763637Y26784260D01*
X13707127Y26741282D01*
X13662198Y26733000D01*
X859000Y26733000D01*
X790879Y26753002D01*
X744386Y26806658D01*
X733000Y26859000D01*
X733000Y31812400D01*
X753002Y31880521D01*
X806658Y31927014D01*
X876932Y31937118D01*
X941512Y31907624D01*
X973008Y31866049D01*
X997438Y31814131D01*
X1166568Y31547625D01*
X1367767Y31304418D01*
X1597860Y31088346D01*
X1853221Y30902816D01*
X1856690Y30900909D01*
X1856693Y30900907D01*
X2073256Y30781850D01*
X2129821Y30750753D01*
X2133490Y30749300D01*
X2133495Y30749298D01*
X2407030Y30640998D01*
X2423298Y30634557D01*
X2729025Y30556060D01*
X3042179Y30516500D01*
X3357821Y30516500D01*
X3670975Y30556060D01*
X3976702Y30634557D01*
X3992970Y30640998D01*
X4266505Y30749298D01*
X4266510Y30749300D01*
X4270179Y30750753D01*
X4326744Y30781850D01*
X4543307Y30900907D01*
X4543310Y30900909D01*
X4546779Y30902816D01*
X4802140Y31088346D01*
X5032233Y31304418D01*
X5233432Y31547625D01*
X5402562Y31814131D01*
X5404246Y31817710D01*
X5404250Y31817717D01*
X5535267Y32096144D01*
X5535269Y32096148D01*
X5536956Y32099734D01*
X5634495Y32399928D01*
X5693641Y32709980D01*
X5713057Y33018587D01*
X5713211Y33021042D01*
X5713460Y33025000D01*
X5693641Y33340020D01*
X5634495Y33650072D01*
X5536956Y33950266D01*
X5535267Y33953856D01*
X5404250Y34232283D01*
X5404246Y34232290D01*
X5402562Y34235869D01*
X5233432Y34502375D01*
X5084681Y34682184D01*
X5034758Y34742530D01*
X5034757Y34742531D01*
X5032233Y34745582D01*
X4802140Y34961654D01*
X4546779Y35147184D01*
X4538738Y35151605D01*
X4273648Y35297340D01*
X4273647Y35297341D01*
X4270179Y35299247D01*
X4266510Y35300700D01*
X4266505Y35300702D01*
X3980372Y35413990D01*
X3980371Y35413990D01*
X3976702Y35415443D01*
X3670975Y35493940D01*
X3357821Y35533500D01*
X3042179Y35533500D01*
X2729025Y35493940D01*
X2423298Y35415443D01*
X2419629Y35413990D01*
X2419628Y35413990D01*
X2133495Y35300702D01*
X2133490Y35300700D01*
X2129821Y35299247D01*
X2126353Y35297341D01*
X2126352Y35297340D01*
X1861263Y35151605D01*
X1853221Y35147184D01*
X1597860Y34961654D01*
X1367767Y34745582D01*
X1365243Y34742531D01*
X1365242Y34742530D01*
X1315319Y34682184D01*
X1166568Y34502375D01*
X997438Y34235869D01*
X995751Y34232283D01*
X973008Y34183952D01*
X925906Y34130831D01*
X857561Y34111608D01*
X789673Y34132387D01*
X743796Y34186570D01*
X733000Y34237600D01*
X733000Y37081958D01*
X753002Y37150079D01*
X806658Y37196572D01*
X876932Y37206676D01*
X934565Y37182784D01*
X971352Y37155214D01*
X986946Y37146676D01*
X1107394Y37101522D01*
X1122649Y37097895D01*
X1173514Y37092369D01*
X1180328Y37092000D01*
X1802885Y37092000D01*
X1818124Y37096475D01*
X1819329Y37097865D01*
X1821000Y37105548D01*
X1821000Y41118000D01*
X1841002Y41186121D01*
X1894658Y41232614D01*
X1947000Y41244000D01*
X2203000Y41244000D01*
X2271121Y41223998D01*
G37*
%TD.AperFunction*%
%TD*%
M02*
