%TF.GenerationSoftware,KiCad,Pcbnew,(6.0.11-0)*%
%TF.CreationDate,2023-03-20T11:34:52+11:00*%
%TF.ProjectId,AD3 Breakout Board,41443320-4272-4656-916b-6f757420426f,rev?*%
%TF.SameCoordinates,PXb71b00PY2781868*%
%TF.FileFunction,Copper,L2,Bot*%
%TF.FilePolarity,Positive*%
%FSLAX46Y46*%
G04 Gerber Fmt 4.6, Leading zero omitted, Abs format (unit mm)*
G04 Created by KiCad (PCBNEW (6.0.11-0)) date 2023-03-20 11:34:52*
%MOMM*%
%LPD*%
G01*
G04 APERTURE LIST*
G04 Aperture macros list*
%AMRoundRect*
0 Rectangle with rounded corners*
0 $1 Rounding radius*
0 $2 $3 $4 $5 $6 $7 $8 $9 X,Y pos of 4 corners*
0 Add a 4 corners polygon primitive as box body*
4,1,4,$2,$3,$4,$5,$6,$7,$8,$9,$2,$3,0*
0 Add four circle primitives for the rounded corners*
1,1,$1+$1,$2,$3*
1,1,$1+$1,$4,$5*
1,1,$1+$1,$6,$7*
1,1,$1+$1,$8,$9*
0 Add four rect primitives between the rounded corners*
20,1,$1+$1,$2,$3,$4,$5,0*
20,1,$1+$1,$4,$5,$6,$7,0*
20,1,$1+$1,$6,$7,$8,$9,0*
20,1,$1+$1,$8,$9,$2,$3,0*%
G04 Aperture macros list end*
%TA.AperFunction,ComponentPad*%
%ADD10C,4.000000*%
%TD*%
%TA.AperFunction,ComponentPad*%
%ADD11R,2.600000X2.600000*%
%TD*%
%TA.AperFunction,ComponentPad*%
%ADD12C,2.600000*%
%TD*%
%TA.AperFunction,ComponentPad*%
%ADD13RoundRect,0.250000X-0.350000X-0.625000X0.350000X-0.625000X0.350000X0.625000X-0.350000X0.625000X0*%
%TD*%
%TA.AperFunction,ComponentPad*%
%ADD14O,1.200000X1.750000*%
%TD*%
%TA.AperFunction,ComponentPad*%
%ADD15R,1.700000X1.700000*%
%TD*%
%TA.AperFunction,ComponentPad*%
%ADD16O,1.700000X1.700000*%
%TD*%
%TA.AperFunction,ComponentPad*%
%ADD17RoundRect,0.250000X0.625000X-0.350000X0.625000X0.350000X-0.625000X0.350000X-0.625000X-0.350000X0*%
%TD*%
%TA.AperFunction,ComponentPad*%
%ADD18O,1.750000X1.200000*%
%TD*%
G04 APERTURE END LIST*
D10*
%TO.P,H1,1*%
%TO.N,N/C*%
X2950000Y26500000D03*
%TD*%
D11*
%TO.P,J3,1,1*%
%TO.N,/Thermistor_1*%
X15155000Y7620000D03*
D12*
%TO.P,J3,2,2*%
%TO.N,/Thermistor_2*%
X20235000Y7620000D03*
%TD*%
D13*
%TO.P,J5,1,Pin_1*%
%TO.N,/LED_VCC*%
X37425000Y20950000D03*
D14*
%TO.P,J5,2,Pin_2*%
%TO.N,/LED_GND*%
X39425000Y20950000D03*
%TD*%
D13*
%TO.P,J7,1,Pin_1*%
%TO.N,/HS_Fan_VCC*%
X37450000Y6375000D03*
D14*
%TO.P,J7,2,Pin_2*%
%TO.N,/HS_Fan_GND*%
X39450000Y6375000D03*
%TD*%
D10*
%TO.P,H2,1*%
%TO.N,N/C*%
X39700000Y26500000D03*
%TD*%
D11*
%TO.P,J2,1,1*%
%TO.N,/Heater_VCC*%
X3655000Y7620000D03*
D12*
%TO.P,J2,2,2*%
%TO.N,/Heater_GND*%
X8735000Y7620000D03*
%TD*%
D13*
%TO.P,J4,1,Pin_1*%
%TO.N,/PC_FAN_VCC*%
X37525000Y13650000D03*
D14*
%TO.P,J4,2,Pin_2*%
%TO.N,/PC_FAN_GND*%
X39525000Y13650000D03*
%TD*%
D15*
%TO.P,J1,1,Pin_1*%
%TO.N,/Heater_GND*%
X9350000Y20750000D03*
D16*
%TO.P,J1,2,Pin_2*%
X9350000Y23290000D03*
%TO.P,J1,3,Pin_3*%
%TO.N,/Heater_VCC*%
X11890000Y20750000D03*
%TO.P,J1,4,Pin_4*%
X11890000Y23290000D03*
%TO.P,J1,5,Pin_5*%
%TO.N,/HS_Fan_GND*%
X14430000Y20750000D03*
%TO.P,J1,6,Pin_6*%
%TO.N,/HS_Fan_VCC*%
X14430000Y23290000D03*
%TO.P,J1,7,Pin_7*%
%TO.N,/LED_GND*%
X16970000Y20750000D03*
%TO.P,J1,8,Pin_8*%
%TO.N,/LED_VCC*%
X16970000Y23290000D03*
%TO.P,J1,9,Pin_9*%
%TO.N,unconnected-(J1-Pad9)*%
X19510000Y20750000D03*
%TO.P,J1,10,Pin_10*%
%TO.N,/Thermistor_1*%
X19510000Y23290000D03*
%TO.P,J1,11,Pin_11*%
%TO.N,/Thermistor_2*%
X22050000Y20750000D03*
%TO.P,J1,12,Pin_12*%
%TO.N,/PC_FAN_GND*%
X22050000Y23290000D03*
%TO.P,J1,13,Pin_13*%
%TO.N,/PC_FAN_VCC*%
X24590000Y20750000D03*
%TO.P,J1,14,Pin_14*%
%TO.N,/BLT_GND1*%
X24590000Y23290000D03*
%TO.P,J1,15,Pin_15*%
%TO.N,/BLT_5v*%
X27130000Y20750000D03*
%TO.P,J1,16,Pin_16*%
%TO.N,/BLT_PA1*%
X27130000Y23290000D03*
%TO.P,J1,17,Pin_17*%
%TO.N,/BLT_GND2*%
X29670000Y20750000D03*
%TO.P,J1,18,Pin_18*%
%TO.N,/BLT_PC14*%
X29670000Y23290000D03*
%TD*%
D17*
%TO.P,J6,1,Pin_1*%
%TO.N,/BLT_GND1*%
X27400000Y5075000D03*
D18*
%TO.P,J6,2,Pin_2*%
%TO.N,/BLT_5v*%
X27400000Y7075000D03*
%TO.P,J6,3,Pin_3*%
%TO.N,/BLT_PA1*%
X27400000Y9075000D03*
%TO.P,J6,4,Pin_4*%
%TO.N,/BLT_GND2*%
X27400000Y11075000D03*
%TO.P,J6,5,Pin_5*%
%TO.N,/BLT_PC14*%
X27400000Y13075000D03*
%TD*%
%TA.AperFunction,Conductor*%
%TO.N,/Heater_GND*%
G36*
X38163368Y28696498D02*
G01*
X38209861Y28642842D01*
X38219965Y28572568D01*
X38190471Y28507988D01*
X38169308Y28488564D01*
X38097860Y28436654D01*
X37867767Y28220582D01*
X37666568Y27977375D01*
X37497438Y27710869D01*
X37495754Y27707290D01*
X37495750Y27707283D01*
X37364733Y27428856D01*
X37363044Y27425266D01*
X37265505Y27125072D01*
X37206359Y26815020D01*
X37186540Y26500000D01*
X37206359Y26184980D01*
X37265505Y25874928D01*
X37363044Y25574734D01*
X37364731Y25571148D01*
X37364733Y25571144D01*
X37495750Y25292717D01*
X37495754Y25292710D01*
X37497438Y25289131D01*
X37666568Y25022625D01*
X37867767Y24779418D01*
X38097860Y24563346D01*
X38353221Y24377816D01*
X38356690Y24375909D01*
X38356693Y24375907D01*
X38525453Y24283130D01*
X38629821Y24225753D01*
X38633490Y24224300D01*
X38633495Y24224298D01*
X38837323Y24143597D01*
X38923298Y24109557D01*
X39229025Y24031060D01*
X39542179Y23991500D01*
X39857821Y23991500D01*
X40170975Y24031060D01*
X40476702Y24109557D01*
X40562677Y24143597D01*
X40766505Y24224298D01*
X40766510Y24224300D01*
X40770179Y24225753D01*
X40874547Y24283130D01*
X41043307Y24375907D01*
X41043310Y24375909D01*
X41046779Y24377816D01*
X41302140Y24563346D01*
X41532233Y24779418D01*
X41534760Y24782473D01*
X41534766Y24782479D01*
X41668416Y24944033D01*
X41727249Y24983771D01*
X41798227Y24985392D01*
X41858815Y24948383D01*
X41889775Y24884493D01*
X41891500Y24863717D01*
X41891500Y909500D01*
X41871498Y841379D01*
X41817842Y794886D01*
X41765500Y783500D01*
X859500Y783500D01*
X791379Y803502D01*
X744886Y857158D01*
X733500Y909500D01*
X733500Y6271866D01*
X1846500Y6271866D01*
X1853255Y6209684D01*
X1904385Y6073295D01*
X1991739Y5956739D01*
X2108295Y5869385D01*
X2244684Y5818255D01*
X2306866Y5811500D01*
X5003134Y5811500D01*
X5065316Y5818255D01*
X5201705Y5869385D01*
X5318261Y5956739D01*
X5405615Y6073295D01*
X5443778Y6175094D01*
X7654839Y6175094D01*
X7663553Y6163573D01*
X7770452Y6085191D01*
X7778351Y6080255D01*
X8007905Y5959481D01*
X8016454Y5955764D01*
X8261327Y5870251D01*
X8270336Y5867837D01*
X8525166Y5819456D01*
X8534423Y5818402D01*
X8793607Y5808217D01*
X8802921Y5808543D01*
X9060753Y5836780D01*
X9069930Y5838481D01*
X9320758Y5904519D01*
X9329574Y5907555D01*
X9567880Y6009938D01*
X9576167Y6014252D01*
X9796718Y6150734D01*
X9804268Y6156220D01*
X9809559Y6160699D01*
X9817997Y6173503D01*
X9811935Y6183855D01*
X9723924Y6271866D01*
X13346500Y6271866D01*
X13353255Y6209684D01*
X13404385Y6073295D01*
X13491739Y5956739D01*
X13608295Y5869385D01*
X13744684Y5818255D01*
X13806866Y5811500D01*
X16503134Y5811500D01*
X16565316Y5818255D01*
X16701705Y5869385D01*
X16818261Y5956739D01*
X16905615Y6073295D01*
X16956745Y6209684D01*
X16963500Y6271866D01*
X16963500Y7667474D01*
X18422050Y7667474D01*
X18422274Y7662808D01*
X18422274Y7662803D01*
X18424946Y7607188D01*
X18434947Y7398981D01*
X18487388Y7135344D01*
X18578220Y6882354D01*
X18580432Y6878238D01*
X18580433Y6878235D01*
X18669505Y6712466D01*
X18705450Y6645569D01*
X18708241Y6641832D01*
X18708245Y6641825D01*
X18784405Y6539835D01*
X18866281Y6430190D01*
X18869590Y6426910D01*
X18869595Y6426904D01*
X19033019Y6264901D01*
X19057180Y6240950D01*
X19060942Y6238192D01*
X19060945Y6238189D01*
X19217048Y6123730D01*
X19273954Y6082005D01*
X19278089Y6079829D01*
X19278093Y6079827D01*
X19507698Y5959025D01*
X19511840Y5956846D01*
X19765613Y5868225D01*
X19770206Y5867353D01*
X20025109Y5818958D01*
X20025112Y5818958D01*
X20029698Y5818087D01*
X20157370Y5813071D01*
X20293625Y5807717D01*
X20293630Y5807717D01*
X20298293Y5807534D01*
X20402607Y5818958D01*
X20560844Y5836287D01*
X20560850Y5836288D01*
X20565497Y5836797D01*
X20570021Y5837988D01*
X20820918Y5904044D01*
X20820920Y5904045D01*
X20825441Y5905235D01*
X20932795Y5951358D01*
X21068120Y6009498D01*
X21068122Y6009499D01*
X21072414Y6011343D01*
X21191751Y6085191D01*
X21297017Y6150331D01*
X21297021Y6150334D01*
X21300990Y6152790D01*
X21506149Y6326470D01*
X21683382Y6528566D01*
X21690631Y6539835D01*
X21826269Y6750709D01*
X21828797Y6754639D01*
X21939199Y6999722D01*
X21975771Y7129396D01*
X26012787Y7129396D01*
X26022567Y6918101D01*
X26023971Y6912276D01*
X26023971Y6912275D01*
X26060878Y6759136D01*
X26072125Y6712466D01*
X26074607Y6707008D01*
X26074608Y6707004D01*
X26118053Y6611454D01*
X26159674Y6519913D01*
X26282054Y6347389D01*
X26286381Y6343247D01*
X26286386Y6343241D01*
X26377317Y6256194D01*
X26412694Y6194639D01*
X26409175Y6123730D01*
X26367879Y6065979D01*
X26356496Y6058035D01*
X26300652Y6023478D01*
X26175695Y5898303D01*
X26171855Y5892073D01*
X26171854Y5892072D01*
X26120058Y5808043D01*
X26082885Y5747738D01*
X26056436Y5667995D01*
X26029753Y5587548D01*
X26027203Y5579861D01*
X26016500Y5475400D01*
X26016500Y4674600D01*
X26027474Y4568834D01*
X26083450Y4401054D01*
X26176522Y4250652D01*
X26301697Y4125695D01*
X26307927Y4121855D01*
X26307928Y4121854D01*
X26445090Y4037306D01*
X26452262Y4032885D01*
X26532005Y4006436D01*
X26613611Y3979368D01*
X26613613Y3979368D01*
X26620139Y3977203D01*
X26626975Y3976503D01*
X26626978Y3976502D01*
X26670031Y3972091D01*
X26724600Y3966500D01*
X28075400Y3966500D01*
X28078646Y3966837D01*
X28078650Y3966837D01*
X28174308Y3976762D01*
X28174312Y3976763D01*
X28181166Y3977474D01*
X28187702Y3979655D01*
X28187704Y3979655D01*
X28319806Y4023728D01*
X28348946Y4033450D01*
X28499348Y4126522D01*
X28624305Y4251697D01*
X28717115Y4402262D01*
X28772797Y4570139D01*
X28783500Y4674600D01*
X28783500Y5475400D01*
X28772526Y5581166D01*
X28734098Y5696350D01*
X28733014Y5699600D01*
X36341500Y5699600D01*
X36352474Y5593834D01*
X36354655Y5587298D01*
X36354655Y5587296D01*
X36390920Y5478598D01*
X36408450Y5426054D01*
X36501522Y5275652D01*
X36626697Y5150695D01*
X36632927Y5146855D01*
X36632928Y5146854D01*
X36770090Y5062306D01*
X36777262Y5057885D01*
X36802217Y5049608D01*
X36938611Y5004368D01*
X36938613Y5004368D01*
X36945139Y5002203D01*
X36951975Y5001503D01*
X36951978Y5001502D01*
X36990386Y4997567D01*
X37049600Y4991500D01*
X37850400Y4991500D01*
X37853646Y4991837D01*
X37853650Y4991837D01*
X37949308Y5001762D01*
X37949312Y5001763D01*
X37956166Y5002474D01*
X37962702Y5004655D01*
X37962704Y5004655D01*
X38097443Y5049608D01*
X38123946Y5058450D01*
X38274348Y5151522D01*
X38399305Y5276697D01*
X38431075Y5328236D01*
X38483846Y5375729D01*
X38553918Y5387153D01*
X38619042Y5358879D01*
X38637418Y5339955D01*
X38643604Y5332080D01*
X38648135Y5328148D01*
X38648138Y5328145D01*
X38734058Y5253588D01*
X38803363Y5193448D01*
X38808549Y5190448D01*
X38808553Y5190445D01*
X38904957Y5134674D01*
X38986454Y5087527D01*
X39186271Y5018139D01*
X39192206Y5017278D01*
X39192208Y5017278D01*
X39389664Y4988648D01*
X39389667Y4988648D01*
X39395604Y4987787D01*
X39606899Y4997567D01*
X39738077Y5029181D01*
X39806701Y5045719D01*
X39806703Y5045720D01*
X39812534Y5047125D01*
X39817992Y5049607D01*
X39817996Y5049608D01*
X39933041Y5101916D01*
X40005087Y5134674D01*
X40177611Y5257054D01*
X40323881Y5409850D01*
X40438620Y5587548D01*
X40485094Y5702866D01*
X40515442Y5778168D01*
X40515443Y5778171D01*
X40517686Y5783737D01*
X40558228Y5991337D01*
X40558500Y5996899D01*
X40558500Y6702846D01*
X40543452Y6860566D01*
X40483908Y7063534D01*
X40449118Y7131083D01*
X40389804Y7246249D01*
X40389802Y7246252D01*
X40387058Y7251580D01*
X40256396Y7417920D01*
X40251865Y7421852D01*
X40251862Y7421855D01*
X40101167Y7552621D01*
X40096637Y7556552D01*
X40091451Y7559552D01*
X40091447Y7559555D01*
X39918742Y7659467D01*
X39913546Y7662473D01*
X39713729Y7731861D01*
X39707794Y7732722D01*
X39707792Y7732722D01*
X39510336Y7761352D01*
X39510333Y7761352D01*
X39504396Y7762213D01*
X39293101Y7752433D01*
X39165317Y7721637D01*
X39093299Y7704281D01*
X39093297Y7704280D01*
X39087466Y7702875D01*
X39082008Y7700393D01*
X39082004Y7700392D01*
X38966959Y7648084D01*
X38894913Y7615326D01*
X38722389Y7492946D01*
X38718247Y7488619D01*
X38718241Y7488614D01*
X38631194Y7397683D01*
X38569639Y7362306D01*
X38498730Y7365825D01*
X38440979Y7407121D01*
X38433032Y7418509D01*
X38398478Y7474348D01*
X38273303Y7599305D01*
X38267072Y7603146D01*
X38128968Y7688275D01*
X38128966Y7688276D01*
X38122738Y7692115D01*
X37962254Y7745345D01*
X37961389Y7745632D01*
X37961387Y7745632D01*
X37954861Y7747797D01*
X37948025Y7748497D01*
X37948022Y7748498D01*
X37904969Y7752909D01*
X37850400Y7758500D01*
X37049600Y7758500D01*
X37046354Y7758163D01*
X37046350Y7758163D01*
X36950692Y7748238D01*
X36950688Y7748237D01*
X36943834Y7747526D01*
X36937298Y7745345D01*
X36937296Y7745345D01*
X36879813Y7726167D01*
X36776054Y7691550D01*
X36625652Y7598478D01*
X36500695Y7473303D01*
X36496855Y7467073D01*
X36496854Y7467072D01*
X36459900Y7407121D01*
X36407885Y7322738D01*
X36352203Y7154861D01*
X36341500Y7050400D01*
X36341500Y5699600D01*
X28733014Y5699600D01*
X28718868Y5741998D01*
X28716550Y5748946D01*
X28623478Y5899348D01*
X28498303Y6024305D01*
X28446764Y6056075D01*
X28399271Y6108846D01*
X28387847Y6178918D01*
X28416121Y6244042D01*
X28435045Y6262418D01*
X28442920Y6268604D01*
X28446852Y6273135D01*
X28446855Y6273138D01*
X28577621Y6423833D01*
X28581552Y6428363D01*
X28584552Y6433549D01*
X28584555Y6433553D01*
X28684467Y6606258D01*
X28687473Y6611454D01*
X28756861Y6811271D01*
X28763142Y6854589D01*
X28786352Y7014664D01*
X28786352Y7014667D01*
X28787213Y7020604D01*
X28777433Y7231899D01*
X28727875Y7437534D01*
X28684525Y7532878D01*
X28652575Y7603146D01*
X28640326Y7630087D01*
X28517946Y7802611D01*
X28365150Y7948881D01*
X28359255Y7952688D01*
X28332837Y7969746D01*
X28286460Y8023501D01*
X28276507Y8093797D01*
X28306139Y8158314D01*
X28323353Y8174683D01*
X28330446Y8180254D01*
X28442920Y8268604D01*
X28446852Y8273135D01*
X28446855Y8273138D01*
X28577621Y8423833D01*
X28581552Y8428363D01*
X28584552Y8433549D01*
X28584555Y8433553D01*
X28684467Y8606258D01*
X28687473Y8611454D01*
X28756861Y8811271D01*
X28787213Y9020604D01*
X28777433Y9231899D01*
X28745819Y9363077D01*
X28729281Y9431701D01*
X28729280Y9431703D01*
X28727875Y9437534D01*
X28684525Y9532878D01*
X28642806Y9624632D01*
X28640326Y9630087D01*
X28517946Y9802611D01*
X28365150Y9948881D01*
X28359255Y9952688D01*
X28332837Y9969746D01*
X28286460Y10023501D01*
X28276507Y10093797D01*
X28306139Y10158314D01*
X28323353Y10174683D01*
X28330446Y10180254D01*
X28442920Y10268604D01*
X28446852Y10273135D01*
X28446855Y10273138D01*
X28577621Y10423833D01*
X28581552Y10428363D01*
X28584552Y10433549D01*
X28584555Y10433553D01*
X28684467Y10606258D01*
X28687473Y10611454D01*
X28756861Y10811271D01*
X28787213Y11020604D01*
X28777433Y11231899D01*
X28727875Y11437534D01*
X28684525Y11532878D01*
X28642806Y11624632D01*
X28640326Y11630087D01*
X28517946Y11802611D01*
X28365150Y11948881D01*
X28359255Y11952688D01*
X28332837Y11969746D01*
X28286460Y12023501D01*
X28276507Y12093797D01*
X28306139Y12158314D01*
X28323353Y12174683D01*
X28330446Y12180254D01*
X28442920Y12268604D01*
X28446852Y12273135D01*
X28446855Y12273138D01*
X28577621Y12423833D01*
X28581552Y12428363D01*
X28584552Y12433549D01*
X28584555Y12433553D01*
X28684467Y12606258D01*
X28687473Y12611454D01*
X28756861Y12811271D01*
X28763566Y12857511D01*
X28780543Y12974600D01*
X36416500Y12974600D01*
X36416837Y12971354D01*
X36416837Y12971350D01*
X36422967Y12912275D01*
X36427474Y12868834D01*
X36429655Y12862298D01*
X36429655Y12862296D01*
X36448568Y12805607D01*
X36483450Y12701054D01*
X36576522Y12550652D01*
X36701697Y12425695D01*
X36707927Y12421855D01*
X36707928Y12421854D01*
X36845090Y12337306D01*
X36852262Y12332885D01*
X36877217Y12324608D01*
X37013611Y12279368D01*
X37013613Y12279368D01*
X37020139Y12277203D01*
X37026975Y12276503D01*
X37026978Y12276502D01*
X37059813Y12273138D01*
X37124600Y12266500D01*
X37925400Y12266500D01*
X37928646Y12266837D01*
X37928650Y12266837D01*
X38024308Y12276762D01*
X38024312Y12276763D01*
X38031166Y12277474D01*
X38037702Y12279655D01*
X38037704Y12279655D01*
X38172443Y12324608D01*
X38198946Y12333450D01*
X38349348Y12426522D01*
X38474305Y12551697D01*
X38506075Y12603236D01*
X38558846Y12650729D01*
X38628918Y12662153D01*
X38694042Y12633879D01*
X38712418Y12614955D01*
X38718604Y12607080D01*
X38723135Y12603148D01*
X38723138Y12603145D01*
X38819055Y12519913D01*
X38878363Y12468448D01*
X38883549Y12465448D01*
X38883553Y12465445D01*
X38979957Y12409674D01*
X39061454Y12362527D01*
X39261271Y12293139D01*
X39267206Y12292278D01*
X39267208Y12292278D01*
X39464664Y12263648D01*
X39464667Y12263648D01*
X39470604Y12262787D01*
X39681899Y12272567D01*
X39813077Y12304181D01*
X39881701Y12320719D01*
X39881703Y12320720D01*
X39887534Y12322125D01*
X39892992Y12324607D01*
X39892996Y12324608D01*
X40008041Y12376916D01*
X40080087Y12409674D01*
X40235495Y12519913D01*
X40247725Y12528588D01*
X40247726Y12528589D01*
X40252611Y12532054D01*
X40398881Y12684850D01*
X40513620Y12862548D01*
X40592686Y13058737D01*
X40633228Y13266337D01*
X40633500Y13271899D01*
X40633500Y13977846D01*
X40618452Y14135566D01*
X40558908Y14338534D01*
X40511872Y14429861D01*
X40464804Y14521249D01*
X40464802Y14521252D01*
X40462058Y14526580D01*
X40331396Y14692920D01*
X40326865Y14696852D01*
X40326862Y14696855D01*
X40176167Y14827621D01*
X40171637Y14831552D01*
X40166451Y14834552D01*
X40166447Y14834555D01*
X39993742Y14934467D01*
X39988546Y14937473D01*
X39788729Y15006861D01*
X39782794Y15007722D01*
X39782792Y15007722D01*
X39585336Y15036352D01*
X39585333Y15036352D01*
X39579396Y15037213D01*
X39368101Y15027433D01*
X39236923Y14995819D01*
X39168299Y14979281D01*
X39168297Y14979280D01*
X39162466Y14977875D01*
X39157008Y14975393D01*
X39157004Y14975392D01*
X39041959Y14923084D01*
X38969913Y14890326D01*
X38797389Y14767946D01*
X38793247Y14763619D01*
X38793241Y14763614D01*
X38706194Y14672683D01*
X38644639Y14637306D01*
X38573730Y14640825D01*
X38515979Y14682121D01*
X38508032Y14693509D01*
X38473478Y14749348D01*
X38348303Y14874305D01*
X38245826Y14937473D01*
X38203968Y14963275D01*
X38203966Y14963276D01*
X38197738Y14967115D01*
X38037254Y15020345D01*
X38036389Y15020632D01*
X38036387Y15020632D01*
X38029861Y15022797D01*
X38023025Y15023497D01*
X38023022Y15023498D01*
X37979969Y15027909D01*
X37925400Y15033500D01*
X37124600Y15033500D01*
X37121354Y15033163D01*
X37121350Y15033163D01*
X37025692Y15023238D01*
X37025688Y15023237D01*
X37018834Y15022526D01*
X37012298Y15020345D01*
X37012296Y15020345D01*
X36889213Y14979281D01*
X36851054Y14966550D01*
X36700652Y14873478D01*
X36575695Y14748303D01*
X36571855Y14742073D01*
X36571854Y14742072D01*
X36534900Y14682121D01*
X36482885Y14597738D01*
X36427203Y14429861D01*
X36416500Y14325400D01*
X36416500Y12974600D01*
X28780543Y12974600D01*
X28786352Y13014664D01*
X28786352Y13014667D01*
X28787213Y13020604D01*
X28777433Y13231899D01*
X28727875Y13437534D01*
X28684525Y13532878D01*
X28642806Y13624632D01*
X28640326Y13630087D01*
X28517946Y13802611D01*
X28365150Y13948881D01*
X28187452Y14063620D01*
X28127354Y14087840D01*
X27996832Y14140442D01*
X27996829Y14140443D01*
X27991263Y14142686D01*
X27783663Y14183228D01*
X27778101Y14183500D01*
X27072154Y14183500D01*
X26914434Y14168452D01*
X26711466Y14108908D01*
X26706139Y14106164D01*
X26706138Y14106164D01*
X26528751Y14014804D01*
X26528748Y14014802D01*
X26523420Y14012058D01*
X26357080Y13881396D01*
X26353148Y13876865D01*
X26353145Y13876862D01*
X26284474Y13797725D01*
X26218448Y13721637D01*
X26215448Y13716451D01*
X26215445Y13716447D01*
X26168312Y13634974D01*
X26112527Y13538546D01*
X26043139Y13338729D01*
X26042278Y13332794D01*
X26042278Y13332792D01*
X26032643Y13266337D01*
X26012787Y13129396D01*
X26022567Y12918101D01*
X26023971Y12912276D01*
X26023971Y12912275D01*
X26032788Y12875692D01*
X26072125Y12712466D01*
X26074607Y12707008D01*
X26074608Y12707004D01*
X26126916Y12591959D01*
X26159674Y12519913D01*
X26228655Y12422668D01*
X26269184Y12365533D01*
X26282054Y12347389D01*
X26434850Y12201119D01*
X26439888Y12197866D01*
X26467163Y12180254D01*
X26513540Y12126499D01*
X26523493Y12056203D01*
X26493861Y11991686D01*
X26476649Y11975319D01*
X26357080Y11881396D01*
X26353148Y11876865D01*
X26353145Y11876862D01*
X26284474Y11797725D01*
X26218448Y11721637D01*
X26215448Y11716451D01*
X26215445Y11716447D01*
X26168312Y11634974D01*
X26112527Y11538546D01*
X26043139Y11338729D01*
X26012787Y11129396D01*
X26022567Y10918101D01*
X26072125Y10712466D01*
X26074607Y10707008D01*
X26074608Y10707004D01*
X26118053Y10611454D01*
X26159674Y10519913D01*
X26282054Y10347389D01*
X26434850Y10201119D01*
X26439888Y10197866D01*
X26467163Y10180254D01*
X26513540Y10126499D01*
X26523493Y10056203D01*
X26493861Y9991686D01*
X26476649Y9975319D01*
X26357080Y9881396D01*
X26353148Y9876865D01*
X26353145Y9876862D01*
X26284474Y9797725D01*
X26218448Y9721637D01*
X26215448Y9716451D01*
X26215445Y9716447D01*
X26168312Y9634974D01*
X26112527Y9538546D01*
X26043139Y9338729D01*
X26042278Y9332794D01*
X26042278Y9332792D01*
X26018197Y9166705D01*
X26012787Y9129396D01*
X26022567Y8918101D01*
X26072125Y8712466D01*
X26074607Y8707008D01*
X26074608Y8707004D01*
X26118053Y8611454D01*
X26159674Y8519913D01*
X26282054Y8347389D01*
X26434850Y8201119D01*
X26439888Y8197866D01*
X26467163Y8180254D01*
X26513540Y8126499D01*
X26523493Y8056203D01*
X26493861Y7991686D01*
X26476649Y7975319D01*
X26357080Y7881396D01*
X26353148Y7876865D01*
X26353145Y7876862D01*
X26240913Y7747526D01*
X26218448Y7721637D01*
X26215448Y7716451D01*
X26215445Y7716447D01*
X26144201Y7593296D01*
X26112527Y7538546D01*
X26043139Y7338729D01*
X26042278Y7332794D01*
X26042278Y7332792D01*
X26015488Y7148022D01*
X26012787Y7129396D01*
X21975771Y7129396D01*
X21976247Y7131083D01*
X22010893Y7253928D01*
X22010894Y7253931D01*
X22012163Y7258432D01*
X22030043Y7398981D01*
X22045688Y7521955D01*
X22045688Y7521959D01*
X22046086Y7525085D01*
X22046170Y7528267D01*
X22047894Y7594134D01*
X22048571Y7620000D01*
X22038709Y7752710D01*
X22028996Y7883408D01*
X22028996Y7883409D01*
X22028650Y7888063D01*
X22027619Y7892621D01*
X21970361Y8145669D01*
X21970360Y8145674D01*
X21969327Y8150237D01*
X21871902Y8400762D01*
X21738518Y8634136D01*
X21691068Y8694327D01*
X21672170Y8718299D01*
X21572105Y8845231D01*
X21376317Y9029409D01*
X21178407Y9166705D01*
X21159299Y9179961D01*
X21159296Y9179963D01*
X21155457Y9182626D01*
X21113770Y9203184D01*
X20918564Y9299449D01*
X20918561Y9299450D01*
X20914376Y9301514D01*
X20868207Y9316293D01*
X20688657Y9373767D01*
X20658370Y9383462D01*
X20653763Y9384212D01*
X20653760Y9384213D01*
X20440337Y9418971D01*
X20393063Y9426670D01*
X20262719Y9428376D01*
X20128961Y9430127D01*
X20128958Y9430127D01*
X20124284Y9430188D01*
X19857937Y9393940D01*
X19853451Y9392632D01*
X19853449Y9392632D01*
X19788726Y9373767D01*
X19599874Y9318722D01*
X19355763Y9206185D01*
X19351854Y9203622D01*
X19134881Y9061369D01*
X19134876Y9061365D01*
X19130968Y9058803D01*
X19127476Y9055686D01*
X18966798Y8912275D01*
X18930426Y8879812D01*
X18758544Y8673146D01*
X18619096Y8443344D01*
X18617287Y8439030D01*
X18617285Y8439026D01*
X18601240Y8400762D01*
X18515148Y8195455D01*
X18448981Y7934923D01*
X18422050Y7667474D01*
X16963500Y7667474D01*
X16963500Y8968134D01*
X16956745Y9030316D01*
X16905615Y9166705D01*
X16818261Y9283261D01*
X16701705Y9370615D01*
X16565316Y9421745D01*
X16503134Y9428500D01*
X13806866Y9428500D01*
X13744684Y9421745D01*
X13608295Y9370615D01*
X13491739Y9283261D01*
X13404385Y9166705D01*
X13353255Y9030316D01*
X13346500Y8968134D01*
X13346500Y6271866D01*
X9723924Y6271866D01*
X8747812Y7247978D01*
X8733868Y7255592D01*
X8732035Y7255461D01*
X8725420Y7251210D01*
X7661497Y6187287D01*
X7654839Y6175094D01*
X5443778Y6175094D01*
X5456745Y6209684D01*
X5463500Y6271866D01*
X5463500Y7662789D01*
X6922775Y7662789D01*
X6935220Y7403712D01*
X6936356Y7394457D01*
X6986961Y7140055D01*
X6989449Y7131083D01*
X7077095Y6886967D01*
X7080895Y6878432D01*
X7203658Y6649958D01*
X7208666Y6642096D01*
X7278720Y6548284D01*
X7289979Y6539835D01*
X7302397Y6546607D01*
X8362978Y7607188D01*
X8369356Y7618868D01*
X9099408Y7618868D01*
X9099539Y7617035D01*
X9103790Y7610420D01*
X10171094Y6543116D01*
X10183474Y6536356D01*
X10191815Y6542600D01*
X10325832Y6750952D01*
X10330275Y6759136D01*
X10436807Y6995630D01*
X10439997Y7004395D01*
X10510402Y7254028D01*
X10512262Y7263170D01*
X10545187Y7521981D01*
X10545668Y7528267D01*
X10547987Y7616840D01*
X10547836Y7623149D01*
X10528501Y7883337D01*
X10527125Y7892543D01*
X10469878Y8145533D01*
X10467154Y8154444D01*
X10373143Y8396194D01*
X10369132Y8404603D01*
X10240422Y8629798D01*
X10235211Y8637524D01*
X10191996Y8692342D01*
X10180071Y8700813D01*
X10168537Y8694327D01*
X9107022Y7632812D01*
X9099408Y7618868D01*
X8369356Y7618868D01*
X8370592Y7621132D01*
X8370461Y7622965D01*
X8366210Y7629580D01*
X7300816Y8694974D01*
X7287507Y8702242D01*
X7277472Y8695122D01*
X7261937Y8676444D01*
X7256531Y8668865D01*
X7121965Y8447109D01*
X7117736Y8438808D01*
X7017432Y8199611D01*
X7014471Y8190761D01*
X6950628Y7939375D01*
X6949006Y7930178D01*
X6923020Y7672115D01*
X6922775Y7662789D01*
X5463500Y7662789D01*
X5463500Y8968134D01*
X5456745Y9030316D01*
X5442876Y9067311D01*
X7652102Y9067311D01*
X7656675Y9057535D01*
X8722188Y7992022D01*
X8736132Y7984408D01*
X8737965Y7984539D01*
X8744580Y7988790D01*
X9809349Y9053559D01*
X9815733Y9065249D01*
X9806321Y9077359D01*
X9659045Y9179529D01*
X9651010Y9184262D01*
X9418376Y9298984D01*
X9409743Y9302472D01*
X9162703Y9381550D01*
X9153643Y9383726D01*
X8897630Y9425420D01*
X8888343Y9426232D01*
X8628992Y9429627D01*
X8619681Y9429057D01*
X8362682Y9394081D01*
X8353546Y9392140D01*
X8104543Y9319561D01*
X8095800Y9316293D01*
X7860252Y9207704D01*
X7852097Y9203184D01*
X7661240Y9078053D01*
X7652102Y9067311D01*
X5442876Y9067311D01*
X5405615Y9166705D01*
X5318261Y9283261D01*
X5201705Y9370615D01*
X5065316Y9421745D01*
X5003134Y9428500D01*
X2306866Y9428500D01*
X2244684Y9421745D01*
X2108295Y9370615D01*
X1991739Y9283261D01*
X1904385Y9166705D01*
X1853255Y9030316D01*
X1846500Y8968134D01*
X1846500Y6271866D01*
X733500Y6271866D01*
X733500Y19855331D01*
X7992001Y19855331D01*
X7992371Y19848510D01*
X7997895Y19797648D01*
X8001521Y19782396D01*
X8046676Y19661946D01*
X8055214Y19646351D01*
X8131715Y19544276D01*
X8144276Y19531715D01*
X8246351Y19455214D01*
X8261946Y19446676D01*
X8382394Y19401522D01*
X8397649Y19397895D01*
X8448514Y19392369D01*
X8455328Y19392000D01*
X9077885Y19392000D01*
X9093124Y19396475D01*
X9094329Y19397865D01*
X9096000Y19405548D01*
X9096000Y19410116D01*
X9604000Y19410116D01*
X9608475Y19394877D01*
X9609865Y19393672D01*
X9617548Y19392001D01*
X10244669Y19392001D01*
X10251490Y19392371D01*
X10302352Y19397895D01*
X10317604Y19401521D01*
X10438054Y19446676D01*
X10453649Y19455214D01*
X10555724Y19531715D01*
X10568285Y19544276D01*
X10644786Y19646351D01*
X10653324Y19661946D01*
X10694225Y19771048D01*
X10736867Y19827812D01*
X10803428Y19852512D01*
X10872777Y19837304D01*
X10907444Y19809316D01*
X10932865Y19779969D01*
X10932869Y19779965D01*
X10936250Y19776062D01*
X11108126Y19633368D01*
X11301000Y19520662D01*
X11509692Y19440970D01*
X11514760Y19439939D01*
X11514763Y19439938D01*
X11622017Y19418117D01*
X11728597Y19396433D01*
X11733772Y19396243D01*
X11733774Y19396243D01*
X11946673Y19388436D01*
X11946677Y19388436D01*
X11951837Y19388247D01*
X11956957Y19388903D01*
X11956959Y19388903D01*
X12168288Y19415975D01*
X12168289Y19415975D01*
X12173416Y19416632D01*
X12178366Y19418117D01*
X12382429Y19479339D01*
X12382434Y19479341D01*
X12387384Y19480826D01*
X12587994Y19579104D01*
X12769860Y19708827D01*
X12783750Y19722668D01*
X12870701Y19809316D01*
X12928096Y19866511D01*
X12954486Y19903236D01*
X13058453Y20047923D01*
X13059776Y20046972D01*
X13106645Y20090143D01*
X13176580Y20102375D01*
X13242026Y20074856D01*
X13269875Y20043006D01*
X13329987Y19944912D01*
X13476250Y19776062D01*
X13648126Y19633368D01*
X13841000Y19520662D01*
X14049692Y19440970D01*
X14054760Y19439939D01*
X14054763Y19439938D01*
X14162017Y19418117D01*
X14268597Y19396433D01*
X14273772Y19396243D01*
X14273774Y19396243D01*
X14486673Y19388436D01*
X14486677Y19388436D01*
X14491837Y19388247D01*
X14496957Y19388903D01*
X14496959Y19388903D01*
X14708288Y19415975D01*
X14708289Y19415975D01*
X14713416Y19416632D01*
X14718366Y19418117D01*
X14922429Y19479339D01*
X14922434Y19479341D01*
X14927384Y19480826D01*
X15127994Y19579104D01*
X15309860Y19708827D01*
X15323750Y19722668D01*
X15410701Y19809316D01*
X15468096Y19866511D01*
X15494486Y19903236D01*
X15598453Y20047923D01*
X15599776Y20046972D01*
X15646645Y20090143D01*
X15716580Y20102375D01*
X15782026Y20074856D01*
X15809875Y20043006D01*
X15869987Y19944912D01*
X16016250Y19776062D01*
X16188126Y19633368D01*
X16381000Y19520662D01*
X16589692Y19440970D01*
X16594760Y19439939D01*
X16594763Y19439938D01*
X16702017Y19418117D01*
X16808597Y19396433D01*
X16813772Y19396243D01*
X16813774Y19396243D01*
X17026673Y19388436D01*
X17026677Y19388436D01*
X17031837Y19388247D01*
X17036957Y19388903D01*
X17036959Y19388903D01*
X17248288Y19415975D01*
X17248289Y19415975D01*
X17253416Y19416632D01*
X17258366Y19418117D01*
X17462429Y19479339D01*
X17462434Y19479341D01*
X17467384Y19480826D01*
X17667994Y19579104D01*
X17849860Y19708827D01*
X17863750Y19722668D01*
X17950701Y19809316D01*
X18008096Y19866511D01*
X18034486Y19903236D01*
X18138453Y20047923D01*
X18139776Y20046972D01*
X18186645Y20090143D01*
X18256580Y20102375D01*
X18322026Y20074856D01*
X18349875Y20043006D01*
X18409987Y19944912D01*
X18556250Y19776062D01*
X18728126Y19633368D01*
X18921000Y19520662D01*
X19129692Y19440970D01*
X19134760Y19439939D01*
X19134763Y19439938D01*
X19242017Y19418117D01*
X19348597Y19396433D01*
X19353772Y19396243D01*
X19353774Y19396243D01*
X19566673Y19388436D01*
X19566677Y19388436D01*
X19571837Y19388247D01*
X19576957Y19388903D01*
X19576959Y19388903D01*
X19788288Y19415975D01*
X19788289Y19415975D01*
X19793416Y19416632D01*
X19798366Y19418117D01*
X20002429Y19479339D01*
X20002434Y19479341D01*
X20007384Y19480826D01*
X20207994Y19579104D01*
X20389860Y19708827D01*
X20403750Y19722668D01*
X20490701Y19809316D01*
X20548096Y19866511D01*
X20574486Y19903236D01*
X20678453Y20047923D01*
X20679776Y20046972D01*
X20726645Y20090143D01*
X20796580Y20102375D01*
X20862026Y20074856D01*
X20889875Y20043006D01*
X20949987Y19944912D01*
X21096250Y19776062D01*
X21268126Y19633368D01*
X21461000Y19520662D01*
X21669692Y19440970D01*
X21674760Y19439939D01*
X21674763Y19439938D01*
X21782017Y19418117D01*
X21888597Y19396433D01*
X21893772Y19396243D01*
X21893774Y19396243D01*
X22106673Y19388436D01*
X22106677Y19388436D01*
X22111837Y19388247D01*
X22116957Y19388903D01*
X22116959Y19388903D01*
X22328288Y19415975D01*
X22328289Y19415975D01*
X22333416Y19416632D01*
X22338366Y19418117D01*
X22542429Y19479339D01*
X22542434Y19479341D01*
X22547384Y19480826D01*
X22747994Y19579104D01*
X22929860Y19708827D01*
X22943750Y19722668D01*
X23030701Y19809316D01*
X23088096Y19866511D01*
X23114486Y19903236D01*
X23218453Y20047923D01*
X23219776Y20046972D01*
X23266645Y20090143D01*
X23336580Y20102375D01*
X23402026Y20074856D01*
X23429875Y20043006D01*
X23489987Y19944912D01*
X23636250Y19776062D01*
X23808126Y19633368D01*
X24001000Y19520662D01*
X24209692Y19440970D01*
X24214760Y19439939D01*
X24214763Y19439938D01*
X24322017Y19418117D01*
X24428597Y19396433D01*
X24433772Y19396243D01*
X24433774Y19396243D01*
X24646673Y19388436D01*
X24646677Y19388436D01*
X24651837Y19388247D01*
X24656957Y19388903D01*
X24656959Y19388903D01*
X24868288Y19415975D01*
X24868289Y19415975D01*
X24873416Y19416632D01*
X24878366Y19418117D01*
X25082429Y19479339D01*
X25082434Y19479341D01*
X25087384Y19480826D01*
X25287994Y19579104D01*
X25469860Y19708827D01*
X25483750Y19722668D01*
X25570701Y19809316D01*
X25628096Y19866511D01*
X25654486Y19903236D01*
X25758453Y20047923D01*
X25759776Y20046972D01*
X25806645Y20090143D01*
X25876580Y20102375D01*
X25942026Y20074856D01*
X25969875Y20043006D01*
X26029987Y19944912D01*
X26176250Y19776062D01*
X26348126Y19633368D01*
X26541000Y19520662D01*
X26749692Y19440970D01*
X26754760Y19439939D01*
X26754763Y19439938D01*
X26862017Y19418117D01*
X26968597Y19396433D01*
X26973772Y19396243D01*
X26973774Y19396243D01*
X27186673Y19388436D01*
X27186677Y19388436D01*
X27191837Y19388247D01*
X27196957Y19388903D01*
X27196959Y19388903D01*
X27408288Y19415975D01*
X27408289Y19415975D01*
X27413416Y19416632D01*
X27418366Y19418117D01*
X27622429Y19479339D01*
X27622434Y19479341D01*
X27627384Y19480826D01*
X27827994Y19579104D01*
X28009860Y19708827D01*
X28023750Y19722668D01*
X28110701Y19809316D01*
X28168096Y19866511D01*
X28194486Y19903236D01*
X28298453Y20047923D01*
X28299776Y20046972D01*
X28346645Y20090143D01*
X28416580Y20102375D01*
X28482026Y20074856D01*
X28509875Y20043006D01*
X28569987Y19944912D01*
X28716250Y19776062D01*
X28888126Y19633368D01*
X29081000Y19520662D01*
X29289692Y19440970D01*
X29294760Y19439939D01*
X29294763Y19439938D01*
X29402017Y19418117D01*
X29508597Y19396433D01*
X29513772Y19396243D01*
X29513774Y19396243D01*
X29726673Y19388436D01*
X29726677Y19388436D01*
X29731837Y19388247D01*
X29736957Y19388903D01*
X29736959Y19388903D01*
X29948288Y19415975D01*
X29948289Y19415975D01*
X29953416Y19416632D01*
X29958366Y19418117D01*
X30162429Y19479339D01*
X30162434Y19479341D01*
X30167384Y19480826D01*
X30367994Y19579104D01*
X30549860Y19708827D01*
X30563750Y19722668D01*
X30650701Y19809316D01*
X30708096Y19866511D01*
X30734486Y19903236D01*
X30835435Y20043723D01*
X30838453Y20047923D01*
X30859320Y20090143D01*
X30935136Y20243547D01*
X30935137Y20243549D01*
X30937430Y20248189D01*
X30945454Y20274600D01*
X36316500Y20274600D01*
X36327474Y20168834D01*
X36329655Y20162298D01*
X36329655Y20162296D01*
X36367813Y20047923D01*
X36383450Y20001054D01*
X36476522Y19850652D01*
X36601697Y19725695D01*
X36607927Y19721855D01*
X36607928Y19721854D01*
X36745090Y19637306D01*
X36752262Y19632885D01*
X36777217Y19624608D01*
X36913611Y19579368D01*
X36913613Y19579368D01*
X36920139Y19577203D01*
X36926975Y19576503D01*
X36926978Y19576502D01*
X36965386Y19572567D01*
X37024600Y19566500D01*
X37825400Y19566500D01*
X37828646Y19566837D01*
X37828650Y19566837D01*
X37924308Y19576762D01*
X37924312Y19576763D01*
X37931166Y19577474D01*
X37937702Y19579655D01*
X37937704Y19579655D01*
X38072443Y19624608D01*
X38098946Y19633450D01*
X38249348Y19726522D01*
X38374305Y19851697D01*
X38406075Y19903236D01*
X38458846Y19950729D01*
X38528918Y19962153D01*
X38594042Y19933879D01*
X38612418Y19914955D01*
X38618604Y19907080D01*
X38623135Y19903148D01*
X38623138Y19903145D01*
X38709058Y19828588D01*
X38778363Y19768448D01*
X38783549Y19765448D01*
X38783553Y19765445D01*
X38945665Y19671661D01*
X38961454Y19662527D01*
X39161271Y19593139D01*
X39167206Y19592278D01*
X39167208Y19592278D01*
X39364664Y19563648D01*
X39364667Y19563648D01*
X39370604Y19562787D01*
X39581899Y19572567D01*
X39713077Y19604181D01*
X39781701Y19620719D01*
X39781703Y19620720D01*
X39787534Y19622125D01*
X39792992Y19624607D01*
X39792996Y19624608D01*
X39971630Y19705829D01*
X39980087Y19709674D01*
X40152611Y19832054D01*
X40298881Y19984850D01*
X40413620Y20162548D01*
X40460094Y20277866D01*
X40490442Y20353168D01*
X40490443Y20353171D01*
X40492686Y20358737D01*
X40533228Y20566337D01*
X40533500Y20571899D01*
X40533500Y21277846D01*
X40518452Y21435566D01*
X40458908Y21638534D01*
X40451683Y21652562D01*
X40364804Y21821249D01*
X40364802Y21821252D01*
X40362058Y21826580D01*
X40231396Y21992920D01*
X40226865Y21996852D01*
X40226862Y21996855D01*
X40076167Y22127621D01*
X40071637Y22131552D01*
X40066451Y22134552D01*
X40066447Y22134555D01*
X39893742Y22234467D01*
X39888546Y22237473D01*
X39688729Y22306861D01*
X39682794Y22307722D01*
X39682792Y22307722D01*
X39485336Y22336352D01*
X39485333Y22336352D01*
X39479396Y22337213D01*
X39268101Y22327433D01*
X39136923Y22295819D01*
X39068299Y22279281D01*
X39068297Y22279280D01*
X39062466Y22277875D01*
X39057008Y22275393D01*
X39057004Y22275392D01*
X38941959Y22223084D01*
X38869913Y22190326D01*
X38768289Y22118239D01*
X38712812Y22078886D01*
X38697389Y22067946D01*
X38693247Y22063619D01*
X38693241Y22063614D01*
X38606194Y21972683D01*
X38544639Y21937306D01*
X38473730Y21940825D01*
X38415979Y21982121D01*
X38408032Y21993509D01*
X38373478Y22049348D01*
X38248303Y22174305D01*
X38145826Y22237473D01*
X38103968Y22263275D01*
X38103966Y22263276D01*
X38097738Y22267115D01*
X37975311Y22307722D01*
X37936389Y22320632D01*
X37936387Y22320632D01*
X37929861Y22322797D01*
X37923025Y22323497D01*
X37923022Y22323498D01*
X37879969Y22327909D01*
X37825400Y22333500D01*
X37024600Y22333500D01*
X37021354Y22333163D01*
X37021350Y22333163D01*
X36925692Y22323238D01*
X36925688Y22323237D01*
X36918834Y22322526D01*
X36912298Y22320345D01*
X36912296Y22320345D01*
X36857544Y22302078D01*
X36751054Y22266550D01*
X36600652Y22173478D01*
X36475695Y22048303D01*
X36471855Y22042073D01*
X36471854Y22042072D01*
X36434900Y21982121D01*
X36382885Y21897738D01*
X36327203Y21729861D01*
X36316500Y21625400D01*
X36316500Y20274600D01*
X30945454Y20274600D01*
X31002370Y20461931D01*
X31031529Y20683410D01*
X31033156Y20750000D01*
X31014852Y20972639D01*
X30960431Y21189298D01*
X30871354Y21394160D01*
X30750014Y21581723D01*
X30599670Y21746949D01*
X30595619Y21750148D01*
X30595615Y21750152D01*
X30428414Y21882200D01*
X30428410Y21882202D01*
X30424359Y21885402D01*
X30383053Y21908204D01*
X30333084Y21958636D01*
X30318312Y22028079D01*
X30343428Y22094484D01*
X30370780Y22121091D01*
X30438134Y22169134D01*
X30549860Y22248827D01*
X30603298Y22302078D01*
X30704435Y22402863D01*
X30708096Y22406511D01*
X30838453Y22587923D01*
X30851995Y22615322D01*
X30935136Y22783547D01*
X30935137Y22783549D01*
X30937430Y22788189D01*
X31002370Y23001931D01*
X31031529Y23223410D01*
X31033156Y23290000D01*
X31014852Y23512639D01*
X30960431Y23729298D01*
X30871354Y23934160D01*
X30750014Y24121723D01*
X30599670Y24286949D01*
X30595619Y24290148D01*
X30595615Y24290152D01*
X30428414Y24422200D01*
X30428410Y24422202D01*
X30424359Y24425402D01*
X30388028Y24445458D01*
X30372136Y24454231D01*
X30228789Y24533362D01*
X30223920Y24535086D01*
X30223916Y24535088D01*
X30023087Y24606205D01*
X30023083Y24606206D01*
X30018212Y24607931D01*
X30013119Y24608838D01*
X30013116Y24608839D01*
X29803373Y24646200D01*
X29803367Y24646201D01*
X29798284Y24647106D01*
X29724452Y24648008D01*
X29580081Y24649772D01*
X29580079Y24649772D01*
X29574911Y24649835D01*
X29354091Y24616045D01*
X29141756Y24546643D01*
X28943607Y24443493D01*
X28939474Y24440390D01*
X28939471Y24440388D01*
X28769100Y24312470D01*
X28764965Y24309365D01*
X28610629Y24147862D01*
X28503201Y23990379D01*
X28448293Y23945379D01*
X28377768Y23937208D01*
X28314021Y23968462D01*
X28293324Y23992946D01*
X28212822Y24117383D01*
X28212820Y24117386D01*
X28210014Y24121723D01*
X28059670Y24286949D01*
X28055619Y24290148D01*
X28055615Y24290152D01*
X27888414Y24422200D01*
X27888410Y24422202D01*
X27884359Y24425402D01*
X27848028Y24445458D01*
X27832136Y24454231D01*
X27688789Y24533362D01*
X27683920Y24535086D01*
X27683916Y24535088D01*
X27483087Y24606205D01*
X27483083Y24606206D01*
X27478212Y24607931D01*
X27473119Y24608838D01*
X27473116Y24608839D01*
X27263373Y24646200D01*
X27263367Y24646201D01*
X27258284Y24647106D01*
X27184452Y24648008D01*
X27040081Y24649772D01*
X27040079Y24649772D01*
X27034911Y24649835D01*
X26814091Y24616045D01*
X26601756Y24546643D01*
X26403607Y24443493D01*
X26399474Y24440390D01*
X26399471Y24440388D01*
X26229100Y24312470D01*
X26224965Y24309365D01*
X26070629Y24147862D01*
X25963201Y23990379D01*
X25908293Y23945379D01*
X25837768Y23937208D01*
X25774021Y23968462D01*
X25753324Y23992946D01*
X25672822Y24117383D01*
X25672820Y24117386D01*
X25670014Y24121723D01*
X25519670Y24286949D01*
X25515619Y24290148D01*
X25515615Y24290152D01*
X25348414Y24422200D01*
X25348410Y24422202D01*
X25344359Y24425402D01*
X25308028Y24445458D01*
X25292136Y24454231D01*
X25148789Y24533362D01*
X25143920Y24535086D01*
X25143916Y24535088D01*
X24943087Y24606205D01*
X24943083Y24606206D01*
X24938212Y24607931D01*
X24933119Y24608838D01*
X24933116Y24608839D01*
X24723373Y24646200D01*
X24723367Y24646201D01*
X24718284Y24647106D01*
X24644452Y24648008D01*
X24500081Y24649772D01*
X24500079Y24649772D01*
X24494911Y24649835D01*
X24274091Y24616045D01*
X24061756Y24546643D01*
X23863607Y24443493D01*
X23859474Y24440390D01*
X23859471Y24440388D01*
X23689100Y24312470D01*
X23684965Y24309365D01*
X23530629Y24147862D01*
X23423201Y23990379D01*
X23368293Y23945379D01*
X23297768Y23937208D01*
X23234021Y23968462D01*
X23213324Y23992946D01*
X23132822Y24117383D01*
X23132820Y24117386D01*
X23130014Y24121723D01*
X22979670Y24286949D01*
X22975619Y24290148D01*
X22975615Y24290152D01*
X22808414Y24422200D01*
X22808410Y24422202D01*
X22804359Y24425402D01*
X22768028Y24445458D01*
X22752136Y24454231D01*
X22608789Y24533362D01*
X22603920Y24535086D01*
X22603916Y24535088D01*
X22403087Y24606205D01*
X22403083Y24606206D01*
X22398212Y24607931D01*
X22393119Y24608838D01*
X22393116Y24608839D01*
X22183373Y24646200D01*
X22183367Y24646201D01*
X22178284Y24647106D01*
X22104452Y24648008D01*
X21960081Y24649772D01*
X21960079Y24649772D01*
X21954911Y24649835D01*
X21734091Y24616045D01*
X21521756Y24546643D01*
X21323607Y24443493D01*
X21319474Y24440390D01*
X21319471Y24440388D01*
X21149100Y24312470D01*
X21144965Y24309365D01*
X20990629Y24147862D01*
X20883201Y23990379D01*
X20828293Y23945379D01*
X20757768Y23937208D01*
X20694021Y23968462D01*
X20673324Y23992946D01*
X20592822Y24117383D01*
X20592820Y24117386D01*
X20590014Y24121723D01*
X20439670Y24286949D01*
X20435619Y24290148D01*
X20435615Y24290152D01*
X20268414Y24422200D01*
X20268410Y24422202D01*
X20264359Y24425402D01*
X20228028Y24445458D01*
X20212136Y24454231D01*
X20068789Y24533362D01*
X20063920Y24535086D01*
X20063916Y24535088D01*
X19863087Y24606205D01*
X19863083Y24606206D01*
X19858212Y24607931D01*
X19853119Y24608838D01*
X19853116Y24608839D01*
X19643373Y24646200D01*
X19643367Y24646201D01*
X19638284Y24647106D01*
X19564452Y24648008D01*
X19420081Y24649772D01*
X19420079Y24649772D01*
X19414911Y24649835D01*
X19194091Y24616045D01*
X18981756Y24546643D01*
X18783607Y24443493D01*
X18779474Y24440390D01*
X18779471Y24440388D01*
X18609100Y24312470D01*
X18604965Y24309365D01*
X18450629Y24147862D01*
X18343201Y23990379D01*
X18288293Y23945379D01*
X18217768Y23937208D01*
X18154021Y23968462D01*
X18133324Y23992946D01*
X18052822Y24117383D01*
X18052820Y24117386D01*
X18050014Y24121723D01*
X17899670Y24286949D01*
X17895619Y24290148D01*
X17895615Y24290152D01*
X17728414Y24422200D01*
X17728410Y24422202D01*
X17724359Y24425402D01*
X17688028Y24445458D01*
X17672136Y24454231D01*
X17528789Y24533362D01*
X17523920Y24535086D01*
X17523916Y24535088D01*
X17323087Y24606205D01*
X17323083Y24606206D01*
X17318212Y24607931D01*
X17313119Y24608838D01*
X17313116Y24608839D01*
X17103373Y24646200D01*
X17103367Y24646201D01*
X17098284Y24647106D01*
X17024452Y24648008D01*
X16880081Y24649772D01*
X16880079Y24649772D01*
X16874911Y24649835D01*
X16654091Y24616045D01*
X16441756Y24546643D01*
X16243607Y24443493D01*
X16239474Y24440390D01*
X16239471Y24440388D01*
X16069100Y24312470D01*
X16064965Y24309365D01*
X15910629Y24147862D01*
X15803201Y23990379D01*
X15748293Y23945379D01*
X15677768Y23937208D01*
X15614021Y23968462D01*
X15593324Y23992946D01*
X15512822Y24117383D01*
X15512820Y24117386D01*
X15510014Y24121723D01*
X15359670Y24286949D01*
X15355619Y24290148D01*
X15355615Y24290152D01*
X15188414Y24422200D01*
X15188410Y24422202D01*
X15184359Y24425402D01*
X15148028Y24445458D01*
X15132136Y24454231D01*
X14988789Y24533362D01*
X14983920Y24535086D01*
X14983916Y24535088D01*
X14783087Y24606205D01*
X14783083Y24606206D01*
X14778212Y24607931D01*
X14773119Y24608838D01*
X14773116Y24608839D01*
X14563373Y24646200D01*
X14563367Y24646201D01*
X14558284Y24647106D01*
X14484452Y24648008D01*
X14340081Y24649772D01*
X14340079Y24649772D01*
X14334911Y24649835D01*
X14114091Y24616045D01*
X13901756Y24546643D01*
X13703607Y24443493D01*
X13699474Y24440390D01*
X13699471Y24440388D01*
X13529100Y24312470D01*
X13524965Y24309365D01*
X13370629Y24147862D01*
X13263201Y23990379D01*
X13208293Y23945379D01*
X13137768Y23937208D01*
X13074021Y23968462D01*
X13053324Y23992946D01*
X12972822Y24117383D01*
X12972820Y24117386D01*
X12970014Y24121723D01*
X12819670Y24286949D01*
X12815619Y24290148D01*
X12815615Y24290152D01*
X12648414Y24422200D01*
X12648410Y24422202D01*
X12644359Y24425402D01*
X12608028Y24445458D01*
X12592136Y24454231D01*
X12448789Y24533362D01*
X12443920Y24535086D01*
X12443916Y24535088D01*
X12243087Y24606205D01*
X12243083Y24606206D01*
X12238212Y24607931D01*
X12233119Y24608838D01*
X12233116Y24608839D01*
X12023373Y24646200D01*
X12023367Y24646201D01*
X12018284Y24647106D01*
X11944452Y24648008D01*
X11800081Y24649772D01*
X11800079Y24649772D01*
X11794911Y24649835D01*
X11574091Y24616045D01*
X11361756Y24546643D01*
X11163607Y24443493D01*
X11159474Y24440390D01*
X11159471Y24440388D01*
X10989100Y24312470D01*
X10984965Y24309365D01*
X10830629Y24147862D01*
X10827720Y24143597D01*
X10827714Y24143589D01*
X10815404Y24125543D01*
X10723204Y23990382D01*
X10722898Y23989934D01*
X10667987Y23944931D01*
X10597462Y23936760D01*
X10533715Y23968014D01*
X10513018Y23992498D01*
X10432426Y24117074D01*
X10426136Y24125243D01*
X10282806Y24282760D01*
X10275273Y24289785D01*
X10108139Y24421778D01*
X10099552Y24427483D01*
X9913117Y24530401D01*
X9903705Y24534631D01*
X9702959Y24605720D01*
X9692988Y24608354D01*
X9621837Y24621028D01*
X9608540Y24619568D01*
X9604000Y24605011D01*
X9604000Y19410116D01*
X9096000Y19410116D01*
X9096000Y20477885D01*
X9091525Y20493124D01*
X9090135Y20494329D01*
X9082452Y20496000D01*
X8010116Y20496000D01*
X7994877Y20491525D01*
X7993672Y20490135D01*
X7992001Y20482452D01*
X7992001Y19855331D01*
X733500Y19855331D01*
X733500Y21022115D01*
X7992000Y21022115D01*
X7996475Y21006876D01*
X7997865Y21005671D01*
X8005548Y21004000D01*
X9077885Y21004000D01*
X9093124Y21008475D01*
X9094329Y21009865D01*
X9096000Y21017548D01*
X9096000Y23017885D01*
X9091525Y23033124D01*
X9090135Y23034329D01*
X9082452Y23036000D01*
X8033225Y23036000D01*
X8019694Y23032027D01*
X8018257Y23022034D01*
X8048565Y22887554D01*
X8051645Y22877725D01*
X8131770Y22680397D01*
X8136413Y22671206D01*
X8247694Y22489612D01*
X8253777Y22481301D01*
X8393213Y22320333D01*
X8400578Y22313119D01*
X8405966Y22308646D01*
X8445599Y22249742D01*
X8447095Y22178761D01*
X8409978Y22118239D01*
X8369707Y22093722D01*
X8261948Y22053325D01*
X8246351Y22044786D01*
X8144276Y21968285D01*
X8131715Y21955724D01*
X8055214Y21853649D01*
X8046676Y21838054D01*
X8001522Y21717606D01*
X7997895Y21702351D01*
X7992369Y21651486D01*
X7992000Y21644672D01*
X7992000Y21022115D01*
X733500Y21022115D01*
X733500Y23555817D01*
X8014389Y23555817D01*
X8015912Y23547393D01*
X8028292Y23544000D01*
X9077885Y23544000D01*
X9093124Y23548475D01*
X9094329Y23549865D01*
X9096000Y23557548D01*
X9096000Y24606898D01*
X9092082Y24620242D01*
X9077806Y24622229D01*
X9039324Y24616340D01*
X9029288Y24613949D01*
X8826868Y24547788D01*
X8817359Y24543791D01*
X8628463Y24445458D01*
X8619738Y24439964D01*
X8449433Y24312095D01*
X8441726Y24305252D01*
X8294590Y24151283D01*
X8288104Y24143273D01*
X8168098Y23967351D01*
X8163000Y23958377D01*
X8073338Y23765217D01*
X8069775Y23755530D01*
X8014389Y23555817D01*
X733500Y23555817D01*
X733500Y24893937D01*
X753502Y24962058D01*
X807158Y25008551D01*
X877432Y25018655D01*
X942012Y24989161D01*
X956585Y24974253D01*
X1117767Y24779418D01*
X1347860Y24563346D01*
X1603221Y24377816D01*
X1606690Y24375909D01*
X1606693Y24375907D01*
X1775453Y24283130D01*
X1879821Y24225753D01*
X1883490Y24224300D01*
X1883495Y24224298D01*
X2087323Y24143597D01*
X2173298Y24109557D01*
X2479025Y24031060D01*
X2792179Y23991500D01*
X3107821Y23991500D01*
X3420975Y24031060D01*
X3726702Y24109557D01*
X3812677Y24143597D01*
X4016505Y24224298D01*
X4016510Y24224300D01*
X4020179Y24225753D01*
X4124547Y24283130D01*
X4293307Y24375907D01*
X4293310Y24375909D01*
X4296779Y24377816D01*
X4552140Y24563346D01*
X4782233Y24779418D01*
X4983432Y25022625D01*
X5152562Y25289131D01*
X5154246Y25292710D01*
X5154250Y25292717D01*
X5285267Y25571144D01*
X5285269Y25571148D01*
X5286956Y25574734D01*
X5384495Y25874928D01*
X5443641Y26184980D01*
X5463460Y26500000D01*
X5443641Y26815020D01*
X5384495Y27125072D01*
X5286956Y27425266D01*
X5285267Y27428856D01*
X5154250Y27707283D01*
X5154246Y27707290D01*
X5152562Y27710869D01*
X4983432Y27977375D01*
X4782233Y28220582D01*
X4552140Y28436654D01*
X4480692Y28488564D01*
X4437338Y28544786D01*
X4431263Y28615522D01*
X4464394Y28678314D01*
X4526214Y28713225D01*
X4554753Y28716500D01*
X38095247Y28716500D01*
X38163368Y28696498D01*
G37*
%TD.AperFunction*%
%TD*%
M02*
