%FSLAX45Y45*%
G04 Gerber Fmt 4.5, Leading zero omitted, Abs format (unit mm)*
G04 Created by KiCad (PCBNEW (6.0.2-0)) date 2023-02-02 13:38:25*
%MOMM*%
%LPD*%
G01*
G04 APERTURE LIST*
%TA.AperFunction,Profile*%
%ADD10C,0.100000*%
%TD*%
%ADD11C,0.200000*%
%ADD12C,0.075000*%
%ADD13C,0.100000*%
%ADD14C,0.130000*%
%ADD15C,0.320000*%
G04 APERTURE END LIST*
D10*
X22500Y2922500D02*
X4240000Y2922500D01*
X4240000Y2922500D02*
X4240000Y27500D01*
X4240000Y27500D02*
X22500Y27500D01*
X22500Y27500D02*
X22500Y2922500D01*
D11*
D12*
X2702500Y1345000D02*
X2777500Y1270000D01*
X2777500Y1345000D02*
X2702500Y1270000D01*
X2702500Y1145000D02*
X2777500Y1070000D01*
X2777500Y1145000D02*
X2702500Y1070000D01*
X2702500Y945000D02*
X2777500Y870000D01*
X2777500Y945000D02*
X2702500Y870000D01*
X2702500Y745000D02*
X2777500Y670000D01*
X2777500Y745000D02*
X2702500Y670000D01*
X2702500Y545000D02*
X2777500Y470000D01*
X2777500Y545000D02*
X2702500Y470000D01*
X3705000Y2132500D02*
X3780000Y2057500D01*
X3780000Y2132500D02*
X3705000Y2057500D01*
X3707500Y675000D02*
X3782500Y600000D01*
X3782500Y675000D02*
X3707500Y600000D01*
X3715000Y1402500D02*
X3790000Y1327500D01*
X3790000Y1402500D02*
X3715000Y1327500D01*
X3905000Y2132500D02*
X3980000Y2057500D01*
X3980000Y2132500D02*
X3905000Y2057500D01*
X3907500Y675000D02*
X3982500Y600000D01*
X3982500Y675000D02*
X3907500Y600000D01*
X3915000Y1402500D02*
X3990000Y1327500D01*
X3990000Y1402500D02*
X3915000Y1327500D01*
D13*
X985000Y2329000D02*
G75*
G03*
X985000Y2329000I-50000J0D01*
G01*
X985000Y2075000D02*
G75*
G03*
X985000Y2075000I-50000J0D01*
G01*
X1239000Y2329000D02*
G75*
G03*
X1239000Y2329000I-50000J0D01*
G01*
X1239000Y2075000D02*
G75*
G03*
X1239000Y2075000I-50000J0D01*
G01*
X1493000Y2329000D02*
G75*
G03*
X1493000Y2329000I-50000J0D01*
G01*
X1493000Y2075000D02*
G75*
G03*
X1493000Y2075000I-50000J0D01*
G01*
X1747000Y2329000D02*
G75*
G03*
X1747000Y2329000I-50000J0D01*
G01*
X1747000Y2075000D02*
G75*
G03*
X1747000Y2075000I-50000J0D01*
G01*
X2001000Y2329000D02*
G75*
G03*
X2001000Y2329000I-50000J0D01*
G01*
X2001000Y2075000D02*
G75*
G03*
X2001000Y2075000I-50000J0D01*
G01*
X2255000Y2329000D02*
G75*
G03*
X2255000Y2329000I-50000J0D01*
G01*
X2255000Y2075000D02*
G75*
G03*
X2255000Y2075000I-50000J0D01*
G01*
X2509000Y2329000D02*
G75*
G03*
X2509000Y2329000I-50000J0D01*
G01*
X2509000Y2075000D02*
G75*
G03*
X2509000Y2075000I-50000J0D01*
G01*
X2763000Y2329000D02*
G75*
G03*
X2763000Y2329000I-50000J0D01*
G01*
X2763000Y2075000D02*
G75*
G03*
X2763000Y2075000I-50000J0D01*
G01*
X3017000Y2329000D02*
G75*
G03*
X3017000Y2329000I-50000J0D01*
G01*
X3017000Y2075000D02*
G75*
G03*
X3017000Y2075000I-50000J0D01*
G01*
D14*
X365500Y827000D02*
X365500Y697000D01*
X300500Y762000D02*
X430500Y762000D01*
X873500Y827000D02*
X873500Y697000D01*
X808500Y762000D02*
X938500Y762000D01*
X1515500Y827000D02*
X1515500Y697000D01*
X1450500Y762000D02*
X1580500Y762000D01*
X2023500Y827000D02*
X2023500Y697000D01*
X1958500Y762000D02*
X2088500Y762000D01*
D15*
X408138Y2536862D02*
X408138Y2763138D01*
X181862Y2763138D01*
X181862Y2536862D01*
X408138Y2536862D01*
X4083138Y2536862D02*
X4083138Y2763138D01*
X3856862Y2763138D01*
X3856862Y2536862D01*
X4083138Y2536862D01*
D11*
X275119Y-287976D02*
X275119Y-87976D01*
X322738Y-87976D01*
X351309Y-97500D01*
X370357Y-116548D01*
X379881Y-135595D01*
X389405Y-173690D01*
X389405Y-202262D01*
X379881Y-240357D01*
X370357Y-259405D01*
X351309Y-278452D01*
X322738Y-287976D01*
X275119Y-287976D01*
X475119Y-287976D02*
X475119Y-154643D01*
X475119Y-192738D02*
X484643Y-173690D01*
X494167Y-164167D01*
X513214Y-154643D01*
X532262Y-154643D01*
X598929Y-287976D02*
X598929Y-154643D01*
X598929Y-87976D02*
X589405Y-97500D01*
X598929Y-107024D01*
X608452Y-97500D01*
X598929Y-87976D01*
X598929Y-107024D01*
X722738Y-287976D02*
X703690Y-278452D01*
X694167Y-259405D01*
X694167Y-87976D01*
X827500Y-287976D02*
X808452Y-278452D01*
X798928Y-259405D01*
X798928Y-87976D01*
X1056071Y-287976D02*
X1056071Y-87976D01*
X1122738Y-230833D01*
X1189405Y-87976D01*
X1189405Y-287976D01*
X1370357Y-287976D02*
X1370357Y-183214D01*
X1360833Y-164167D01*
X1341786Y-154643D01*
X1303690Y-154643D01*
X1284643Y-164167D01*
X1370357Y-278452D02*
X1351310Y-287976D01*
X1303690Y-287976D01*
X1284643Y-278452D01*
X1275119Y-259405D01*
X1275119Y-240357D01*
X1284643Y-221309D01*
X1303690Y-211786D01*
X1351310Y-211786D01*
X1370357Y-202262D01*
X1465595Y-154643D02*
X1465595Y-354643D01*
X1465595Y-164167D02*
X1484643Y-154643D01*
X1522738Y-154643D01*
X1541786Y-164167D01*
X1551309Y-173690D01*
X1560833Y-192738D01*
X1560833Y-249881D01*
X1551309Y-268929D01*
X1541786Y-278452D01*
X1522738Y-287976D01*
X1484643Y-287976D01*
X1465595Y-278452D01*
X1646548Y-268929D02*
X1656071Y-278452D01*
X1646548Y-287976D01*
X1637024Y-278452D01*
X1646548Y-268929D01*
X1646548Y-287976D01*
X1646548Y-164167D02*
X1656071Y-173690D01*
X1646548Y-183214D01*
X1637024Y-173690D01*
X1646548Y-164167D01*
X1646548Y-183214D01*
D12*
X-57500Y-580000D02*
X17500Y-655000D01*
X17500Y-580000D02*
X-57500Y-655000D01*
D11*
X313214Y-507976D02*
X332262Y-507976D01*
X351309Y-517500D01*
X360833Y-527024D01*
X370357Y-546071D01*
X379881Y-584167D01*
X379881Y-631786D01*
X370357Y-669881D01*
X360833Y-688929D01*
X351309Y-698452D01*
X332262Y-707976D01*
X313214Y-707976D01*
X294167Y-698452D01*
X284643Y-688929D01*
X275119Y-669881D01*
X265595Y-631786D01*
X265595Y-584167D01*
X275119Y-546071D01*
X284643Y-527024D01*
X294167Y-517500D01*
X313214Y-507976D01*
X465595Y-688929D02*
X475119Y-698452D01*
X465595Y-707976D01*
X456071Y-698452D01*
X465595Y-688929D01*
X465595Y-707976D01*
X541786Y-507976D02*
X675119Y-507976D01*
X589405Y-707976D01*
X846548Y-507976D02*
X751309Y-507976D01*
X741786Y-603214D01*
X751309Y-593690D01*
X770357Y-584167D01*
X817976Y-584167D01*
X837024Y-593690D01*
X846548Y-603214D01*
X856071Y-622262D01*
X856071Y-669881D01*
X846548Y-688929D01*
X837024Y-698452D01*
X817976Y-707976D01*
X770357Y-707976D01*
X751309Y-698452D01*
X741786Y-688929D01*
X979881Y-507976D02*
X998928Y-507976D01*
X1017976Y-517500D01*
X1027500Y-527024D01*
X1037024Y-546071D01*
X1046548Y-584167D01*
X1046548Y-631786D01*
X1037024Y-669881D01*
X1027500Y-688929D01*
X1017976Y-698452D01*
X998928Y-707976D01*
X979881Y-707976D01*
X960833Y-698452D01*
X951309Y-688929D01*
X941786Y-669881D01*
X932262Y-631786D01*
X932262Y-584167D01*
X941786Y-546071D01*
X951309Y-527024D01*
X960833Y-517500D01*
X979881Y-507976D01*
X1132262Y-707976D02*
X1132262Y-574643D01*
X1132262Y-593690D02*
X1141786Y-584167D01*
X1160833Y-574643D01*
X1189405Y-574643D01*
X1208452Y-584167D01*
X1217976Y-603214D01*
X1217976Y-707976D01*
X1217976Y-603214D02*
X1227500Y-584167D01*
X1246548Y-574643D01*
X1275119Y-574643D01*
X1294167Y-584167D01*
X1303690Y-603214D01*
X1303690Y-707976D01*
X1398928Y-707976D02*
X1398928Y-574643D01*
X1398928Y-593690D02*
X1408452Y-584167D01*
X1427500Y-574643D01*
X1456071Y-574643D01*
X1475119Y-584167D01*
X1484643Y-603214D01*
X1484643Y-707976D01*
X1484643Y-603214D02*
X1494167Y-584167D01*
X1513214Y-574643D01*
X1541786Y-574643D01*
X1560833Y-584167D01*
X1570357Y-603214D01*
X1570357Y-707976D01*
X1960833Y-498452D02*
X1789405Y-755595D01*
X2217976Y-507976D02*
X2237024Y-507976D01*
X2256071Y-517500D01*
X2265595Y-527024D01*
X2275119Y-546071D01*
X2284643Y-584167D01*
X2284643Y-631786D01*
X2275119Y-669881D01*
X2265595Y-688929D01*
X2256071Y-698452D01*
X2237024Y-707976D01*
X2217976Y-707976D01*
X2198929Y-698452D01*
X2189405Y-688929D01*
X2179881Y-669881D01*
X2170357Y-631786D01*
X2170357Y-584167D01*
X2179881Y-546071D01*
X2189405Y-527024D01*
X2198929Y-517500D01*
X2217976Y-507976D01*
X2370357Y-688929D02*
X2379881Y-698452D01*
X2370357Y-707976D01*
X2360833Y-698452D01*
X2370357Y-688929D01*
X2370357Y-707976D01*
X2503690Y-507976D02*
X2522738Y-507976D01*
X2541786Y-517500D01*
X2551310Y-527024D01*
X2560833Y-546071D01*
X2570357Y-584167D01*
X2570357Y-631786D01*
X2560833Y-669881D01*
X2551310Y-688929D01*
X2541786Y-698452D01*
X2522738Y-707976D01*
X2503690Y-707976D01*
X2484643Y-698452D01*
X2475119Y-688929D01*
X2465595Y-669881D01*
X2456071Y-631786D01*
X2456071Y-584167D01*
X2465595Y-546071D01*
X2475119Y-527024D01*
X2484643Y-517500D01*
X2503690Y-507976D01*
X2646548Y-527024D02*
X2656071Y-517500D01*
X2675119Y-507976D01*
X2722738Y-507976D01*
X2741786Y-517500D01*
X2751310Y-527024D01*
X2760833Y-546071D01*
X2760833Y-565119D01*
X2751310Y-593690D01*
X2637024Y-707976D01*
X2760833Y-707976D01*
X2856071Y-707976D02*
X2894167Y-707976D01*
X2913214Y-698452D01*
X2922738Y-688929D01*
X2941786Y-660357D01*
X2951309Y-622262D01*
X2951309Y-546071D01*
X2941786Y-527024D01*
X2932262Y-517500D01*
X2913214Y-507976D01*
X2875119Y-507976D01*
X2856071Y-517500D01*
X2846548Y-527024D01*
X2837024Y-546071D01*
X2837024Y-593690D01*
X2846548Y-612738D01*
X2856071Y-622262D01*
X2875119Y-631786D01*
X2913214Y-631786D01*
X2932262Y-622262D01*
X2941786Y-612738D01*
X2951309Y-593690D01*
X3132262Y-507976D02*
X3037024Y-507976D01*
X3027500Y-603214D01*
X3037024Y-593690D01*
X3056071Y-584167D01*
X3103690Y-584167D01*
X3122738Y-593690D01*
X3132262Y-603214D01*
X3141786Y-622262D01*
X3141786Y-669881D01*
X3132262Y-688929D01*
X3122738Y-698452D01*
X3103690Y-707976D01*
X3056071Y-707976D01*
X3037024Y-698452D01*
X3027500Y-688929D01*
X3217976Y-507976D02*
X3217976Y-546071D01*
X3294167Y-507976D02*
X3294167Y-546071D01*
X3589405Y-784167D02*
X3579881Y-774643D01*
X3560833Y-746071D01*
X3551309Y-727024D01*
X3541786Y-698452D01*
X3532262Y-650833D01*
X3532262Y-612738D01*
X3541786Y-565119D01*
X3551309Y-536548D01*
X3560833Y-517500D01*
X3579881Y-488928D01*
X3589405Y-479405D01*
X3770357Y-707976D02*
X3656071Y-707976D01*
X3713214Y-707976D02*
X3713214Y-507976D01*
X3694167Y-536548D01*
X3675119Y-555595D01*
X3656071Y-565119D01*
X3960833Y-707976D02*
X3846548Y-707976D01*
X3903690Y-707976D02*
X3903690Y-507976D01*
X3884643Y-536548D01*
X3865595Y-555595D01*
X3846548Y-565119D01*
X4198929Y-707976D02*
X4198929Y-507976D01*
X4284643Y-707976D02*
X4284643Y-603214D01*
X4275119Y-584167D01*
X4256071Y-574643D01*
X4227500Y-574643D01*
X4208452Y-584167D01*
X4198929Y-593690D01*
X4408452Y-707976D02*
X4389405Y-698452D01*
X4379881Y-688929D01*
X4370357Y-669881D01*
X4370357Y-612738D01*
X4379881Y-593690D01*
X4389405Y-584167D01*
X4408452Y-574643D01*
X4437024Y-574643D01*
X4456071Y-584167D01*
X4465595Y-593690D01*
X4475119Y-612738D01*
X4475119Y-669881D01*
X4465595Y-688929D01*
X4456071Y-698452D01*
X4437024Y-707976D01*
X4408452Y-707976D01*
X4589405Y-707976D02*
X4570357Y-698452D01*
X4560833Y-679405D01*
X4560833Y-507976D01*
X4741786Y-698452D02*
X4722738Y-707976D01*
X4684643Y-707976D01*
X4665595Y-698452D01*
X4656071Y-679405D01*
X4656071Y-603214D01*
X4665595Y-584167D01*
X4684643Y-574643D01*
X4722738Y-574643D01*
X4741786Y-584167D01*
X4751310Y-603214D01*
X4751310Y-622262D01*
X4656071Y-641310D01*
X4827500Y-698452D02*
X4846548Y-707976D01*
X4884643Y-707976D01*
X4903690Y-698452D01*
X4913214Y-679405D01*
X4913214Y-669881D01*
X4903690Y-650833D01*
X4884643Y-641310D01*
X4856071Y-641310D01*
X4837024Y-631786D01*
X4827500Y-612738D01*
X4827500Y-603214D01*
X4837024Y-584167D01*
X4856071Y-574643D01*
X4884643Y-574643D01*
X4903690Y-584167D01*
X4979881Y-784167D02*
X4989405Y-774643D01*
X5008452Y-746071D01*
X5017976Y-727024D01*
X5027500Y-698452D01*
X5037024Y-650833D01*
X5037024Y-612738D01*
X5027500Y-565119D01*
X5017976Y-536548D01*
X5008452Y-517500D01*
X4989405Y-488928D01*
X4979881Y-479405D01*
D13*
X17500Y-881500D02*
G75*
G03*
X17500Y-881500I-50000J0D01*
G01*
D11*
X379881Y-971976D02*
X265595Y-971976D01*
X322738Y-971976D02*
X322738Y-771976D01*
X303690Y-800548D01*
X284643Y-819595D01*
X265595Y-829119D01*
X465595Y-952928D02*
X475119Y-962452D01*
X465595Y-971976D01*
X456071Y-962452D01*
X465595Y-952928D01*
X465595Y-971976D01*
X598929Y-771976D02*
X617976Y-771976D01*
X637024Y-781500D01*
X646548Y-791024D01*
X656071Y-810071D01*
X665595Y-848167D01*
X665595Y-895786D01*
X656071Y-933881D01*
X646548Y-952928D01*
X637024Y-962452D01*
X617976Y-971976D01*
X598929Y-971976D01*
X579881Y-962452D01*
X570357Y-952928D01*
X560833Y-933881D01*
X551310Y-895786D01*
X551310Y-848167D01*
X560833Y-810071D01*
X570357Y-791024D01*
X579881Y-781500D01*
X598929Y-771976D01*
X789405Y-771976D02*
X808452Y-771976D01*
X827500Y-781500D01*
X837024Y-791024D01*
X846548Y-810071D01*
X856071Y-848167D01*
X856071Y-895786D01*
X846548Y-933881D01*
X837024Y-952928D01*
X827500Y-962452D01*
X808452Y-971976D01*
X789405Y-971976D01*
X770357Y-962452D01*
X760833Y-952928D01*
X751309Y-933881D01*
X741786Y-895786D01*
X741786Y-848167D01*
X751309Y-810071D01*
X760833Y-791024D01*
X770357Y-781500D01*
X789405Y-771976D01*
X979881Y-771976D02*
X998928Y-771976D01*
X1017976Y-781500D01*
X1027500Y-791024D01*
X1037024Y-810071D01*
X1046548Y-848167D01*
X1046548Y-895786D01*
X1037024Y-933881D01*
X1027500Y-952928D01*
X1017976Y-962452D01*
X998928Y-971976D01*
X979881Y-971976D01*
X960833Y-962452D01*
X951309Y-952928D01*
X941786Y-933881D01*
X932262Y-895786D01*
X932262Y-848167D01*
X941786Y-810071D01*
X951309Y-791024D01*
X960833Y-781500D01*
X979881Y-771976D01*
X1132262Y-971976D02*
X1132262Y-838643D01*
X1132262Y-857690D02*
X1141786Y-848167D01*
X1160833Y-838643D01*
X1189405Y-838643D01*
X1208452Y-848167D01*
X1217976Y-867214D01*
X1217976Y-971976D01*
X1217976Y-867214D02*
X1227500Y-848167D01*
X1246548Y-838643D01*
X1275119Y-838643D01*
X1294167Y-848167D01*
X1303690Y-867214D01*
X1303690Y-971976D01*
X1398928Y-971976D02*
X1398928Y-838643D01*
X1398928Y-857690D02*
X1408452Y-848167D01*
X1427500Y-838643D01*
X1456071Y-838643D01*
X1475119Y-848167D01*
X1484643Y-867214D01*
X1484643Y-971976D01*
X1484643Y-867214D02*
X1494167Y-848167D01*
X1513214Y-838643D01*
X1541786Y-838643D01*
X1560833Y-848167D01*
X1570357Y-867214D01*
X1570357Y-971976D01*
X1960833Y-762452D02*
X1789405Y-1019595D01*
X2217976Y-771976D02*
X2237024Y-771976D01*
X2256071Y-781500D01*
X2265595Y-791024D01*
X2275119Y-810071D01*
X2284643Y-848167D01*
X2284643Y-895786D01*
X2275119Y-933881D01*
X2265595Y-952928D01*
X2256071Y-962452D01*
X2237024Y-971976D01*
X2217976Y-971976D01*
X2198929Y-962452D01*
X2189405Y-952928D01*
X2179881Y-933881D01*
X2170357Y-895786D01*
X2170357Y-848167D01*
X2179881Y-810071D01*
X2189405Y-791024D01*
X2198929Y-781500D01*
X2217976Y-771976D01*
X2370357Y-952928D02*
X2379881Y-962452D01*
X2370357Y-971976D01*
X2360833Y-962452D01*
X2370357Y-952928D01*
X2370357Y-971976D01*
X2503690Y-771976D02*
X2522738Y-771976D01*
X2541786Y-781500D01*
X2551310Y-791024D01*
X2560833Y-810071D01*
X2570357Y-848167D01*
X2570357Y-895786D01*
X2560833Y-933881D01*
X2551310Y-952928D01*
X2541786Y-962452D01*
X2522738Y-971976D01*
X2503690Y-971976D01*
X2484643Y-962452D01*
X2475119Y-952928D01*
X2465595Y-933881D01*
X2456071Y-895786D01*
X2456071Y-848167D01*
X2465595Y-810071D01*
X2475119Y-791024D01*
X2484643Y-781500D01*
X2503690Y-771976D01*
X2637024Y-771976D02*
X2760833Y-771976D01*
X2694167Y-848167D01*
X2722738Y-848167D01*
X2741786Y-857690D01*
X2751310Y-867214D01*
X2760833Y-886262D01*
X2760833Y-933881D01*
X2751310Y-952928D01*
X2741786Y-962452D01*
X2722738Y-971976D01*
X2665595Y-971976D01*
X2646548Y-962452D01*
X2637024Y-952928D01*
X2856071Y-971976D02*
X2894167Y-971976D01*
X2913214Y-962452D01*
X2922738Y-952928D01*
X2941786Y-924357D01*
X2951309Y-886262D01*
X2951309Y-810071D01*
X2941786Y-791024D01*
X2932262Y-781500D01*
X2913214Y-771976D01*
X2875119Y-771976D01*
X2856071Y-781500D01*
X2846548Y-791024D01*
X2837024Y-810071D01*
X2837024Y-857690D01*
X2846548Y-876738D01*
X2856071Y-886262D01*
X2875119Y-895786D01*
X2913214Y-895786D01*
X2932262Y-886262D01*
X2941786Y-876738D01*
X2951309Y-857690D01*
X3122738Y-838643D02*
X3122738Y-971976D01*
X3075119Y-762452D02*
X3027500Y-905309D01*
X3151309Y-905309D01*
X3217976Y-771976D02*
X3217976Y-810071D01*
X3294167Y-771976D02*
X3294167Y-810071D01*
X3589405Y-1048167D02*
X3579881Y-1038643D01*
X3560833Y-1010071D01*
X3551309Y-991024D01*
X3541786Y-962452D01*
X3532262Y-914833D01*
X3532262Y-876738D01*
X3541786Y-829119D01*
X3551309Y-800548D01*
X3560833Y-781500D01*
X3579881Y-752928D01*
X3589405Y-743405D01*
X3770357Y-971976D02*
X3656071Y-971976D01*
X3713214Y-971976D02*
X3713214Y-771976D01*
X3694167Y-800548D01*
X3675119Y-819595D01*
X3656071Y-829119D01*
X3884643Y-857690D02*
X3865595Y-848167D01*
X3856071Y-838643D01*
X3846548Y-819595D01*
X3846548Y-810071D01*
X3856071Y-791024D01*
X3865595Y-781500D01*
X3884643Y-771976D01*
X3922738Y-771976D01*
X3941786Y-781500D01*
X3951309Y-791024D01*
X3960833Y-810071D01*
X3960833Y-819595D01*
X3951309Y-838643D01*
X3941786Y-848167D01*
X3922738Y-857690D01*
X3884643Y-857690D01*
X3865595Y-867214D01*
X3856071Y-876738D01*
X3846548Y-895786D01*
X3846548Y-933881D01*
X3856071Y-952928D01*
X3865595Y-962452D01*
X3884643Y-971976D01*
X3922738Y-971976D01*
X3941786Y-962452D01*
X3951309Y-952928D01*
X3960833Y-933881D01*
X3960833Y-895786D01*
X3951309Y-876738D01*
X3941786Y-867214D01*
X3922738Y-857690D01*
X4198929Y-971976D02*
X4198929Y-771976D01*
X4284643Y-971976D02*
X4284643Y-867214D01*
X4275119Y-848167D01*
X4256071Y-838643D01*
X4227500Y-838643D01*
X4208452Y-848167D01*
X4198929Y-857690D01*
X4408452Y-971976D02*
X4389405Y-962452D01*
X4379881Y-952928D01*
X4370357Y-933881D01*
X4370357Y-876738D01*
X4379881Y-857690D01*
X4389405Y-848167D01*
X4408452Y-838643D01*
X4437024Y-838643D01*
X4456071Y-848167D01*
X4465595Y-857690D01*
X4475119Y-876738D01*
X4475119Y-933881D01*
X4465595Y-952928D01*
X4456071Y-962452D01*
X4437024Y-971976D01*
X4408452Y-971976D01*
X4589405Y-971976D02*
X4570357Y-962452D01*
X4560833Y-943405D01*
X4560833Y-771976D01*
X4741786Y-962452D02*
X4722738Y-971976D01*
X4684643Y-971976D01*
X4665595Y-962452D01*
X4656071Y-943405D01*
X4656071Y-867214D01*
X4665595Y-848167D01*
X4684643Y-838643D01*
X4722738Y-838643D01*
X4741786Y-848167D01*
X4751310Y-867214D01*
X4751310Y-886262D01*
X4656071Y-905309D01*
X4827500Y-962452D02*
X4846548Y-971976D01*
X4884643Y-971976D01*
X4903690Y-962452D01*
X4913214Y-943405D01*
X4913214Y-933881D01*
X4903690Y-914833D01*
X4884643Y-905309D01*
X4856071Y-905309D01*
X4837024Y-895786D01*
X4827500Y-876738D01*
X4827500Y-867214D01*
X4837024Y-848167D01*
X4856071Y-838643D01*
X4884643Y-838643D01*
X4903690Y-848167D01*
X4979881Y-1048167D02*
X4989405Y-1038643D01*
X5008452Y-1010071D01*
X5017976Y-991024D01*
X5027500Y-962452D01*
X5037024Y-914833D01*
X5037024Y-876738D01*
X5027500Y-829119D01*
X5017976Y-800548D01*
X5008452Y-781500D01*
X4989405Y-752928D01*
X4979881Y-743405D01*
D14*
X-47500Y-1080500D02*
X-47500Y-1210500D01*
X-112500Y-1145500D02*
X17500Y-1145500D01*
D11*
X379881Y-1235976D02*
X265595Y-1235976D01*
X322738Y-1235976D02*
X322738Y-1035976D01*
X303690Y-1064548D01*
X284643Y-1083595D01*
X265595Y-1093119D01*
X465595Y-1216929D02*
X475119Y-1226452D01*
X465595Y-1235976D01*
X456071Y-1226452D01*
X465595Y-1216929D01*
X465595Y-1235976D01*
X541786Y-1035976D02*
X665595Y-1035976D01*
X598929Y-1112167D01*
X627500Y-1112167D01*
X646548Y-1121690D01*
X656071Y-1131214D01*
X665595Y-1150262D01*
X665595Y-1197881D01*
X656071Y-1216929D01*
X646548Y-1226452D01*
X627500Y-1235976D01*
X570357Y-1235976D01*
X551310Y-1226452D01*
X541786Y-1216929D01*
X789405Y-1035976D02*
X808452Y-1035976D01*
X827500Y-1045500D01*
X837024Y-1055024D01*
X846548Y-1074071D01*
X856071Y-1112167D01*
X856071Y-1159786D01*
X846548Y-1197881D01*
X837024Y-1216929D01*
X827500Y-1226452D01*
X808452Y-1235976D01*
X789405Y-1235976D01*
X770357Y-1226452D01*
X760833Y-1216929D01*
X751309Y-1197881D01*
X741786Y-1159786D01*
X741786Y-1112167D01*
X751309Y-1074071D01*
X760833Y-1055024D01*
X770357Y-1045500D01*
X789405Y-1035976D01*
X979881Y-1035976D02*
X998928Y-1035976D01*
X1017976Y-1045500D01*
X1027500Y-1055024D01*
X1037024Y-1074071D01*
X1046548Y-1112167D01*
X1046548Y-1159786D01*
X1037024Y-1197881D01*
X1027500Y-1216929D01*
X1017976Y-1226452D01*
X998928Y-1235976D01*
X979881Y-1235976D01*
X960833Y-1226452D01*
X951309Y-1216929D01*
X941786Y-1197881D01*
X932262Y-1159786D01*
X932262Y-1112167D01*
X941786Y-1074071D01*
X951309Y-1055024D01*
X960833Y-1045500D01*
X979881Y-1035976D01*
X1132262Y-1235976D02*
X1132262Y-1102643D01*
X1132262Y-1121690D02*
X1141786Y-1112167D01*
X1160833Y-1102643D01*
X1189405Y-1102643D01*
X1208452Y-1112167D01*
X1217976Y-1131214D01*
X1217976Y-1235976D01*
X1217976Y-1131214D02*
X1227500Y-1112167D01*
X1246548Y-1102643D01*
X1275119Y-1102643D01*
X1294167Y-1112167D01*
X1303690Y-1131214D01*
X1303690Y-1235976D01*
X1398928Y-1235976D02*
X1398928Y-1102643D01*
X1398928Y-1121690D02*
X1408452Y-1112167D01*
X1427500Y-1102643D01*
X1456071Y-1102643D01*
X1475119Y-1112167D01*
X1484643Y-1131214D01*
X1484643Y-1235976D01*
X1484643Y-1131214D02*
X1494167Y-1112167D01*
X1513214Y-1102643D01*
X1541786Y-1102643D01*
X1560833Y-1112167D01*
X1570357Y-1131214D01*
X1570357Y-1235976D01*
X1960833Y-1026452D02*
X1789405Y-1283595D01*
X2217976Y-1035976D02*
X2237024Y-1035976D01*
X2256071Y-1045500D01*
X2265595Y-1055024D01*
X2275119Y-1074071D01*
X2284643Y-1112167D01*
X2284643Y-1159786D01*
X2275119Y-1197881D01*
X2265595Y-1216929D01*
X2256071Y-1226452D01*
X2237024Y-1235976D01*
X2217976Y-1235976D01*
X2198929Y-1226452D01*
X2189405Y-1216929D01*
X2179881Y-1197881D01*
X2170357Y-1159786D01*
X2170357Y-1112167D01*
X2179881Y-1074071D01*
X2189405Y-1055024D01*
X2198929Y-1045500D01*
X2217976Y-1035976D01*
X2370357Y-1216929D02*
X2379881Y-1226452D01*
X2370357Y-1235976D01*
X2360833Y-1226452D01*
X2370357Y-1216929D01*
X2370357Y-1235976D01*
X2503690Y-1035976D02*
X2522738Y-1035976D01*
X2541786Y-1045500D01*
X2551310Y-1055024D01*
X2560833Y-1074071D01*
X2570357Y-1112167D01*
X2570357Y-1159786D01*
X2560833Y-1197881D01*
X2551310Y-1216929D01*
X2541786Y-1226452D01*
X2522738Y-1235976D01*
X2503690Y-1235976D01*
X2484643Y-1226452D01*
X2475119Y-1216929D01*
X2465595Y-1197881D01*
X2456071Y-1159786D01*
X2456071Y-1112167D01*
X2465595Y-1074071D01*
X2475119Y-1055024D01*
X2484643Y-1045500D01*
X2503690Y-1035976D01*
X2751310Y-1035976D02*
X2656071Y-1035976D01*
X2646548Y-1131214D01*
X2656071Y-1121690D01*
X2675119Y-1112167D01*
X2722738Y-1112167D01*
X2741786Y-1121690D01*
X2751310Y-1131214D01*
X2760833Y-1150262D01*
X2760833Y-1197881D01*
X2751310Y-1216929D01*
X2741786Y-1226452D01*
X2722738Y-1235976D01*
X2675119Y-1235976D01*
X2656071Y-1226452D01*
X2646548Y-1216929D01*
X2951309Y-1235976D02*
X2837024Y-1235976D01*
X2894167Y-1235976D02*
X2894167Y-1035976D01*
X2875119Y-1064548D01*
X2856071Y-1083595D01*
X2837024Y-1093119D01*
X3027500Y-1055024D02*
X3037024Y-1045500D01*
X3056071Y-1035976D01*
X3103690Y-1035976D01*
X3122738Y-1045500D01*
X3132262Y-1055024D01*
X3141786Y-1074071D01*
X3141786Y-1093119D01*
X3132262Y-1121690D01*
X3017976Y-1235976D01*
X3141786Y-1235976D01*
X3217976Y-1035976D02*
X3217976Y-1074071D01*
X3294167Y-1035976D02*
X3294167Y-1074071D01*
X3589405Y-1312167D02*
X3579881Y-1302643D01*
X3560833Y-1274071D01*
X3551309Y-1255024D01*
X3541786Y-1226452D01*
X3532262Y-1178833D01*
X3532262Y-1140738D01*
X3541786Y-1093119D01*
X3551309Y-1064548D01*
X3560833Y-1045500D01*
X3579881Y-1016928D01*
X3589405Y-1007405D01*
X3751309Y-1102643D02*
X3751309Y-1235976D01*
X3703690Y-1026452D02*
X3656071Y-1169310D01*
X3779881Y-1169310D01*
X4008452Y-1235976D02*
X4008452Y-1035976D01*
X4094167Y-1235976D02*
X4094167Y-1131214D01*
X4084643Y-1112167D01*
X4065595Y-1102643D01*
X4037024Y-1102643D01*
X4017976Y-1112167D01*
X4008452Y-1121690D01*
X4217976Y-1235976D02*
X4198929Y-1226452D01*
X4189405Y-1216929D01*
X4179881Y-1197881D01*
X4179881Y-1140738D01*
X4189405Y-1121690D01*
X4198929Y-1112167D01*
X4217976Y-1102643D01*
X4246548Y-1102643D01*
X4265595Y-1112167D01*
X4275119Y-1121690D01*
X4284643Y-1140738D01*
X4284643Y-1197881D01*
X4275119Y-1216929D01*
X4265595Y-1226452D01*
X4246548Y-1235976D01*
X4217976Y-1235976D01*
X4398929Y-1235976D02*
X4379881Y-1226452D01*
X4370357Y-1207405D01*
X4370357Y-1035976D01*
X4551310Y-1226452D02*
X4532262Y-1235976D01*
X4494167Y-1235976D01*
X4475119Y-1226452D01*
X4465595Y-1207405D01*
X4465595Y-1131214D01*
X4475119Y-1112167D01*
X4494167Y-1102643D01*
X4532262Y-1102643D01*
X4551310Y-1112167D01*
X4560833Y-1131214D01*
X4560833Y-1150262D01*
X4465595Y-1169310D01*
X4637024Y-1226452D02*
X4656071Y-1235976D01*
X4694167Y-1235976D01*
X4713214Y-1226452D01*
X4722738Y-1207405D01*
X4722738Y-1197881D01*
X4713214Y-1178833D01*
X4694167Y-1169310D01*
X4665595Y-1169310D01*
X4646548Y-1159786D01*
X4637024Y-1140738D01*
X4637024Y-1131214D01*
X4646548Y-1112167D01*
X4665595Y-1102643D01*
X4694167Y-1102643D01*
X4713214Y-1112167D01*
X4789405Y-1312167D02*
X4798929Y-1302643D01*
X4817976Y-1274071D01*
X4827500Y-1255024D01*
X4837024Y-1226452D01*
X4846548Y-1178833D01*
X4846548Y-1140738D01*
X4837024Y-1093119D01*
X4827500Y-1064548D01*
X4817976Y-1045500D01*
X4798929Y-1016928D01*
X4789405Y-1007405D01*
X-11789Y-1480211D02*
X-11789Y-1338789D01*
X-153211Y-1338789D01*
X-153211Y-1480211D01*
X-11789Y-1480211D01*
X256071Y-1299976D02*
X379881Y-1299976D01*
X313214Y-1376167D01*
X341786Y-1376167D01*
X360833Y-1385690D01*
X370357Y-1395214D01*
X379881Y-1414262D01*
X379881Y-1461881D01*
X370357Y-1480928D01*
X360833Y-1490452D01*
X341786Y-1499976D01*
X284643Y-1499976D01*
X265595Y-1490452D01*
X256071Y-1480928D01*
X465595Y-1480928D02*
X475119Y-1490452D01*
X465595Y-1499976D01*
X456071Y-1490452D01*
X465595Y-1480928D01*
X465595Y-1499976D01*
X551310Y-1319024D02*
X560833Y-1309500D01*
X579881Y-1299976D01*
X627500Y-1299976D01*
X646548Y-1309500D01*
X656071Y-1319024D01*
X665595Y-1338071D01*
X665595Y-1357119D01*
X656071Y-1385690D01*
X541786Y-1499976D01*
X665595Y-1499976D01*
X789405Y-1299976D02*
X808452Y-1299976D01*
X827500Y-1309500D01*
X837024Y-1319024D01*
X846548Y-1338071D01*
X856071Y-1376167D01*
X856071Y-1423786D01*
X846548Y-1461881D01*
X837024Y-1480928D01*
X827500Y-1490452D01*
X808452Y-1499976D01*
X789405Y-1499976D01*
X770357Y-1490452D01*
X760833Y-1480928D01*
X751309Y-1461881D01*
X741786Y-1423786D01*
X741786Y-1376167D01*
X751309Y-1338071D01*
X760833Y-1319024D01*
X770357Y-1309500D01*
X789405Y-1299976D01*
X979881Y-1299976D02*
X998928Y-1299976D01*
X1017976Y-1309500D01*
X1027500Y-1319024D01*
X1037024Y-1338071D01*
X1046548Y-1376167D01*
X1046548Y-1423786D01*
X1037024Y-1461881D01*
X1027500Y-1480928D01*
X1017976Y-1490452D01*
X998928Y-1499976D01*
X979881Y-1499976D01*
X960833Y-1490452D01*
X951309Y-1480928D01*
X941786Y-1461881D01*
X932262Y-1423786D01*
X932262Y-1376167D01*
X941786Y-1338071D01*
X951309Y-1319024D01*
X960833Y-1309500D01*
X979881Y-1299976D01*
X1132262Y-1499976D02*
X1132262Y-1366643D01*
X1132262Y-1385690D02*
X1141786Y-1376167D01*
X1160833Y-1366643D01*
X1189405Y-1366643D01*
X1208452Y-1376167D01*
X1217976Y-1395214D01*
X1217976Y-1499976D01*
X1217976Y-1395214D02*
X1227500Y-1376167D01*
X1246548Y-1366643D01*
X1275119Y-1366643D01*
X1294167Y-1376167D01*
X1303690Y-1395214D01*
X1303690Y-1499976D01*
X1398928Y-1499976D02*
X1398928Y-1366643D01*
X1398928Y-1385690D02*
X1408452Y-1376167D01*
X1427500Y-1366643D01*
X1456071Y-1366643D01*
X1475119Y-1376167D01*
X1484643Y-1395214D01*
X1484643Y-1499976D01*
X1484643Y-1395214D02*
X1494167Y-1376167D01*
X1513214Y-1366643D01*
X1541786Y-1366643D01*
X1560833Y-1376167D01*
X1570357Y-1395214D01*
X1570357Y-1499976D01*
X1960833Y-1290452D02*
X1789405Y-1547595D01*
X2217976Y-1299976D02*
X2237024Y-1299976D01*
X2256071Y-1309500D01*
X2265595Y-1319024D01*
X2275119Y-1338071D01*
X2284643Y-1376167D01*
X2284643Y-1423786D01*
X2275119Y-1461881D01*
X2265595Y-1480928D01*
X2256071Y-1490452D01*
X2237024Y-1499976D01*
X2217976Y-1499976D01*
X2198929Y-1490452D01*
X2189405Y-1480928D01*
X2179881Y-1461881D01*
X2170357Y-1423786D01*
X2170357Y-1376167D01*
X2179881Y-1338071D01*
X2189405Y-1319024D01*
X2198929Y-1309500D01*
X2217976Y-1299976D01*
X2370357Y-1480928D02*
X2379881Y-1490452D01*
X2370357Y-1499976D01*
X2360833Y-1490452D01*
X2370357Y-1480928D01*
X2370357Y-1499976D01*
X2570357Y-1499976D02*
X2456071Y-1499976D01*
X2513214Y-1499976D02*
X2513214Y-1299976D01*
X2494167Y-1328548D01*
X2475119Y-1347595D01*
X2456071Y-1357119D01*
X2646548Y-1319024D02*
X2656071Y-1309500D01*
X2675119Y-1299976D01*
X2722738Y-1299976D01*
X2741786Y-1309500D01*
X2751310Y-1319024D01*
X2760833Y-1338071D01*
X2760833Y-1357119D01*
X2751310Y-1385690D01*
X2637024Y-1499976D01*
X2760833Y-1499976D01*
X2932262Y-1299976D02*
X2894167Y-1299976D01*
X2875119Y-1309500D01*
X2865595Y-1319024D01*
X2846548Y-1347595D01*
X2837024Y-1385690D01*
X2837024Y-1461881D01*
X2846548Y-1480928D01*
X2856071Y-1490452D01*
X2875119Y-1499976D01*
X2913214Y-1499976D01*
X2932262Y-1490452D01*
X2941786Y-1480928D01*
X2951309Y-1461881D01*
X2951309Y-1414262D01*
X2941786Y-1395214D01*
X2932262Y-1385690D01*
X2913214Y-1376167D01*
X2875119Y-1376167D01*
X2856071Y-1385690D01*
X2846548Y-1395214D01*
X2837024Y-1414262D01*
X3075119Y-1299976D02*
X3094167Y-1299976D01*
X3113214Y-1309500D01*
X3122738Y-1319024D01*
X3132262Y-1338071D01*
X3141786Y-1376167D01*
X3141786Y-1423786D01*
X3132262Y-1461881D01*
X3122738Y-1480928D01*
X3113214Y-1490452D01*
X3094167Y-1499976D01*
X3075119Y-1499976D01*
X3056071Y-1490452D01*
X3046548Y-1480928D01*
X3037024Y-1461881D01*
X3027500Y-1423786D01*
X3027500Y-1376167D01*
X3037024Y-1338071D01*
X3046548Y-1319024D01*
X3056071Y-1309500D01*
X3075119Y-1299976D01*
X3217976Y-1299976D02*
X3217976Y-1338071D01*
X3294167Y-1299976D02*
X3294167Y-1338071D01*
X3589405Y-1576167D02*
X3579881Y-1566643D01*
X3560833Y-1538071D01*
X3551309Y-1519024D01*
X3541786Y-1490452D01*
X3532262Y-1442833D01*
X3532262Y-1404738D01*
X3541786Y-1357119D01*
X3551309Y-1328548D01*
X3560833Y-1309500D01*
X3579881Y-1280929D01*
X3589405Y-1271405D01*
X3656071Y-1319024D02*
X3665595Y-1309500D01*
X3684643Y-1299976D01*
X3732262Y-1299976D01*
X3751309Y-1309500D01*
X3760833Y-1319024D01*
X3770357Y-1338071D01*
X3770357Y-1357119D01*
X3760833Y-1385690D01*
X3646548Y-1499976D01*
X3770357Y-1499976D01*
X4008452Y-1499976D02*
X4008452Y-1299976D01*
X4094167Y-1499976D02*
X4094167Y-1395214D01*
X4084643Y-1376167D01*
X4065595Y-1366643D01*
X4037024Y-1366643D01*
X4017976Y-1376167D01*
X4008452Y-1385690D01*
X4217976Y-1499976D02*
X4198929Y-1490452D01*
X4189405Y-1480928D01*
X4179881Y-1461881D01*
X4179881Y-1404738D01*
X4189405Y-1385690D01*
X4198929Y-1376167D01*
X4217976Y-1366643D01*
X4246548Y-1366643D01*
X4265595Y-1376167D01*
X4275119Y-1385690D01*
X4284643Y-1404738D01*
X4284643Y-1461881D01*
X4275119Y-1480928D01*
X4265595Y-1490452D01*
X4246548Y-1499976D01*
X4217976Y-1499976D01*
X4398929Y-1499976D02*
X4379881Y-1490452D01*
X4370357Y-1471405D01*
X4370357Y-1299976D01*
X4551310Y-1490452D02*
X4532262Y-1499976D01*
X4494167Y-1499976D01*
X4475119Y-1490452D01*
X4465595Y-1471405D01*
X4465595Y-1395214D01*
X4475119Y-1376167D01*
X4494167Y-1366643D01*
X4532262Y-1366643D01*
X4551310Y-1376167D01*
X4560833Y-1395214D01*
X4560833Y-1414262D01*
X4465595Y-1433309D01*
X4637024Y-1490452D02*
X4656071Y-1499976D01*
X4694167Y-1499976D01*
X4713214Y-1490452D01*
X4722738Y-1471405D01*
X4722738Y-1461881D01*
X4713214Y-1442833D01*
X4694167Y-1433309D01*
X4665595Y-1433309D01*
X4646548Y-1423786D01*
X4637024Y-1404738D01*
X4637024Y-1395214D01*
X4646548Y-1376167D01*
X4665595Y-1366643D01*
X4694167Y-1366643D01*
X4713214Y-1376167D01*
X4789405Y-1576167D02*
X4798929Y-1566643D01*
X4817976Y-1538071D01*
X4827500Y-1519024D01*
X4837024Y-1490452D01*
X4846548Y-1442833D01*
X4846548Y-1404738D01*
X4837024Y-1357119D01*
X4827500Y-1328548D01*
X4817976Y-1309500D01*
X4798929Y-1280929D01*
X4789405Y-1271405D01*
M02*
