M48
; DRILL file {KiCad (6.0.2-0)} date Thursday, 02 February 2023 at 01:40:42 pm
; FORMAT={-:-/ absolute / metric / decimal}
; #@! TF.CreationDate,2023-02-02T13:40:42+11:00
; #@! TF.GenerationSoftware,Kicad,Pcbnew,(6.0.2-0)
; #@! TF.FileFunction,MixedPlating,1,2
FMAT,2
METRIC
; #@! TA.AperFunction,Plated,PTH,ComponentDrill
T1C0.750
; #@! TA.AperFunction,Plated,PTH,ComponentDrill
T2C1.000
; #@! TA.AperFunction,Plated,PTH,ComponentDrill
T3C1.070
; #@! TA.AperFunction,Plated,PTH,ComponentDrill
T4C3.200
; #@! TA.AperFunction,NonPlated,NPTH,ComponentDrill
T5C3.050
%
G90
G05
T1
X31.175Y31.3
X33.175Y31.3
X35.175Y31.3
X37.175Y31.3
X37.225Y26.7
X37.225Y21.1
X37.225Y15.475
X39.175Y31.3
X39.225Y26.7
X39.225Y21.1
X39.225Y15.475
T2
X2.075Y40.99
X2.075Y38.45
X4.615Y40.99
X4.615Y38.45
X7.155Y40.99
X7.155Y38.45
X9.695Y40.99
X9.695Y38.45
X12.235Y40.99
X12.235Y38.45
X14.775Y40.99
X14.775Y38.45
X17.315Y40.99
X17.315Y38.45
X19.855Y40.99
X19.855Y38.45
X22.395Y40.99
X22.395Y38.45
T3
X14.025Y35.595
X17.025Y35.595
X37.945Y7.05
X37.945Y4.05
T4
X3.2Y33.025
X38.625Y39.75
T5
X15.525Y31.275
X33.625Y5.55
T0
M30
