%TF.GenerationSoftware,KiCad,Pcbnew,(6.0.2-0)*%
%TF.CreationDate,2023-02-02T13:40:45+11:00*%
%TF.ProjectId,AD3 HE Board,41443320-4845-4204-926f-6172642e6b69,rev?*%
%TF.SameCoordinates,PXbb4d38PY34c3148*%
%TF.FileFunction,Copper,L2,Bot*%
%TF.FilePolarity,Positive*%
%FSLAX46Y46*%
G04 Gerber Fmt 4.6, Leading zero omitted, Abs format (unit mm)*
G04 Created by KiCad (PCBNEW (6.0.2-0)) date 2023-02-02 13:40:45*
%MOMM*%
%LPD*%
G01*
G04 APERTURE LIST*
G04 Aperture macros list*
%AMRoundRect*
0 Rectangle with rounded corners*
0 $1 Rounding radius*
0 $2 $3 $4 $5 $6 $7 $8 $9 X,Y pos of 4 corners*
0 Add a 4 corners polygon primitive as box body*
4,1,4,$2,$3,$4,$5,$6,$7,$8,$9,$2,$3,0*
0 Add four circle primitives for the rounded corners*
1,1,$1+$1,$2,$3*
1,1,$1+$1,$4,$5*
1,1,$1+$1,$6,$7*
1,1,$1+$1,$8,$9*
0 Add four rect primitives between the rounded corners*
20,1,$1+$1,$2,$3,$4,$5,0*
20,1,$1+$1,$4,$5,$6,$7,0*
20,1,$1+$1,$6,$7,$8,$9,0*
20,1,$1+$1,$8,$9,$2,$3,0*%
G04 Aperture macros list end*
%TA.AperFunction,ComponentPad*%
%ADD10C,4.000000*%
%TD*%
%TA.AperFunction,ComponentPad*%
%ADD11R,1.700000X1.700000*%
%TD*%
%TA.AperFunction,ComponentPad*%
%ADD12O,1.700000X1.700000*%
%TD*%
%TA.AperFunction,ComponentPad*%
%ADD13R,1.605000X1.605000*%
%TD*%
%TA.AperFunction,ComponentPad*%
%ADD14C,1.605000*%
%TD*%
%TA.AperFunction,ComponentPad*%
%ADD15RoundRect,0.250000X0.350000X0.625000X-0.350000X0.625000X-0.350000X-0.625000X0.350000X-0.625000X0*%
%TD*%
%TA.AperFunction,ComponentPad*%
%ADD16O,1.200000X1.750000*%
%TD*%
%TA.AperFunction,ComponentPad*%
%ADD17RoundRect,0.250000X-0.350000X-0.625000X0.350000X-0.625000X0.350000X0.625000X-0.350000X0.625000X0*%
%TD*%
%TA.AperFunction,Conductor*%
%ADD18C,0.250000*%
%TD*%
G04 APERTURE END LIST*
D10*
%TO.P,H1,1*%
%TO.N,N/C*%
X3200000Y33025000D03*
%TD*%
D11*
%TO.P,J1,1,Pin_1*%
%TO.N,/Heater_GND*%
X2075000Y38450000D03*
D12*
%TO.P,J1,2,Pin_2*%
X2075000Y40990000D03*
%TO.P,J1,3,Pin_3*%
%TO.N,/Heater_VCC*%
X4615000Y38450000D03*
%TO.P,J1,4,Pin_4*%
X4615000Y40990000D03*
%TO.P,J1,5,Pin_5*%
%TO.N,/HS_Fan_GND*%
X7155000Y38450000D03*
%TO.P,J1,6,Pin_6*%
%TO.N,/HS_Fan_VCC*%
X7155000Y40990000D03*
%TO.P,J1,7,Pin_7*%
%TO.N,/LED_GND*%
X9695000Y38450000D03*
%TO.P,J1,8,Pin_8*%
%TO.N,/LED_VCC*%
X9695000Y40990000D03*
%TO.P,J1,9,Pin_9*%
%TO.N,unconnected-(J1-Pad9)*%
X12235000Y38450000D03*
%TO.P,J1,10,Pin_10*%
%TO.N,/Thermistor_1*%
X12235000Y40990000D03*
%TO.P,J1,11,Pin_11*%
%TO.N,/Thermistor_2*%
X14775000Y38450000D03*
%TO.P,J1,12,Pin_12*%
%TO.N,/PC_FAN_GND*%
X14775000Y40990000D03*
%TO.P,J1,13,Pin_13*%
%TO.N,/PC_FAN_VCC*%
X17315000Y38450000D03*
%TO.P,J1,14,Pin_14*%
%TO.N,/BLT_GND1*%
X17315000Y40990000D03*
%TO.P,J1,15,Pin_15*%
%TO.N,/BLT_5v*%
X19855000Y38450000D03*
%TO.P,J1,16,Pin_16*%
%TO.N,/BLT_PA1*%
X19855000Y40990000D03*
%TO.P,J1,17,Pin_17*%
%TO.N,/BLT_GND2*%
X22395000Y38450000D03*
%TO.P,J1,18,Pin_18*%
%TO.N,/BLT_PC14*%
X22395000Y40990000D03*
%TD*%
D10*
%TO.P,H2,1*%
%TO.N,N/C*%
X38625000Y39750000D03*
%TD*%
D13*
%TO.P,J3,1,1*%
%TO.N,/Thermistor_1*%
X14025000Y35595000D03*
D14*
%TO.P,J3,2,2*%
%TO.N,/Thermistor_2*%
X17025000Y35595000D03*
%TD*%
D15*
%TO.P,J5,1,Pin_1*%
%TO.N,/LED_VCC*%
X39225000Y26700000D03*
D16*
%TO.P,J5,2,Pin_2*%
%TO.N,/LED_GND*%
X37225000Y26700000D03*
%TD*%
D15*
%TO.P,J7,1,Pin_1*%
%TO.N,/HS_Fan_VCC*%
X39225000Y15475000D03*
D16*
%TO.P,J7,2,Pin_2*%
%TO.N,/HS_Fan_GND*%
X37225000Y15475000D03*
%TD*%
D13*
%TO.P,J2,1,1*%
%TO.N,/Heater_VCC*%
X37945000Y7050000D03*
D14*
%TO.P,J2,2,2*%
%TO.N,/Heater_GND*%
X37945000Y4050000D03*
%TD*%
D15*
%TO.P,J4,1,Pin_1*%
%TO.N,/PC_FAN_VCC*%
X39225000Y21100000D03*
D16*
%TO.P,J4,2,Pin_2*%
%TO.N,/PC_FAN_GND*%
X37225000Y21100000D03*
%TD*%
D17*
%TO.P,J6,1,Pin_1*%
%TO.N,/BLT_GND1*%
X31175000Y31300000D03*
D16*
%TO.P,J6,2,Pin_2*%
%TO.N,/BLT_5v*%
X33175000Y31300000D03*
%TO.P,J6,3,Pin_3*%
%TO.N,/BLT_PA1*%
X35175000Y31300000D03*
%TO.P,J6,4,Pin_4*%
%TO.N,/BLT_GND2*%
X37175000Y31300000D03*
%TO.P,J6,5,Pin_5*%
%TO.N,/BLT_PC14*%
X39175000Y31300000D03*
%TD*%
D18*
%TO.N,/HS_Fan_GND*%
X13013000Y33400000D02*
X17698600Y33400000D01*
X24538200Y26560400D02*
X28772100Y26560400D01*
X8330300Y38450000D02*
X8330300Y38082700D01*
X7155000Y38450000D02*
X8330300Y38450000D01*
X28772100Y26560400D02*
X37225000Y18107500D01*
X37225000Y18107500D02*
X37225000Y15475000D01*
X8330300Y38082700D02*
X13013000Y33400000D01*
X17698600Y33400000D02*
X24538200Y26560400D01*
%TO.N,/HS_Fan_VCC*%
X10031300Y39814700D02*
X9138200Y39814700D01*
X7155000Y40990000D02*
X8330300Y40990000D01*
X10870400Y36672600D02*
X10870400Y38975600D01*
X10870400Y38975600D02*
X10031300Y39814700D01*
X20517100Y34152800D02*
X13390200Y34152800D01*
X13390200Y34152800D02*
X10870400Y36672600D01*
X8330300Y40622600D02*
X8330300Y40990000D01*
X39225000Y15475000D02*
X39225000Y16777000D01*
X39225000Y16777000D02*
X28991300Y27010700D01*
X27659200Y27010700D02*
X20517100Y34152800D01*
X28991300Y27010700D02*
X27659200Y27010700D01*
X9138200Y39814700D02*
X8330300Y40622600D01*
%TO.N,/PC_FAN_GND*%
X18078300Y37228500D02*
X16812500Y37228500D01*
X36299700Y21100000D02*
X29938700Y27461000D01*
X29938700Y27461000D02*
X27845800Y27461000D01*
X14775000Y40990000D02*
X14775000Y39814700D01*
X15950300Y38090700D02*
X15950300Y39006800D01*
X15950300Y39006800D02*
X15142400Y39814700D01*
X37225000Y21100000D02*
X36299700Y21100000D01*
X15142400Y39814700D02*
X14775000Y39814700D01*
X27845800Y27461000D02*
X18078300Y37228500D01*
X16812500Y37228500D02*
X15950300Y38090700D01*
%TO.N,/PC_FAN_VCC*%
X17495700Y38450000D02*
X17315000Y38450000D01*
X39225000Y21100000D02*
X31853200Y28471800D01*
X31853200Y28471800D02*
X27473900Y28471800D01*
X27473900Y28471800D02*
X17495700Y38450000D01*
%TO.N,/LED_VCC*%
X29915000Y42211200D02*
X14289100Y42211200D01*
X39225000Y26700000D02*
X40119400Y27594400D01*
X13505000Y41427100D02*
X13505000Y40595200D01*
X40119400Y32006800D02*
X29915000Y42211200D01*
X10870300Y40622600D02*
X10870300Y40990000D01*
X11678200Y39814700D02*
X10870300Y40622600D01*
X13505000Y40595200D02*
X12724500Y39814700D01*
X12724500Y39814700D02*
X11678200Y39814700D01*
X40119400Y27594400D02*
X40119400Y32006800D01*
X14289100Y42211200D02*
X13505000Y41427100D01*
X9695000Y40990000D02*
X10870300Y40990000D01*
%TO.N,/BLT_PA1*%
X21030300Y39006800D02*
X20222400Y39814700D01*
X29242800Y36885200D02*
X22284200Y36885200D01*
X34249700Y31300000D02*
X34249700Y31878300D01*
X19855000Y40990000D02*
X19855000Y39814700D01*
X34249700Y31878300D02*
X29242800Y36885200D01*
X21030300Y38139100D02*
X21030300Y39006800D01*
X22284200Y36885200D02*
X21030300Y38139100D01*
X20222400Y39814700D02*
X19855000Y39814700D01*
X35175000Y31300000D02*
X34249700Y31300000D01*
%TO.N,/BLT_GND1*%
X18490300Y38094300D02*
X18490300Y39006800D01*
X25284600Y31300000D02*
X18490300Y38094300D01*
X18490300Y39006800D02*
X17682400Y39814700D01*
X17682400Y39814700D02*
X17315000Y39814700D01*
X31175000Y31300000D02*
X25284600Y31300000D01*
X17315000Y40990000D02*
X17315000Y39814700D01*
%TO.N,/BLT_PC14*%
X29138000Y40990000D02*
X22395000Y40990000D01*
X38249700Y31878300D02*
X29138000Y40990000D01*
X39175000Y31300000D02*
X38249700Y31300000D01*
X38249700Y31300000D02*
X38249700Y31878300D01*
%TO.N,/BLT_5v*%
X32249700Y31300000D02*
X32249700Y32109600D01*
X33175000Y31300000D02*
X32249700Y31300000D01*
X32249700Y32109600D02*
X28415400Y35943900D01*
X22361100Y35943900D02*
X19855000Y38450000D01*
X28415400Y35943900D02*
X22361100Y35943900D01*
%TO.N,/BLT_GND2*%
X37175000Y31300000D02*
X36249700Y31300000D01*
X36249700Y31878300D02*
X29678000Y38450000D01*
X29678000Y38450000D02*
X22395000Y38450000D01*
X36249700Y31300000D02*
X36249700Y31878300D01*
%TD*%
%TA.AperFunction,Conductor*%
%TO.N,/Heater_GND*%
G36*
X37701836Y42296998D02*
G01*
X37748329Y42243342D01*
X37758433Y42173068D01*
X37728939Y42108488D01*
X37680099Y42073848D01*
X37558495Y42025702D01*
X37558490Y42025700D01*
X37554821Y42024247D01*
X37551353Y42022341D01*
X37551352Y42022340D01*
X37482906Y41984711D01*
X37278221Y41872184D01*
X37107340Y41748032D01*
X37027375Y41689934D01*
X37022860Y41686654D01*
X36792767Y41470582D01*
X36591568Y41227375D01*
X36422438Y40960869D01*
X36420754Y40957290D01*
X36420750Y40957283D01*
X36346873Y40800285D01*
X36288044Y40675266D01*
X36190505Y40375072D01*
X36131359Y40065020D01*
X36111540Y39750000D01*
X36131359Y39434980D01*
X36190505Y39124928D01*
X36288044Y38824734D01*
X36289731Y38821148D01*
X36289733Y38821144D01*
X36420750Y38542717D01*
X36420754Y38542710D01*
X36422438Y38539131D01*
X36591568Y38272625D01*
X36594093Y38269573D01*
X36782060Y38042361D01*
X36792767Y38029418D01*
X37022860Y37813346D01*
X37026062Y37811019D01*
X37026064Y37811018D01*
X37037960Y37802375D01*
X37278221Y37627816D01*
X37281690Y37625909D01*
X37281693Y37625907D01*
X37512619Y37498954D01*
X37554821Y37475753D01*
X37558490Y37474300D01*
X37558495Y37474298D01*
X37828350Y37367455D01*
X37848298Y37359557D01*
X38154025Y37281060D01*
X38467179Y37241500D01*
X38782821Y37241500D01*
X39095975Y37281060D01*
X39401702Y37359557D01*
X39421650Y37367455D01*
X39691505Y37474298D01*
X39691510Y37474300D01*
X39695179Y37475753D01*
X39737381Y37498954D01*
X39968307Y37625907D01*
X39968310Y37625909D01*
X39971779Y37627816D01*
X40212040Y37802375D01*
X40223936Y37811018D01*
X40223938Y37811019D01*
X40227140Y37813346D01*
X40457233Y38029418D01*
X40467941Y38042361D01*
X40655907Y38269573D01*
X40658432Y38272625D01*
X40827562Y38539131D01*
X40829246Y38542710D01*
X40829250Y38542717D01*
X40960267Y38821144D01*
X40960269Y38821148D01*
X40961956Y38824734D01*
X40971167Y38853083D01*
X41011240Y38911688D01*
X41076636Y38939326D01*
X41146593Y38927219D01*
X41198900Y38879214D01*
X41217000Y38814147D01*
X41217000Y959000D01*
X41196998Y890879D01*
X41143342Y844386D01*
X41091000Y833000D01*
X29259000Y833000D01*
X29190879Y853002D01*
X29144386Y906658D01*
X29133000Y959000D01*
X29133000Y2962143D01*
X37221697Y2962143D01*
X37230994Y2950127D01*
X37282742Y2913893D01*
X37292228Y2908415D01*
X37490085Y2816154D01*
X37500381Y2812406D01*
X37711255Y2755902D01*
X37722042Y2754000D01*
X37939525Y2734973D01*
X37950475Y2734973D01*
X38167958Y2754000D01*
X38178745Y2755902D01*
X38389619Y2812406D01*
X38399915Y2816154D01*
X38597772Y2908415D01*
X38607258Y2913893D01*
X38659844Y2950713D01*
X38668219Y2961191D01*
X38661151Y2974639D01*
X37957812Y3677978D01*
X37943868Y3685592D01*
X37942035Y3685461D01*
X37935420Y3681210D01*
X37228127Y2973917D01*
X37221697Y2962143D01*
X29133000Y2962143D01*
X29133000Y5621141D01*
X31587776Y5621141D01*
X31587929Y5616753D01*
X31587929Y5616747D01*
X31596720Y5365027D01*
X31597701Y5336922D01*
X31598463Y5332599D01*
X31598464Y5332592D01*
X31621774Y5200397D01*
X31647085Y5056850D01*
X31648440Y5052679D01*
X31648442Y5052672D01*
X31721101Y4829051D01*
X31734967Y4786377D01*
X31736895Y4782424D01*
X31736897Y4782419D01*
X31744832Y4766151D01*
X31859637Y4530767D01*
X31862092Y4527128D01*
X31862095Y4527122D01*
X31938122Y4414408D01*
X32018667Y4294995D01*
X32021611Y4291726D01*
X32021612Y4291724D01*
X32038509Y4272958D01*
X32208963Y4083650D01*
X32426820Y3900846D01*
X32667998Y3750141D01*
X32927804Y3634469D01*
X33201179Y3556079D01*
X33205533Y3555467D01*
X33205538Y3555466D01*
X33375770Y3531542D01*
X33482804Y3516500D01*
X33696018Y3516500D01*
X33698204Y3516653D01*
X33698208Y3516653D01*
X33904315Y3531065D01*
X33904320Y3531066D01*
X33908700Y3531372D01*
X34186877Y3590501D01*
X34191006Y3592004D01*
X34191010Y3592005D01*
X34449974Y3686260D01*
X34449978Y3686262D01*
X34454119Y3687769D01*
X34458009Y3689837D01*
X34458015Y3689840D01*
X34701330Y3819213D01*
X34701336Y3819217D01*
X34705222Y3821283D01*
X34708782Y3823870D01*
X34708786Y3823872D01*
X34931738Y3985855D01*
X34931741Y3985858D01*
X34935301Y3988444D01*
X34985777Y4037188D01*
X34993375Y4044525D01*
X36629973Y4044525D01*
X36649000Y3827042D01*
X36650902Y3816255D01*
X36707406Y3605381D01*
X36711154Y3595085D01*
X36803415Y3397228D01*
X36808893Y3387742D01*
X36845713Y3335156D01*
X36856191Y3326781D01*
X36869639Y3333849D01*
X37572978Y4037188D01*
X37579356Y4048868D01*
X38309408Y4048868D01*
X38309539Y4047035D01*
X38313790Y4040420D01*
X39021083Y3333127D01*
X39032857Y3326697D01*
X39044873Y3335994D01*
X39081107Y3387742D01*
X39086585Y3397228D01*
X39178846Y3595085D01*
X39182594Y3605381D01*
X39239098Y3816255D01*
X39241000Y3827042D01*
X39260027Y4044525D01*
X39260027Y4055475D01*
X39241000Y4272958D01*
X39239098Y4283745D01*
X39182594Y4494619D01*
X39178846Y4504915D01*
X39086585Y4702772D01*
X39081107Y4712258D01*
X39044287Y4764844D01*
X39033809Y4773219D01*
X39020361Y4766151D01*
X38317022Y4062812D01*
X38309408Y4048868D01*
X37579356Y4048868D01*
X37580592Y4051132D01*
X37580461Y4052965D01*
X37576210Y4059580D01*
X36868917Y4766873D01*
X36857143Y4773303D01*
X36845127Y4764006D01*
X36808893Y4712258D01*
X36803415Y4702772D01*
X36711154Y4504915D01*
X36707406Y4494619D01*
X36650902Y4283745D01*
X36649000Y4272958D01*
X36629973Y4055475D01*
X36629973Y4044525D01*
X34993375Y4044525D01*
X35136710Y4182943D01*
X35136714Y4182947D01*
X35139875Y4186000D01*
X35314965Y4410104D01*
X35384630Y4530767D01*
X35454956Y4652575D01*
X35454959Y4652580D01*
X35457161Y4656395D01*
X35458811Y4660479D01*
X35458814Y4660485D01*
X35562047Y4915998D01*
X35563696Y4920079D01*
X35618232Y5138809D01*
X37221781Y5138809D01*
X37228849Y5125361D01*
X37932188Y4422022D01*
X37946132Y4414408D01*
X37947965Y4414539D01*
X37954580Y4418790D01*
X38661873Y5126083D01*
X38668303Y5137857D01*
X38659006Y5149873D01*
X38607258Y5186107D01*
X38597772Y5191585D01*
X38399915Y5283846D01*
X38389619Y5287594D01*
X38178745Y5344098D01*
X38167958Y5346000D01*
X37950475Y5365027D01*
X37939525Y5365027D01*
X37722042Y5346000D01*
X37711255Y5344098D01*
X37500381Y5287594D01*
X37490085Y5283846D01*
X37292228Y5191585D01*
X37282742Y5186107D01*
X37230156Y5149287D01*
X37221781Y5138809D01*
X35618232Y5138809D01*
X35632497Y5196024D01*
X35641728Y5283846D01*
X35661765Y5474490D01*
X35661765Y5474493D01*
X35662224Y5478859D01*
X35657409Y5616747D01*
X35652453Y5758681D01*
X35652452Y5758687D01*
X35652299Y5763078D01*
X35645389Y5802271D01*
X35603677Y6038827D01*
X35602915Y6043150D01*
X35601560Y6047321D01*
X35601558Y6047328D01*
X35552158Y6199366D01*
X36634000Y6199366D01*
X36640755Y6137184D01*
X36691885Y6000795D01*
X36779239Y5884239D01*
X36895795Y5796885D01*
X37032184Y5745755D01*
X37094366Y5739000D01*
X38795634Y5739000D01*
X38857816Y5745755D01*
X38994205Y5796885D01*
X39110761Y5884239D01*
X39198115Y6000795D01*
X39249245Y6137184D01*
X39256000Y6199366D01*
X39256000Y7900634D01*
X39249245Y7962816D01*
X39198115Y8099205D01*
X39110761Y8215761D01*
X38994205Y8303115D01*
X38857816Y8354245D01*
X38795634Y8361000D01*
X37094366Y8361000D01*
X37032184Y8354245D01*
X36895795Y8303115D01*
X36779239Y8215761D01*
X36691885Y8099205D01*
X36640755Y7962816D01*
X36634000Y7900634D01*
X36634000Y6199366D01*
X35552158Y6199366D01*
X35516394Y6309434D01*
X35515033Y6313623D01*
X35390363Y6569233D01*
X35387908Y6572872D01*
X35387905Y6572878D01*
X35233792Y6801359D01*
X35231333Y6805005D01*
X35041037Y7016350D01*
X34823180Y7199154D01*
X34582002Y7349859D01*
X34322196Y7465531D01*
X34048821Y7543921D01*
X34044467Y7544533D01*
X34044462Y7544534D01*
X33870833Y7568935D01*
X33767196Y7583500D01*
X33553982Y7583500D01*
X33551796Y7583347D01*
X33551792Y7583347D01*
X33345685Y7568935D01*
X33345680Y7568934D01*
X33341300Y7568628D01*
X33063123Y7509499D01*
X33058994Y7507996D01*
X33058990Y7507995D01*
X32800026Y7413740D01*
X32800022Y7413738D01*
X32795881Y7412231D01*
X32791991Y7410163D01*
X32791985Y7410160D01*
X32548670Y7280787D01*
X32548664Y7280783D01*
X32544778Y7278717D01*
X32541218Y7276130D01*
X32541214Y7276128D01*
X32318262Y7114145D01*
X32314699Y7111556D01*
X32311535Y7108500D01*
X32311532Y7108498D01*
X32113290Y6917057D01*
X32113286Y6917053D01*
X32110125Y6914000D01*
X31935035Y6689896D01*
X31932832Y6686080D01*
X31863089Y6565281D01*
X31792839Y6443605D01*
X31791189Y6439521D01*
X31791186Y6439515D01*
X31713105Y6246255D01*
X31686304Y6179921D01*
X31617503Y5903976D01*
X31617044Y5899608D01*
X31617043Y5899603D01*
X31600202Y5739369D01*
X31587776Y5621141D01*
X29133000Y5621141D01*
X29133000Y24999406D01*
X29153002Y25067527D01*
X29206658Y25114020D01*
X29276932Y25124124D01*
X29341512Y25094630D01*
X29348095Y25088501D01*
X36554595Y17882000D01*
X36588621Y17819688D01*
X36591500Y17792905D01*
X36591500Y16724807D01*
X36571498Y16656686D01*
X36538399Y16622037D01*
X36502280Y16596416D01*
X36502276Y16596413D01*
X36497389Y16592946D01*
X36351119Y16440150D01*
X36236380Y16262452D01*
X36157314Y16066263D01*
X36116772Y15858663D01*
X36116500Y15853101D01*
X36116500Y15147154D01*
X36131548Y14989434D01*
X36191092Y14786466D01*
X36193836Y14781139D01*
X36193836Y14781138D01*
X36241491Y14688611D01*
X36287942Y14598420D01*
X36418604Y14432080D01*
X36423135Y14428148D01*
X36423138Y14428145D01*
X36509058Y14353588D01*
X36578363Y14293448D01*
X36583549Y14290448D01*
X36583553Y14290445D01*
X36679957Y14234674D01*
X36761454Y14187527D01*
X36961271Y14118139D01*
X36967206Y14117278D01*
X36967208Y14117278D01*
X37164664Y14088648D01*
X37164667Y14088648D01*
X37170604Y14087787D01*
X37381899Y14097567D01*
X37513077Y14129181D01*
X37581701Y14145719D01*
X37581703Y14145720D01*
X37587534Y14147125D01*
X37592992Y14149607D01*
X37592996Y14149608D01*
X37708041Y14201916D01*
X37780087Y14234674D01*
X37952611Y14357054D01*
X37956753Y14361381D01*
X37956759Y14361386D01*
X38043806Y14452317D01*
X38105361Y14487694D01*
X38176270Y14484175D01*
X38234021Y14442879D01*
X38241965Y14431496D01*
X38276522Y14375652D01*
X38401697Y14250695D01*
X38407927Y14246855D01*
X38407928Y14246854D01*
X38545090Y14162306D01*
X38552262Y14157885D01*
X38577217Y14149608D01*
X38713611Y14104368D01*
X38713613Y14104368D01*
X38720139Y14102203D01*
X38726975Y14101503D01*
X38726978Y14101502D01*
X38765386Y14097567D01*
X38824600Y14091500D01*
X39625400Y14091500D01*
X39628646Y14091837D01*
X39628650Y14091837D01*
X39724308Y14101762D01*
X39724312Y14101763D01*
X39731166Y14102474D01*
X39737702Y14104655D01*
X39737704Y14104655D01*
X39872443Y14149608D01*
X39898946Y14158450D01*
X40049348Y14251522D01*
X40174305Y14376697D01*
X40211352Y14436798D01*
X40263275Y14521032D01*
X40263276Y14521034D01*
X40267115Y14527262D01*
X40322797Y14695139D01*
X40333500Y14799600D01*
X40333500Y16150400D01*
X40322526Y16256166D01*
X40318749Y16267489D01*
X40268868Y16416998D01*
X40266550Y16423946D01*
X40173478Y16574348D01*
X40048303Y16699305D01*
X40042072Y16703146D01*
X39914164Y16781990D01*
X39866671Y16834763D01*
X39855912Y16869278D01*
X39855673Y16876890D01*
X39850022Y16896342D01*
X39846014Y16915694D01*
X39844467Y16927937D01*
X39843474Y16935797D01*
X39840556Y16943168D01*
X39827200Y16976903D01*
X39823355Y16988130D01*
X39816557Y17011527D01*
X39811018Y17030593D01*
X39806984Y17037415D01*
X39806981Y17037421D01*
X39800706Y17048032D01*
X39792010Y17065782D01*
X39787472Y17077244D01*
X39787469Y17077249D01*
X39784552Y17084617D01*
X39758573Y17120375D01*
X39752057Y17130293D01*
X39733575Y17161543D01*
X39729542Y17168363D01*
X39715218Y17182687D01*
X39702376Y17197722D01*
X39690472Y17214107D01*
X39656406Y17242289D01*
X39647627Y17250278D01*
X37374381Y19523524D01*
X37340355Y19585836D01*
X37345420Y19656651D01*
X37387967Y19713487D01*
X37433955Y19735112D01*
X37581701Y19770719D01*
X37581703Y19770720D01*
X37587534Y19772125D01*
X37592992Y19774607D01*
X37592996Y19774608D01*
X37708041Y19826916D01*
X37780087Y19859674D01*
X37952611Y19982054D01*
X37956753Y19986381D01*
X37956759Y19986386D01*
X38043806Y20077317D01*
X38105361Y20112694D01*
X38176270Y20109175D01*
X38234021Y20067879D01*
X38241965Y20056496D01*
X38276522Y20000652D01*
X38401697Y19875695D01*
X38407927Y19871855D01*
X38407928Y19871854D01*
X38545090Y19787306D01*
X38552262Y19782885D01*
X38577217Y19774608D01*
X38713611Y19729368D01*
X38713613Y19729368D01*
X38720139Y19727203D01*
X38726975Y19726503D01*
X38726978Y19726502D01*
X38765386Y19722567D01*
X38824600Y19716500D01*
X39625400Y19716500D01*
X39628646Y19716837D01*
X39628650Y19716837D01*
X39724308Y19726762D01*
X39724312Y19726763D01*
X39731166Y19727474D01*
X39737702Y19729655D01*
X39737704Y19729655D01*
X39872443Y19774608D01*
X39898946Y19783450D01*
X40049348Y19876522D01*
X40174305Y20001697D01*
X40208081Y20056491D01*
X40263275Y20146032D01*
X40263276Y20146034D01*
X40267115Y20152262D01*
X40322797Y20320139D01*
X40333500Y20424600D01*
X40333500Y21775400D01*
X40322526Y21881166D01*
X40266550Y22048946D01*
X40173478Y22199348D01*
X40048303Y22324305D01*
X39897738Y22417115D01*
X39817995Y22443564D01*
X39736389Y22470632D01*
X39736387Y22470632D01*
X39729861Y22472797D01*
X39723025Y22473497D01*
X39723022Y22473498D01*
X39679969Y22477909D01*
X39625400Y22483500D01*
X38824600Y22483500D01*
X38821354Y22483163D01*
X38821350Y22483163D01*
X38805276Y22481495D01*
X38735454Y22494360D01*
X38703177Y22517727D01*
X35543588Y25677317D01*
X32356852Y28864053D01*
X32349312Y28872339D01*
X32345200Y28878818D01*
X32295548Y28925444D01*
X32292707Y28928198D01*
X32272970Y28947935D01*
X32269773Y28950415D01*
X32260751Y28958120D01*
X32234300Y28982959D01*
X32228521Y28988386D01*
X32221575Y28992205D01*
X32221572Y28992207D01*
X32210766Y28998148D01*
X32194247Y29008999D01*
X32193783Y29009359D01*
X32178241Y29021414D01*
X32170972Y29024559D01*
X32170968Y29024562D01*
X32137663Y29038974D01*
X32127013Y29044191D01*
X32088260Y29065495D01*
X32068637Y29070533D01*
X32049934Y29076937D01*
X32038620Y29081833D01*
X32038619Y29081833D01*
X32031345Y29084981D01*
X32023522Y29086220D01*
X32023512Y29086223D01*
X31987676Y29091899D01*
X31976056Y29094305D01*
X31940911Y29103328D01*
X31940910Y29103328D01*
X31933230Y29105300D01*
X31912976Y29105300D01*
X31893265Y29106851D01*
X31881086Y29108780D01*
X31873257Y29110020D01*
X31865365Y29109274D01*
X31829239Y29105859D01*
X31817381Y29105300D01*
X27788494Y29105300D01*
X27720373Y29125302D01*
X27699399Y29142205D01*
X26390199Y30451405D01*
X26356173Y30513717D01*
X26361238Y30584532D01*
X26403785Y30641368D01*
X26470305Y30666179D01*
X26479294Y30666500D01*
X29948550Y30666500D01*
X30016671Y30646498D01*
X30063164Y30592842D01*
X30073877Y30553504D01*
X30077474Y30518834D01*
X30133450Y30351054D01*
X30226522Y30200652D01*
X30351697Y30075695D01*
X30357927Y30071855D01*
X30357928Y30071854D01*
X30495090Y29987306D01*
X30502262Y29982885D01*
X30527217Y29974608D01*
X30663611Y29929368D01*
X30663613Y29929368D01*
X30670139Y29927203D01*
X30676975Y29926503D01*
X30676978Y29926502D01*
X30715386Y29922567D01*
X30774600Y29916500D01*
X31575400Y29916500D01*
X31578646Y29916837D01*
X31578650Y29916837D01*
X31674308Y29926762D01*
X31674312Y29926763D01*
X31681166Y29927474D01*
X31687702Y29929655D01*
X31687704Y29929655D01*
X31822443Y29974608D01*
X31848946Y29983450D01*
X31999348Y30076522D01*
X32124305Y30201697D01*
X32156075Y30253236D01*
X32208846Y30300729D01*
X32278918Y30312153D01*
X32344042Y30283879D01*
X32362418Y30264955D01*
X32368604Y30257080D01*
X32373135Y30253148D01*
X32373138Y30253145D01*
X32459058Y30178588D01*
X32528363Y30118448D01*
X32533549Y30115448D01*
X32533553Y30115445D01*
X32629957Y30059674D01*
X32711454Y30012527D01*
X32911271Y29943139D01*
X32917206Y29942278D01*
X32917208Y29942278D01*
X33114664Y29913648D01*
X33114667Y29913648D01*
X33120604Y29912787D01*
X33331899Y29922567D01*
X33485899Y29959681D01*
X33531701Y29970719D01*
X33531703Y29970720D01*
X33537534Y29972125D01*
X33542992Y29974607D01*
X33542996Y29974608D01*
X33658041Y30026916D01*
X33730087Y30059674D01*
X33902611Y30182054D01*
X34048881Y30334850D01*
X34060124Y30352262D01*
X34069746Y30367163D01*
X34123501Y30413540D01*
X34193797Y30423493D01*
X34258314Y30393861D01*
X34274681Y30376649D01*
X34368604Y30257080D01*
X34373135Y30253148D01*
X34373138Y30253145D01*
X34459058Y30178588D01*
X34528363Y30118448D01*
X34533549Y30115448D01*
X34533553Y30115445D01*
X34629957Y30059674D01*
X34711454Y30012527D01*
X34911271Y29943139D01*
X34917206Y29942278D01*
X34917208Y29942278D01*
X35114664Y29913648D01*
X35114667Y29913648D01*
X35120604Y29912787D01*
X35331899Y29922567D01*
X35485899Y29959681D01*
X35531701Y29970719D01*
X35531703Y29970720D01*
X35537534Y29972125D01*
X35542992Y29974607D01*
X35542996Y29974608D01*
X35658041Y30026916D01*
X35730087Y30059674D01*
X35902611Y30182054D01*
X36048881Y30334850D01*
X36060124Y30352262D01*
X36069746Y30367163D01*
X36123501Y30413540D01*
X36193797Y30423493D01*
X36258314Y30393861D01*
X36274681Y30376649D01*
X36368604Y30257080D01*
X36373135Y30253148D01*
X36373138Y30253145D01*
X36459058Y30178588D01*
X36528363Y30118448D01*
X36533549Y30115448D01*
X36533553Y30115445D01*
X36629957Y30059674D01*
X36711454Y30012527D01*
X36911271Y29943139D01*
X36917206Y29942278D01*
X36917208Y29942278D01*
X37114664Y29913648D01*
X37114667Y29913648D01*
X37120604Y29912787D01*
X37331899Y29922567D01*
X37485899Y29959681D01*
X37531701Y29970719D01*
X37531703Y29970720D01*
X37537534Y29972125D01*
X37542992Y29974607D01*
X37542996Y29974608D01*
X37658041Y30026916D01*
X37730087Y30059674D01*
X37902611Y30182054D01*
X38048881Y30334850D01*
X38060124Y30352262D01*
X38069746Y30367163D01*
X38123501Y30413540D01*
X38193797Y30423493D01*
X38258314Y30393861D01*
X38274681Y30376649D01*
X38368604Y30257080D01*
X38373135Y30253148D01*
X38373138Y30253145D01*
X38459058Y30178588D01*
X38528363Y30118448D01*
X38533549Y30115448D01*
X38533553Y30115445D01*
X38629957Y30059674D01*
X38711454Y30012527D01*
X38911271Y29943139D01*
X38917206Y29942278D01*
X38917208Y29942278D01*
X39114664Y29913648D01*
X39114667Y29913648D01*
X39120604Y29912787D01*
X39331899Y29922567D01*
X39337734Y29923973D01*
X39342146Y29924601D01*
X39412406Y29914397D01*
X39465995Y29867827D01*
X39485900Y29799858D01*
X39485900Y28209500D01*
X39465898Y28141379D01*
X39412242Y28094886D01*
X39359900Y28083500D01*
X38824600Y28083500D01*
X38821354Y28083163D01*
X38821350Y28083163D01*
X38725692Y28073238D01*
X38725688Y28073237D01*
X38718834Y28072526D01*
X38712298Y28070345D01*
X38712296Y28070345D01*
X38589213Y28029281D01*
X38551054Y28016550D01*
X38400652Y27923478D01*
X38275695Y27798303D01*
X38271855Y27792073D01*
X38271854Y27792072D01*
X38243926Y27746764D01*
X38191154Y27699271D01*
X38121082Y27687847D01*
X38055958Y27716121D01*
X38037582Y27735045D01*
X38031396Y27742920D01*
X38026865Y27746852D01*
X38026862Y27746855D01*
X37876167Y27877621D01*
X37871637Y27881552D01*
X37866451Y27884552D01*
X37866447Y27884555D01*
X37693742Y27984467D01*
X37688546Y27987473D01*
X37488729Y28056861D01*
X37482794Y28057722D01*
X37482792Y28057722D01*
X37285336Y28086352D01*
X37285333Y28086352D01*
X37279396Y28087213D01*
X37068101Y28077433D01*
X36936923Y28045819D01*
X36868299Y28029281D01*
X36868297Y28029280D01*
X36862466Y28027875D01*
X36857008Y28025393D01*
X36857004Y28025392D01*
X36741959Y27973084D01*
X36669913Y27940326D01*
X36497389Y27817946D01*
X36351119Y27665150D01*
X36236380Y27487452D01*
X36234137Y27481886D01*
X36167036Y27315386D01*
X36157314Y27291263D01*
X36116772Y27083663D01*
X36116500Y27078101D01*
X36116500Y26372154D01*
X36131548Y26214434D01*
X36191092Y26011466D01*
X36193836Y26006139D01*
X36193836Y26006138D01*
X36280303Y25838253D01*
X36287942Y25823420D01*
X36418604Y25657080D01*
X36423135Y25653148D01*
X36423138Y25653145D01*
X36509058Y25578588D01*
X36578363Y25518448D01*
X36583549Y25515448D01*
X36583553Y25515445D01*
X36679957Y25459674D01*
X36761454Y25412527D01*
X36961271Y25343139D01*
X36967206Y25342278D01*
X36967208Y25342278D01*
X37164664Y25313648D01*
X37164667Y25313648D01*
X37170604Y25312787D01*
X37381899Y25322567D01*
X37513077Y25354181D01*
X37581701Y25370719D01*
X37581703Y25370720D01*
X37587534Y25372125D01*
X37592992Y25374607D01*
X37592996Y25374608D01*
X37708041Y25426916D01*
X37780087Y25459674D01*
X37952611Y25582054D01*
X37956753Y25586381D01*
X37956759Y25586386D01*
X38043806Y25677317D01*
X38105361Y25712694D01*
X38176270Y25709175D01*
X38234021Y25667879D01*
X38241965Y25656496D01*
X38276522Y25600652D01*
X38401697Y25475695D01*
X38407927Y25471855D01*
X38407928Y25471854D01*
X38545090Y25387306D01*
X38552262Y25382885D01*
X38577217Y25374608D01*
X38713611Y25329368D01*
X38713613Y25329368D01*
X38720139Y25327203D01*
X38726975Y25326503D01*
X38726978Y25326502D01*
X38765386Y25322567D01*
X38824600Y25316500D01*
X39625400Y25316500D01*
X39628646Y25316837D01*
X39628650Y25316837D01*
X39724308Y25326762D01*
X39724312Y25326763D01*
X39731166Y25327474D01*
X39737702Y25329655D01*
X39737704Y25329655D01*
X39872443Y25374608D01*
X39898946Y25383450D01*
X40049348Y25476522D01*
X40174305Y25601697D01*
X40211352Y25661798D01*
X40263275Y25746032D01*
X40263276Y25746034D01*
X40267115Y25752262D01*
X40322797Y25920139D01*
X40333500Y26024600D01*
X40333500Y26860406D01*
X40353502Y26928527D01*
X40370405Y26949501D01*
X40511647Y27090743D01*
X40519937Y27098287D01*
X40526418Y27102400D01*
X40573059Y27152068D01*
X40575813Y27154909D01*
X40595535Y27174631D01*
X40598012Y27177824D01*
X40605717Y27186845D01*
X40630559Y27213300D01*
X40635986Y27219079D01*
X40639807Y27226029D01*
X40645746Y27236832D01*
X40656602Y27253359D01*
X40664157Y27263098D01*
X40664158Y27263100D01*
X40669014Y27269360D01*
X40686574Y27309940D01*
X40691791Y27320588D01*
X40709275Y27352391D01*
X40709276Y27352393D01*
X40713095Y27359340D01*
X40718133Y27378963D01*
X40724537Y27397666D01*
X40729433Y27408980D01*
X40729433Y27408981D01*
X40732581Y27416255D01*
X40733820Y27424078D01*
X40733823Y27424088D01*
X40739499Y27459924D01*
X40741905Y27471544D01*
X40750928Y27506689D01*
X40750928Y27506690D01*
X40752900Y27514370D01*
X40752900Y27534624D01*
X40754451Y27554335D01*
X40756380Y27566514D01*
X40757620Y27574343D01*
X40753459Y27618362D01*
X40752900Y27630219D01*
X40752900Y31928033D01*
X40753427Y31939216D01*
X40755102Y31946709D01*
X40754027Y31980930D01*
X40752962Y32014799D01*
X40752900Y32018757D01*
X40752900Y32046656D01*
X40752396Y32050647D01*
X40751463Y32062489D01*
X40750323Y32098764D01*
X40750074Y32106689D01*
X40747862Y32114303D01*
X40747861Y32114308D01*
X40744423Y32126141D01*
X40740412Y32145505D01*
X40738867Y32157736D01*
X40737874Y32165597D01*
X40734957Y32172964D01*
X40734956Y32172969D01*
X40721598Y32206708D01*
X40717754Y32217935D01*
X40711113Y32240791D01*
X40705418Y32260393D01*
X40695107Y32277828D01*
X40686412Y32295576D01*
X40678952Y32314417D01*
X40652964Y32350187D01*
X40646448Y32360107D01*
X40627980Y32391335D01*
X40627978Y32391338D01*
X40623942Y32398162D01*
X40609621Y32412483D01*
X40596780Y32427517D01*
X40589531Y32437494D01*
X40584872Y32443907D01*
X40550795Y32472098D01*
X40542016Y32480088D01*
X30920200Y42101905D01*
X30886174Y42164217D01*
X30891239Y42235032D01*
X30933786Y42291868D01*
X31000306Y42316679D01*
X31009295Y42317000D01*
X37633715Y42317000D01*
X37701836Y42296998D01*
G37*
%TD.AperFunction*%
%TA.AperFunction,Conductor*%
G36*
X2271121Y41223998D02*
G01*
X2317614Y41170342D01*
X2329000Y41118000D01*
X2329000Y37110116D01*
X2333475Y37094877D01*
X2334865Y37093672D01*
X2342548Y37092001D01*
X2969669Y37092001D01*
X2976490Y37092371D01*
X3027352Y37097895D01*
X3042604Y37101521D01*
X3163054Y37146676D01*
X3178649Y37155214D01*
X3280724Y37231715D01*
X3293285Y37244276D01*
X3369786Y37346351D01*
X3378324Y37361946D01*
X3419225Y37471048D01*
X3461867Y37527812D01*
X3528428Y37552512D01*
X3597777Y37537304D01*
X3632444Y37509316D01*
X3657865Y37479969D01*
X3657869Y37479965D01*
X3661250Y37476062D01*
X3833126Y37333368D01*
X4026000Y37220662D01*
X4030825Y37218820D01*
X4030826Y37218819D01*
X4089085Y37196572D01*
X4234692Y37140970D01*
X4239760Y37139939D01*
X4239763Y37139938D01*
X4347017Y37118117D01*
X4453597Y37096433D01*
X4458772Y37096243D01*
X4458774Y37096243D01*
X4671673Y37088436D01*
X4671677Y37088436D01*
X4676837Y37088247D01*
X4681957Y37088903D01*
X4681959Y37088903D01*
X4893288Y37115975D01*
X4893289Y37115975D01*
X4898416Y37116632D01*
X4903366Y37118117D01*
X5107429Y37179339D01*
X5107434Y37179341D01*
X5112384Y37180826D01*
X5312994Y37279104D01*
X5494860Y37408827D01*
X5653096Y37566511D01*
X5783453Y37747923D01*
X5784776Y37746972D01*
X5831645Y37790143D01*
X5901580Y37802375D01*
X5967026Y37774856D01*
X5994875Y37743006D01*
X6054987Y37644912D01*
X6201250Y37476062D01*
X6373126Y37333368D01*
X6566000Y37220662D01*
X6570825Y37218820D01*
X6570826Y37218819D01*
X6629085Y37196572D01*
X6774692Y37140970D01*
X6779760Y37139939D01*
X6779763Y37139938D01*
X6887017Y37118117D01*
X6993597Y37096433D01*
X6998772Y37096243D01*
X6998774Y37096243D01*
X7211673Y37088436D01*
X7211677Y37088436D01*
X7216837Y37088247D01*
X7221957Y37088903D01*
X7221959Y37088903D01*
X7433288Y37115975D01*
X7433289Y37115975D01*
X7438416Y37116632D01*
X7443366Y37118117D01*
X7647429Y37179339D01*
X7647434Y37179341D01*
X7652384Y37180826D01*
X7852994Y37279104D01*
X7929070Y37333368D01*
X7990869Y37377448D01*
X8057943Y37400722D01*
X8126951Y37384038D01*
X8153132Y37363964D01*
X12509348Y33007747D01*
X12516888Y32999461D01*
X12521000Y32992982D01*
X12526777Y32987557D01*
X12570651Y32946357D01*
X12573493Y32943602D01*
X12593230Y32923865D01*
X12596427Y32921385D01*
X12605447Y32913682D01*
X12637679Y32883414D01*
X12644625Y32879595D01*
X12644628Y32879593D01*
X12655434Y32873652D01*
X12671953Y32862801D01*
X12687959Y32850386D01*
X12695228Y32847241D01*
X12695232Y32847238D01*
X12728537Y32832826D01*
X12739187Y32827609D01*
X12777940Y32806305D01*
X12785615Y32804334D01*
X12785616Y32804334D01*
X12797562Y32801267D01*
X12816267Y32794863D01*
X12834855Y32786819D01*
X12842678Y32785580D01*
X12842688Y32785577D01*
X12878524Y32779901D01*
X12890144Y32777495D01*
X12925289Y32768472D01*
X12932970Y32766500D01*
X12953224Y32766500D01*
X12972934Y32764949D01*
X12992943Y32761780D01*
X13000835Y32762526D01*
X13036961Y32765941D01*
X13048819Y32766500D01*
X13851400Y32766500D01*
X13919521Y32746498D01*
X13966014Y32692842D01*
X13976118Y32622568D01*
X13950689Y32562927D01*
X13837752Y32418374D01*
X13835035Y32414896D01*
X13828613Y32403773D01*
X13695359Y32172969D01*
X13692839Y32168605D01*
X13691189Y32164521D01*
X13691186Y32164515D01*
X13631495Y32016772D01*
X13586304Y31904921D01*
X13585240Y31900652D01*
X13585239Y31900650D01*
X13563667Y31814131D01*
X13517503Y31628976D01*
X13517044Y31624608D01*
X13517043Y31624603D01*
X13508632Y31544573D01*
X13487776Y31346141D01*
X13487929Y31341753D01*
X13487929Y31341747D01*
X13496860Y31086018D01*
X13497701Y31061922D01*
X13498463Y31057599D01*
X13498464Y31057592D01*
X13526092Y30900907D01*
X13547085Y30781850D01*
X13548440Y30777679D01*
X13548442Y30777672D01*
X13620129Y30557045D01*
X13634967Y30511377D01*
X13636895Y30507424D01*
X13636897Y30507419D01*
X13692284Y30393861D01*
X13759637Y30255767D01*
X13762092Y30252128D01*
X13762095Y30252122D01*
X13806438Y30186381D01*
X13918667Y30019995D01*
X13921611Y30016726D01*
X13921612Y30016724D01*
X13925391Y30012527D01*
X14108963Y29808650D01*
X14326820Y29625846D01*
X14567998Y29475141D01*
X14827804Y29359469D01*
X15101179Y29281079D01*
X15105533Y29280467D01*
X15105538Y29280466D01*
X15275770Y29256542D01*
X15382804Y29241500D01*
X15596018Y29241500D01*
X15598204Y29241653D01*
X15598208Y29241653D01*
X15804315Y29256065D01*
X15804320Y29256066D01*
X15808700Y29256372D01*
X16086877Y29315501D01*
X16091006Y29317004D01*
X16091010Y29317005D01*
X16349974Y29411260D01*
X16349978Y29411262D01*
X16354119Y29412769D01*
X16358009Y29414837D01*
X16358015Y29414840D01*
X16601330Y29544213D01*
X16601336Y29544217D01*
X16605222Y29546283D01*
X16608782Y29548870D01*
X16608786Y29548872D01*
X16831738Y29710855D01*
X16831741Y29710858D01*
X16835301Y29713444D01*
X16930960Y29805821D01*
X17036710Y29907943D01*
X17036714Y29907947D01*
X17039875Y29911000D01*
X17044429Y29916828D01*
X17168549Y30075695D01*
X17214965Y30135104D01*
X17283116Y30253145D01*
X17354956Y30377575D01*
X17354959Y30377580D01*
X17357161Y30381395D01*
X17358811Y30385479D01*
X17358814Y30385485D01*
X17462047Y30640998D01*
X17463696Y30645079D01*
X17532497Y30921024D01*
X17549839Y31086018D01*
X17561765Y31199490D01*
X17561765Y31199493D01*
X17562224Y31203859D01*
X17562071Y31208253D01*
X17552453Y31483681D01*
X17552452Y31483687D01*
X17552299Y31488078D01*
X17542338Y31544573D01*
X17503677Y31763827D01*
X17502915Y31768150D01*
X17501560Y31772321D01*
X17501558Y31772328D01*
X17416394Y32034434D01*
X17415033Y32038623D01*
X17413050Y32042690D01*
X17327576Y32217935D01*
X17290363Y32294233D01*
X17287908Y32297872D01*
X17287905Y32297878D01*
X17139231Y32518296D01*
X17131333Y32530005D01*
X17107756Y32556190D01*
X17077038Y32620197D01*
X17085803Y32690651D01*
X17131266Y32745182D01*
X17201392Y32766500D01*
X17384006Y32766500D01*
X17452127Y32746498D01*
X17473101Y32729595D01*
X23254600Y26948095D01*
X23288626Y26885783D01*
X23283561Y26814968D01*
X23241014Y26758132D01*
X23174494Y26733321D01*
X23165505Y26733000D01*
X859000Y26733000D01*
X790879Y26753002D01*
X744386Y26806658D01*
X733000Y26859000D01*
X733000Y31812400D01*
X753002Y31880521D01*
X806658Y31927014D01*
X876932Y31937118D01*
X941512Y31907624D01*
X973008Y31866049D01*
X997438Y31814131D01*
X1166568Y31547625D01*
X1367767Y31304418D01*
X1597860Y31088346D01*
X1853221Y30902816D01*
X1856690Y30900909D01*
X1856693Y30900907D01*
X2073256Y30781850D01*
X2129821Y30750753D01*
X2133490Y30749300D01*
X2133495Y30749298D01*
X2406095Y30641368D01*
X2423298Y30634557D01*
X2729025Y30556060D01*
X3042179Y30516500D01*
X3357821Y30516500D01*
X3670975Y30556060D01*
X3976702Y30634557D01*
X3993905Y30641368D01*
X4266505Y30749298D01*
X4266510Y30749300D01*
X4270179Y30750753D01*
X4326744Y30781850D01*
X4543307Y30900907D01*
X4543310Y30900909D01*
X4546779Y30902816D01*
X4802140Y31088346D01*
X5032233Y31304418D01*
X5233432Y31547625D01*
X5402562Y31814131D01*
X5404246Y31817710D01*
X5404250Y31817717D01*
X5535267Y32096144D01*
X5535269Y32096148D01*
X5536956Y32099734D01*
X5634495Y32399928D01*
X5693641Y32709980D01*
X5713460Y33025000D01*
X5693641Y33340020D01*
X5634495Y33650072D01*
X5536956Y33950266D01*
X5451257Y34132387D01*
X5404250Y34232283D01*
X5404246Y34232290D01*
X5402562Y34235869D01*
X5233432Y34502375D01*
X5032233Y34745582D01*
X4802140Y34961654D01*
X4546779Y35147184D01*
X4398991Y35228432D01*
X4273648Y35297340D01*
X4273647Y35297341D01*
X4270179Y35299247D01*
X4266510Y35300700D01*
X4266505Y35300702D01*
X3980372Y35413990D01*
X3980371Y35413990D01*
X3976702Y35415443D01*
X3670975Y35493940D01*
X3357821Y35533500D01*
X3042179Y35533500D01*
X2729025Y35493940D01*
X2423298Y35415443D01*
X2419629Y35413990D01*
X2419628Y35413990D01*
X2133495Y35300702D01*
X2133490Y35300700D01*
X2129821Y35299247D01*
X2126353Y35297341D01*
X2126352Y35297340D01*
X2001010Y35228432D01*
X1853221Y35147184D01*
X1597860Y34961654D01*
X1367767Y34745582D01*
X1166568Y34502375D01*
X997438Y34235869D01*
X995751Y34232283D01*
X973008Y34183952D01*
X925906Y34130831D01*
X857561Y34111608D01*
X789673Y34132387D01*
X743796Y34186570D01*
X733000Y34237600D01*
X733000Y37081958D01*
X753002Y37150079D01*
X806658Y37196572D01*
X876932Y37206676D01*
X934565Y37182784D01*
X971352Y37155214D01*
X986946Y37146676D01*
X1107394Y37101522D01*
X1122649Y37097895D01*
X1173514Y37092369D01*
X1180328Y37092000D01*
X1802885Y37092000D01*
X1818124Y37096475D01*
X1819329Y37097865D01*
X1821000Y37105548D01*
X1821000Y41118000D01*
X1841002Y41186121D01*
X1894658Y41232614D01*
X1947000Y41244000D01*
X2203000Y41244000D01*
X2271121Y41223998D01*
G37*
%TD.AperFunction*%
%TD*%
M02*
