<?xml version="1.0" ?>
<svg height="57.750000000000014mm" version="1.1" viewBox="-0.45 -65.05000000000003 40.900000000000006 57.750000000000014" width="40.900000000000006mm" xmlns="http://www.w3.org/2000/svg" xmlns:xlink="http://www.w3.org/1999/xlink">
	<g transform="scale(1,-1)">
		<g>
			<polyline fill="none" opacity="0.8" points="40.45,50.0 0.45,50.0" stroke="#F0E24D" stroke-width="2.0"/>
			<polyline fill="none" opacity="0.8" points="0.45,-6.85 40.45,-6.85" stroke="#F0E24D" stroke-width="2.0"/>
			<polyline fill="none" opacity="0.8" points="0.0,0.0 0.45,-6.85" stroke="#F0E24D" stroke-width="2.0"/>
			<polyline fill="none" opacity="0.8" points="40.45,-6.85 40.45,50.0" stroke="#F0E24D" stroke-width="2.0"/>
		</g>
		<g>
			<polyline fill="none" opacity="0.8" points="0.45,-6.85 0.4478,-6.8941" stroke="#5E6CFF" stroke-width="2.0"/>
			<polyline fill="none" opacity="0.8" points="0.4478,-6.8941 0.4414,-6.9378" stroke="#5E6CFF" stroke-width="2.0"/>
			<polyline fill="none" opacity="0.8" points="0.4414,-6.9378 0.4306,-6.9806" stroke="#5E6CFF" stroke-width="2.0"/>
			<polyline fill="none" opacity="0.8" points="0.4306,-6.9806 0.4157,-7.0222" stroke="#5E6CFF" stroke-width="2.0"/>
			<polyline fill="none" opacity="0.8" points="0.4157,-7.0222 0.3969,-7.0621" stroke="#5E6CFF" stroke-width="2.0"/>
			<polyline fill="none" opacity="0.8" points="0.3969,-7.0621 0.3742,-7.1" stroke="#5E6CFF" stroke-width="2.0"/>
			<polyline fill="none" opacity="0.8" points="0.3742,-7.1 0.3479,-7.1355" stroke="#5E6CFF" stroke-width="2.0"/>
			<polyline fill="none" opacity="0.8" points="0.3479,-7.1355 0.3182,-7.1682" stroke="#5E6CFF" stroke-width="2.0"/>
			<polyline fill="none" opacity="0.8" points="0.3182,-7.1682 0.2855,-7.1979" stroke="#5E6CFF" stroke-width="2.0"/>
			<polyline fill="none" opacity="0.8" points="0.2855,-7.1979 0.25,-7.2242" stroke="#5E6CFF" stroke-width="2.0"/>
			<polyline fill="none" opacity="0.8" points="0.25,-7.2242 0.2121,-7.2469" stroke="#5E6CFF" stroke-width="2.0"/>
			<polyline fill="none" opacity="0.8" points="0.2121,-7.2469 0.1722,-7.2657" stroke="#5E6CFF" stroke-width="2.0"/>
			<polyline fill="none" opacity="0.8" points="0.1722,-7.2657 0.1306,-7.2806" stroke="#5E6CFF" stroke-width="2.0"/>
			<polyline fill="none" opacity="0.8" points="0.1306,-7.2806 0.0878,-7.2914" stroke="#5E6CFF" stroke-width="2.0"/>
			<polyline fill="none" opacity="0.8" points="0.0878,-7.2914 0.0441,-7.2978" stroke="#5E6CFF" stroke-width="2.0"/>
			<polyline fill="none" opacity="0.8" points="0.0441,-7.2978 0.0,-7.3" stroke="#5E6CFF" stroke-width="2.0"/>
			<polyline fill="none" opacity="0.8" points="0.0,-7.3 -0.0441,-7.2978" stroke="#5E6CFF" stroke-width="2.0"/>
			<polyline fill="none" opacity="0.8" points="-0.0441,-7.2978 -0.0878,-7.2914" stroke="#5E6CFF" stroke-width="2.0"/>
			<polyline fill="none" opacity="0.8" points="-0.0878,-7.2914 -0.1306,-7.2806" stroke="#5E6CFF" stroke-width="2.0"/>
			<polyline fill="none" opacity="0.8" points="-0.1306,-7.2806 -0.1722,-7.2657" stroke="#5E6CFF" stroke-width="2.0"/>
			<polyline fill="none" opacity="0.8" points="-0.1722,-7.2657 -0.2121,-7.2469" stroke="#5E6CFF" stroke-width="2.0"/>
			<polyline fill="none" opacity="0.8" points="-0.2121,-7.2469 -0.25,-7.2242" stroke="#5E6CFF" stroke-width="2.0"/>
			<polyline fill="none" opacity="0.8" points="-0.25,-7.2242 -0.2855,-7.1979" stroke="#5E6CFF" stroke-width="2.0"/>
			<polyline fill="none" opacity="0.8" points="-0.2855,-7.1979 -0.3182,-7.1682" stroke="#5E6CFF" stroke-width="2.0"/>
			<polyline fill="none" opacity="0.8" points="-0.3182,-7.1682 -0.3479,-7.1355" stroke="#5E6CFF" stroke-width="2.0"/>
			<polyline fill="none" opacity="0.8" points="-0.3479,-7.1355 -0.3742,-7.1" stroke="#5E6CFF" stroke-width="2.0"/>
			<polyline fill="none" opacity="0.8" points="-0.3742,-7.1 -0.3969,-7.0621" stroke="#5E6CFF" stroke-width="2.0"/>
			<polyline fill="none" opacity="0.8" points="-0.3969,-7.0621 -0.4157,-7.0222" stroke="#5E6CFF" stroke-width="2.0"/>
			<polyline fill="none" opacity="0.8" points="-0.4157,-7.0222 -0.4306,-6.9806" stroke="#5E6CFF" stroke-width="2.0"/>
			<polyline fill="none" opacity="0.8" points="-0.4306,-6.9806 -0.4414,-6.9378" stroke="#5E6CFF" stroke-width="2.0"/>
			<polyline fill="none" opacity="0.8" points="-0.4414,-6.9378 -0.4478,-6.8941" stroke="#5E6CFF" stroke-width="2.0"/>
			<polyline fill="none" opacity="0.8" points="-0.4478,-6.8941 -0.45,-6.85" stroke="#5E6CFF" stroke-width="2.0"/>
			<polyline fill="none" opacity="0.8" points="-0.45,-6.85 -0.4478,-6.8059" stroke="#5E6CFF" stroke-width="2.0"/>
			<polyline fill="none" opacity="0.8" points="-0.4478,-6.8059 -0.4414,-6.7622" stroke="#5E6CFF" stroke-width="2.0"/>
			<polyline fill="none" opacity="0.8" points="-0.4414,-6.7622 -0.4306,-6.7194" stroke="#5E6CFF" stroke-width="2.0"/>
			<polyline fill="none" opacity="0.8" points="-0.4306,-6.7194 -0.4157,-6.6778" stroke="#5E6CFF" stroke-width="2.0"/>
			<polyline fill="none" opacity="0.8" points="-0.4157,-6.6778 -0.3969,-6.6379" stroke="#5E6CFF" stroke-width="2.0"/>
			<polyline fill="none" opacity="0.8" points="-0.3969,-6.6379 -0.3742,-6.6" stroke="#5E6CFF" stroke-width="2.0"/>
			<polyline fill="none" opacity="0.8" points="-0.3742,-6.6 -0.3479,-6.5645" stroke="#5E6CFF" stroke-width="2.0"/>
			<polyline fill="none" opacity="0.8" points="-0.3479,-6.5645 -0.3182,-6.5318" stroke="#5E6CFF" stroke-width="2.0"/>
			<polyline fill="none" opacity="0.8" points="-0.3182,-6.5318 -0.2855,-6.5021" stroke="#5E6CFF" stroke-width="2.0"/>
			<polyline fill="none" opacity="0.8" points="-0.2855,-6.5021 -0.25,-6.4758" stroke="#5E6CFF" stroke-width="2.0"/>
			<polyline fill="none" opacity="0.8" points="-0.25,-6.4758 -0.2121,-6.4531" stroke="#5E6CFF" stroke-width="2.0"/>
			<polyline fill="none" opacity="0.8" points="-0.2121,-6.4531 -0.1722,-6.4343" stroke="#5E6CFF" stroke-width="2.0"/>
			<polyline fill="none" opacity="0.8" points="-0.1722,-6.4343 -0.1306,-6.4194" stroke="#5E6CFF" stroke-width="2.0"/>
			<polyline fill="none" opacity="0.8" points="-0.1306,-6.4194 -0.0878,-6.4086" stroke="#5E6CFF" stroke-width="2.0"/>
			<polyline fill="none" opacity="0.8" points="-0.0878,-6.4086 -0.0441,-6.4022" stroke="#5E6CFF" stroke-width="2.0"/>
			<polyline fill="none" opacity="0.8" points="-0.0441,-6.4022 -0.0,-6.4" stroke="#5E6CFF" stroke-width="2.0"/>
			<polyline fill="none" opacity="0.8" points="-0.0,-6.4 0.0441,-6.4022" stroke="#5E6CFF" stroke-width="2.0"/>
			<polyline fill="none" opacity="0.8" points="0.0441,-6.4022 0.0878,-6.4086" stroke="#5E6CFF" stroke-width="2.0"/>
			<polyline fill="none" opacity="0.8" points="0.0878,-6.4086 0.1306,-6.4194" stroke="#5E6CFF" stroke-width="2.0"/>
			<polyline fill="none" opacity="0.8" points="0.1306,-6.4194 0.1722,-6.4343" stroke="#5E6CFF" stroke-width="2.0"/>
			<polyline fill="none" opacity="0.8" points="0.1722,-6.4343 0.2121,-6.4531" stroke="#5E6CFF" stroke-width="2.0"/>
			<polyline fill="none" opacity="0.8" points="0.2121,-6.4531 0.25,-6.4758" stroke="#5E6CFF" stroke-width="2.0"/>
			<polyline fill="none" opacity="0.8" points="0.25,-6.4758 0.2855,-6.5021" stroke="#5E6CFF" stroke-width="2.0"/>
			<polyline fill="none" opacity="0.8" points="0.2855,-6.5021 0.3182,-6.5318" stroke="#5E6CFF" stroke-width="2.0"/>
			<polyline fill="none" opacity="0.8" points="0.3182,-6.5318 0.3479,-6.5645" stroke="#5E6CFF" stroke-width="2.0"/>
			<polyline fill="none" opacity="0.8" points="0.3479,-6.5645 0.3742,-6.6" stroke="#5E6CFF" stroke-width="2.0"/>
			<polyline fill="none" opacity="0.8" points="0.3742,-6.6 0.3969,-6.6379" stroke="#5E6CFF" stroke-width="2.0"/>
			<polyline fill="none" opacity="0.8" points="0.3969,-6.6379 0.4157,-6.6778" stroke="#5E6CFF" stroke-width="2.0"/>
			<polyline fill="none" opacity="0.8" points="0.4157,-6.6778 0.4306,-6.7194" stroke="#5E6CFF" stroke-width="2.0"/>
			<polyline fill="none" opacity="0.8" points="0.4306,-6.7194 0.4414,-6.7622" stroke="#5E6CFF" stroke-width="2.0"/>
			<polyline fill="none" opacity="0.8" points="0.4414,-6.7622 0.4478,-6.8059" stroke="#5E6CFF" stroke-width="2.0"/>
			<polyline fill="none" opacity="0.8" points="0.4478,-6.8059 0.45,-6.85" stroke="#5E6CFF" stroke-width="2.0"/>
			<polyline fill="none" opacity="0.8" points="40.45,-6.85 40.4478,-6.8941" stroke="#5E6CFF" stroke-width="2.0"/>
			<polyline fill="none" opacity="0.8" points="40.4478,-6.8941 40.4414,-6.9378" stroke="#5E6CFF" stroke-width="2.0"/>
			<polyline fill="none" opacity="0.8" points="40.4414,-6.9378 40.4306,-6.9806" stroke="#5E6CFF" stroke-width="2.0"/>
			<polyline fill="none" opacity="0.8" points="40.4306,-6.9806 40.4157,-7.0222" stroke="#5E6CFF" stroke-width="2.0"/>
			<polyline fill="none" opacity="0.8" points="40.4157,-7.0222 40.3969,-7.0621" stroke="#5E6CFF" stroke-width="2.0"/>
			<polyline fill="none" opacity="0.8" points="40.3969,-7.0621 40.3742,-7.1" stroke="#5E6CFF" stroke-width="2.0"/>
			<polyline fill="none" opacity="0.8" points="40.3742,-7.1 40.3479,-7.1355" stroke="#5E6CFF" stroke-width="2.0"/>
			<polyline fill="none" opacity="0.8" points="40.3479,-7.1355 40.3182,-7.1682" stroke="#5E6CFF" stroke-width="2.0"/>
			<polyline fill="none" opacity="0.8" points="40.3182,-7.1682 40.2855,-7.1979" stroke="#5E6CFF" stroke-width="2.0"/>
			<polyline fill="none" opacity="0.8" points="40.2855,-7.1979 40.25,-7.2242" stroke="#5E6CFF" stroke-width="2.0"/>
			<polyline fill="none" opacity="0.8" points="40.25,-7.2242 40.2121,-7.2469" stroke="#5E6CFF" stroke-width="2.0"/>
			<polyline fill="none" opacity="0.8" points="40.2121,-7.2469 40.1722,-7.2657" stroke="#5E6CFF" stroke-width="2.0"/>
			<polyline fill="none" opacity="0.8" points="40.1722,-7.2657 40.1306,-7.2806" stroke="#5E6CFF" stroke-width="2.0"/>
			<polyline fill="none" opacity="0.8" points="40.1306,-7.2806 40.0878,-7.2914" stroke="#5E6CFF" stroke-width="2.0"/>
			<polyline fill="none" opacity="0.8" points="40.0878,-7.2914 40.0441,-7.2978" stroke="#5E6CFF" stroke-width="2.0"/>
			<polyline fill="none" opacity="0.8" points="40.0441,-7.2978 40.0,-7.3" stroke="#5E6CFF" stroke-width="2.0"/>
			<polyline fill="none" opacity="0.8" points="40.0,-7.3 39.9559,-7.2978" stroke="#5E6CFF" stroke-width="2.0"/>
			<polyline fill="none" opacity="0.8" points="39.9559,-7.2978 39.9122,-7.2914" stroke="#5E6CFF" stroke-width="2.0"/>
			<polyline fill="none" opacity="0.8" points="39.9122,-7.2914 39.8694,-7.2806" stroke="#5E6CFF" stroke-width="2.0"/>
			<polyline fill="none" opacity="0.8" points="39.8694,-7.2806 39.8278,-7.2657" stroke="#5E6CFF" stroke-width="2.0"/>
			<polyline fill="none" opacity="0.8" points="39.8278,-7.2657 39.7879,-7.2469" stroke="#5E6CFF" stroke-width="2.0"/>
			<polyline fill="none" opacity="0.8" points="39.7879,-7.2469 39.75,-7.2242" stroke="#5E6CFF" stroke-width="2.0"/>
			<polyline fill="none" opacity="0.8" points="39.75,-7.2242 39.7145,-7.1979" stroke="#5E6CFF" stroke-width="2.0"/>
			<polyline fill="none" opacity="0.8" points="39.7145,-7.1979 39.6818,-7.1682" stroke="#5E6CFF" stroke-width="2.0"/>
			<polyline fill="none" opacity="0.8" points="39.6818,-7.1682 39.6521,-7.1355" stroke="#5E6CFF" stroke-width="2.0"/>
			<polyline fill="none" opacity="0.8" points="39.6521,-7.1355 39.6258,-7.1" stroke="#5E6CFF" stroke-width="2.0"/>
			<polyline fill="none" opacity="0.8" points="39.6258,-7.1 39.6031,-7.0621" stroke="#5E6CFF" stroke-width="2.0"/>
			<polyline fill="none" opacity="0.8" points="39.6031,-7.0621 39.5843,-7.0222" stroke="#5E6CFF" stroke-width="2.0"/>
			<polyline fill="none" opacity="0.8" points="39.5843,-7.0222 39.5694,-6.9806" stroke="#5E6CFF" stroke-width="2.0"/>
			<polyline fill="none" opacity="0.8" points="39.5694,-6.9806 39.5586,-6.9378" stroke="#5E6CFF" stroke-width="2.0"/>
			<polyline fill="none" opacity="0.8" points="39.5586,-6.9378 39.5522,-6.8941" stroke="#5E6CFF" stroke-width="2.0"/>
			<polyline fill="none" opacity="0.8" points="39.5522,-6.8941 39.55,-6.85" stroke="#5E6CFF" stroke-width="2.0"/>
			<polyline fill="none" opacity="0.8" points="39.55,-6.85 39.5522,-6.8059" stroke="#5E6CFF" stroke-width="2.0"/>
			<polyline fill="none" opacity="0.8" points="39.5522,-6.8059 39.5586,-6.7622" stroke="#5E6CFF" stroke-width="2.0"/>
			<polyline fill="none" opacity="0.8" points="39.5586,-6.7622 39.5694,-6.7194" stroke="#5E6CFF" stroke-width="2.0"/>
			<polyline fill="none" opacity="0.8" points="39.5694,-6.7194 39.5843,-6.6778" stroke="#5E6CFF" stroke-width="2.0"/>
			<polyline fill="none" opacity="0.8" points="39.5843,-6.6778 39.6031,-6.6379" stroke="#5E6CFF" stroke-width="2.0"/>
			<polyline fill="none" opacity="0.8" points="39.6031,-6.6379 39.6258,-6.6" stroke="#5E6CFF" stroke-width="2.0"/>
			<polyline fill="none" opacity="0.8" points="39.6258,-6.6 39.6521,-6.5645" stroke="#5E6CFF" stroke-width="2.0"/>
			<polyline fill="none" opacity="0.8" points="39.6521,-6.5645 39.6818,-6.5318" stroke="#5E6CFF" stroke-width="2.0"/>
			<polyline fill="none" opacity="0.8" points="39.6818,-6.5318 39.7145,-6.5021" stroke="#5E6CFF" stroke-width="2.0"/>
			<polyline fill="none" opacity="0.8" points="39.7145,-6.5021 39.75,-6.4758" stroke="#5E6CFF" stroke-width="2.0"/>
			<polyline fill="none" opacity="0.8" points="39.75,-6.4758 39.7879,-6.4531" stroke="#5E6CFF" stroke-width="2.0"/>
			<polyline fill="none" opacity="0.8" points="39.7879,-6.4531 39.8278,-6.4343" stroke="#5E6CFF" stroke-width="2.0"/>
			<polyline fill="none" opacity="0.8" points="39.8278,-6.4343 39.8694,-6.4194" stroke="#5E6CFF" stroke-width="2.0"/>
			<polyline fill="none" opacity="0.8" points="39.8694,-6.4194 39.9122,-6.4086" stroke="#5E6CFF" stroke-width="2.0"/>
			<polyline fill="none" opacity="0.8" points="39.9122,-6.4086 39.9559,-6.4022" stroke="#5E6CFF" stroke-width="2.0"/>
			<polyline fill="none" opacity="0.8" points="39.9559,-6.4022 40.0,-6.4" stroke="#5E6CFF" stroke-width="2.0"/>
			<polyline fill="none" opacity="0.8" points="40.0,-6.4 40.0441,-6.4022" stroke="#5E6CFF" stroke-width="2.0"/>
			<polyline fill="none" opacity="0.8" points="40.0441,-6.4022 40.0878,-6.4086" stroke="#5E6CFF" stroke-width="2.0"/>
			<polyline fill="none" opacity="0.8" points="40.0878,-6.4086 40.1306,-6.4194" stroke="#5E6CFF" stroke-width="2.0"/>
			<polyline fill="none" opacity="0.8" points="40.1306,-6.4194 40.1722,-6.4343" stroke="#5E6CFF" stroke-width="2.0"/>
			<polyline fill="none" opacity="0.8" points="40.1722,-6.4343 40.2121,-6.4531" stroke="#5E6CFF" stroke-width="2.0"/>
			<polyline fill="none" opacity="0.8" points="40.2121,-6.4531 40.25,-6.4758" stroke="#5E6CFF" stroke-width="2.0"/>
			<polyline fill="none" opacity="0.8" points="40.25,-6.4758 40.2855,-6.5021" stroke="#5E6CFF" stroke-width="2.0"/>
			<polyline fill="none" opacity="0.8" points="40.2855,-6.5021 40.3182,-6.5318" stroke="#5E6CFF" stroke-width="2.0"/>
			<polyline fill="none" opacity="0.8" points="40.3182,-6.5318 40.3479,-6.5645" stroke="#5E6CFF" stroke-width="2.0"/>
			<polyline fill="none" opacity="0.8" points="40.3479,-6.5645 40.3742,-6.6" stroke="#5E6CFF" stroke-width="2.0"/>
			<polyline fill="none" opacity="0.8" points="40.3742,-6.6 40.3969,-6.6379" stroke="#5E6CFF" stroke-width="2.0"/>
			<polyline fill="none" opacity="0.8" points="40.3969,-6.6379 40.4157,-6.6778" stroke="#5E6CFF" stroke-width="2.0"/>
			<polyline fill="none" opacity="0.8" points="40.4157,-6.6778 40.4306,-6.7194" stroke="#5E6CFF" stroke-width="2.0"/>
			<polyline fill="none" opacity="0.8" points="40.4306,-6.7194 40.4414,-6.7622" stroke="#5E6CFF" stroke-width="2.0"/>
			<polyline fill="none" opacity="0.8" points="40.4414,-6.7622 40.4478,-6.8059" stroke="#5E6CFF" stroke-width="2.0"/>
			<polyline fill="none" opacity="0.8" points="40.4478,-6.8059 40.45,-6.85" stroke="#5E6CFF" stroke-width="2.0"/>
			<polyline fill="none" opacity="0.8" points="40.45,50.0 40.4478,49.9559" stroke="#5E6CFF" stroke-width="2.0"/>
			<polyline fill="none" opacity="0.8" points="40.4478,49.9559 40.4414,49.9122" stroke="#5E6CFF" stroke-width="2.0"/>
			<polyline fill="none" opacity="0.8" points="40.4414,49.9122 40.4306,49.8694" stroke="#5E6CFF" stroke-width="2.0"/>
			<polyline fill="none" opacity="0.8" points="40.4306,49.8694 40.4157,49.8278" stroke="#5E6CFF" stroke-width="2.0"/>
			<polyline fill="none" opacity="0.8" points="40.4157,49.8278 40.3969,49.7879" stroke="#5E6CFF" stroke-width="2.0"/>
			<polyline fill="none" opacity="0.8" points="40.3969,49.7879 40.3742,49.75" stroke="#5E6CFF" stroke-width="2.0"/>
			<polyline fill="none" opacity="0.8" points="40.3742,49.75 40.3479,49.7145" stroke="#5E6CFF" stroke-width="2.0"/>
			<polyline fill="none" opacity="0.8" points="40.3479,49.7145 40.3182,49.6818" stroke="#5E6CFF" stroke-width="2.0"/>
			<polyline fill="none" opacity="0.8" points="40.3182,49.6818 40.2855,49.6521" stroke="#5E6CFF" stroke-width="2.0"/>
			<polyline fill="none" opacity="0.8" points="40.2855,49.6521 40.25,49.6258" stroke="#5E6CFF" stroke-width="2.0"/>
			<polyline fill="none" opacity="0.8" points="40.25,49.6258 40.2121,49.6031" stroke="#5E6CFF" stroke-width="2.0"/>
			<polyline fill="none" opacity="0.8" points="40.2121,49.6031 40.1722,49.5843" stroke="#5E6CFF" stroke-width="2.0"/>
			<polyline fill="none" opacity="0.8" points="40.1722,49.5843 40.1306,49.5694" stroke="#5E6CFF" stroke-width="2.0"/>
			<polyline fill="none" opacity="0.8" points="40.1306,49.5694 40.0878,49.5586" stroke="#5E6CFF" stroke-width="2.0"/>
			<polyline fill="none" opacity="0.8" points="40.0878,49.5586 40.0441,49.5522" stroke="#5E6CFF" stroke-width="2.0"/>
			<polyline fill="none" opacity="0.8" points="40.0441,49.5522 40.0,49.55" stroke="#5E6CFF" stroke-width="2.0"/>
			<polyline fill="none" opacity="0.8" points="40.0,49.55 39.9559,49.5522" stroke="#5E6CFF" stroke-width="2.0"/>
			<polyline fill="none" opacity="0.8" points="39.9559,49.5522 39.9122,49.5586" stroke="#5E6CFF" stroke-width="2.0"/>
			<polyline fill="none" opacity="0.8" points="39.9122,49.5586 39.8694,49.5694" stroke="#5E6CFF" stroke-width="2.0"/>
			<polyline fill="none" opacity="0.8" points="39.8694,49.5694 39.8278,49.5843" stroke="#5E6CFF" stroke-width="2.0"/>
			<polyline fill="none" opacity="0.8" points="39.8278,49.5843 39.7879,49.6031" stroke="#5E6CFF" stroke-width="2.0"/>
			<polyline fill="none" opacity="0.8" points="39.7879,49.6031 39.75,49.6258" stroke="#5E6CFF" stroke-width="2.0"/>
			<polyline fill="none" opacity="0.8" points="39.75,49.6258 39.7145,49.6521" stroke="#5E6CFF" stroke-width="2.0"/>
			<polyline fill="none" opacity="0.8" points="39.7145,49.6521 39.6818,49.6818" stroke="#5E6CFF" stroke-width="2.0"/>
			<polyline fill="none" opacity="0.8" points="39.6818,49.6818 39.6521,49.7145" stroke="#5E6CFF" stroke-width="2.0"/>
			<polyline fill="none" opacity="0.8" points="39.6521,49.7145 39.6258,49.75" stroke="#5E6CFF" stroke-width="2.0"/>
			<polyline fill="none" opacity="0.8" points="39.6258,49.75 39.6031,49.7879" stroke="#5E6CFF" stroke-width="2.0"/>
			<polyline fill="none" opacity="0.8" points="39.6031,49.7879 39.5843,49.8278" stroke="#5E6CFF" stroke-width="2.0"/>
			<polyline fill="none" opacity="0.8" points="39.5843,49.8278 39.5694,49.8694" stroke="#5E6CFF" stroke-width="2.0"/>
			<polyline fill="none" opacity="0.8" points="39.5694,49.8694 39.5586,49.9122" stroke="#5E6CFF" stroke-width="2.0"/>
			<polyline fill="none" opacity="0.8" points="39.5586,49.9122 39.5522,49.9559" stroke="#5E6CFF" stroke-width="2.0"/>
			<polyline fill="none" opacity="0.8" points="39.5522,49.9559 39.55,50.0" stroke="#5E6CFF" stroke-width="2.0"/>
			<polyline fill="none" opacity="0.8" points="39.55,50.0 39.5522,50.0441" stroke="#5E6CFF" stroke-width="2.0"/>
			<polyline fill="none" opacity="0.8" points="39.5522,50.0441 39.5586,50.0878" stroke="#5E6CFF" stroke-width="2.0"/>
			<polyline fill="none" opacity="0.8" points="39.5586,50.0878 39.5694,50.1306" stroke="#5E6CFF" stroke-width="2.0"/>
			<polyline fill="none" opacity="0.8" points="39.5694,50.1306 39.5843,50.1722" stroke="#5E6CFF" stroke-width="2.0"/>
			<polyline fill="none" opacity="0.8" points="39.5843,50.1722 39.6031,50.2121" stroke="#5E6CFF" stroke-width="2.0"/>
			<polyline fill="none" opacity="0.8" points="39.6031,50.2121 39.6258,50.25" stroke="#5E6CFF" stroke-width="2.0"/>
			<polyline fill="none" opacity="0.8" points="39.6258,50.25 39.6521,50.2855" stroke="#5E6CFF" stroke-width="2.0"/>
			<polyline fill="none" opacity="0.8" points="39.6521,50.2855 39.6818,50.3182" stroke="#5E6CFF" stroke-width="2.0"/>
			<polyline fill="none" opacity="0.8" points="39.6818,50.3182 39.7145,50.3479" stroke="#5E6CFF" stroke-width="2.0"/>
			<polyline fill="none" opacity="0.8" points="39.7145,50.3479 39.75,50.3742" stroke="#5E6CFF" stroke-width="2.0"/>
			<polyline fill="none" opacity="0.8" points="39.75,50.3742 39.7879,50.3969" stroke="#5E6CFF" stroke-width="2.0"/>
			<polyline fill="none" opacity="0.8" points="39.7879,50.3969 39.8278,50.4157" stroke="#5E6CFF" stroke-width="2.0"/>
			<polyline fill="none" opacity="0.8" points="39.8278,50.4157 39.8694,50.4306" stroke="#5E6CFF" stroke-width="2.0"/>
			<polyline fill="none" opacity="0.8" points="39.8694,50.4306 39.9122,50.4414" stroke="#5E6CFF" stroke-width="2.0"/>
			<polyline fill="none" opacity="0.8" points="39.9122,50.4414 39.9559,50.4478" stroke="#5E6CFF" stroke-width="2.0"/>
			<polyline fill="none" opacity="0.8" points="39.9559,50.4478 40.0,50.45" stroke="#5E6CFF" stroke-width="2.0"/>
			<polyline fill="none" opacity="0.8" points="40.0,50.45 40.0441,50.4478" stroke="#5E6CFF" stroke-width="2.0"/>
			<polyline fill="none" opacity="0.8" points="40.0441,50.4478 40.0878,50.4414" stroke="#5E6CFF" stroke-width="2.0"/>
			<polyline fill="none" opacity="0.8" points="40.0878,50.4414 40.1306,50.4306" stroke="#5E6CFF" stroke-width="2.0"/>
			<polyline fill="none" opacity="0.8" points="40.1306,50.4306 40.1722,50.4157" stroke="#5E6CFF" stroke-width="2.0"/>
			<polyline fill="none" opacity="0.8" points="40.1722,50.4157 40.2121,50.3969" stroke="#5E6CFF" stroke-width="2.0"/>
			<polyline fill="none" opacity="0.8" points="40.2121,50.3969 40.25,50.3742" stroke="#5E6CFF" stroke-width="2.0"/>
			<polyline fill="none" opacity="0.8" points="40.25,50.3742 40.2855,50.3479" stroke="#5E6CFF" stroke-width="2.0"/>
			<polyline fill="none" opacity="0.8" points="40.2855,50.3479 40.3182,50.3182" stroke="#5E6CFF" stroke-width="2.0"/>
			<polyline fill="none" opacity="0.8" points="40.3182,50.3182 40.3479,50.2855" stroke="#5E6CFF" stroke-width="2.0"/>
			<polyline fill="none" opacity="0.8" points="40.3479,50.2855 40.3742,50.25" stroke="#5E6CFF" stroke-width="2.0"/>
			<polyline fill="none" opacity="0.8" points="40.3742,50.25 40.3969,50.2121" stroke="#5E6CFF" stroke-width="2.0"/>
			<polyline fill="none" opacity="0.8" points="40.3969,50.2121 40.4157,50.1722" stroke="#5E6CFF" stroke-width="2.0"/>
			<polyline fill="none" opacity="0.8" points="40.4157,50.1722 40.4306,50.1306" stroke="#5E6CFF" stroke-width="2.0"/>
			<polyline fill="none" opacity="0.8" points="40.4306,50.1306 40.4414,50.0878" stroke="#5E6CFF" stroke-width="2.0"/>
			<polyline fill="none" opacity="0.8" points="40.4414,50.0878 40.4478,50.0441" stroke="#5E6CFF" stroke-width="2.0"/>
			<polyline fill="none" opacity="0.8" points="40.4478,50.0441 40.45,50.0" stroke="#5E6CFF" stroke-width="2.0"/>
			<polyline fill="none" opacity="0.8" points="0.45,50.0 0.4478,49.9559" stroke="#5E6CFF" stroke-width="2.0"/>
			<polyline fill="none" opacity="0.8" points="0.4478,49.9559 0.4414,49.9122" stroke="#5E6CFF" stroke-width="2.0"/>
			<polyline fill="none" opacity="0.8" points="0.4414,49.9122 0.4306,49.8694" stroke="#5E6CFF" stroke-width="2.0"/>
			<polyline fill="none" opacity="0.8" points="0.4306,49.8694 0.4157,49.8278" stroke="#5E6CFF" stroke-width="2.0"/>
			<polyline fill="none" opacity="0.8" points="0.4157,49.8278 0.3969,49.7879" stroke="#5E6CFF" stroke-width="2.0"/>
			<polyline fill="none" opacity="0.8" points="0.3969,49.7879 0.3742,49.75" stroke="#5E6CFF" stroke-width="2.0"/>
			<polyline fill="none" opacity="0.8" points="0.3742,49.75 0.3479,49.7145" stroke="#5E6CFF" stroke-width="2.0"/>
			<polyline fill="none" opacity="0.8" points="0.3479,49.7145 0.3182,49.6818" stroke="#5E6CFF" stroke-width="2.0"/>
			<polyline fill="none" opacity="0.8" points="0.3182,49.6818 0.2855,49.6521" stroke="#5E6CFF" stroke-width="2.0"/>
			<polyline fill="none" opacity="0.8" points="0.2855,49.6521 0.25,49.6258" stroke="#5E6CFF" stroke-width="2.0"/>
			<polyline fill="none" opacity="0.8" points="0.25,49.6258 0.2121,49.6031" stroke="#5E6CFF" stroke-width="2.0"/>
			<polyline fill="none" opacity="0.8" points="0.2121,49.6031 0.1722,49.5843" stroke="#5E6CFF" stroke-width="2.0"/>
			<polyline fill="none" opacity="0.8" points="0.1722,49.5843 0.1306,49.5694" stroke="#5E6CFF" stroke-width="2.0"/>
			<polyline fill="none" opacity="0.8" points="0.1306,49.5694 0.0878,49.5586" stroke="#5E6CFF" stroke-width="2.0"/>
			<polyline fill="none" opacity="0.8" points="0.0878,49.5586 0.0441,49.5522" stroke="#5E6CFF" stroke-width="2.0"/>
			<polyline fill="none" opacity="0.8" points="0.0441,49.5522 0.0,49.55" stroke="#5E6CFF" stroke-width="2.0"/>
			<polyline fill="none" opacity="0.8" points="0.0,49.55 -0.0441,49.5522" stroke="#5E6CFF" stroke-width="2.0"/>
			<polyline fill="none" opacity="0.8" points="-0.0441,49.5522 -0.0878,49.5586" stroke="#5E6CFF" stroke-width="2.0"/>
			<polyline fill="none" opacity="0.8" points="-0.0878,49.5586 -0.1306,49.5694" stroke="#5E6CFF" stroke-width="2.0"/>
			<polyline fill="none" opacity="0.8" points="-0.1306,49.5694 -0.1722,49.5843" stroke="#5E6CFF" stroke-width="2.0"/>
			<polyline fill="none" opacity="0.8" points="-0.1722,49.5843 -0.2121,49.6031" stroke="#5E6CFF" stroke-width="2.0"/>
			<polyline fill="none" opacity="0.8" points="-0.2121,49.6031 -0.25,49.6258" stroke="#5E6CFF" stroke-width="2.0"/>
			<polyline fill="none" opacity="0.8" points="-0.25,49.6258 -0.2855,49.6521" stroke="#5E6CFF" stroke-width="2.0"/>
			<polyline fill="none" opacity="0.8" points="-0.2855,49.6521 -0.3182,49.6818" stroke="#5E6CFF" stroke-width="2.0"/>
			<polyline fill="none" opacity="0.8" points="-0.3182,49.6818 -0.3479,49.7145" stroke="#5E6CFF" stroke-width="2.0"/>
			<polyline fill="none" opacity="0.8" points="-0.3479,49.7145 -0.3742,49.75" stroke="#5E6CFF" stroke-width="2.0"/>
			<polyline fill="none" opacity="0.8" points="-0.3742,49.75 -0.3969,49.7879" stroke="#5E6CFF" stroke-width="2.0"/>
			<polyline fill="none" opacity="0.8" points="-0.3969,49.7879 -0.4157,49.8278" stroke="#5E6CFF" stroke-width="2.0"/>
			<polyline fill="none" opacity="0.8" points="-0.4157,49.8278 -0.4306,49.8694" stroke="#5E6CFF" stroke-width="2.0"/>
			<polyline fill="none" opacity="0.8" points="-0.4306,49.8694 -0.4414,49.9122" stroke="#5E6CFF" stroke-width="2.0"/>
			<polyline fill="none" opacity="0.8" points="-0.4414,49.9122 -0.4478,49.9559" stroke="#5E6CFF" stroke-width="2.0"/>
			<polyline fill="none" opacity="0.8" points="-0.4478,49.9559 -0.45,50.0" stroke="#5E6CFF" stroke-width="2.0"/>
			<polyline fill="none" opacity="0.8" points="-0.45,50.0 -0.4478,50.0441" stroke="#5E6CFF" stroke-width="2.0"/>
			<polyline fill="none" opacity="0.8" points="-0.4478,50.0441 -0.4414,50.0878" stroke="#5E6CFF" stroke-width="2.0"/>
			<polyline fill="none" opacity="0.8" points="-0.4414,50.0878 -0.4306,50.1306" stroke="#5E6CFF" stroke-width="2.0"/>
			<polyline fill="none" opacity="0.8" points="-0.4306,50.1306 -0.4157,50.1722" stroke="#5E6CFF" stroke-width="2.0"/>
			<polyline fill="none" opacity="0.8" points="-0.4157,50.1722 -0.3969,50.2121" stroke="#5E6CFF" stroke-width="2.0"/>
			<polyline fill="none" opacity="0.8" points="-0.3969,50.2121 -0.3742,50.25" stroke="#5E6CFF" stroke-width="2.0"/>
			<polyline fill="none" opacity="0.8" points="-0.3742,50.25 -0.3479,50.2855" stroke="#5E6CFF" stroke-width="2.0"/>
			<polyline fill="none" opacity="0.8" points="-0.3479,50.2855 -0.3182,50.3182" stroke="#5E6CFF" stroke-width="2.0"/>
			<polyline fill="none" opacity="0.8" points="-0.3182,50.3182 -0.2855,50.3479" stroke="#5E6CFF" stroke-width="2.0"/>
			<polyline fill="none" opacity="0.8" points="-0.2855,50.3479 -0.25,50.3742" stroke="#5E6CFF" stroke-width="2.0"/>
			<polyline fill="none" opacity="0.8" points="-0.25,50.3742 -0.2121,50.3969" stroke="#5E6CFF" stroke-width="2.0"/>
			<polyline fill="none" opacity="0.8" points="-0.2121,50.3969 -0.1722,50.4157" stroke="#5E6CFF" stroke-width="2.0"/>
			<polyline fill="none" opacity="0.8" points="-0.1722,50.4157 -0.1306,50.4306" stroke="#5E6CFF" stroke-width="2.0"/>
			<polyline fill="none" opacity="0.8" points="-0.1306,50.4306 -0.0878,50.4414" stroke="#5E6CFF" stroke-width="2.0"/>
			<polyline fill="none" opacity="0.8" points="-0.0878,50.4414 -0.0441,50.4478" stroke="#5E6CFF" stroke-width="2.0"/>
			<polyline fill="none" opacity="0.8" points="-0.0441,50.4478 -0.0,50.45" stroke="#5E6CFF" stroke-width="2.0"/>
			<polyline fill="none" opacity="0.8" points="-0.0,50.45 0.0441,50.4478" stroke="#5E6CFF" stroke-width="2.0"/>
			<polyline fill="none" opacity="0.8" points="0.0441,50.4478 0.0878,50.4414" stroke="#5E6CFF" stroke-width="2.0"/>
			<polyline fill="none" opacity="0.8" points="0.0878,50.4414 0.1306,50.4306" stroke="#5E6CFF" stroke-width="2.0"/>
			<polyline fill="none" opacity="0.8" points="0.1306,50.4306 0.1722,50.4157" stroke="#5E6CFF" stroke-width="2.0"/>
			<polyline fill="none" opacity="0.8" points="0.1722,50.4157 0.2121,50.3969" stroke="#5E6CFF" stroke-width="2.0"/>
			<polyline fill="none" opacity="0.8" points="0.2121,50.3969 0.25,50.3742" stroke="#5E6CFF" stroke-width="2.0"/>
			<polyline fill="none" opacity="0.8" points="0.25,50.3742 0.2855,50.3479" stroke="#5E6CFF" stroke-width="2.0"/>
			<polyline fill="none" opacity="0.8" points="0.2855,50.3479 0.3182,50.3182" stroke="#5E6CFF" stroke-width="2.0"/>
			<polyline fill="none" opacity="0.8" points="0.3182,50.3182 0.3479,50.2855" stroke="#5E6CFF" stroke-width="2.0"/>
			<polyline fill="none" opacity="0.8" points="0.3479,50.2855 0.3742,50.25" stroke="#5E6CFF" stroke-width="2.0"/>
			<polyline fill="none" opacity="0.8" points="0.3742,50.25 0.3969,50.2121" stroke="#5E6CFF" stroke-width="2.0"/>
			<polyline fill="none" opacity="0.8" points="0.3969,50.2121 0.4157,50.1722" stroke="#5E6CFF" stroke-width="2.0"/>
			<polyline fill="none" opacity="0.8" points="0.4157,50.1722 0.4306,50.1306" stroke="#5E6CFF" stroke-width="2.0"/>
			<polyline fill="none" opacity="0.8" points="0.4306,50.1306 0.4414,50.0878" stroke="#5E6CFF" stroke-width="2.0"/>
			<polyline fill="none" opacity="0.8" points="0.4414,50.0878 0.4478,50.0441" stroke="#5E6CFF" stroke-width="2.0"/>
			<polyline fill="none" opacity="0.8" points="0.4478,50.0441 0.45,50.0" stroke="#5E6CFF" stroke-width="2.0"/>
		</g>
	</g>
	 
</svg>
